<?xml version="1.0" encoding="UTF-8"?>
<svg xmlns="http://www.w3.org/2000/svg" viewBox="0 0 1364.81 683.89">
  <defs>
    <style>
      .cls-1 {
        font-size: 36px;
      }

      .cls-1, .cls-2 {
        font-family: AdobeMyungjoStd-Medium-KSCpc-EUC-H, 'Adobe Myungjo Std';
        font-weight: 500;
      }

      .cls-3 {
        fill: none;
        stroke: #000;
        stroke-miterlimit: 10;
      }

      .cls-2 {
        font-size: 26.33px;
      }
    </style>
  </defs>
  <g id="_레이어_2" data-name="레이어 2">
    <polyline class="cls-3" points="56.42 578.66 56.42 249.16 136.92 249.16"/>
    <line class="cls-3" x1="136.92" y1="440.41" x2="136.92" y2="578.66"/>
    <line class="cls-3" x1="1215.42" y1="448.16" x2="1215.42" y2="578.66"/>
    <polyline class="cls-3" points="1215.92 162.66 1288.92 162.66 1288.92 578.66"/>
    <text class="cls-1" transform="translate(193.92 389.66)"><tspan x="0" y="0">308</tspan></text>
    <text class="cls-2" transform="translate(152.59 174.16)"><tspan x="0" y="0">여자</tspan><tspan x="-13.17" y="31.6">화장실</tspan></text>
    <text class="cls-2" transform="translate(64.92 460.16)"><tspan x="0" y="0">계단</tspan></text>
    <text class="cls-2" transform="translate(1224.92 460.16)"><tspan x="0" y="0">계단</tspan></text>
    <text class="cls-2" transform="translate(1141.59 174.16)"><tspan x="0" y="0">남자</tspan><tspan x="-13.17" y="31.6">화장실</tspan></text>
    <text class="cls-1" transform="translate(283.92 187.66)"><tspan x="0" y="0">312</tspan></text>
    <text class="cls-1" transform="translate(512.92 187.66)"><tspan x="0" y="0">313</tspan></text>
    <text class="cls-1" transform="translate(732.92 187.66)"><tspan x="0" y="0">314</tspan></text>
    <text class="cls-1" transform="translate(859.92 156.66)"><tspan x="0" y="0">316</tspan></text>
    <text class="cls-1" transform="translate(875.92 236.66)"><tspan x="0" y="0">315</tspan></text>
    <text class="cls-1" transform="translate(1030.92 236.66)"><tspan x="0" y="0">319</tspan></text>
    <text class="cls-1" transform="translate(951.92 156.66)"><tspan x="0" y="0">317</tspan></text>
    <text class="cls-1" transform="translate(1050.92 156.66)"><tspan x="0" y="0">318</tspan></text>
    <text class="cls-1" transform="translate(371.92 389.66)"><tspan x="0" y="0">307</tspan></text>
    <text class="cls-1" transform="translate(549.92 389.66)"><tspan x="0" y="0">306</tspan></text>
    <text class="cls-1" transform="translate(733.92 389.66)"><tspan x="0" y="0">305</tspan></text>
    <text class="cls-1" transform="translate(859.92 389.66)"><tspan x="0" y="0">304</tspan></text>
    <text class="cls-1" transform="translate(951.92 389.66)"><tspan x="0" y="0">303</tspan></text>
    <text class="cls-1" transform="translate(1042.92 389.66)"><tspan x="0" y="0">302</tspan></text>
    <text class="cls-1" transform="translate(1134.92 389.66)"><tspan x="0" y="0">301</tspan></text>
  </g>
  <g id="_308" data-name="308">
    <polygon class="cls-3" points="315.92 440.41 136.92 440.41 136.92 302.16 154.92 302.16 170.92 302.16 296.92 302.16 308.92 302.16 316.42 302.16 315.92 440.41"/>
  </g>
  <g id="_307" data-name="307">
    <polygon class="cls-3" points="494.92 440.41 315.92 440.41 316.42 440.41 316.42 302.16 323.92 302.16 341.92 302.16 472.92 302.16 486.92 302.16 494.92 302.16 494.92 440.41"/>
  </g>
  <g id="_306" data-name="306">
    <polygon class="cls-3" points="676.42 520.66 494.92 520.66 494.92 440.41 494.92 302.16 502.92 302.16 522.92 302.16 650.42 302.16 667.92 302.16 676.42 302.16 676.42 520.66"/>
  </g>
  <g id="_305" data-name="305">
    <polygon class="cls-3" points="852.92 448.66 852.92 520.66 676.42 520.66 676.42 302.16 682.41 302.16 701.92 302.16 828.92 302.16 845.92 302.16 852.92 302.16 852.92 448.66"/>
  </g>
  <g id="_304" data-name="304">
    <polygon class="cls-3" points="938.42 448.66 852.92 448.66 852.92 302.16 859.92 302.16 875.92 302.16 938.42 302.16 938.42 448.66"/>
  </g>
  <g id="_303" data-name="303">
    <polygon class="cls-3" points="1030.42 448.66 938.42 448.66 938.42 302.16 1000.92 302.16 1022.92 302.16 1030.42 302.16 1030.42 448.66"/>
  </g>
  <g id="_302" data-name="302">
    <polygon class="cls-3" points="1117.92 448.66 1030.42 448.66 1030.42 302.16 1037.92 302.16 1056.92 302.16 1117.92 302.16 1117.92 448.66"/>
  </g>
  <g id="_301" data-name="301">
    <polygon class="cls-3" points="1215.92 302.16 1199.92 302.16 1178.92 302.16 1117.92 302.16 1117.92 448.66 1215.92 448.66 1215.92 302.16"/>
  </g>
  <g id="_남자화장실" data-name="남자화장실">
    <polygon class="cls-3" points="1125.92 249.16 1139.92 249.16 1164.92 249.16 1215.92 249.16 1215.92 99.16 1125.92 99.16 1125.92 249.16"/>
  </g>
  <g id="_319" data-name="319">
    <polyline class="cls-3" points="1125.92 249.16 1111.92 249.16 1085.92 249.16 1000.92 249.16 1000.92 195.66 1043.42 195.66 1125.92 195.66 1125.92 249.16"/>
  </g>
  <g id="_318" data-name="318">
    <polygon class="cls-3" points="1043.42 99.16 1125.92 99.16 1125.92 195.66 1043.42 195.66 1043.42 174.16 1043.42 99.16"/>
  </g>
  <g id="_317" data-name="317">
    <polygon class="cls-3" points="1043.42 174.16 1043.42 99.16 938.42 99.16 938.42 174.16 992.92 174.16 1043.42 174.16"/>
  </g>
  <g id="_316" data-name="316">
    <polygon class="cls-3" points="938.42 195.66 938.42 174.16 938.42 99.16 855.42 99.16 855.42 195.66 938.42 195.66"/>
  </g>
  <g id="_315" data-name="315">
    <polygon class="cls-3" points="855.42 249.16 868.92 249.16 888.92 249.16 967.92 249.16 967.92 195.66 855.42 195.66 855.42 249.16"/>
  </g>
  <g id="_314" data-name="314">
    <polygon class="cls-3" points="676.42 249.16 821.92 249.16 841.92 249.16 855.42 249.16 855.42 99.16 676.42 99.16 676.42 249.16"/>
  </g>
  <g id="_313" data-name="313">
    <polygon class="cls-3" points="410.92 249.16 424.92 249.16 448.92 249.16 631.92 249.16 660.92 249.16 676.42 249.16 676.42 99.16 410.92 99.16 410.92 249.16"/>
  </g>
  <g id="_312" data-name="312">
    <polygon class="cls-3" points="224.92 249.16 241.92 249.16 267.92 249.16 371.42 249.16 396.92 249.16 410.92 249.16 410.92 99.16 224.92 99.16 224.92 249.16"/>
  </g>
  <g id="_여자화장실" data-name="여자화장실">
    <polygon class="cls-3" points="136.92 249.16 162.92 249.16 177.92 249.16 224.92 249.16 224.92 99.16 136.92 99.16 136.92 249.16"/>
  </g>
</svg>