<?xml version="1.0" encoding="UTF-8"?>
<svg xmlns="http://www.w3.org/2000/svg" viewBox="0 0 670.03 660.66">
  <defs>
    <style>
      .cls-1 {
        fill: none;
      }

      .cls-1, .cls-2 {
        stroke: #000;
        stroke-miterlimit: 10;
      }

      .cls-3 {
        font-size: 15.59px;
      }

      .cls-3, .cls-4 {
        font-family: AdobeMyungjoStd-Medium-KSCpc-EUC-H, 'Adobe Myungjo Std';
        font-weight: 500;
      }

      .cls-4 {
        font-size: 29.47px;
      }

      .cls-2 {
        fill: #fff;
      }
    </style>
  </defs>
  <g id="_레이어_2" data-name="레이어 2">
    <line class="cls-2" x1="100.51" y1="0" x2="100.51" y2="221.24"/>
    <path class="cls-1" d="m341.51,160.31v-88.31c-54.71-3.2-109.42,3.82-164.14,21.06V0"/>
    <path class="cls-1" d="m100.6,221.37C38.49,264.86,1.29,329.64.51,410c-.45,46.23,15.7,89.23,44.72,126.07"/>
    <path class="cls-1" d="m210.51,177c36.75-11.94,78.17-17.91,125-17,202.26.88,332.1,106.81,334,250,1.96,147.76-143.88,254.95-334.5,250-111.84-2.9-207.28-40.84-267.24-98.99"/>
    <line class="cls-1" x1="95.53" y1="225.01" x2="145.09" y2="260.26"/>
    <line class="cls-1" x1="162.51" y1="281" x2="224.51" y2="252"/>
    <line class="cls-1" x1="646.88" y1="314.44" x2="607.88" y2="341.53"/>
    <line class="cls-1" x1="468.77" y1="589.8" x2="501.23" y2="632.51"/>
    <line class="cls-1" x1="37.02" y1="525" x2="89.37" y2="489.87"/>
    <line class="cls-1" x1="124.45" y1="531.94" x2="108.51" y2="547"/>
    <line class="cls-1" x1="87.51" y1="561" x2="77.35" y2="569.85"/>
    <line class="cls-1" x1="191.33" y1="578.75" x2="185.28" y2="590"/>
    <line class="cls-1" x1="173.51" y1="618" x2="169.2" y2="626.16"/>
    <line class="cls-1" x1="507.71" y1="191.77" x2="501.23" y2="202.25"/>
    <line class="cls-1" x1="598.11" y1="508.07" x2="630.05" y2="536.07"/>
    <text class="cls-4" transform="translate(108.84 52.14)"><tspan x="0" y="0">계단</tspan></text>
    <text class="cls-4" transform="translate(190.84 140.14)"><tspan x="0" y="0">계단</tspan></text>
    <text class="cls-3" transform="translate(181.84 252.92)"><tspan x="0" y="0">계단</tspan></text>
    <text class="cls-4" transform="translate(162.84 410.14)"><tspan x="0" y="0">121</tspan></text>
    <text class="cls-4" transform="translate(312.84 289.14)"><tspan x="0" y="0">122</tspan></text>
    <text class="cls-4" transform="translate(481.84 419.14)"><tspan x="0" y="0">123</tspan></text>
    <text class="cls-4" transform="translate(298.84 553.14)"><tspan x="0" y="0">124</tspan></text>
  </g>
  <g id="_121" data-name="121">
    <path class="cls-1" d="m209.11,230.91c-15.68,5.21-40.59,14.65-61.57,27.79-1.23.77-2.45,1.56-2.45,1.56s-24.58,16.74-35.29,29.04c-7.07,6.15-37.12,47.54-40.3,90.7-6.82,56.84,5.61,103.92,48.75,146.02,9.01,8.79,18.16,15.33,30.21,22.58,6.17,3.71,28.67,16.97,62.6,29.73l92.44-112.62v-108.72l-94.4-126.09Z"/>
  </g>
  <g id="_124" data-name="124">
    <path class="cls-1" d="m211.01,578.5l92.5-112.78,70.58-.3,88.84,116.31c-9.13,4.41-18.74,8.2-28.78,11.37-6.97,2.2-39.24,12.28-85.57,12-8.12-.05-14.15-.4-18.16-.64-9.33-.56-42.18-2.87-83.11-14.29-13.15-3.67-25.28-7.73-36.22-11.84"/>
  </g>
  <g id="_123" data-name="123">
    <polygon class="cls-1" points="375.17 353.37 467.7 242.16 477.24 230.69 607.88 341.53 615.51 348 646.88 350.2 646.88 498.95 612.54 498.95 468.51 590 468.77 589.8 419.51 525 374.09 465.42 375.17 410.06 375.17 353.37"/>
  </g>
  <g id="_122" data-name="122">
    <path class="cls-1" d="m303.51,410.06h71.66v-56.69l92.52-111.21-.19-.16c-8.16-3.86-20.15-9.05-35.09-13.85-42.2-13.56-76.94-14.01-106.28-14.15-41.17-.2-71.26,5.39-83.95,8.05-3.65.76-9.71,2.04-17.69,4.15,0,0-6.06,1.61-15.4,4.71l94.4,126.09v53.06Z"/>
  </g>
</svg>