<?xml version="1.0" encoding="UTF-8"?>
<svg xmlns="http://www.w3.org/2000/svg" viewBox="0 0 670.03 660.66">
  <defs>
    <style>
      .cls-1 {
        fill: none;
      }

      .cls-1, .cls-2 {
        stroke: #000;
        stroke-miterlimit: 10;
      }

      .cls-3 {
        font-family: AdobeMyungjoStd-Medium-KSCpc-EUC-H, 'Adobe Myungjo Std';
        font-size: 29.47px;
        font-weight: 500;
      }

      .cls-2 {
        fill: #fff;
      }
    </style>
  </defs>
  <g id="_레이어_2" data-name="레이어 2">
    <line class="cls-2" x1="100.51" y1="0" x2="100.51" y2="221.24"/>
    <line class="cls-1" x1="177.37" y1="93.06" x2="177.37"/>
    <path class="cls-1" d="m341.51,72h0c-46.03-2.69-92.05,1.85-138.08,13.62"/>
    <path class="cls-1" d="m100.6,221.37C38.49,264.86,1.29,329.64.51,410c-.45,46.23,15.7,89.23,44.72,126.07l22.54,24.93c59.96,58.15,155.4,96.09,267.24,98.99,190.62,4.95,336.46-102.24,334.5-250-1.9-143.19-131.74-249.12-334-250-35.9-.7-68.63,2.65-98.51,9.63"/>
    <text class="cls-3" transform="translate(108.84 52.14)"><tspan x="0" y="0">입구</tspan></text>
    <text class="cls-3" transform="translate(233.84 133.14)"><tspan x="0" y="0">계단</tspan></text>
    <text class="cls-3" transform="translate(150.84 417.14)"><tspan x="0" y="0">321</tspan></text>
    <text class="cls-3" transform="translate(344.84 279.14)"><tspan x="0" y="0">323</tspan></text>
    <text class="cls-3" transform="translate(253.84 279.14)"><tspan x="0" y="0">322</tspan></text>
    <text class="cls-3" transform="translate(447.84 417.14)"><tspan x="0" y="0">324</tspan></text>
    <text class="cls-3" transform="translate(250.84 569.14)"><tspan x="0" y="0">326</tspan></text>
    <text class="cls-3" transform="translate(346.84 569.14)"><tspan x="0" y="0">325</tspan></text>
    <polyline class="cls-1" points="177.37 93.06 177.37 188.57 203.43 178.51 203.43 85.62"/>
  </g>
  <g id="_326" data-name="326">
    <path class="cls-1" d="m325.75,606.02c-2.25-.06-4.59-.15-7-.26-41.03-1.85-71.16-9.09-81.75-11.83-11.02-2.85-19.13-5.48-20.95-6.07-4.36-1.42-8.56-2.9-12.6-4.4l100.07-117.75,22.64.14-.4,140.14"/>
  </g>
  <g id="_325" data-name="325">
    <path class="cls-1" d="m443.06,592.1c-12.05,3.2-22.98,5.34-32.17,7.14-26.75,5.23-55.89,6.55-55.89,6.55-4.96.22-15.54.61-29.26.23l.4-.02s0-140.14,0-140.14l23.36.14,93.56,126.1Z"/>
  </g>
  <g id="_324" data-name="324">
    <path class="cls-1" d="m349.51,357v109l93.25,124.96.3,1.14c25.69-6.83,56.49-18.49,86.44-42.01,16.44-12.91,51.23-40.45,67.62-90.08,5.78-17.52,9.38-37.26,9.38-59.01-7.62-87.26-96.39-146.75-165.02-170.04l-91.98,126.04Z"/>
  </g>
  <g id="_323" data-name="323">
    <path class="cls-1" d="m326.15,357v-143c34.93.14,65.34,5.3,80.77,7.94,10.47,1.8,22.2,4.82,34.57,9.02l-.51,1.51-91.47,124.53h-23.36Z"/>
  </g>
  <g id="_322" data-name="322">
    <path class="cls-1" d="m326.15,357s0-143,0-143c-43.13-.17-75.13,6.2-83.95,8.05-3.99.84-9.87,2.07-17.69,4.15-5.39,1.43-10.55,2.96-15.46,4.54l94.46,126.26h22.64Z"/>
  </g>
  <g id="_321" data-name="321">
    <path class="cls-1" d="m209.03,230.69l94.47,126.31v108.72l-100.07,117.75s-35.93-14.47-64.96-33.38c-6.18-4.36-17.76-12.6-28.83-23.74-50.14-50.41-51.15-116.35-51.15-116.35s-2.07-76.87,61.81-131.2c7.27-6.19,15.51-12.47,24.78-18.54,5.53-3.62,28.21-18.03,63.96-29.52"/>
  </g>
</svg>