<?xml version="1.0" encoding="UTF-8"?>
<svg xmlns="http://www.w3.org/2000/svg" viewBox="0 0 1000.07 768">
  <defs>
    <style>
      .cls-1 {
        font-size: 45.13px;
      }

      .cls-1, .cls-2 {
        font-family: AdobeMyungjoStd-Medium-KSCpc-EUC-H, 'Adobe Myungjo Std';
        font-weight: 500;
      }

      .cls-2 {
        font-size: 34px;
      }

      .cls-3 {
        fill: none;
        stroke: #000;
        stroke-miterlimit: 10;
      }
    </style>
  </defs>
  <g id="_레이어_2" data-name="레이어 2">
    <path class="cls-3" d="m199.57,49.7v147.05c-76.01,56.24-123.07,134.15-123.07,220.25,0,171.48,186.7,310.5,417,310.5s417-139.02,417-310.5S723.8,106.5,493.5,106.5c-79.91,0-154.57,16.74-218,45.76V49.7"/>
    <text class="cls-1" transform="translate(233.41 436.26)"><tspan x="0" y="0">229</tspan></text>
    <text class="cls-1" transform="translate(282.41 551.26)"><tspan x="0" y="0">228</tspan></text>
    <text class="cls-1" transform="translate(458.41 595.26)"><tspan x="0" y="0">227</tspan></text>
    <text class="cls-1" transform="translate(632.41 551.26)"><tspan x="0" y="0">226</tspan></text>
    <text class="cls-1" transform="translate(693.41 437.26)"><tspan x="0" y="0">225</tspan></text>
    <text class="cls-1" transform="translate(648.41 318.26)"><tspan x="0" y="0">224</tspan></text>
    <text class="cls-1" transform="translate(512.41 264.26)"><tspan x="0" y="0">223</tspan></text>
    <text class="cls-1" transform="translate(393.41 270.26)"><tspan x="0" y="0">222</tspan></text>
    <text class="cls-1" transform="translate(275.41 318.26)"><tspan x="0" y="0">221</tspan></text>
    <text class="cls-2" transform="translate(204 139.33)"><tspan x="0" y="0">입구</tspan></text>
  </g>
  <g id="_229" data-name="229">
    <path class="cls-3" d="m447.5,445.31v-44.81l-269.21-78.33c-.97,2-1.85,3.9-2.64,5.67-1.49,3.35-5.13,11.81-8.63,23.16-2.71,8.81-9.89,34.19-9.53,67.49.18,16.01.96,51.87,20.52,92.15,1.21,2.49,3.74,7.56,7.77,14.29l261.7-79.63Z"/>
  </g>
  <g id="_228" data-name="228">
    <path class="cls-3" d="m326.45,631.19c-44.83-15.58-71.99-34.66-78.39-39.27-4.45-3.2-10.69-7.71-18.42-14.51-21.65-19.03-35.76-39.05-43.84-52.48l-.1.06s261.8-79.69,261.8-79.69v43.69l-121.05,142.19Z"/>
  </g>
  <g id="_227" data-name="227">
    <path class="cls-3" d="m664.84,628.15c-6.03,2.08-12.39,4.12-19.07,6.06-10.61,3.09-18.62,4.97-24.13,6.25-15.11,3.52-62.52,13.85-126.15,14.51-26.01.27-69.15.59-122.72-10.95-5.06-1.09-11.79-2.55-20.55-4.91-9.15-2.46-17.75-5.14-25.79-7.94l-.04.12,121.1-142.31h95.5l121.84,139.15Z"/>
  </g>
  <g id="_226" data-name="226">
    <path class="cls-3" d="m808.83,521.88c-16.67,28.85-37.46,46.37-47.79,54.94-7.82,6.49-14.06,10.73-19.08,14.12-6.1,4.12-32.92,21.95-77.12,37.21l.02.07-121.87-139.22v-52.4l265.83,85.28Z"/>
  </g>
  <g id="_225" data-name="225">
    <path class="cls-3" d="m810.6,328.14c3.57,6.93,16.21,32.49,21.06,68.53,1.39,10.35,1.73,18.46,1.83,22.13.35,12.13.95,44.49-13.75,80.76-3.28,8.09-6.98,15.52-10.91,22.32l-.1-.06s-265.74-85.22-265.74-85.22v-34.81l267.6-73.65Z"/>
  </g>
  <g id="_224" data-name="224">
    <path class="cls-3" d="m543,357v44.79s267.45-73.95,267.45-73.95l.16.29c-3.78-7.34-17.37-32.62-44.24-57.64-7.89-7.35-14.3-12.24-18.77-15.62-30.7-23.25-60.63-35.77-82.71-43.44l-121.89,145.56Z"/>
  </g>
  <g id="_223" data-name="223">
    <path class="cls-3" d="m543,357l121.87-145.48.03-.08c-6.05-2.1-11.51-3.84-16.23-5.33-8.89-2.81-15.53-4.54-21.41-6.07-12.9-3.34-62.4-15.43-131.75-17.4v174.37h47.51Z"/>
  </g>
  <g id="_222" data-name="222">
    <path class="cls-3" d="m495.5,357h-48l-128.5-151.1c13.8-4.73,25.55-7.72,33.79-9.78,8.4-2.1,14.63-3.35,19.96-4.41,9.85-1.96,56.64-10.96,122.75-9.08,0,0,0,174.37,0,174.37Z"/>
  </g>
  <g id="_221" data-name="221">
    <path class="cls-3" d="m223.48,261.51c-24.09,22.71-37.6,45.02-45.19,60.66h0s269.21,78.33,269.21,78.33v-43.5l-128.43-150.89-.07-.2c-23.45,8.04-52.8,21.09-80.77,43.09-5.21,4.1-10.11,8.28-14.73,12.5"/>
  </g>
</svg>