<?xml version="1.0" encoding="UTF-8"?>
<svg xmlns="http://www.w3.org/2000/svg" viewBox="0 0 1129.56 780.56">
  <defs>
    <style>
      .cls-1 {
        font-family: AdobeMyungjoStd-Medium-KSCpc-EUC-H, 'Adobe Myungjo Std';
        font-size: 36px;
        font-weight: 500;
      }

      .cls-2 {
        fill: none;
        stroke: #000;
        stroke-miterlimit: 10;
      }
    </style>
  </defs>
  <g id="_레이어_2" data-name="레이어 2">
    <line class="cls-2" x1="459" y1="675" x2="459" y2="688"/>
    <line class="cls-2" x1="457.89" y1="728.54" x2="457.89" y2="714"/>
    <line class="cls-2" x1="354.52" y1="219.55" x2="364.37" y2="239.87"/>
    <line class="cls-2" x1="337.52" y1="178.55" x2="347.37" y2="198.87"/>
    <path class="cls-2" d="m215.5,245.95v-114.45c63.16-34.69,127.3-54.03,192.47-57.27"/>
    <line class="cls-2" x1="797.4" y1="128.03" x2="797.4" y2="25.5"/>
    <path class="cls-2" d="m337.59,178.75c-131.62,47.68-222.09,146.76-222.09,261.25,0,160.99,178.86,291.5,399.5,291.5s399.5-130.51,399.5-291.5c0-80.53-44.75-153.43-117.1-206.18v-61.48"/>
    <path class="cls-2" d="m704.5,25.5l.33,157.95c-56.46-22.29-121.12-34.95-189.83-34.95-45.33,0-88.89,5.51-129.51,15.66"/>
    <text class="cls-1" transform="translate(344.56 131.29)"><tspan x="0" y="0">계단</tspan></text>
    <text class="cls-1" transform="translate(339.56 321.29)"><tspan x="0" y="0">231</tspan></text>
    <text class="cls-1" transform="translate(264.56 400.29)"><tspan x="0" y="0">230</tspan></text>
    <text class="cls-1" transform="translate(300.56 509.29)"><tspan x="0" y="0">240/</tspan><tspan x="0" y="43.2">241/</tspan><tspan x="0" y="86.4">242</tspan></text>
    <text class="cls-1" transform="translate(441.56 585.29)"><tspan x="0" y="0">239</tspan></text>
    <text class="cls-1" transform="translate(524.56 585.29)"><tspan x="0" y="0">238</tspan></text>
    <text class="cls-1" transform="translate(620.56 585.29)"><tspan x="0" y="0">237</tspan></text>
    <text class="cls-1" transform="translate(716.56 509.29)"><tspan x="0" y="0">236</tspan></text>
    <text class="cls-1" transform="translate(716.56 401.29)"><tspan x="0" y="0">235</tspan></text>
    <text class="cls-1" transform="translate(630.56 321.29)"><tspan x="0" y="0">234</tspan></text>
    <text class="cls-1" transform="translate(524.56 321.29)"><tspan x="0" y="0">233</tspan></text>
    <text class="cls-1" transform="translate(437.56 321.29)"><tspan x="0" y="0">232</tspan></text>
    <text class="cls-1" transform="translate(716.56 89.29)"><tspan x="0" y="0">입구</tspan></text>
    <text class="cls-1" transform="translate(796.56 164.29)"><tspan x="0" y="0">입구</tspan></text>
    <line class="cls-2" x1="704.77" y1="42.47" x2="729" y2="42.34"/>
    <line class="cls-2" x1="772.77" y1="42.47" x2="797" y2="42.34"/>
  </g>
  <g id="_240" data-name="240">
    <path class="cls-2" d="m194.99,440.73c265.81-1.24,233.66-20.56,234.96,228.77l-.11.53c-41.3-8.66-72.91-21.86-72.91-21.86-5.02-2.09-14.35-6.01-25.6-11.84-53.8-27.86-82.88-61.73-88.78-68.79-4.4-5.26-9.96-11.96-16.23-21.74-8.63-13.46-31-49.38-31-100.28,0-1.76.03-3.5.08-5.22"/>
  </g>
  <g id="_239" data-name="239">
    <path class="cls-2" d="m514.65,678.52c-14.03,0-25.41-.67-32.65-1.2,0,0-11.65-.87-23-2.32-10.04-1.29-19.85-3.01-29.16-4.97l.11-.53.39-225.77h84.31v234.79Z"/>
  </g>
  <g id="_238" data-name="238">
    <path class="cls-2" d="m600.35,443.74l-1.68,226.26.06.3c-7.72,1.56-15.89,2.98-24.4,4.16-11.34,1.57-21.01,2.39-25.32,2.73-7.46.58-19.49,1.33-34.37,1.33v-.52s0-234.27,0-234.27h85.7Z"/>
  </g>
  <g id="_237" data-name="237">
    <path class="cls-2" d="m753.43,600.66c-25.69,21.21-50.24,33.27-64.13,39.95-1.88.9-10.29,4.92-21.83,9.54-6.15,2.46-32.51,12.82-68.73,20.14l-.06-.3c1.07-137.05-3.76-190.31,32.01-210.83l122.75,141.5Z"/>
  </g>
  <g id="_236" data-name="236">
    <path class="cls-2" d="m833.68,446.51c-114.48,1.26-173.01-4.55-203,12.65h0s122.53,141.23,122.53,141.23l.22.26c12.18-10.05,24.61-22.16,36.28-36.72,4.43-5.52,10.04-12.58,16.3-22.94,7.84-12.98,27.96-47.25,27.97-95.5"/>
  </g>
  <g id="_235" data-name="235">
    <path class="cls-2" d="m639.83,435.75c31.97,12.15,89.88,9.97,194.17,10.05l-.02-.28c0-50.14-21.7-85.57-30.21-99.06-6.96-11.04-13.27-18.53-18.15-24.29-3.51-4.14-14.25-16.53-32.5-31.43l-113.29,145.01Z"/>
  </g>
  <g id="_234" data-name="234">
    <path class="cls-2" d="m602,221.02c.64,144.27-10.97,196.19,37.82,214.72h0s113.38-145.12,113.38-145.12l-.09.11c-14.01-11.44-32.45-24.36-55.44-36.18-1.64-.84-8.58-4.39-18.11-8.61-12.4-5.48-39.68-16.74-77.64-24.62"/>
  </g>
  <g id="_233" data-name="233">
    <path class="cls-2" d="m514.65,443.73h85.7s1.65-222.71,1.65-222.71l-.06.3c-2.95-.61-5.97-1.21-9.04-1.77-3.84-.71-12.45-2.24-23.63-3.65-10.86-1.37-30.22-3.39-54.61-3.39v231.23"/>
  </g>
  <g id="_232" data-name="232">
    <path class="cls-2" d="m430.73,443.73h83.92s0-231.23,0-231.23c-25.37,0-45.49,2.19-56.76,3.67-9.51,1.25-16.85,2.53-20.2,3.14-2.36.43-4.69.87-6.97,1.32h0s-.38,223.09-.38,223.09"/>
  </g>
  <g id="_231" data-name="231">
    <path class="cls-2" d="m407.97,423.73c17.18-12.98,22.67-36.14,22.75-77.3.06-31.37-.64-72.09.02-125.78h0c-36.68,7.29-63.33,17.76-76.21,23.23-9.19,3.9-15.92,7.2-17.58,8.02-21.36,10.51-38.95,22.02-52.9,32.64l123.92,139.19Z"/>
  </g>
  <g id="_230" data-name="230">
    <path class="cls-2" d="m195.31,440c122.82-1.3,184,5.38,212.65-16.27,0,0-124.02-139.32-124.02-139.32l.09.12c-22.23,16.94-35.18,31.61-39.28,36.38-4.6,5.34-10.36,12.09-16.9,21.99-8.78,13.31-30.99,48-32.47,97.39"/>
  </g>
</svg>