<?xml version="1.0" encoding="UTF-8"?>
<svg xmlns="http://www.w3.org/2000/svg" viewBox="0 0 883.36 832">
  <defs>
    <style>
      .cls-1 {
        fill: none;
        stroke: #000;
        stroke-miterlimit: 10;
      }

      .cls-2 {
        font-size: 28.22px;
      }

      .cls-2, .cls-3, .cls-4, .cls-5, .cls-6 {
        font-family: AdobeMyungjoStd-Medium-KSCpc-EUC-H, 'Adobe Myungjo Std';
        font-weight: 500;
      }

      .cls-7 {
        stroke-width: 0px;
      }

      .cls-3 {
        font-size: 12px;
      }

      .cls-4 {
        font-size: 14px;
      }

      .cls-5 {
        font-size: 36.11px;
      }

      .cls-6 {
        font-size: 15.82px;
      }
    </style>
  </defs>
  <g id="_레이어_2" data-name="레이어 2">
    <line class="cls-1" x1="145.5" y1="384.5" x2="145.5" y2="555.5"/>
    <line class="cls-1" x1="260.92" y1="384.5" x2="145.5" y2="384.5"/>
    <line class="cls-1" x1="342.15" y1="384.5" x2="327.91" y2="384.5"/>
    <line class="cls-1" x1="754.5" y1="410.5" x2="754.5" y2="384.5"/>
    <line class="cls-1" x1="831.65" y1="551.41" x2="754.5" y2="551.5"/>
    <line class="cls-1" x1="857.23" y1="661.89" x2="857.23" y2="631.5"/>
    <polyline class="cls-1" points="792.5 762.24 857.23 762.24 857.23 723.5"/>
    <line class="cls-1" x1="439.5" y1="762.24" x2="643.34" y2="762.24"/>
    <line class="cls-1" x1="145.5" y1="762.24" x2="218.73" y2="762.24"/>
    <line class="cls-1" x1="28.5" y1="599.25" x2="28.5" y2="694.99"/>
    <line class="cls-1" x1="145.5" y1="599.25" x2="145.5" y2="694.99"/>
    <line class="cls-1" x1="218.73" y1="384.5" x2="218.73" y2="551.5"/>
    <polyline class="cls-1" points="754.5 551.5 754.5 602.5 804.22 602.5 804.22 551.5"/>
    <line class="cls-1" x1="649.14" y1="551.5" x2="703.47" y2="551.5"/>
    <line class="cls-1" x1="330.02" y1="551.5" x2="419.16" y2="551.5"/>
    <line class="cls-1" x1="519.91" y1="317.5" x2="583.74" y2="317.5"/>
    <line class="cls-1" x1="459.5" y1="317.5" x2="519.91" y2="317.5"/>
    <line class="cls-1" x1="459.5" y1="384.5" x2="459.5" y2="317.5"/>
    <line class="cls-1" x1="519.38" y1="384.5" x2="519.38" y2="317.5"/>
    <polyline class="cls-1" points="330.02 551.5 330.02 611.78 260.92 611.78"/>
    <line class="cls-1" x1="649.14" y1="628.66" x2="649.14" y2="551.5"/>
    <line class="cls-1" x1="419.16" y1="628.66" x2="649.14" y2="628.66"/>
    <line class="cls-1" x1="419.16" y1="551.5" x2="419.16" y2="628.66"/>
    <polyline class="cls-1" points="151.21 384.5 151.21 458.81 206.5 458.81 206.5 384.5"/>
  </g>
  <g id="_상담실" data-name="상담실">
    <rect class="cls-1" x="260.92" y="436.5" width="69.1" height="115"/>
  </g>
  <g id="_오픈랩" data-name="오픈랩">
    <rect class="cls-1" x="419.16" y="438.5" width="229.98" height="113"/>
  </g>
  <g id="_화장실" data-name="화장실">
    <rect class="cls-1" x="260.92" y="384.5" width="66.99" height="26"/>
  </g>
  <g id="_어머님들" data-name="어머님들">
    <rect class="cls-1" x="583.74" y="317.5" width="74.9" height="67"/>
  </g>
  <g id="_학생식당" data-name="학생식당">
    <rect class="cls-1" x="342.15" y="27.5" width="412.35" height="357"/>
  </g>
  <g id="_103-2" data-name="103-2">
    <polygon class="cls-1" points="754.5 451.96 754.5 410.5 703.47 410.5 703.47 452 754.5 451.96"/>
  </g>
  <g id="_103" data-name="103">
    <polygon class="cls-1" points="754.5 505.76 754.5 451.96 703.47 451.96 703.47 450.9 703.47 505.76 754.5 505.76"/>
  </g>
  <g id="_수위실" data-name="수위실">
    <rect class="cls-1" x="703.47" y="505.76" width="51.03" height="45.74"/>
  </g>
  <g id="_화장실-2" data-name="화장실">
    <polyline class="cls-1" points="831.65 551.5 831.65 631.5 857.23 631.5 857.23 551.38 831.65 551.41"/>
  </g>
  <g id="_101" data-name="101">
    <rect class="cls-1" x="831.65" y="661.89" width="25.58" height="61.61"/>
  </g>
  <g id="_카페" data-name="카페">
    <rect class="cls-1" x="643.34" y="723.5" width="149.16" height="38.74"/>
  </g>
  <g id="_오픈랩_별실" data-name="오픈랩 별실">
    <rect class="cls-1" x="260.92" y="723.5" width="178.58" height="38.74"/>
  </g>
  <g id="_이마트" data-name="이마트">
    <polygon class="cls-1" points="260.92 611.78 260.92 723.5 260.92 762.24 218.73 762.24 218.73 554.83 218.73 551.5 260.92 551.5 260.92 611.78"/>
  </g>
  <g id="_113" data-name="113">
    <rect class="cls-1" x="90.55" y="694.99" width="54.95" height="67.25"/>
  </g>
  <g id="_112" data-name="112">
    <rect class="cls-1" x="28.5" y="694.99" width="62.05" height="67.25"/>
  </g>
  <g id="_108" data-name="108">
    <polygon class="cls-1" points="104 599.25 145.5 599.25 145.5 555.5 104 555.15 104 599.25"/>
  </g>
  <g id="_109" data-name="109">
    <polygon class="cls-1" points="66.81 599.25 104 599.25 104 555.5 104 555.15 66.81 554.83 66.81 599.25"/>
  </g>
  <g id="_110" data-name="110">
    <polygon class="cls-1" points="28.5 599.25 28.5 554.5 66.81 554.83 66.81 599.25 28.5 599.25"/>
  </g>
  <g id="_텍스트" data-name="텍스트">
    <g>
      <path class="cls-7" d="m34.35,573.82c-1.2-.12-1.87-.89-1.87-1.66,0-.72.58-1.42,1.86-1.62.06-.06.08-.13.08-.22,0-.16-.11-.32-.28-.47-.31.01-.64.05-1.08.07-.28.06-.35.16-.5.16-.22,0-1.13-.38-1.13-.53,0-.05.05-.07.17-.07.08,0,.18.01.31.04.31.04.66.05,1.08.05,1.08,0,2.35-.12,3-.19.42-.06.14-.24,1.1-.24.14,0,.71,0,.71.31,0,.26-.34.26-.73.26-.72,0-1.37.04-2.39.08.1.19.19.19.29.4v.06c0,.12-.08.16-.08.26v.04c1.33.16,1.93.88,1.93,1.59,0,.76-.65,1.49-1.77,1.62v.89c.73-.08,2.51-.36,3.6-.66v-6.07c-.01-.19-.46-.47-1.07-.7-.22-.06-.32-.13-.32-.19,0-.07.12-.12.41-.16.62.02,1.1.19,1.49.3.23.08.28.14.28.24,0,.08-.05.2-.05.37v7.46c0,1.02-.01,1.74-.2,2.47-.1.23-.23.42-.35.42-.1,0-.17-.13-.18-.49v-3.48c-1.64.59-3.9,1.06-5.94,1.38-.22.07-.26.18-.43.18-.25,0-1.74-.64-1.74-.85,0-.05.05-.07.16-.07.05,0,.12.01.2.02.31.07.68.11,1.1.11.7,0,1.51-.1,2.35-.2v-.92Zm-.37-5.26c-.23,0-1-.53-1-.67,0-.04.02-.06.1-.06.06,0,.16.02.29.05.52.07.68.07,2.22.07.34.02.52.16.52.29,0,.14-.2.28-.65.3l-1.48.02Zm-.8,3.55c0,.59.49,1.17,1.46,1.17s1.49-.59,1.49-1.17-.49-1.19-1.49-1.19-1.46.6-1.46,1.19Z"/>
      <path class="cls-7" d="m50.61,568.06c-.02-.3-.5-.58-1.04-.82-.24-.07-.37-.16-.37-.22,0-.07.12-.12.38-.13.11,0,1.82.26,1.82.61,0,.07-.05.17-.05.32v7.42c-.01,1.67-.18,2.87-.49,2.87-.13,0-.22-.16-.25-.86v-3.13c-2.39.74-2.96.84-5.6,1.3-.35.1-.38.25-.61.25-.26,0-1.74-.62-1.74-.88,0-.05.05-.06.14-.06.06,0,.16.01.26.04.28.06.64.1,1.07.1,1.96,0,5.21-.59,6.48-.97v-5.84Zm-4.61.48c.29,0,.35-.19.35-.25,0-.05-.02-.12-.07-.19-.1-.1-.14-.18-.14-.22,0-.05.05-.07.14-.07.4,0,.71.25.71.4,0,.12-.1.23-.14.36,1.28.25,1.88,1.09,1.88,1.94,0,.96-.85,1.99-2.35,1.99s-2.45-1-2.45-2c0-.88.65-1.74,2.07-1.96Zm-1.33,1.98c0,.74.56,1.5,1.69,1.5s1.67-.76,1.67-1.5-.56-1.5-1.67-1.5-1.69.74-1.69,1.5Z"/>
      <path class="cls-7" d="m54.6,572.86c2.64-1.46,3.78-3.74,3.78-3.91,0-.2-.54-.59-.83-.74-.07-.04-.14-.11-.14-.17,0-.05.06-.1.24-.1.46,0,1.75.6,1.75.86,0,.08-.74,1.21-.84,1.36.2.18.62.48.86.62.71.37.7.04,1.55.96.18.19.25.36.25.49s-.08.2-.23.2c-.13,0-.32-.07-.54-.26-.31-.26-1.43-1.2-2.13-1.76-1.22,1.49-3.42,2.67-3.85,2.67-.06,0-.08-.01-.08-.04,0-.04.07-.11.22-.19Zm3.47,3.19c-.02-.13-.25-.22-.64-.31-.12-.04-.23-.07-.23-.12,0-.02.13-.16.54-.16.5,0,1.04.08,1.18.14,1.1,0,1.77,0,2.91-.05.28-.02.4-.06.64-.11.02-.19.07-.85.11-1.45-.77,0-2.39.07-3.55.12-.35.07-.41.2-.61.2-.25,0-1.18-.4-1.18-.54,0-.04.06-.06.19-.06.05,0,.11,0,.18.01.41.04.98.06,1.64.06.97,0,2.11-.05,3.06-.11.23-.04.2-.08.46-.08.07,0,.16,0,.28.01.36.02.47.08.47.18,0,.08-.12.2-.17.32-.16.36-.34.86-.42,1.27.32.06.49.18.49.28s-.14.17-.41.17c-.91.02-2.7.06-3.98.07-.12.07-.22.05-.22.19v1.04c.01.23.12.28.3.28.24,0,.6.01,1.02.01.61,0,1.34-.01,2.06-.02.72-.08.49-.31,1.24-.31.32,0,.92,0,.92.35,0,.14-.14.28-.41.28h-4.81c-.88,0-1.07-.31-1.07-.66v-1.01Zm4.53-8.04c0-.22-.37-.49-1.04-.74-.2-.07-.31-.14-.31-.2,0-.07.14-.12.43-.14.06,0,1.73.22,1.73.59,0,.08-.05.19-.05.35v3.43c0,.5-.05,1.22-.19,1.66-.11.28-.24.42-.35.42s-.19-.17-.19-.55l-.02-4.8Z"/>
      <path class="cls-7" d="m38.13,591.46v-.3c1.15,0,1.64-.17,1.64-.77v-6.06c0-.43-.25-.6-.77-.6h-1.04v-.24c1.16-.12,1.85-.43,2.57-.88v7.77c0,.6.55.77,1.71.77v.3h-4.11Z"/>
      <path class="cls-7" d="m45.63,591.46v-.3c1.15,0,1.64-.17,1.64-.77v-6.06c0-.43-.25-.6-.77-.6h-1.04v-.24c1.16-.12,1.85-.43,2.57-.88v7.77c0,.6.55.77,1.71.77v.3h-4.11Z"/>
      <path class="cls-7" d="m58.13,587.15c0,2.34-.85,4.47-2.99,4.47s-2.97-2.13-2.97-4.47.84-4.52,2.97-4.52,2.99,2.15,2.99,4.52Zm-5.19,0c0,2.18.64,4.15,2.21,4.15s2.23-1.97,2.23-4.15-.65-4.2-2.23-4.2-2.21,1.98-2.21,4.2Z"/>
    </g>
    <text class="cls-4" transform="translate(280.65 587.05)"><tspan x="0" y="0">계단</tspan></text>
    <text class="cls-4" transform="translate(764.65 582.05)"><tspan x="0" y="0">계단</tspan></text>
    <text class="cls-4" transform="translate(164.65 426.05)"><tspan x="0" y="0">계단</tspan></text>
    <text class="cls-4" transform="translate(475.65 356.05)"><tspan x="0" y="0">계단</tspan></text>
    <text class="cls-6" transform="translate(307.65 750.41)"><tspan x="0" y="0">오픈랩 별실</tspan></text>
    <g>
      <path class="cls-7" d="m38.08,716.63c-.12,1.15-.98,1.99-2.54,1.99s-2.45-1.08-2.45-2.11c0-.91.65-1.81,1.98-2.03l.07-.02c.23-.01.34-.13.34-.28,0-.06-.01-.12-.05-.18-.1-.07-.16-.14-.16-.2,0-.04.05-.07.14-.07.31,0,.72.22.72.4,0,.13-.14.24-.18.36,1.43.19,2.07,1.02,2.11,1.79v.36Zm-4.27-.08c0,.8.58,1.6,1.72,1.6,1.25,0,1.88-.79,1.88-1.6s-.64-1.62-1.88-1.62c-1.14,0-1.72.82-1.72,1.62Zm4.86,3.29c0-.1-.06-.22-.16-.31-.07-.05-.11-.11-.11-.16s.05-.08.14-.08c.24,0,.79.24.79.41,0,.11-.13.2-.18.35,1.33.24,1.96,1.09,1.96,1.92,0,.97-.84,1.94-2.36,1.94s-2.29-.97-2.29-1.93c0-.86.65-1.75,2.03-1.94.12-.01.18-.1.18-.19Zm-1.56,2.06c0,.72.56,1.45,1.68,1.45s1.68-.73,1.68-1.45-.55-1.48-1.68-1.48-1.68.73-1.68,1.48Zm3.54-7.83c0-.26-.47-.56-1.03-.82-.12-.04-.35-.11-.35-.18,0-.08.31-.14.38-.14.35,0,1.16.18,1.42.28.34.12.41.23.41.35,0,.11-.05.22-.05.36l-.05,3.67c-.01,1.62-.11,1.83-.29,2.17-.1.18-.18.25-.25.25-.12,0-.19-.28-.19-.68v-1.46c-.36.04-.77.06-1.15.08-.22.05-.25.14-.4.14-.22,0-1.02-.36-1.02-.47,0-.04.07-.06.2-.06.08,0,.49.01.59.01.6,0,1.2-.02,1.77-.08v-1.8c-.49.01-.86.06-1.08.07-.26.04-.28.14-.44.14-.18,0-1.04-.29-1.04-.49,0-.04.05-.05.13-.05.06,0,.14,0,.25.02.3.01.53.01.73.01.55,0,.84-.02,1.45-.06v-1.27Z"/>
      <path class="cls-7" d="m52.61,717.91c-.61.04-1.15.07-1.46.1-.26.04-.3.16-.47.16-.11,0-.28-.05-.61-.22-.13,1.15-.97,2.03-2.54,2.03-1.78,0-2.77-1.1-2.77-2.3,0-1.02.74-2.03,2.28-2.24.22-.05.43-.11.43-.32,0-.07-.04-.16-.08-.23-.07-.07-.12-.14-.12-.19,0-.04.04-.07.12-.07.34,0,.76.34.76.46,0,.1-.14.18-.24.34,1.46.32,2.11,1.13,2.18,2.18h-.01c.16.02.4.04.67.04.6,0,1.38-.05,1.87-.1v-3.51c-.02-.25-.6-.61-1.04-.83-.18-.06-.31-.14-.31-.22s.12-.13.43-.14c.59.12,1.2.31,1.44.4.23.11.28.17.28.25,0,.06-.04.14-.04.29v6.96c-.02,2.21-.08,2.82-.32,3.25-.07.13-.16.22-.22.22-.12,0-.22-.24-.22-.84v-5.43Zm-7.1-.2c0,.9.66,1.8,2,1.8,1.25,0,1.88-.9,1.88-1.8s-.64-1.8-1.88-1.8c-1.34,0-2,.9-2,1.8Z"/>
      <path class="cls-7" d="m60.43,719.46c1.82-1.1,3.19-2.89,3.74-4.08.01-.11.01-.12.01-.12,0-.2-.54-.58-.82-.73-.07-.04-.16-.11-.16-.17,0-.05.06-.1.25-.1.47,0,1.75.61,1.75.86,0,.1-.07.18-.18.34-.23.36-.52.79-.61.94.2.24.56.58.94.94.55.48.7.16,1.46,1.22.18.25.25.47.25.61,0,.16-.08.24-.2.24-.14,0-.35-.11-.58-.37-.53-.6-1.46-1.67-2.1-2.38-1.13,1.55-3.48,3.06-3.91,3.06-.05,0-.07-.01-.07-.04,0-.05.07-.13.22-.23Zm3.69,1.8c-.02-.24-.3-.35-.91-.54-.13-.02-.22-.07-.22-.13s.1-.12.37-.17c.55,0,1.06.05,1.3.08.2.05.25.11.25.22,0,.07-.04.18-.04.32,0,.53,0,1.17.01,1.62,0,.26.16.37.58.4l2.51-.02c.9-.06.47-.33,1.55-.33.38,0,.89.04.89.41,0,.13-.11.26-.32.26h-4.67c-.79-.01-1.25-.2-1.28-.82v-1.29Zm4.49-7.16c-.02-.16-.5-.49-1.01-.7-.2-.07-.3-.14-.3-.2,0-.07.14-.11.43-.12.56.06,1.03.2,1.24.29.35.11.43.19.43.31,0,.08-.05.19-.05.35v5.04c-.01.52-.06,1.19-.2,1.68-.11.28-.24.42-.35.42s-.19-.17-.19-.55v-6.51Z"/>
      <path class="cls-7" d="m77.27,718.68c-.85.01-1.98.06-2.67.11-.48.04-.59.2-.88.2-.4,0-1.56-.52-1.56-.66,0-.04.05-.06.14-.06.05,0,.12,0,.22.02.25.06.91.07,1.81.07,1.68,0,4.23-.07,6.64-.17.54-.01.36-.19,1.07-.19.32,0,.97,0,.97.36,0,.16-.16.3-.41.3h-.01c-.72-.04-2.03-.07-3.11-.07-.61,0-1.15.01-1.45.05,0,1.66,0,2.28-.19,2.79-.11.32-.25.5-.37.5s-.22-.17-.22-.55v-2.71Zm-2.39-1.61c-.02-.19-.22-2.43-.28-2.89-.01-.12-.41-.3-.66-.4-.12-.05-.24-.11-.24-.18,0-.05.1-.11.38-.12.2,0,1.19.17,1.42.17.8,0,3.08-.07,3.51-.1.32-.02.2-.1.61-.1.36,0,.92.04.92.19,0,.1-.24.24-.31.42-.17.91-.36,1.75-.49,2.27.34.07.48.19.48.29,0,.11-.16.19-.4.19-.77,0-3.5.07-4.32.08-.11.44-.25.7-.38.7-.11,0-.19-.17-.25-.53Zm-.01,4.29c-.02-.23-.29-.35-.9-.53-.13-.04-.23-.08-.23-.13,0-.06.11-.12.37-.18.56,0,1.06.05,1.3.08.22.05.26.12.26.23,0,.07-.02.17-.04.3,0,.5,0,1.15.01,1.57.01.29.16.38.55.41l2.58-.02c.88-.06.48-.35,1.49-.35.29,0,.95,0,.95.42,0,.13-.12.25-.32.25h-4.73c-.8,0-1.24-.2-1.28-.79v-1.26Zm3.67-4.82c.48-.04.48-.08.82-.16.05-1.08.08-2.06.07-2.51-.66.01-2.94.08-3.87.12-.06.06-.13.06-.13.18l.11,2.41,3.01-.05Z"/>
      <path class="cls-7" d="m44.51,729.97c-.14-.06-.23-.12-.23-.17,0-.06.11-.11.38-.12.06,0,1.31.25,1.31.53,0,.08-.06.17-.1.3-.22.7-.72,2.2-.9,2.78.34-.07.7-.14,1.09-.26.14-.04.26-.06.34-.06.06,0,.08.01.08.04,0,.35-3.03,1.03-3.85,1.17-.31.08-.36.25-.58.25-.32,0-1.62-.67-1.62-.85,0-.04.04-.06.12-.06.06,0,.14.01.25.04.35.07.72.1,1.13.1.8,0,1.7-.12,2.64-.3.13-.52.3-1.37.47-2.77,0-.28-.23-.43-.54-.61Zm1.46-1.42c.46,0,.66.14.66.29,0,.17-.24.34-.72.34-1.43,0-2.38.06-3.41.17-.37.04-.44.16-.62.16-.23,0-1.09-.38-1.09-.55,0-.04.04-.06.12-.06.06,0,.12.01.2.02.61.05,1.18.07,1.68.07.71,0,1-.04,1.87-.13.68-.12.42-.3,1.14-.3h.17Zm-3.15,4.57c-.11,0-.2-.14-.23-.37-.05-.35-.12-1.01-.6-2.42-.04-.11-.05-.19-.05-.25s.01-.08.05-.08c.17,0,1.22,1.46,1.22,2.18,0,.55-.22.95-.4.95Zm1.31,2.53c-.02-.24-.3-.35-.91-.54-.13-.02-.22-.07-.22-.13s.1-.12.37-.17c.55,0,1.06.05,1.3.08.2.05.25.11.25.22,0,.07-.04.18-.04.32,0,.53,0,1.17.01,1.62,0,.26.16.37.58.4l2.51-.02c.9-.06.47-.33,1.55-.33.38,0,.89.04.89.41,0,.13-.11.26-.32.26h-4.67c-.79-.01-1.25-.2-1.28-.82v-1.29Zm4.47-7.12c-.01-.28-.47-.58-1.03-.82-.12-.05-.35-.12-.35-.19,0-.08.31-.14.38-.14.17,0,1.85.2,1.85.61,0,.11-.07.22-.07.37v4.82c-.05,1.63-.12,1.96-.35,2.34-.1.13-.17.19-.23.19-.14,0-.19-.31-.2-.73v-2.24c-.3.04-.72.06-1.09.08-.23.05-.25.16-.41.16-.22,0-1.02-.36-1.02-.48,0-.04.08-.06.23-.06.08,0,.48.01.56.01.6,0,1.2-.02,1.73-.08v-2c-.44.01-.94.05-1.14.07-.24.04-.24.16-.4.16-.19,0-1-.35-1-.49,0-.04.06-.06.17-.06.06,0,.14.01.25.02.3.01.55.01.78.01.47,0,.83-.02,1.33-.06v-1.49Z"/>
      <path class="cls-7" d="m55.11,729.54c-.31.05-.34.16-.5.16-.2,0-1.27-.4-1.27-.55,0-.04.04-.06.13-.06.06,0,.14.01.25.04.32.04.65.06,1.1.06.53,0,1.22-.04,2.27-.1.52-.02.43-.12.83-.12.3,0,.71,0,.71.14,0,.07-.12.17-.22.26-.52.8-.82,1.22-1.44,1.96.88.82,1.37.5,1.82,1.01.46.44.6.74.6.92,0,.16-.1.22-.22.22-.08,0-.17-.04-.23-.08-.65-.54-1.31-1.09-2.19-1.88-1.48,1.45-3.89,2.67-4.23,2.67-.02,0-.04-.01-.04-.02,0-.04.07-.1.22-.18,1.44-.84,3.93-2.64,4.82-4.62-.62,0-1.94.13-2.41.18Zm1.28,5.34c0-.18-.32-.35-.74-.46-.14-.04-.25-.1-.25-.16,0-.08.31-.13.48-.13.26,0,.6.06.79.08.38.06.46.13.46.25,0,.07-.02.16-.02.26v.73l3.5-.05v-.94c0-.14-.22-.32-.61-.43-.14-.05-.25-.11-.25-.17,0-.11.34-.11.42-.11.17,0,1.18.12,1.18.35,0,.07-.04.16-.04.29v2.3c0,.37-.02.89-.14,1.27-.07.22-.18.35-.28.35-.12,0-.23-.19-.26-.7l-3.54.05c-.13.49-.35.84-.5.84-.11,0-.18-.14-.18-.52v-3.13Zm.71.92v1.54l3.5-.04v-1.54l-3.5.04Zm3.49-7.39c0-.22-.37-.49-1.04-.74-.2-.07-.31-.14-.31-.2,0-.07.14-.12.43-.14.06,0,1.73.22,1.73.59,0,.08-.05.19-.05.35v3.43c0,.5-.05,1.22-.19,1.66-.11.28-.24.42-.35.42s-.19-.17-.19-.55l-.02-4.8Z"/>
      <path class="cls-7" d="m64.6,733.26c2.64-1.46,3.78-3.74,3.78-3.91,0-.2-.54-.59-.83-.74-.07-.04-.14-.11-.14-.17,0-.05.06-.1.24-.1.46,0,1.75.6,1.75.86,0,.08-.74,1.21-.84,1.36.2.18.62.48.86.62.71.37.7.04,1.55.96.18.19.25.36.25.49s-.08.2-.23.2c-.13,0-.32-.07-.54-.26-.31-.26-1.43-1.2-2.13-1.76-1.22,1.49-3.42,2.67-3.85,2.67-.06,0-.08-.01-.08-.04,0-.04.07-.11.22-.19Zm3.47,3.19c-.02-.13-.25-.22-.64-.31-.12-.04-.23-.07-.23-.12,0-.02.13-.16.54-.16.5,0,1.04.08,1.18.14,1.1,0,1.77,0,2.91-.05.28-.02.4-.06.64-.11.02-.19.07-.85.11-1.45-.77,0-2.39.07-3.55.12-.35.07-.41.2-.61.2-.25,0-1.18-.4-1.18-.54,0-.04.06-.06.19-.06.05,0,.11,0,.18.01.41.04.98.06,1.64.06.97,0,2.11-.05,3.06-.11.23-.04.2-.08.46-.08.07,0,.16,0,.28.01.36.02.47.08.47.18,0,.08-.12.2-.17.32-.16.36-.34.86-.42,1.27.32.06.49.18.49.28s-.14.17-.41.17c-.91.02-2.7.06-3.98.07-.12.07-.22.05-.22.19v1.04c.01.23.12.28.3.28.24,0,.6.01,1.02.01.61,0,1.34-.01,2.06-.02.72-.08.49-.31,1.24-.31.32,0,.92,0,.92.35,0,.14-.14.28-.41.28h-4.81c-.88,0-1.07-.31-1.07-.66v-1.01Zm4.53-8.04c0-.22-.37-.49-1.04-.74-.2-.07-.31-.14-.31-.2,0-.07.14-.12.43-.14.06,0,1.73.22,1.73.59,0,.08-.05.19-.05.35v3.43c0,.5-.05,1.22-.19,1.66-.11.28-.24.42-.35.42s-.19-.17-.19-.55l-.02-4.8Z"/>
      <path class="cls-7" d="m48.13,751.85v-.3c1.15,0,1.64-.17,1.64-.77v-6.06c0-.43-.25-.6-.77-.6h-1.04v-.24c1.16-.12,1.85-.43,2.57-.88v7.77c0,.6.55.77,1.71.77v.3h-4.11Z"/>
      <path class="cls-7" d="m55.63,751.85v-.3c1.15,0,1.64-.17,1.64-.77v-6.06c0-.43-.25-.6-.77-.6h-1.04v-.24c1.16-.12,1.85-.43,2.57-.88v7.77c0,.6.55.77,1.71.77v.3h-4.11Z"/>
      <path class="cls-7" d="m68.04,749.62l-.62,2.23h-4.98v-.37c.62-1.45,1.93-2.9,3.18-3.83,1.26-.96,1.48-1.62,1.48-2.54,0-1.28-.76-1.78-1.83-1.78-1.01,0-1.77.37-1.77,1.16,0,.72.31.64.31,1.04s-.29.54-.53.54c-.34,0-.54-.4-.54-.95,0-.94.8-2.11,2.59-2.11s2.55.82,2.55,2.23c0,1.22-.64,2.08-2.3,3.23-1.02.71-1.97,1.52-2.67,2.73h3.08c.88,0,1.33-.32,1.86-1.66l.2.06Z"/>
    </g>
    <g>
      <path class="cls-7" d="m68.84,569.66c1.22-.74,2.13-1.93,2.49-2.72,0-.07,0-.08,0-.08,0-.14-.36-.38-.54-.49-.05-.02-.1-.07-.1-.11,0-.03.04-.06.17-.06.31,0,1.17.41,1.17.58,0,.06-.05.12-.12.22-.15.24-.34.53-.41.62.14.16.38.38.62.62.37.32.46.1.98.82.12.17.17.31.17.41,0,.1-.06.16-.14.16-.1,0-.23-.07-.38-.25-.35-.4-.98-1.11-1.4-1.58-.75,1.03-2.32,2.04-2.61,2.04-.03,0-.05,0-.05-.02,0-.03.05-.09.14-.15Zm2.46,1.2c-.02-.16-.2-.23-.61-.36-.09-.02-.14-.05-.14-.09s.06-.08.25-.11c.37,0,.7.03.86.06.14.03.17.07.17.14,0,.05-.02.12-.02.22,0,.35,0,.78,0,1.08,0,.18.1.25.38.26l1.67-.02c.6-.04.31-.22,1.03-.22.26,0,.59.02.59.27,0,.09-.07.18-.22.18h-3.11c-.53,0-.83-.14-.86-.54v-.86Zm2.99-4.77c-.02-.1-.34-.33-.67-.46-.14-.05-.2-.1-.2-.14,0-.05.1-.07.29-.08.38.04.69.14.82.19.23.07.29.13.29.21,0,.06-.03.13-.03.23v3.36c0,.34-.04.79-.14,1.12-.07.18-.16.28-.23.28s-.13-.11-.13-.37v-4.34Z"/>
      <path class="cls-7" d="m80.07,569.14c-.57,0-1.32.04-1.78.07-.32.02-.39.14-.58.14-.26,0-1.04-.34-1.04-.44,0-.02.03-.04.1-.04.03,0,.08,0,.14.02.17.04.61.05,1.21.05,1.12,0,2.82-.05,4.43-.11.36,0,.24-.13.71-.13.22,0,.65,0,.65.24,0,.1-.1.2-.27.2h0c-.48-.02-1.35-.05-2.07-.05-.41,0-.77,0-.97.03,0,1.1,0,1.52-.13,1.86-.07.22-.17.34-.25.34s-.14-.11-.14-.37v-1.81Zm-1.59-1.07c-.02-.13-.14-1.62-.18-1.93,0-.08-.27-.2-.44-.26-.08-.03-.16-.07-.16-.12,0-.03.06-.07.26-.08.14,0,.79.11.94.11.54,0,2.05-.05,2.34-.06.22-.02.14-.06.41-.06.24,0,.62.02.62.13,0,.06-.16.16-.21.28-.11.61-.24,1.17-.33,1.51.22.05.32.13.32.19,0,.07-.1.13-.26.13-.51,0-2.33.05-2.88.06-.07.3-.17.46-.26.46-.07,0-.13-.11-.17-.35Zm0,2.86c-.02-.15-.19-.23-.6-.35-.09-.02-.15-.06-.15-.09,0-.04.07-.08.25-.12.38,0,.7.03.86.06.14.03.18.08.18.15,0,.05-.02.11-.02.2,0,.34,0,.77,0,1.05,0,.19.1.26.37.27l1.72-.02c.58-.04.32-.23.99-.23.19,0,.63,0,.63.28,0,.09-.08.17-.22.17h-3.15c-.54,0-.82-.14-.86-.53v-.84Zm2.45-3.21c.32-.02.32-.06.54-.1.03-.72.06-1.38.05-1.67-.44,0-1.96.06-2.58.08-.04.04-.09.04-.09.12l.07,1.61,2.01-.03Z"/>
      <path class="cls-7" d="m88.76,569.14c-.08.29-.21.46-.3.46-.08,0-.14-.11-.15-.38,0-.06-.02-1.68-.02-2.28-.02-.1-.03-.22-.54-.36-.14-.02-.21-.06-.21-.1,0-.05.08-.09.23-.11.91.03,1.03.11,1.03.24,0,.04-.02.09-.02.14v.62l1.91-.04v-.76c-.02-.11-.15-.21-.47-.31-.11-.03-.18-.07-.18-.1,0-.04.08-.07.26-.1.8.08.91.14.91.26,0,.03-.02.18-.02.21,0,1.06,0,1.97-.06,2.37-.07.33-.2.54-.3.54-.07,0-.13-.1-.14-.32l-1.95.04Zm.02-1.56v1.33l1.93-.05v-1.33l-1.93.04Zm2.65,2.33c0-.06-.03-.14-.1-.21-.05-.03-.07-.07-.07-.1s.03-.06.1-.06c.15,0,.53.16.53.27,0,.07-.09.14-.12.23.89.16,1.3.73,1.3,1.28,0,.62-.54,1.29-1.57,1.29s-1.54-.63-1.54-1.3c0-.57.44-1.15,1.35-1.28.08,0,.12-.06.12-.13Zm-1.03,1.38c0,.48.38.97,1.12.97s1.12-.49,1.12-.97-.38-.98-1.12-.98-1.12.49-1.12.98Zm2.22-5.3c0-.07-.22-.23-.69-.43-.12-.04-.18-.09-.18-.13,0-.05.1-.08.29-.09.38.04.66.13.92.21.17.06.21.12.21.19,0,.06-.03.13-.03.22v2.21c.1,0,.18,0,.3-.02.36-.08.22-.22.78-.22.18,0,.5,0,.5.22,0,.1-.09.19-.22.2l-1.37.03c0,.67-.06,1.02-.14,1.24-.07.16-.17.28-.24.28-.06,0-.12-.1-.12-.36v-3.56Z"/>
      <path class="cls-7" d="m98.73,568.38c0-.12-.07-.19-.4-.32-.12-.03-.19-.08-.19-.13,0-.04.08-.08.26-.1.74.05.86.12.86.23,0,.05-.02.1-.02.17v.81c.27,0,1.32-.06,1.7-.1.3-.03.2-.17.58-.17.15,0,.38.02.74.08.2.04.3.14.3.22s-.1.18-.3.18c-.23,0-1.34-.02-1.6-.02-1.64,0-3.49.13-3.88.18-.18.06-.22.16-.34.16-.18,0-1.06-.41-1.06-.53,0-.02.02-.04.1-.04.04,0,.09,0,.16.02.3.05.77.06,1.3.06.56,0,1.2-.02,1.81-.03v-.68Zm-2.69-.34c1.54-.62,2.69-1.81,2.79-2.13,0-.1-.25-.26-.5-.39-.22-.1-.23-.18.05-.18.11,0,1.15.28,1.15.5,0,.04-.02.1-.07.16-.12.14-.34.42-.48.57.27.12.7.28,1.12.38.68.18.58-.09,1.54.38.18.1.26.22.26.31,0,.08-.07.14-.2.14-.08,0-.18-.02-.3-.07-.92-.34-1.97-.72-2.56-1.01-1.06.92-2.63,1.48-2.89,1.48-.05,0-.07,0-.07-.02,0-.02.06-.07.18-.11Zm2.87,1.87c0-.06-.03-.14-.1-.21-.05-.03-.08-.07-.08-.1s.03-.06.1-.06c.16,0,.52.16.52.27,0,.07-.09.14-.11.23.88.16,1.3.72,1.3,1.27,0,.66-.57,1.3-1.57,1.3s-1.54-.63-1.54-1.3c0-.57.44-1.15,1.36-1.28.07,0,.11-.06.11-.13Zm-1.03,1.38c0,.48.38.97,1.12.97s1.12-.49,1.12-.97-.38-.98-1.12-.98-1.12.49-1.12.98Z"/>
      <path class="cls-7" d="m79.88,577.63c.37-.07.26-.17.65-.17.22,0,.7,0,.7.26,0,.1-.1.19-.26.19h-.04c-.56-.02-1.06-.03-1.56-.03s-.98,0-1.51.02c0,.74-.04.96-.14,1.26-.08.16-.16.24-.23.24s-.12-.08-.13-.25v-1.24c-.9.04-1.33.06-1.67.09-.28.04-.34.13-.5.13-.22,0-1.04-.32-1.04-.44,0-.03.05-.04.12-.04.04,0,.09,0,.14,0,.53.07,1.17.09,1.85.09.57,0,2.35-.04,2.84-.08.19-.58.32-1.11.4-1.93-.87,0-1.96.06-3.03.11-.24.05-.3.14-.43.14-.21,0-.9-.34-.9-.42,0-.02.02-.03.09-.03.03,0,.07,0,.13,0,.44.06.89.07,1.41.07.58,0,2.02-.05,2.48-.1.27-.02.23-.06.47-.06h.12c.29.02.38.06.38.13,0,.08-.14.18-.18.27-.22.72-.46,1.28-.69,1.8l.56-.03Zm-.75,2.12c-.73.02-2.21.11-2.56.13-.35.06-.4.15-.55.15-.2,0-.86-.26-.86-.41,0-.03.03-.05.1-.05.02,0,.06,0,.1,0,.33.06.78.08,1.26.08.77,0,1.62-.06,2.18-.1.2-.03.22-.07.4-.07.06,0,.14,0,.23.02.23.02.3.06.3.12s-.09.14-.1.23l-.06,1.58c-.04.53-.2.8-.32.8-.08,0-.14-.11-.14-.34v-2.15Z"/>
      <path class="cls-7" d="m85.32,576.02c.17-.04.1-.07.38-.07.23,0,.45.02.45.11,0,.07-.12.18-.18.26-.27.38-.7.9-.96,1.18.12.12.33.32.47.42.3.26.34,0,.83.58.11.14.15.26.15.36s-.06.16-.14.16c-.06,0-.16-.05-.25-.14-.18-.17-.67-.67-1.22-1.24-1.32,1.17-2.49,1.62-2.63,1.62-.03,0-.04,0-.04-.02,0-.02.05-.07.16-.14.99-.54,2.39-1.62,3.05-2.89-.38.02-1.34.06-1.63.07-.16.03-.18.1-.29.1-.13,0-.79-.26-.79-.38,0-.02.04-.05.11-.05.03,0,.08,0,.14.02.27.06.62.08,1.01.08.2,0,1.17-.05,1.38-.05Zm.78,3.49c0-.06-.03-.14-.1-.21-.05-.03-.07-.07-.07-.1s.03-.06.1-.06c.15,0,.53.16.53.27,0,.07-.09.14-.12.23.89.16,1.3.73,1.3,1.28,0,.62-.54,1.29-1.57,1.29s-1.54-.63-1.54-1.3c0-.57.44-1.15,1.35-1.28.08,0,.12-.06.12-.13Zm-1.03,1.38c0,.48.38.97,1.12.97s1.12-.49,1.12-.97-.38-.98-1.12-.98-1.12.49-1.12.98Zm2.22-5.3c0-.07-.22-.23-.69-.43-.12-.04-.18-.09-.18-.13,0-.05.1-.08.29-.09.38.04.66.13.92.21.17.06.21.12.21.19,0,.06-.03.13-.03.22v2.21c.1,0,.18,0,.3-.02.36-.08.22-.22.78-.22.18,0,.5,0,.5.22,0,.1-.09.19-.22.2l-1.37.03c0,.67-.06,1.02-.14,1.24-.07.16-.17.28-.24.28-.06,0-.12-.1-.12-.36v-3.56Z"/>
      <path class="cls-7" d="m90.28,578.86c1.76-.97,2.52-2.49,2.52-2.61,0-.14-.36-.39-.55-.5-.05-.02-.1-.07-.1-.11,0-.03.04-.06.16-.06.3,0,1.17.4,1.17.58,0,.06-.5.81-.56.9.14.12.42.32.58.42.47.25.46.02,1.03.64.12.13.17.24.17.33s-.06.14-.15.14c-.09,0-.22-.05-.36-.18-.21-.18-.95-.8-1.42-1.18-.82.99-2.28,1.78-2.57,1.78-.04,0-.06,0-.06-.02,0-.02.05-.07.14-.13Zm2.31,2.13c-.02-.09-.17-.14-.42-.21-.08-.02-.15-.05-.15-.08,0-.02.09-.1.36-.1.34,0,.7.06.78.1.74,0,1.18,0,1.94-.03.18-.02.26-.04.42-.07.02-.13.05-.57.07-.97-.51,0-1.59.05-2.37.08-.23.05-.27.14-.41.14-.17,0-.78-.26-.78-.36,0-.02.04-.04.13-.04.03,0,.07,0,.12,0,.27.02.66.04,1.1.04.65,0,1.41-.03,2.04-.07.15-.02.14-.06.3-.06.05,0,.1,0,.18,0,.24.02.31.06.31.12,0,.06-.08.14-.11.22-.1.24-.22.58-.28.85.22.04.33.12.33.18s-.1.11-.27.11c-.61.02-1.8.04-2.65.05-.08.05-.14.03-.14.13v.7c0,.15.08.18.2.18.16,0,.4,0,.68,0,.41,0,.9,0,1.38-.02.48-.06.33-.21.82-.21.22,0,.62,0,.62.23,0,.1-.1.18-.27.18h-3.21c-.58,0-.71-.21-.71-.44v-.67Zm3.02-5.36c0-.14-.25-.33-.7-.5-.14-.05-.21-.1-.21-.14,0-.05.1-.08.29-.1.04,0,1.15.14,1.15.39,0,.06-.03.13-.03.23v2.29c0,.34-.03.82-.13,1.1-.07.18-.16.28-.23.28s-.13-.11-.13-.37l-.02-3.2Z"/>
      <path class="cls-7" d="m79.3,591.25v-.2c.77,0,1.1-.11,1.1-.51v-4.04c0-.29-.17-.4-.51-.4h-.7v-.16c.78-.08,1.23-.29,1.71-.58v5.18c0,.4.37.51,1.14.51v.2h-2.74Z"/>
      <path class="cls-7" d="m87.63,588.38c0,1.56-.57,2.98-1.99,2.98s-1.98-1.42-1.98-2.98.56-3.01,1.98-3.01,1.99,1.43,1.99,3.01Zm-3.46,0c0,1.46.42,2.77,1.47,2.77s1.49-1.31,1.49-2.77-.43-2.8-1.49-2.8-1.47,1.32-1.47,2.8Z"/>
      <path class="cls-7" d="m90.3,589.13c-.86,0-1.5-.65-1.5-1.89s.92-1.86,1.77-1.86c1.06,0,1.83.76,1.83,2.71s-.8,3.31-2.17,3.31c-.9,0-1.3-.43-1.3-.78,0-.26.13-.41.34-.41s.38.14.38.41c0,.3.26.53.77.53.83,0,1.47-1.06,1.47-2.93-.33.46-.85.91-1.6.91Zm.28-3.56c-.86,0-1.27.64-1.27,1.77,0,.92.42,1.53,1.18,1.53.64,0,1.17-.57,1.42-1.04,0-1.88-.63-2.25-1.33-2.25Z"/>
    </g>
    <g>
      <path class="cls-7" d="m104.5,569.62c1.22-.74,2.13-1.93,2.49-2.72,0-.07,0-.08,0-.08,0-.14-.36-.38-.54-.49-.05-.02-.1-.07-.1-.11,0-.03.04-.06.17-.06.31,0,1.17.41,1.17.58,0,.06-.05.12-.12.22-.15.24-.34.53-.41.62.14.16.38.38.62.62.37.32.46.1.98.82.12.17.17.31.17.41,0,.1-.06.16-.14.16-.1,0-.23-.07-.38-.25-.35-.4-.98-1.11-1.4-1.58-.75,1.03-2.32,2.04-2.61,2.04-.03,0-.05,0-.05-.02,0-.03.05-.09.14-.15Zm2.46,1.2c-.02-.16-.2-.23-.61-.36-.09-.02-.14-.05-.14-.09s.06-.08.25-.11c.37,0,.7.03.86.06.14.03.17.07.17.14,0,.05-.02.12-.02.22,0,.35,0,.78,0,1.08,0,.18.1.25.38.26l1.67-.02c.6-.04.31-.22,1.03-.22.26,0,.59.02.59.27,0,.09-.07.18-.22.18h-3.11c-.53,0-.83-.14-.86-.54v-.86Zm2.99-4.77c-.02-.1-.34-.33-.67-.46-.14-.05-.2-.1-.2-.14,0-.05.1-.07.29-.08.38.04.69.14.82.19.23.07.29.13.29.21,0,.06-.03.13-.03.23v3.36c0,.34-.04.79-.14,1.12-.07.18-.16.28-.23.28s-.13-.11-.13-.37v-4.34Z"/>
      <path class="cls-7" d="m115.73,569.1c-.57,0-1.32.04-1.78.07-.32.02-.39.14-.58.14-.26,0-1.04-.34-1.04-.44,0-.02.03-.04.1-.04.03,0,.08,0,.14.02.17.04.61.05,1.21.05,1.12,0,2.82-.05,4.43-.11.36,0,.24-.13.71-.13.22,0,.65,0,.65.24,0,.1-.1.2-.27.2h0c-.48-.02-1.35-.05-2.07-.05-.41,0-.77,0-.97.03,0,1.1,0,1.52-.13,1.86-.07.22-.17.34-.25.34s-.14-.11-.14-.37v-1.81Zm-1.59-1.07c-.02-.13-.14-1.62-.18-1.93,0-.08-.27-.2-.44-.26-.08-.03-.16-.07-.16-.12,0-.03.06-.07.26-.08.14,0,.79.11.94.11.54,0,2.05-.05,2.34-.06.22-.02.14-.06.41-.06.24,0,.62.02.62.13,0,.06-.16.16-.21.28-.11.61-.24,1.17-.33,1.51.22.05.32.13.32.19,0,.07-.1.13-.26.13-.51,0-2.33.05-2.88.06-.07.3-.17.46-.26.46-.07,0-.13-.11-.17-.35Zm0,2.86c-.02-.15-.19-.23-.6-.35-.09-.02-.15-.06-.15-.09,0-.04.07-.08.25-.12.38,0,.7.03.86.06.14.03.18.08.18.15,0,.05-.02.11-.02.2,0,.34,0,.77,0,1.05,0,.19.1.26.37.27l1.72-.02c.58-.04.32-.23.99-.23.19,0,.63,0,.63.28,0,.09-.08.17-.22.17h-3.15c-.54,0-.82-.14-.86-.53v-.84Zm2.45-3.21c.32-.02.32-.06.54-.1.03-.72.06-1.38.05-1.67-.44,0-1.96.06-2.58.08-.04.04-.09.04-.09.12l.07,1.61,2.01-.03Z"/>
      <path class="cls-7" d="m124.42,569.1c-.08.29-.21.46-.3.46-.08,0-.14-.11-.15-.38,0-.06-.02-1.68-.02-2.28-.02-.1-.03-.22-.54-.36-.14-.02-.21-.06-.21-.1,0-.05.08-.09.23-.11.91.03,1.03.11,1.03.24,0,.04-.02.09-.02.14v.62l1.91-.04v-.76c-.02-.11-.15-.21-.47-.31-.11-.03-.18-.07-.18-.1,0-.04.08-.07.26-.1.8.08.91.14.91.26,0,.03-.02.18-.02.21,0,1.06,0,1.97-.06,2.37-.07.33-.2.54-.3.54-.07,0-.13-.1-.14-.32l-1.95.04Zm.02-1.56v1.33l1.93-.05v-1.33l-1.93.04Zm2.65,2.33c0-.06-.03-.14-.1-.21-.05-.03-.07-.07-.07-.1s.03-.06.1-.06c.15,0,.53.16.53.27,0,.07-.09.14-.12.23.89.16,1.3.73,1.3,1.28,0,.62-.54,1.29-1.57,1.29s-1.54-.63-1.54-1.3c0-.57.44-1.15,1.35-1.28.08,0,.12-.06.12-.13Zm-1.03,1.38c0,.48.38.97,1.12.97s1.12-.49,1.12-.97-.38-.98-1.12-.98-1.12.49-1.12.98Zm2.22-5.3c0-.07-.22-.23-.69-.43-.12-.04-.18-.09-.18-.13,0-.05.1-.08.29-.09.38.04.66.13.92.21.17.06.21.12.21.19,0,.06-.03.13-.03.22v2.21c.1,0,.18,0,.3-.02.36-.08.22-.22.78-.22.18,0,.5,0,.5.22,0,.1-.09.19-.22.2l-1.37.03c0,.67-.06,1.02-.14,1.24-.07.16-.17.28-.24.28-.06,0-.12-.1-.12-.36v-3.56Z"/>
      <path class="cls-7" d="m134.4,568.34c0-.12-.07-.19-.4-.32-.12-.03-.19-.08-.19-.13,0-.04.08-.08.26-.1.74.05.86.12.86.23,0,.05-.02.1-.02.17v.81c.27,0,1.32-.06,1.7-.1.3-.03.2-.17.58-.17.15,0,.38.02.74.08.2.04.3.14.3.22s-.1.18-.3.18c-.23,0-1.34-.02-1.6-.02-1.64,0-3.49.13-3.88.18-.18.06-.22.16-.34.16-.18,0-1.06-.41-1.06-.53,0-.02.02-.04.1-.04.04,0,.09,0,.16.02.3.05.77.06,1.3.06.56,0,1.2-.02,1.81-.03v-.68Zm-2.69-.34c1.54-.62,2.69-1.81,2.79-2.13,0-.1-.25-.26-.5-.39-.22-.1-.23-.18.05-.18.11,0,1.15.28,1.15.5,0,.04-.02.1-.07.16-.12.14-.34.42-.48.57.27.12.7.28,1.12.38.68.18.58-.09,1.54.38.18.1.26.22.26.31,0,.08-.07.14-.2.14-.08,0-.18-.02-.3-.07-.92-.34-1.97-.72-2.56-1.01-1.06.92-2.63,1.48-2.89,1.48-.05,0-.07,0-.07-.02,0-.02.06-.07.18-.11Zm2.87,1.87c0-.06-.03-.14-.1-.21-.05-.03-.08-.07-.08-.1s.03-.06.1-.06c.16,0,.52.16.52.27,0,.07-.09.14-.11.23.88.16,1.3.72,1.3,1.27,0,.66-.57,1.3-1.57,1.3s-1.54-.63-1.54-1.3c0-.57.44-1.15,1.36-1.28.07,0,.11-.06.11-.13Zm-1.03,1.38c0,.48.38.97,1.12.97s1.12-.49,1.12-.97-.38-.98-1.12-.98-1.12.49-1.12.98Z"/>
      <path class="cls-7" d="m144.87,567.99c.37-.07.26-.17.65-.17.22,0,.7,0,.7.26,0,.1-.1.19-.26.19h-.04c-.56-.02-1.06-.03-1.56-.03s-.98,0-1.51.02c0,.74-.04.96-.14,1.26-.08.16-.16.24-.23.24s-.12-.08-.13-.25v-1.24c-.9.04-1.33.06-1.67.09-.28.04-.34.13-.5.13-.22,0-1.04-.32-1.04-.44,0-.03.05-.04.12-.04.04,0,.09,0,.14,0,.53.07,1.17.09,1.85.09.57,0,2.35-.04,2.84-.08.19-.58.32-1.11.4-1.93-.87,0-1.96.06-3.03.11-.24.05-.3.14-.43.14-.21,0-.9-.34-.9-.42,0-.02.02-.03.09-.03.03,0,.07,0,.13,0,.44.06.89.07,1.41.07.58,0,2.02-.05,2.48-.1.27-.02.23-.06.47-.06h.12c.29.02.38.06.38.13,0,.08-.14.18-.18.27-.22.72-.46,1.28-.69,1.8l.56-.03Zm-.75,2.12c-.73.02-2.21.11-2.56.13-.35.06-.4.15-.55.15-.2,0-.86-.26-.86-.41,0-.03.03-.05.1-.05.02,0,.06,0,.1,0,.33.06.78.08,1.26.08.77,0,1.62-.06,2.18-.1.2-.03.22-.07.4-.07.06,0,.14,0,.23.02.23.02.3.06.3.12s-.09.14-.1.23l-.06,1.58c-.04.53-.2.8-.32.8-.08,0-.14-.11-.14-.34v-2.15Z"/>
      <path class="cls-7" d="m116.55,576.46c.36-.05.16-.21.8-.21.29,0,.42.1.42.21,0,.09-.1.18-.29.18-.57.02-.97.02-1.37.06.1.12.13.2.13.26,0,.07-.05.11-.06.18.82.14,1.2.62,1.2,1.1s-.48,1.06-1.38,1.06-1.38-.57-1.38-1.11c0-.46.36-.93,1.16-1.05.09-.05.12-.1.12-.17,0-.07-.05-.15-.11-.25-.28.02-.41.02-.74.04-.18.04-.2.1-.28.1-.09,0-.64-.22-.64-.35,0-.02.02-.03.08-.03.03,0,.08,0,.14.02.23.03.42.04.65.04.34,0,.74-.02,1.46-.08h.09Zm-.86-.45c-.13,0-.66-.35-.66-.46,0-.02.02-.03.07-.03.04,0,.1,0,.18.02.22.03.41.06.8.06.12,0,.26,0,.44,0,.22.02.34.11.34.2s-.14.18-.43.19l-.74.02Zm-.62,2.17c0,.39.31.78.94.78s.94-.38.94-.78-.32-.78-.94-.78-.94.39-.94.78Zm3.05,1.55c.13-.02.18-.1.18-.18,0-.05-.02-.09-.05-.12-.06-.05-.09-.1-.09-.13,0-.02.02-.04.06-.04s.47.1.47.24c0,.06-.07.14-.1.24.86.14,1.26.69,1.26,1.22,0,.58-.5,1.21-1.48,1.21s-1.54-.61-1.54-1.23c0-.53.41-1.07,1.28-1.21Zm-.83,1.17c0,.46.37.93,1.1.93.68,0,1.03-.46,1.03-.93s-.35-.94-1.03-.94c-.74,0-1.1.47-1.1.94Zm.82-4.96c-.02-.18-.24-.29-.53-.43-.07-.03-.16-.07-.16-.11s.06-.07.26-.1c.81.15.93.22.93.34,0,.05-.02.1-.02.18v1.83l1-.03v-2.01c-.03-.14-.3-.34-.64-.48-.09-.04-.17-.1-.17-.14s.08-.08.29-.08c.89.2,1.03.3,1.03.43,0,.06-.03.13-.03.21l-.05,3.21c-.02.5-.17.78-.28.78-.08,0-.14-.13-.14-.42v-1.28s-1.01.03-1.01.03l-.03.67c-.04.38-.18.58-.3.58-.08,0-.15-.1-.15-.33v-2.85Z"/>
      <path class="cls-7" d="m123.59,576.09c-.24.03-.26.11-.38.11s-.78-.26-.78-.38c0-.02.03-.04.1-.04.04,0,.1,0,.18.02.22.03.53.04.84.04.53,0,1.08-.03,1.39-.05.25-.03.1-.08.42-.08.43,0,.45.06.45.1,0,.07-.16.18-.23.29-.28.45-.55.79-.9,1.21.9.88.87.46,1.25.98.12.2.17.35.17.46s-.06.17-.13.17c-.06,0-.12-.03-.18-.1-.26-.29-.78-.89-1.25-1.38-.82.94-2.36,1.79-2.53,1.79-.02,0-.02,0-.02-.02,0-.02.06-.08.15-.14,1.17-.74,2.4-2,2.96-3.08-.53.04-1.15.07-1.46.08l-.06.02Zm2.4,3.38c0-.06-.04-.14-.1-.21-.05-.03-.07-.07-.07-.1s.03-.06.1-.06c.16,0,.53.16.53.27,0,.07-.09.14-.12.23.89.16,1.3.73,1.3,1.28,0,.65-.56,1.29-1.58,1.29s-1.53-.65-1.53-1.29c0-.58.43-1.17,1.35-1.29.08,0,.12-.06.12-.13Zm-1.04,1.38c0,.48.38.97,1.12.97s1.12-.49,1.12-.97-.37-.98-1.12-.98-1.12.49-1.12.98Zm2.33-3.72c-.41.02-.66.06-.87.06-.2.02-.26.1-.39.1-.18,0-.66-.21-.66-.3,0-.03.06-.05.14-.05.06,0,.33,0,.39,0,.41,0,1.01-.02,1.38-.06v-1.33c-.02-.18-.41-.38-.7-.5-.12-.04-.2-.09-.2-.14,0-.04.07-.08.27-.1.09,0,1.15.18,1.15.4,0,.05-.02.1-.02.2v2.96c-.02.4-.06.85-.22,1.1-.05.08-.1.13-.14.13-.08,0-.14-.14-.14-.54v-1.94Z"/>
      <path class="cls-7" d="m129.94,578.82c1.76-.97,2.52-2.49,2.52-2.61,0-.14-.36-.39-.55-.5-.05-.02-.1-.07-.1-.11,0-.03.04-.06.16-.06.3,0,1.17.4,1.17.58,0,.06-.5.81-.56.9.14.12.42.32.58.42.47.25.46.02,1.03.64.12.13.17.24.17.33s-.06.14-.15.14c-.09,0-.22-.05-.36-.18-.21-.18-.95-.8-1.42-1.18-.82.99-2.28,1.78-2.57,1.78-.04,0-.06,0-.06-.02,0-.02.05-.07.14-.13Zm2.31,2.13c-.02-.09-.17-.14-.42-.21-.08-.02-.15-.05-.15-.08,0-.02.09-.1.36-.1.34,0,.7.06.78.1.74,0,1.18,0,1.94-.03.18-.02.26-.04.42-.07.02-.13.05-.57.07-.97-.51,0-1.59.05-2.37.08-.23.05-.27.14-.41.14-.17,0-.78-.26-.78-.36,0-.02.04-.04.13-.04.03,0,.07,0,.12,0,.27.02.66.04,1.1.04.65,0,1.41-.03,2.04-.07.15-.02.14-.06.3-.06.05,0,.1,0,.18,0,.24.02.31.06.31.12,0,.06-.08.14-.11.22-.1.24-.22.58-.28.85.22.04.33.12.33.18s-.1.11-.27.11c-.61.02-1.8.04-2.65.05-.08.05-.14.03-.14.13v.7c0,.15.08.18.2.18.16,0,.4,0,.68,0,.41,0,.9,0,1.38-.02.48-.06.33-.21.82-.21.22,0,.62,0,.62.23,0,.1-.1.18-.27.18h-3.21c-.58,0-.71-.21-.71-.44v-.67Zm3.02-5.36c0-.14-.25-.33-.7-.5-.14-.05-.21-.1-.21-.14,0-.05.1-.08.29-.1.04,0,1.15.14,1.15.39,0,.06-.03.13-.03.23v2.29c0,.34-.03.82-.13,1.1-.07.18-.16.28-.23.28s-.13-.11-.13-.37l-.02-3.2Z"/>
      <path class="cls-7" d="m118.96,591.22v-.2c.77,0,1.1-.11,1.1-.51v-4.04c0-.29-.17-.4-.51-.4h-.7v-.16c.78-.08,1.23-.29,1.71-.58v5.18c0,.4.37.51,1.14.51v.2h-2.74Z"/>
      <path class="cls-7" d="m127.3,588.35c0,1.56-.57,2.98-1.99,2.98s-1.98-1.42-1.98-2.98.56-3.01,1.98-3.01,1.99,1.43,1.99,3.01Zm-3.46,0c0,1.46.42,2.77,1.47,2.77s1.49-1.31,1.49-2.77-.43-2.8-1.49-2.8-1.47,1.32-1.47,2.8Z"/>
      <path class="cls-7" d="m131.78,586.71c0,.73-.45,1.12-1.14,1.35.92.26,1.42.78,1.42,1.76,0,.85-.84,1.53-1.82,1.53s-1.77-.55-1.77-1.45c0-.62.19-1.11,1.24-1.64-.6-.22-1.01-.73-1.01-1.51,0-.61.48-1.42,1.56-1.42.92,0,1.52.48,1.52,1.38Zm-1.51,4.45c.91,0,1.44-.59,1.44-1.33s-.62-1.14-1.72-1.49c-.87.43-1.04.74-1.04,1.54s.58,1.28,1.32,1.28Zm-1.24-4.43c0,.62.54.96,1.4,1.24.63-.27.96-.61.96-1.26,0-.74-.42-1.2-1.14-1.2s-1.22.41-1.22,1.22Z"/>
    </g>
    <g>
      <path class="cls-7" d="m101.79,714.86c-.02-.24-.36-.42-.88-.67-.16-.07-.26-.14-.26-.19,0-.06.11-.11.37-.13,1.31.23,1.5.38,1.5.58,0,.07-.04.16-.04.25v4.09l1.52-.04v-4.44c-.02-.24-.43-.53-.96-.8-.12-.06-.25-.14-.25-.2s.11-.11.42-.11c1.34.34,1.55.49,1.55.68,0,.08-.04.18-.04.3l-.05,9.06c-.07.75-.3,1.15-.46,1.15-.12,0-.22-.2-.22-.61v-4.68l-1.52.04-.05,3.53c-.06.59-.25.94-.42.94-.12,0-.23-.2-.23-.68v-3.07c-2.35,1.24-4.31,1.52-4.34,1.52-.42,0-.61-.59-.62-.9l-.06-3.81c-.02-.28-.28-.36-.77-.56-.13-.02-.22-.07-.22-.13s.1-.12.36-.18c.52,0,.98.11,1.37.2h.36c.22,0,.47,0,.7-.02.53-.08.23-.3,1.19-.3.42.01.6.18.6.32,0,.13-.12.25-.32.26-.72.04-1.77.07-2.33.07-.05.06-.17-.02-.17.2v3.79c0,.24.02.3.34.3.76,0,2.78-.48,3.92-1.03v-4.71Z"/>
      <path class="cls-7" d="m112.26,715.31c.7-.13.37-.35,1.34-.36.43.01.62.18.62.34,0,.14-.17.29-.49.29-1.02.01-1.98.06-2.55.1.13.16.18.28.18.36,0,.13-.11.2-.14.3,1.33.19,1.95.97,1.95,1.76,0,.88-.79,1.75-2.23,1.75s-2.29-.89-2.29-1.79c0-.79.62-1.57,1.99-1.75.13-.07.19-.17.19-.26,0-.11-.07-.23-.18-.34-.4.01-.89.04-1.5.12-.25.04-.31.13-.46.13-.23,0-1.13-.48-1.13-.61,0-.04.05-.06.16-.06.06,0,.13.01.24.02.54.08,1.08.12,1.76.12s1.02-.02,2.53-.12Zm2.77,5.61c-.79.05-3.18.13-4.29.23-.37.04-.43.17-.64.17-.3,0-1.26-.47-1.26-.59,0-.04.06-.06.19-.06.06,0,.13,0,.22.01.52.06,1.19.1,1.94.1,1.07,0,2.29-.06,3.38-.14.22-.01.1-.12.56-.12.55,0,.79.07.79.18s-.16.24-.16.38c0,1.24-.01,3.41-.55,3.41-.11,0-.19-.16-.19-.49v-3.07Zm-4.65-6.42c-.25,0-1-.53-1-.67,0-.04.02-.06.1-.06s.16.02.29.05c.6.08.79.08,2.17.08.32.02.5.14.5.28,0,.14-.2.28-.66.3l-1.4.02Zm-1,3.51c0,.65.52,1.29,1.54,1.29s1.56-.65,1.56-1.29-.53-1.32-1.56-1.32-1.54.66-1.54,1.32Zm5.67-3.9c0-.12-.3-.36-1.03-.65-.18-.06-.28-.13-.28-.19,0-.07.14-.13.43-.14.56.05.94.2,1.26.29.35.13.43.22.43.34,0,.08-.05.18-.05.32v3.24c.16-.01.28,0,.46-.02.62-.07.32-.34,1.2-.34.24,0,.71,0,.71.32,0,.14-.13.29-.34.3l-2.05.04c-.02,1.81-.46,2.02-.56,2.02-.1,0-.18-.13-.18-.48v-5.04Z"/>
      <path class="cls-7" d="m124.27,719.21c-.85.01-2.23.1-2.85.16-.32.07-.36.24-.6.24-.32,0-1.67-.58-1.67-.77,0-.04.05-.06.13-.06.06,0,.16.01.26.04.78.08,1.74.12,2.76.12,1.79,0,3.77-.1,5.3-.19.64-.08.46-.26,1.03-.26.32,0,1.27,0,1.27.4,0,.14-.14.29-.38.31-.74-.02-1.42-.04-2.23-.04-.64,0-1.37.01-2.28.04,0,2.84,0,3.96-.24,4.7-.11.28-.22.43-.31.43-.11,0-.18-.2-.19-.67v-4.44Zm1.64-5.52c.54-.04.43-.14.84-.14.26,0,.86.05.86.2,0,.12-.29.25-.42.36-.76.64-1.71,1.37-2.19,1.63.97.3,1.19.37,1.7.37.29,0,.43-.05.64-.05.25,0,1.56.24,1.56.72,0,.12-.11.2-.35.2-.46,0-2.99-.74-3.95-1.04-2.12,1.04-4.41,1.55-4.79,1.55-.08,0-.13-.01-.13-.04,0-.04.1-.1.29-.16,1.97-.6,4.68-1.6,6.22-3.33-.91.04-2.9.12-3.57.17-.32.06-.38.17-.55.17-.24,0-1.42-.48-1.42-.65,0-.04.05-.06.14-.06.05,0,.1,0,.16.01.53.1,1.56.14,2.66.14.74,0,1.54-.02,2.21-.06h.08Z"/>
      <path class="cls-7" d="m133.82,715.86c-.08-.26-.56-.4-.9-.48-.16-.02-.23-.07-.23-.13s.11-.13.36-.18c.48,0,.95.07,1.37.17.2.07.25.14.25.24,0,.08-.05.2-.05.36v1.08s3.95-.11,3.95-.11v-1.58c-.01-.24-.34-.42-.84-.61-.12-.05-.19-.1-.19-.14,0-.06.13-.11.41-.12.4.04.84.13,1.26.26.17.06.22.13.22.23s-.05.2-.06.34v3.47c-.07.64-.08,1.09-.34,1.44-.08.08-.16.14-.22.14-.11,0-.19-.13-.24-.44l-1.93.06c.37.07.46.14.46.25,0,.07-.04.16-.04.26l-.04,2c.53,0,1.08-.04,2.41-.1.78-.11.72-.28,1.19-.28.53,0,1.4.13,1.4.52,0,.14-.18.26-.49.26h-.12c-1.02-.1-2.25-.14-3.54-.14-1.42,0-2.89.06-4.19.14-.48.12-.59.25-.82.25-.28,0-1.62-.56-1.62-.77,0-.05.06-.08.19-.08.05,0,.1,0,.14.01.92.14,1.83.2,3.08.2.49,0,1.03-.01,1.64-.02v-1.84c-.02-.2-.2-.32-.59-.52-.11-.05-.19-.1-.22-.13l-1.01.04c-.16.48-.28.71-.43.71-.17,0-.19-.24-.19-.62l-.06-4.14Zm.79,1.4v2.3s3.96-.13,3.96-.13v-2.28l-3.96.11Z"/>
      <path class="cls-7" d="m105.45,730.24c-.14-.06-.23-.12-.23-.17,0-.06.11-.11.38-.12.06,0,1.31.25,1.31.53,0,.08-.06.17-.1.3-.22.7-.72,2.2-.9,2.78.34-.07.7-.14,1.09-.26.14-.04.26-.06.34-.06.06,0,.08.01.08.04,0,.35-3.03,1.03-3.85,1.17-.31.08-.36.25-.58.25-.32,0-1.62-.67-1.62-.85,0-.04.04-.06.12-.06.06,0,.14.01.25.04.35.07.72.1,1.13.1.8,0,1.7-.12,2.64-.3.13-.52.3-1.37.47-2.77,0-.28-.23-.43-.54-.61Zm1.46-1.42c.46,0,.66.14.66.29,0,.17-.24.34-.72.34-1.43,0-2.38.06-3.41.17-.37.04-.44.16-.62.16-.23,0-1.09-.38-1.09-.55,0-.04.04-.06.12-.06.06,0,.12.01.2.02.61.05,1.18.07,1.68.07.71,0,1-.04,1.87-.13.68-.12.42-.3,1.14-.3h.17Zm-3.15,4.57c-.11,0-.2-.14-.23-.37-.05-.35-.12-1.01-.6-2.42-.04-.11-.05-.19-.05-.25s.01-.08.05-.08c.17,0,1.22,1.46,1.22,2.18,0,.55-.22.95-.4.95Zm1.31,2.53c-.02-.24-.3-.35-.91-.54-.13-.02-.22-.07-.22-.13s.1-.12.37-.17c.55,0,1.06.05,1.3.08.2.05.25.11.25.22,0,.07-.04.18-.04.32,0,.53,0,1.17.01,1.62,0,.26.16.37.58.4l2.51-.02c.9-.06.47-.33,1.55-.33.38,0,.89.04.89.41,0,.13-.11.26-.32.26h-4.67c-.79-.01-1.25-.2-1.28-.82v-1.29Zm4.47-7.12c-.01-.28-.47-.58-1.03-.82-.12-.05-.35-.12-.35-.19,0-.08.31-.14.38-.14.17,0,1.85.2,1.85.61,0,.11-.07.22-.07.37v4.82c-.05,1.63-.12,1.96-.35,2.34-.1.13-.17.19-.23.19-.14,0-.19-.31-.2-.73v-2.24c-.3.04-.72.06-1.09.08-.23.05-.25.16-.41.16-.22,0-1.02-.36-1.02-.48,0-.04.08-.06.23-.06.08,0,.48.01.56.01.6,0,1.2-.02,1.73-.08v-2c-.44.01-.94.05-1.14.07-.24.04-.24.16-.4.16-.19,0-1-.35-1-.49,0-.04.06-.06.17-.06.06,0,.14.01.25.02.3.01.55.01.78.01.47,0,.83-.02,1.33-.06v-1.49Z"/>
      <path class="cls-7" d="m116.06,729.81c-.31.05-.34.16-.5.16-.2,0-1.27-.4-1.27-.55,0-.04.04-.06.13-.06.06,0,.14.01.25.04.32.04.65.06,1.1.06.53,0,1.22-.04,2.27-.1.52-.02.43-.12.83-.12.3,0,.71,0,.71.14,0,.07-.12.17-.22.26-.52.8-.82,1.22-1.44,1.96.88.82,1.37.5,1.82,1.01.46.44.6.74.6.92,0,.16-.1.22-.22.22-.08,0-.17-.04-.23-.08-.65-.54-1.31-1.09-2.19-1.88-1.48,1.45-3.89,2.67-4.23,2.67-.02,0-.04-.01-.04-.02,0-.04.07-.1.22-.18,1.44-.84,3.93-2.64,4.82-4.62-.62,0-1.94.13-2.41.18Zm1.28,5.34c0-.18-.32-.35-.74-.46-.14-.04-.25-.1-.25-.16,0-.08.31-.13.48-.13.26,0,.6.06.79.08.38.06.46.13.46.25,0,.07-.02.16-.02.26v.73l3.5-.05v-.94c0-.14-.22-.32-.61-.43-.14-.05-.25-.11-.25-.17,0-.11.34-.11.42-.11.17,0,1.18.12,1.18.35,0,.07-.04.16-.04.29v2.3c0,.37-.02.89-.14,1.27-.07.22-.18.35-.28.35-.12,0-.23-.19-.26-.7l-3.54.05c-.13.49-.35.84-.5.84-.11,0-.18-.14-.18-.52v-3.13Zm.71.92v1.54l3.5-.04v-1.54l-3.5.04Zm3.49-7.39c0-.22-.37-.49-1.04-.74-.2-.07-.31-.14-.31-.2,0-.07.14-.12.43-.14.06,0,1.73.22,1.73.59,0,.08-.05.19-.05.35v3.43c0,.5-.05,1.22-.19,1.66-.11.28-.24.42-.35.42s-.19-.17-.19-.55l-.02-4.8Z"/>
      <path class="cls-7" d="m125.54,733.53c2.64-1.46,3.78-3.74,3.78-3.91,0-.2-.54-.59-.83-.74-.07-.04-.14-.11-.14-.17,0-.05.06-.1.24-.1.46,0,1.75.6,1.75.86,0,.08-.74,1.21-.84,1.36.2.18.62.48.86.62.71.37.7.04,1.55.96.18.19.25.36.25.49s-.08.2-.23.2c-.13,0-.32-.07-.54-.26-.31-.26-1.43-1.2-2.13-1.76-1.22,1.49-3.42,2.67-3.85,2.67-.06,0-.08-.01-.08-.04,0-.04.07-.11.22-.19Zm3.47,3.19c-.02-.13-.25-.22-.64-.31-.12-.04-.23-.07-.23-.12,0-.02.13-.16.54-.16.5,0,1.04.08,1.18.14,1.1,0,1.77,0,2.91-.05.28-.02.4-.06.64-.11.02-.19.07-.85.11-1.45-.77,0-2.39.07-3.55.12-.35.07-.41.2-.61.2-.25,0-1.18-.4-1.18-.54,0-.04.06-.06.19-.06.05,0,.11,0,.18.01.41.04.98.06,1.64.06.97,0,2.11-.05,3.06-.11.23-.04.2-.08.46-.08.07,0,.16,0,.28.01.36.02.47.08.47.18,0,.08-.12.2-.17.32-.16.36-.34.86-.42,1.27.32.06.49.18.49.28s-.14.17-.41.17c-.91.02-2.7.06-3.98.07-.12.07-.22.05-.22.19v1.04c.01.23.12.28.3.28.24,0,.6.01,1.02.01.61,0,1.34-.01,2.06-.02.72-.08.49-.31,1.24-.31.32,0,.92,0,.92.35,0,.14-.14.28-.41.28h-4.81c-.88,0-1.07-.31-1.07-.66v-1.01Zm4.53-8.04c0-.22-.37-.49-1.04-.74-.2-.07-.31-.14-.31-.2,0-.07.14-.12.43-.14.06,0,1.73.22,1.73.59,0,.08-.05.19-.05.35v3.43c0,.5-.05,1.22-.19,1.66-.11.28-.24.42-.35.42s-.19-.17-.19-.55l-.02-4.8Z"/>
      <path class="cls-7" d="m109.07,752.12v-.3c1.15,0,1.64-.17,1.64-.77v-6.06c0-.43-.25-.6-.77-.6h-1.04v-.24c1.16-.12,1.85-.43,2.57-.88v7.77c0,.6.55.77,1.71.77v.3h-4.11Z"/>
      <path class="cls-7" d="m116.57,752.12v-.3c1.15,0,1.64-.17,1.64-.77v-6.06c0-.43-.25-.6-.77-.6h-1.04v-.24c1.16-.12,1.85-.43,2.57-.88v7.77c0,.6.55.77,1.71.77v.3h-4.11Z"/>
      <path class="cls-7" d="m125.55,747.67c-.11.02-.22.05-.29.05-.16,0-.25-.06-.25-.23,0-.16.08-.2.22-.2.08,0,.19.01.31.05,1.39,0,2.23-.72,2.23-1.96,0-.98-.49-1.79-1.63-1.79-1.26,0-1.46.42-1.46.84,0,.19.05.4.05.54,0,.38-.25.64-.47.64s-.56-.14-.56-.65c0-.73.82-1.66,2.45-1.66,1.54,0,2.41.79,2.41,2.08,0,1.12-.85,1.85-1.91,2.12,1.45.25,2.14,1.21,2.14,2.17,0,1.37-.83,2.64-2.9,2.64-1.65,0-2.54-.89-2.54-1.9,0-.5.31-.67.56-.67s.54.19.54.59c0,.16-.02.36-.02.56,0,.54.18,1.13,1.46,1.13,1.48,0,2.1-1.07,2.1-2.35,0-1.2-.74-2.02-2.42-2.02h0Z"/>
    </g>
    <g>
      <path class="cls-7" d="m239.05,618.67c-.17,1.45-1.23,2.56-3.21,2.56-2.24,0-3.5-1.39-3.5-2.91,0-1.29.94-2.56,2.88-2.83.27-.06.54-.14.54-.41,0-.09-.05-.2-.11-.29-.09-.09-.15-.18-.15-.24,0-.04.05-.09.15-.09.42,0,.95.42.95.58,0,.12-.18.23-.3.42,1.85.41,2.66,1.42,2.75,2.75l-.02.45Zm-5.75-.3c0,1.13.83,2.27,2.53,2.27,1.57,0,2.38-1.14,2.38-2.27s-.8-2.27-2.38-2.27c-1.7,0-2.53,1.14-2.53,2.27Zm9.01-4.63c-.03-.29-.48-.65-1.35-1.03-.21-.08-.33-.17-.33-.24,0-.09.15-.17.5-.2.95.15,1.48.36,1.85.48.23.09.27.2.27.33,0,.12-.05.24-.05.41l-.02,8.92c0,2.79-.09,3.16-.36,3.74-.11.18-.21.27-.3.27-.12,0-.21-.18-.21-.65v-12.03Z"/>
      <path class="cls-7" d="m233.41,639.63c-.11-1.27-.26-3.13-.33-4.54-.05-.3-.06-.47-1.01-.83-.18-.03-.3-.09-.3-.17s.14-.17.48-.23c.61.01,1.17.06,1.74.18.71,0,1.92-.06,3.36-.12.48-.06.24-.15.83-.15.83,0,.95.12.95.23,0,.15-.23.33-.32.52-.21,1.41-.47,3.09-.59,3.89.39.05.56.2.56.33,0,.08-.06.24-.36.24-1.32.06-3.42.12-4.24.15-.11.73-.3,1.06-.48,1.06-.12,0-.24-.2-.29-.56Zm.73-.94c.67-.02,1.65-.03,2.71-.08.56-.04.54-.09.83-.18.08-1.41.12-3.22.11-4.07-.94.03-2.69.09-3.5.12-.18.09-.29.02-.29.2l.14,4.01Zm7.49-6.98c-.02-.26-.83-.62-1.47-.91-.17-.06-.27-.14-.27-.2,0-.09.18-.17.64-.18.65.11,1.26.26,1.74.41.32.12.39.23.39.38,0,.12-.05.26-.05.48v5.51h.76c.71-.11.47-.39,1.44-.39.29,0,.92,0,.92.47,0,.21-.18.39-.51.39h-2.62l-.02,4.39c-.02.98-.12,1.6-.38,2.24-.12.18-.24.27-.35.27-.14,0-.23-.2-.23-.7v-12.17Z"/>
      <path class="cls-7" d="m242.25,660.04c.58-.03.51-.33,1.35-.33.39,0,1.65.04,1.65.58,0,.18-.2.35-.51.35h-.08c-.77-.05-1.67-.06-2.54-.06-.48,0-2.8.01-3.33.01-1.33.01-3.12.14-4.01.15-.58.09-.64.32-.95.32-.36,0-2.06-.73-2.06-.97,0-.05.06-.08.18-.08.08,0,.17,0,.29.03.71.17,2.03.24,3.68.24s3.69-.08,5.74-.17l.61-.08Zm-7.72-8.51c-.02-.3-.48-.54-1.09-.74-.18-.03-.36-.12-.36-.21,0-.14.39-.21.59-.21.65,0,1.56.18,1.98.33,1.21-.02,3-.06,4.86-.12.79-.15.54-.46,1.65-.46s1.15.36,1.15.47c0,.17-.2.32-.5.32-2.53.09-5.75.17-7.07.23-.14.09-.23,0-.23.24v2.09c1.27-.03,2.86-.04,5.01-.12.65-.09.17-.36,1.57-.38.48,0,.7.18.7.36s-.21.36-.54.38c-1.03.04-4.81.11-6.74.17v1.95c.02.51.17.51,1.26.51,1.15,0,2.3-.03,3.81-.12.94-.08.39-.41,1.85-.41.3,0,.94,0,.94.38,0,.2-.24.41-.61.41-1.76.08-3.47.12-6.78.17-.94,0-1.39-.38-1.41-1.06l-.05-4.18Z"/>
      <path class="cls-7" d="m237.45,676.78l-.79,2.82h-6.28v-.47c.79-1.83,2.44-3.66,4.01-4.83,1.59-1.21,1.86-2.04,1.86-3.21,0-1.62-.95-2.24-2.32-2.24-1.27,0-2.24.47-2.24,1.47,0,.91.39.8.39,1.32s-.36.68-.67.68c-.42,0-.68-.5-.68-1.2,0-1.18,1.01-2.66,3.27-2.66s3.22,1.03,3.22,2.82c0,1.54-.8,2.62-2.91,4.07-1.29.89-2.48,1.92-3.38,3.45h3.89c1.1,0,1.68-.41,2.35-2.09l.26.08Z"/>
      <path class="cls-7" d="m242.37,679.6v-.35c1.07,0,1.48-.11,1.48-.65v-1.94h-4.19v-.44l4.69-7.73h.45v7.71h1.97v.47h-1.97v1.97c0,.53.5.61,1.44.61v.36h-3.88Zm1.48-9.52l-3.71,6.12h3.71v-6.12Z"/>
    </g>
    <g>
      <path class="cls-7" d="m710.67,416.52c.16-.02.07-.06.38-.06.51,0,.63.03.63.12s-.16.21-.25.33c-.31.5-.83,1.22-1.17,1.61.23.19.59.46.75.57.41.25.46-.03,1.04.77.13.17.19.32.19.43,0,.12-.07.2-.17.2-.08,0-.18-.05-.29-.16-.27-.22-.85-.89-1.7-1.64-.87.84-1.75,1.56-3.22,2.27-.1.05-.18.07-.23.07-.03,0-.05-.02-.05-.04,0-.04.06-.1.2-.18,1.35-.79,3.15-2.31,3.97-4-.5.01-1.71.07-2.16.11-.26.05-.3.15-.43.15-.19,0-1.01-.42-1.01-.53,0-.04.05-.06.14-.06.05,0,.11,0,.18.02.39.07.88.1,1.39.1.67,0,1.19-.04,1.81-.08Zm-1.04,5.34c-.02-.2-.25-.29-.76-.45-.11-.02-.18-.06-.18-.11s.08-.1.31-.14c.46,0,.88.04,1.08.07.17.04.21.09.21.18,0,.06-.03.15-.03.27,0,.44,0,.98.01,1.35,0,.22.13.31.48.33l2.09-.02c.75-.05.39-.28,1.29-.28.32,0,.74.03.74.34,0,.11-.09.22-.27.22h-3.89c-.66,0-1.04-.17-1.07-.68v-1.08Zm3.74-5.97c-.02-.13-.42-.41-.84-.58-.17-.06-.25-.12-.25-.17,0-.06.12-.09.36-.1.47.05.86.17,1.03.24.29.09.36.16.36.26,0,.07-.04.16-.04.29v4.2c0,.43-.05.99-.17,1.4-.09.23-.2.35-.29.35s-.16-.14-.16-.46v-5.43Z"/>
      <path class="cls-7" d="m724.89,422.84c-.78-.05-1.89-.1-3.13-.1-1.74,0-2.61.08-3.46.16-.3.03-.41.14-.64.14-.2,0-.5-.09-1.1-.43-.14-.07-.21-.13-.21-.18,0-.03.03-.05.12-.05.05,0,.13,0,.22.03.52.1,1.22.13,2.05.13.57,0,1.2-.02,1.88-.04,0-.19,0-.55-.03-2.28-.53.02-.97.03-1.32.03-.42,0-.76-.17-.78-.62l-.02-1.04c-.04-.19-.37-.28-.74-.37-.08-.01-.16-.05-.16-.1s.11-.14.52-.14c.38,0,.73.04,1.06.13.54-.02,1.97-.09,2.74-.15.31,0,.35-.05.68-.12.05-.26.11-.93.13-1.5-.86.05-2.25.14-3.44.22-.33.05-.36.17-.51.17-.17,0-1.07-.38-1.07-.51,0-.03.03-.05.11-.05.03,0,.08,0,.13.01.44.05.93.07,1.45.07.9,0,1.9-.06,2.88-.15.27-.03.28-.1.66-.1.46,0,.69.04.69.16s-.2.27-.27.4c-.09.36-.3.96-.39,1.28.27,0,.42.12.42.21,0,.07-.08.13-.25.13-1.37.03-2.71.13-3.77.18-.13.05-.21-.03-.21.12v.03c0,.19,0,.73,0,1.27,0,.17.07.21.29.22.7,0,1.66-.04,2.66-.11.55-.06.32-.3,1.04-.3.25,0,.65,0,.65.24,0,.12-.14.23-.33.24-.89.07-1.56.1-2.2.12,0,1.42,0,1.82-.02,2.28.46,0,1.26-.03,2.14-.08.39-.02.33-.19.8-.19.24,0,1.17.05,1.17.41,0,.12-.14.23-.38.23h-.05Z"/>
      <path class="cls-7" d="m736.7,415.81c-.03-.2-.45-.43-.79-.6-.19-.08-.3-.15-.3-.2s.08-.08.28-.11c.18,0,1.46.25,1.46.5,0,.07-.04.15-.04.28v6.67c0,.92-.14,1.87-.42,1.87-.12,0-.18-.15-.2-.71v-3.63c-.72.23-1.9.48-2.86.67v.67c0,.67-.02,1.38-.19,1.8-.1.26-.2.4-.28.4s-.14-.15-.15-.46v-2.37c-.49.11-.99.18-1.33.22-.3.08-.33.19-.5.19-.2,0-1.43-.49-1.43-.67,0-.04.05-.06.15-.06.05,0,.1,0,.17,0,.25.06.61.08,1.03.08,1.67,0,4.34-.38,5.4-.68v-3.87Zm-4.61,1.51c-.24.04-.26.14-.4.14-.15,0-1.04-.35-1.04-.51,0-.03.03-.05.1-.05.04,0,.1,0,.16.02.5.08,1.04.1,1.58.1.65,0,1.28-.04,1.78-.07.28-.06.08-.1.69-.1.28.02.37.07.37.13,0,.08-.16.18-.23.24-.68.55-1.18.84-1.56,1.08.16.11.59.15.91.16.3,0,.41-.06.57-.06.1,0,.96.13.96.47,0,.12-.11.23-.24.23,0,0-.03,0-.05,0-.84-.14-1.98-.48-2.5-.63-1.3.64-2.87.96-3.02.96-.08,0-.12-.02-.12-.05,0-.04.07-.09.21-.14,1.58-.43,3.26-1.3,3.93-2.02-.3,0-1.77.09-2.1.11Zm.62-1.26c-.12,0-.81-.49-.81-.58,0-.03.04-.05.12-.05.06,0,.14,0,.24.03.57.13,1.33.13,1.95.13.22.02.32.12.32.22s-.09.2-.26.23c-.3.02-.8.02-1.15.02h-.41Z"/>
      <path class="cls-7" d="m743.19,421.21c0-.15-.27-.29-.62-.38-.12-.03-.21-.08-.21-.13,0-.07.26-.11.4-.11.22,0,.5.05.66.07.32.05.38.11.38.21,0,.06-.02.13-.02.22v.61l2.92-.04v-.78c0-.12-.18-.27-.51-.36-.12-.04-.21-.09-.21-.14,0-.08.3-.09.36-.09.18,0,.35.03.48.06-.06-.08-.1-.28-.1-.64v-1.97c-.52.02-.84.07-1.09.08-.26.02-.32.12-.49.12-.11,0-.27-.04-.56-.17,0,0-.01,0-.02,0,0,1.34-1.16,1.78-2.12,1.78-1.32,0-2.04-.85-2.04-1.73,0-.76.53-1.52,1.65-1.7l.07-.02c.18-.01.27-.1.27-.22,0-.04,0-.1-.04-.15-.07-.06-.12-.12-.12-.17,0-.03.03-.06.12-.06.27,0,.6.19.6.33,0,.11-.13.2-.17.29,1,.11,1.6.68,1.73,1.39.03.02.39.02.47.02.51,0,1.26-.03,1.74-.08v-1.67c-.03-.22-.51-.47-.88-.62-.14-.05-.25-.12-.25-.17s.1-.1.34-.12c.12,0,1.44.23,1.44.5,0,.06-.03.13-.03.25v3.24c0,1.31-.36,1.51-.41,1.52,0,0,.03.02.05.02.27.06.33.11.33.19,0,.06-.03.13-.03.24v1.92c0,.31-.02.74-.12,1.06-.06.18-.15.29-.23.29-.1,0-.19-.16-.22-.58l-2.95.04c-.11.41-.29.7-.42.7-.09,0-.15-.12-.15-.43v-2.61Zm-2.18-3.39c0,.67.47,1.33,1.42,1.33,1.05,0,1.57-.66,1.57-1.33s-.52-1.33-1.57-1.33c-.95,0-1.42.67-1.42,1.33Zm2.77,4.16v1.28l2.92-.03v-1.28l-2.92.03Z"/>
      <path class="cls-7" d="m708.31,431.78c1.77-1.16,2.89-3.04,2.89-3.2,0-.1-.12-.26-.55-.57-.13-.1-.19-.17-.19-.22s.07-.08.18-.08c.06,0,.12,0,.2.02.03,0,1.15.47,1.15.77,0,.18-.25.41-.6.97.37.39.58.57.85.75.47.35.42,0,1.08,1.01.06.09.09.18.09.26,0,.14-.09.23-.22.23-.09,0-.2-.05-.31-.17-.39-.42-1.17-1.32-1.65-1.89-.85.97-1.69,1.72-2.81,2.25-.14.07-.23.1-.28.1-.03,0-.04,0-.04-.03,0-.04.07-.11.21-.2Zm5.02.89c0-.08-.04-.18-.12-.26-.06-.04-.09-.09-.09-.13s.04-.07.12-.07c.19,0,.66.2.66.34,0,.09-.11.17-.15.29,1.11.2,1.63.91,1.63,1.6,0,.77-.68,1.62-1.97,1.62s-1.92-.79-1.92-1.63c0-.71.55-1.44,1.69-1.6.1-.01.15-.08.15-.16Zm-1.29,1.72c0,.6.47,1.21,1.4,1.21s1.4-.61,1.4-1.21-.47-1.23-1.4-1.23-1.4.61-1.4,1.23Zm2.78-6.63c0-.09-.28-.29-.86-.54-.15-.05-.23-.11-.23-.16,0-.06.12-.1.36-.11.47.05.83.16,1.15.26.21.08.26.15.26.24,0,.07-.04.16-.04.28v2.77c.13,0,.23,0,.38-.02.45-.1.27-.28.97-.28.23,0,.62,0,.62.27,0,.12-.11.24-.28.25l-1.71.04c0,.84-.07,1.27-.17,1.55-.09.2-.21.35-.3.35-.08,0-.15-.12-.15-.45v-4.45Z"/>
      <path class="cls-7" d="m724.82,427.69c0-.1-.25-.3-.86-.54-.15-.05-.23-.11-.23-.16,0-.06.12-.11.36-.12.47.04.78.17,1.05.24.29.11.36.18.36.28,0,.07-.04.15-.04.27v2.7c.13,0,.23,0,.38-.02.52-.06.27-.28,1-.28.2,0,.59,0,.59.27,0,.12-.11.24-.28.25l-1.71.03c-.02,1.51-.38,1.68-.47,1.68-.08,0-.15-.11-.15-.4v-1.31c-1.41.62-4.13,1.36-4.83,1.36-.19,0-.45-.3-.46-.78l-.03-2.07c-.03-.23-.35-.32-.75-.45-.1-.02-.15-.05-.15-.09,0,0,.05-.14.37-.14.52,0,.99.05,1.25.1.61-.02,1.05-.05,1.38-.08.65-.06.32-.27,1.25-.27.26,0,.38.12.38.24,0,.11-.1.21-.31.21-1.05.07-1.86.1-2.57.12-.13.04-.2-.02-.2.14-.02.78-.04,1.49-.04,1.94,0,.49,0,.61.26.61.1,0,2.59-.27,4.45-1.01v-2.72Zm.3,5.07c.37.02.48.07.48.14,0,.08-.14.2-.18.35-.12.67-.31,1.58-.4,1.94.3.05.43.15.43.24,0,.08-.11.14-.29.14-.67.02-2.69.07-3.34.07-.06.39-.2.61-.32.61-.08,0-.15-.12-.18-.39-.03-.33-.08-1.65-.15-2.39-.02-.14-.03-.22-.58-.39-.11-.03-.22-.07-.22-.12s.09-.1.33-.14c.4.02.87.09,1.12.14.47,0,2.18-.05,2.68-.1.23,0,.1-.1.47-.1h.15Zm-1.05,2.58c.3-.04.35-.06.62-.13.03-.46.08-1.6.08-2.09-.55.04-2.11.07-2.87.1-.05.07-.12.05-.12.15l.05,2,2.24-.03Z"/>
      <path class="cls-7" d="m728.56,431.86c2.2-1.22,3.15-3.12,3.15-3.26,0-.17-.45-.49-.69-.62-.06-.03-.12-.09-.12-.14,0-.04.05-.08.2-.08.38,0,1.46.5,1.46.72,0,.07-.62,1.01-.7,1.13.17.15.52.4.72.52.59.31.58.03,1.29.8.15.16.21.3.21.41s-.07.17-.19.17c-.11,0-.27-.06-.45-.22-.26-.22-1.19-1-1.78-1.47-1.02,1.24-2.85,2.23-3.21,2.23-.05,0-.07,0-.07-.03,0-.03.06-.09.18-.16Zm2.89,2.66c-.02-.11-.21-.18-.53-.26-.1-.03-.19-.06-.19-.1,0-.02.11-.13.45-.13.42,0,.87.07.98.12.92,0,1.48,0,2.43-.04.23-.02.33-.05.53-.09.02-.16.06-.71.09-1.21-.64,0-1.99.06-2.96.1-.29.06-.34.17-.51.17-.21,0-.98-.33-.98-.45,0-.03.05-.05.16-.05.04,0,.09,0,.15,0,.34.03.82.05,1.37.05.81,0,1.76-.04,2.55-.09.19-.03.17-.07.38-.07.06,0,.13,0,.23.01.3.02.39.07.39.15,0,.07-.1.17-.14.27-.13.3-.28.72-.35,1.06.27.05.41.15.41.23s-.12.14-.34.14c-.76.02-2.25.05-3.32.06-.1.06-.18.04-.18.16v.87c0,.19.1.23.25.23.2,0,.5,0,.85,0,.51,0,1.12,0,1.72-.02.6-.07.41-.26,1.03-.26.27,0,.77,0,.77.29,0,.12-.12.23-.34.23h-4.01c-.73,0-.89-.26-.89-.55v-.84Zm3.78-6.7c0-.18-.31-.41-.87-.62-.17-.06-.26-.12-.26-.17,0-.06.12-.1.36-.12.05,0,1.44.18,1.44.49,0,.07-.04.16-.04.29v2.86c0,.42-.04,1.02-.16,1.38-.09.23-.2.35-.29.35s-.16-.14-.16-.46l-.02-4Z"/>
      <path class="cls-7" d="m746.64,433.5l-.52,1.86h-4.15v-.31c.52-1.21,1.61-2.42,2.65-3.19,1.05-.8,1.23-1.35,1.23-2.12,0-1.07-.63-1.48-1.53-1.48-.84,0-1.48.31-1.48.97,0,.6.26.53.26.87s-.24.45-.44.45c-.28,0-.45-.33-.45-.79,0-.78.67-1.76,2.16-1.76s2.13.68,2.13,1.86c0,1.02-.53,1.73-1.92,2.69-.85.59-1.64,1.27-2.23,2.28h2.57c.73,0,1.11-.27,1.55-1.38l.17.05Z"/>
      <path class="cls-7" d="m709.01,447.36v-.25c.96,0,1.37-.14,1.37-.64v-5.05c0-.36-.21-.5-.64-.5h-.87v-.2c.97-.1,1.54-.36,2.14-.73v6.48c0,.5.46.64,1.43.64v.25h-3.43Z"/>
      <path class="cls-7" d="m719.42,443.77c0,1.95-.71,3.73-2.49,3.73s-2.48-1.78-2.48-3.73.7-3.77,2.48-3.77,2.49,1.79,2.49,3.77Zm-4.33,0c0,1.82.53,3.46,1.84,3.46s1.86-1.64,1.86-3.46-.54-3.5-1.86-3.5-1.84,1.65-1.84,3.5Z"/>
      <path class="cls-7" d="m722.74,443.65c-.09.02-.18.04-.24.04-.13,0-.21-.05-.21-.19,0-.13.07-.17.18-.17.07,0,.16,0,.26.04,1.16,0,1.86-.6,1.86-1.63,0-.82-.41-1.49-1.36-1.49-1.05,0-1.22.35-1.22.7,0,.16.04.33.04.45,0,.32-.21.53-.39.53s-.47-.12-.47-.54c0-.61.68-1.38,2.04-1.38,1.28,0,2.01.66,2.01,1.73,0,.93-.71,1.54-1.59,1.77,1.21.21,1.78,1.01,1.78,1.81,0,1.14-.69,2.2-2.42,2.2-1.38,0-2.12-.74-2.12-1.58,0-.42.26-.56.47-.56s.45.16.45.49c0,.13-.02.3-.02.47,0,.45.15.94,1.22.94,1.23,0,1.75-.89,1.75-1.96,0-1-.62-1.68-2.02-1.68h0Z"/>
      <path class="cls-7" d="m730.89,443.42h5.83v.51h-5.83v-.51Z"/>
      <path class="cls-7" d="m746.84,445.5l-.52,1.86h-4.15v-.31c.52-1.21,1.61-2.42,2.65-3.19,1.05-.8,1.23-1.35,1.23-2.12,0-1.07-.63-1.48-1.53-1.48-.84,0-1.48.31-1.48.97,0,.6.26.53.26.87s-.24.45-.44.45c-.28,0-.45-.33-.45-.79,0-.78.67-1.76,2.16-1.76s2.13.68,2.13,1.86c0,1.02-.53,1.73-1.92,2.69-.85.59-1.64,1.27-2.23,2.28h2.57c.73,0,1.11-.27,1.55-1.38l.17.05Z"/>
    </g>
    <g>
      <path class="cls-7" d="m711.67,464.52c.16-.02.07-.06.38-.06.51,0,.63.03.63.12s-.16.21-.25.33c-.31.5-.83,1.22-1.17,1.61.23.19.59.46.75.57.41.25.46-.03,1.04.77.13.17.19.32.19.43,0,.12-.07.2-.17.2-.08,0-.18-.05-.29-.16-.27-.22-.85-.89-1.7-1.64-.87.84-1.75,1.56-3.22,2.27-.1.05-.18.07-.23.07-.03,0-.05-.02-.05-.04,0-.04.06-.1.2-.18,1.35-.79,3.15-2.31,3.97-4-.5.01-1.71.07-2.16.11-.26.05-.3.15-.43.15-.19,0-1.01-.42-1.01-.53,0-.04.05-.06.14-.06.05,0,.11,0,.18.02.39.07.88.1,1.39.1.67,0,1.19-.04,1.81-.08Zm-1.04,5.34c-.02-.2-.25-.29-.76-.45-.11-.02-.18-.06-.18-.11s.08-.1.31-.14c.46,0,.88.04,1.08.07.17.04.21.09.21.18,0,.06-.03.15-.03.27,0,.44,0,.98.01,1.35,0,.22.13.31.48.33l2.09-.02c.75-.05.39-.28,1.29-.28.32,0,.74.03.74.34,0,.11-.09.22-.27.22h-3.89c-.66,0-1.04-.17-1.07-.68v-1.08Zm3.74-5.97c-.02-.13-.42-.41-.84-.58-.17-.06-.25-.12-.25-.17,0-.06.12-.09.36-.1.47.05.86.17,1.03.24.29.09.36.16.36.26,0,.07-.04.16-.04.29v4.2c0,.43-.05.99-.17,1.4-.09.23-.2.35-.29.35s-.16-.14-.16-.46v-5.43Z"/>
      <path class="cls-7" d="m725.89,470.84c-.78-.05-1.89-.1-3.13-.1-1.74,0-2.61.08-3.46.16-.3.03-.41.14-.64.14-.2,0-.5-.09-1.1-.43-.14-.07-.21-.13-.21-.18,0-.03.03-.05.12-.05.05,0,.13,0,.22.03.52.1,1.22.13,2.05.13.57,0,1.2-.02,1.88-.04,0-.19,0-.55-.03-2.28-.53.02-.97.03-1.32.03-.42,0-.76-.17-.78-.62l-.02-1.04c-.04-.19-.37-.28-.74-.37-.08-.01-.16-.05-.16-.1s.11-.14.52-.14c.38,0,.73.04,1.06.13.54-.02,1.97-.09,2.74-.15.31,0,.35-.05.68-.12.05-.26.11-.93.13-1.5-.86.05-2.25.14-3.44.22-.33.05-.36.17-.51.17-.17,0-1.07-.38-1.07-.51,0-.03.03-.05.11-.05.03,0,.08,0,.13.01.44.05.93.07,1.45.07.9,0,1.9-.06,2.88-.15.27-.03.28-.1.66-.1.46,0,.69.04.69.16s-.2.27-.27.4c-.09.36-.3.96-.39,1.28.27,0,.42.12.42.21,0,.07-.08.13-.25.13-1.37.03-2.71.13-3.77.18-.13.05-.21-.03-.21.12v.03c0,.19,0,.73,0,1.27,0,.17.07.21.29.22.7,0,1.66-.04,2.66-.11.55-.06.32-.3,1.04-.3.25,0,.65,0,.65.24,0,.12-.14.23-.33.24-.89.07-1.56.1-2.2.12,0,1.42,0,1.82-.02,2.28.46,0,1.26-.03,2.14-.08.39-.02.33-.19.8-.19.24,0,1.17.05,1.17.41,0,.12-.14.23-.38.23h-.05Z"/>
      <path class="cls-7" d="m737.7,463.81c-.03-.2-.45-.43-.79-.6-.19-.08-.3-.15-.3-.2s.08-.08.28-.11c.18,0,1.46.25,1.46.5,0,.07-.04.15-.04.28v6.67c0,.92-.14,1.87-.42,1.87-.12,0-.18-.15-.2-.71v-3.63c-.72.23-1.9.48-2.86.67v.67c0,.67-.02,1.38-.19,1.8-.1.26-.2.4-.28.4s-.14-.15-.15-.46v-2.37c-.49.11-.99.18-1.33.22-.3.08-.33.19-.5.19-.2,0-1.43-.49-1.43-.67,0-.04.05-.06.15-.06.05,0,.1,0,.17,0,.25.06.61.08,1.03.08,1.67,0,4.34-.38,5.4-.68v-3.87Zm-4.61,1.51c-.24.04-.26.14-.4.14-.15,0-1.04-.35-1.04-.51,0-.03.03-.05.1-.05.04,0,.1,0,.16.02.5.08,1.04.1,1.58.1.65,0,1.28-.04,1.78-.07.28-.06.08-.1.69-.1.28.02.37.07.37.13,0,.08-.16.18-.23.24-.68.55-1.18.84-1.56,1.08.16.11.59.15.91.16.3,0,.41-.06.57-.06.1,0,.96.13.96.47,0,.12-.11.23-.24.23,0,0-.03,0-.05,0-.84-.14-1.98-.48-2.5-.63-1.3.64-2.87.96-3.02.96-.08,0-.12-.02-.12-.05,0-.04.07-.09.21-.14,1.58-.43,3.26-1.3,3.93-2.02-.3,0-1.77.09-2.1.11Zm.62-1.26c-.12,0-.81-.49-.81-.58,0-.03.04-.05.12-.05.06,0,.14,0,.24.03.57.13,1.33.13,1.95.13.22.02.32.12.32.22s-.09.2-.26.23c-.3.02-.8.02-1.15.02h-.41Z"/>
      <path class="cls-7" d="m744.19,469.21c0-.15-.27-.29-.62-.38-.12-.03-.21-.08-.21-.13,0-.07.26-.11.4-.11.22,0,.5.05.66.07.32.05.38.11.38.21,0,.06-.02.13-.02.22v.61l2.92-.04v-.78c0-.12-.18-.27-.51-.36-.12-.04-.21-.09-.21-.14,0-.08.3-.09.36-.09.18,0,.35.03.48.06-.06-.08-.1-.28-.1-.64v-1.97c-.52.02-.84.07-1.09.08-.26.02-.32.12-.49.12-.11,0-.27-.04-.56-.17,0,0-.01,0-.02,0,0,1.34-1.16,1.78-2.12,1.78-1.32,0-2.04-.85-2.04-1.73,0-.76.53-1.52,1.65-1.7l.07-.02c.18-.01.27-.1.27-.22,0-.04,0-.1-.04-.15-.07-.06-.12-.12-.12-.17,0-.03.03-.06.12-.06.27,0,.6.19.6.33,0,.11-.13.2-.17.29,1,.11,1.6.68,1.73,1.39.03.02.39.02.47.02.51,0,1.26-.03,1.74-.08v-1.67c-.03-.22-.51-.47-.88-.62-.14-.05-.25-.12-.25-.17s.1-.1.34-.12c.12,0,1.44.23,1.44.5,0,.06-.03.13-.03.25v3.24c0,1.31-.36,1.51-.41,1.52,0,0,.03.02.05.02.27.06.33.11.33.19,0,.06-.03.13-.03.24v1.92c0,.31-.02.74-.12,1.06-.06.18-.15.29-.23.29-.1,0-.19-.16-.22-.58l-2.95.04c-.11.41-.29.7-.42.7-.09,0-.15-.12-.15-.43v-2.61Zm-2.18-3.39c0,.67.47,1.33,1.42,1.33,1.05,0,1.57-.66,1.57-1.33s-.52-1.33-1.57-1.33c-.95,0-1.42.67-1.42,1.33Zm2.77,4.16v1.28l2.92-.03v-1.28l-2.92.03Z"/>
      <path class="cls-7" d="m709.31,479.78c1.77-1.16,2.89-3.04,2.89-3.2,0-.1-.12-.26-.55-.57-.13-.1-.19-.17-.19-.22s.07-.08.18-.08c.06,0,.12,0,.2.02.03,0,1.15.47,1.15.77,0,.18-.25.41-.6.97.37.39.58.57.85.75.47.35.42,0,1.08,1.01.06.09.09.18.09.26,0,.14-.09.23-.22.23-.09,0-.2-.05-.31-.17-.39-.42-1.17-1.32-1.65-1.89-.85.97-1.69,1.72-2.81,2.25-.14.07-.23.1-.28.1-.03,0-.04,0-.04-.03,0-.04.07-.11.21-.2Zm5.02.89c0-.08-.04-.18-.12-.26-.06-.04-.09-.09-.09-.13s.04-.07.12-.07c.19,0,.66.2.66.34,0,.09-.11.17-.15.29,1.11.2,1.63.91,1.63,1.6,0,.77-.68,1.62-1.97,1.62s-1.92-.79-1.92-1.63c0-.71.55-1.44,1.69-1.6.1-.01.15-.08.15-.16Zm-1.29,1.72c0,.6.47,1.21,1.4,1.21s1.4-.61,1.4-1.21-.47-1.23-1.4-1.23-1.4.61-1.4,1.23Zm2.78-6.63c0-.09-.28-.29-.86-.54-.15-.05-.23-.11-.23-.16,0-.06.12-.1.36-.11.47.05.83.16,1.15.26.21.08.26.15.26.24,0,.07-.04.16-.04.28v2.77c.13,0,.23,0,.38-.02.45-.1.27-.28.97-.28.23,0,.62,0,.62.27,0,.12-.11.24-.28.25l-1.71.04c0,.84-.07,1.27-.17,1.55-.09.2-.21.35-.3.35-.08,0-.15-.12-.15-.45v-4.45Z"/>
      <path class="cls-7" d="m725.82,475.69c0-.1-.25-.3-.86-.54-.15-.05-.23-.11-.23-.16,0-.06.12-.11.36-.12.47.04.78.17,1.05.24.29.11.36.18.36.28,0,.07-.04.15-.04.27v2.7c.13,0,.23,0,.38-.02.52-.06.27-.28,1-.28.2,0,.59,0,.59.27,0,.12-.11.24-.28.25l-1.71.03c-.02,1.51-.38,1.68-.47,1.68-.08,0-.15-.11-.15-.4v-1.31c-1.41.62-4.13,1.36-4.83,1.36-.19,0-.45-.3-.46-.78l-.03-2.07c-.03-.23-.35-.32-.75-.45-.1-.02-.15-.05-.15-.09,0,0,.05-.14.37-.14.52,0,.99.05,1.25.1.61-.02,1.05-.05,1.38-.08.65-.06.32-.27,1.25-.27.26,0,.38.12.38.24,0,.11-.1.21-.31.21-1.05.07-1.86.1-2.57.12-.13.04-.2-.02-.2.14-.02.78-.04,1.49-.04,1.94,0,.49,0,.61.26.61.1,0,2.59-.27,4.45-1.01v-2.72Zm.3,5.07c.37.02.48.07.48.14,0,.08-.14.2-.18.35-.12.67-.31,1.58-.4,1.94.3.05.43.15.43.24,0,.08-.11.14-.29.14-.67.02-2.69.07-3.34.07-.06.39-.2.61-.32.61-.08,0-.15-.12-.18-.39-.03-.33-.08-1.65-.15-2.39-.02-.14-.03-.22-.58-.39-.11-.03-.22-.07-.22-.12s.09-.1.33-.14c.4.02.87.09,1.12.14.47,0,2.18-.05,2.68-.1.23,0,.1-.1.47-.1h.15Zm-1.05,2.58c.3-.04.35-.06.62-.13.03-.46.08-1.6.08-2.09-.55.04-2.11.07-2.87.1-.05.07-.12.05-.12.15l.05,2,2.24-.03Z"/>
      <path class="cls-7" d="m729.56,479.86c2.2-1.22,3.15-3.12,3.15-3.26,0-.17-.45-.49-.69-.62-.06-.03-.12-.09-.12-.14,0-.04.05-.08.2-.08.38,0,1.46.5,1.46.72,0,.07-.62,1.01-.7,1.13.17.15.52.4.72.52.59.31.58.03,1.29.8.15.16.21.3.21.41s-.07.17-.19.17c-.11,0-.27-.06-.45-.22-.26-.22-1.19-1-1.78-1.47-1.02,1.24-2.85,2.23-3.21,2.23-.05,0-.07,0-.07-.03,0-.03.06-.09.18-.16Zm2.89,2.66c-.02-.11-.21-.18-.53-.26-.1-.03-.19-.06-.19-.1,0-.02.11-.13.45-.13.42,0,.87.07.98.12.92,0,1.48,0,2.43-.04.23-.02.33-.05.53-.09.02-.16.06-.71.09-1.21-.64,0-1.99.06-2.96.1-.29.06-.34.17-.51.17-.21,0-.98-.33-.98-.45,0-.03.05-.05.16-.05.04,0,.09,0,.15,0,.34.03.82.05,1.37.05.81,0,1.76-.04,2.55-.09.19-.03.17-.07.38-.07.06,0,.13,0,.23.01.3.02.39.07.39.15,0,.07-.1.17-.14.27-.13.3-.28.72-.35,1.06.27.05.41.15.41.23s-.12.14-.34.14c-.76.02-2.25.05-3.32.06-.1.06-.18.04-.18.16v.87c0,.19.1.23.25.23.2,0,.5,0,.85,0,.51,0,1.12,0,1.72-.02.6-.07.41-.26,1.03-.26.27,0,.77,0,.77.29,0,.12-.12.23-.34.23h-4.01c-.73,0-.89-.26-.89-.55v-.84Zm3.78-6.7c0-.18-.31-.41-.87-.62-.17-.06-.26-.12-.26-.17,0-.06.12-.1.36-.12.05,0,1.44.18,1.44.49,0,.07-.04.16-.04.29v2.86c0,.42-.04,1.02-.16,1.38-.09.23-.2.35-.29.35s-.16-.14-.16-.46l-.02-4Z"/>
      <path class="cls-7" d="m743.54,483.36v-.25c.96,0,1.37-.14,1.37-.64v-5.05c0-.36-.21-.5-.64-.5h-.87v-.2c.97-.1,1.54-.36,2.14-.73v6.48c0,.5.46.64,1.43.64v.25h-3.43Z"/>
      <path class="cls-7" d="m710.01,495.36v-.25c.96,0,1.37-.14,1.37-.64v-5.05c0-.36-.21-.5-.64-.5h-.87v-.2c.97-.1,1.54-.36,2.14-.73v6.48c0,.5.46.64,1.43.64v.25h-3.43Z"/>
      <path class="cls-7" d="m720.42,491.77c0,1.95-.71,3.73-2.49,3.73s-2.48-1.78-2.48-3.73.7-3.77,2.48-3.77,2.49,1.79,2.49,3.77Zm-4.33,0c0,1.82.53,3.46,1.84,3.46s1.86-1.64,1.86-3.46-.54-3.5-1.86-3.5-1.84,1.65-1.84,3.5Z"/>
      <path class="cls-7" d="m723.74,491.65c-.09.02-.18.04-.24.04-.13,0-.21-.05-.21-.19,0-.13.07-.17.18-.17.07,0,.16,0,.26.04,1.16,0,1.86-.6,1.86-1.63,0-.82-.41-1.49-1.36-1.49-1.05,0-1.22.35-1.22.7,0,.16.04.33.04.45,0,.32-.21.53-.39.53s-.47-.12-.47-.54c0-.61.68-1.38,2.04-1.38,1.28,0,2.01.66,2.01,1.73,0,.93-.71,1.54-1.59,1.77,1.21.21,1.78,1.01,1.78,1.81,0,1.14-.69,2.2-2.42,2.2-1.38,0-2.12-.74-2.12-1.58,0-.42.26-.56.47-.56s.45.16.45.49c0,.13-.02.3-.02.47,0,.45.15.94,1.22.94,1.23,0,1.75-.89,1.75-1.96,0-1-.62-1.68-2.02-1.68h0Z"/>
      <path class="cls-7" d="m731.89,491.42h5.83v.51h-5.83v-.51Z"/>
      <path class="cls-7" d="m743.75,495.36v-.25c.96,0,1.37-.14,1.37-.64v-5.05c0-.36-.21-.5-.64-.5h-.87v-.2c.97-.1,1.54-.36,2.14-.73v6.48c0,.5.46.64,1.43.64v.25h-3.43Z"/>
    </g>
    <g>
      <path class="cls-7" d="m718.29,522.93c-.71,0-1.86.08-2.38.13-.27.06-.3.2-.5.2-.27,0-1.39-.48-1.39-.64,0-.03.04-.05.11-.05.05,0,.13,0,.22.03.65.07,1.45.1,2.3.1,1.49,0,3.14-.08,4.42-.16.53-.07.38-.22.86-.22.27,0,1.06,0,1.06.33,0,.12-.12.24-.32.26-.62-.02-1.18-.03-1.86-.03-.53,0-1.14.01-1.9.03,0,2.37,0,3.3-.2,3.92-.09.23-.18.36-.26.36-.09,0-.15-.17-.16-.56v-3.7Zm-3.59-1.62c1.77-.69,3.4-2.08,3.63-2.59,0-.1-.31-.3-.67-.51-.3-.16-.15-.23.15-.23.16,0,1.42.41,1.42.65,0,.14-.57.74-.67.84.27.13,1.33.46,1.79.46.19,0,.3-.04.45-.04.28,0,1.43.36,1.43.71,0,.1-.1.17-.29.17-.1,0-.22,0-.37-.06-1.06-.31-2.68-.76-3.2-1.07-1.65,1.3-3.51,1.84-3.8,1.84-.07,0-.1-.01-.1-.03,0-.04.08-.09.23-.14Z"/>
      <path class="cls-7" d="m731.03,518.79c-.03-.2-.54-.44-.94-.62-.13-.04-.23-.1-.23-.15s.09-.09.31-.11c1.33.25,1.5.39,1.5.56,0,.06-.02.12-.02.19l-.04,6.66c0,.85-.13,1.88-.37,1.88-.12,0-.16-.13-.21-.73v-3.6c-.61.19-1.9.54-3.11.79,0,1.29,0,1.97-.18,2.55-.1.27-.21.41-.29.41s-.14-.15-.15-.46v-2.41c-.34.06-.69.12-1.07.19-.28.08-.31.2-.47.2-.18,0-1.46-.5-1.46-.68,0-.04.05-.06.15-.06.04,0,.1,0,.16,0,.23.05.54.07.91.07,1.67,0,4.44-.45,5.51-.81v-3.88Zm-3.78.27c.12,0,.24-.05.24-.15,0-.06-.03-.13-.1-.21-.06-.06-.08-.1-.08-.14s.04-.06.11-.06c.15,0,.58.15.58.34,0,.08-.07.15-.09.23,1.03.16,1.54.85,1.54,1.53,0,.75-.63,1.5-1.86,1.5s-1.91-.72-1.91-1.49c0-.66.5-1.34,1.57-1.55Zm-1.02,1.5c0,.59.45,1.16,1.35,1.16s1.33-.57,1.33-1.16-.45-1.16-1.33-1.16-1.35.58-1.35,1.16Z"/>
      <path class="cls-7" d="m734.35,522.86c2.2-1.22,3.15-3.12,3.15-3.26,0-.17-.45-.49-.69-.62-.06-.03-.12-.09-.12-.14,0-.04.05-.08.2-.08.38,0,1.46.5,1.46.72,0,.07-.62,1.01-.7,1.13.17.15.52.4.72.52.59.31.58.03,1.29.8.15.16.21.3.21.41s-.07.17-.19.17c-.11,0-.27-.06-.45-.22-.26-.22-1.19-1-1.78-1.47-1.02,1.24-2.85,2.23-3.21,2.23-.05,0-.07,0-.07-.03,0-.03.06-.09.18-.16Zm2.89,2.66c-.02-.11-.21-.18-.53-.26-.1-.03-.19-.06-.19-.1,0-.02.11-.13.45-.13.42,0,.87.07.98.12.92,0,1.48,0,2.43-.04.23-.02.33-.05.53-.09.02-.16.06-.71.09-1.21-.64,0-1.99.06-2.96.1-.29.06-.34.17-.51.17-.21,0-.98-.33-.98-.45,0-.03.05-.05.16-.05.04,0,.09,0,.15,0,.34.03.82.05,1.37.05.81,0,1.76-.04,2.55-.09.19-.03.17-.07.38-.07.06,0,.13,0,.23.01.3.02.39.07.39.15,0,.07-.1.17-.14.27-.13.3-.28.72-.35,1.06.27.05.41.15.41.23s-.12.14-.34.14c-.76.02-2.25.05-3.32.06-.1.06-.18.04-.18.16v.87c0,.19.1.23.25.23.2,0,.5,0,.85,0,.51,0,1.12,0,1.72-.02.6-.07.41-.26,1.03-.26.27,0,.77,0,.77.29,0,.12-.12.23-.34.23h-4.01c-.73,0-.89-.26-.89-.55v-.84Zm3.78-6.7c0-.18-.31-.41-.87-.62-.17-.06-.26-.12-.26-.17,0-.06.12-.1.36-.12.05,0,1.44.18,1.44.49,0,.07-.04.16-.04.29v2.86c0,.42-.04,1.02-.16,1.38-.09.23-.2.35-.29.35s-.16-.14-.16-.46l-.02-4Z"/>
      <path class="cls-7" d="m710.01,538.36v-.25c.96,0,1.37-.14,1.37-.64v-5.05c0-.36-.21-.5-.64-.5h-.87v-.2c.97-.1,1.54-.36,2.14-.73v6.48c0,.5.46.64,1.43.64v.25h-3.43Z"/>
      <path class="cls-7" d="m720.42,534.77c0,1.95-.71,3.73-2.49,3.73s-2.48-1.78-2.48-3.73.7-3.77,2.48-3.77,2.49,1.79,2.49,3.77Zm-4.33,0c0,1.82.53,3.46,1.84,3.46s1.86-1.64,1.86-3.46-.54-3.5-1.86-3.5-1.84,1.65-1.84,3.5Z"/>
      <path class="cls-7" d="m726.6,536.5l-.52,1.86h-4.15v-.31c.52-1.21,1.61-2.42,2.65-3.19,1.05-.8,1.23-1.35,1.23-2.12,0-1.07-.63-1.48-1.53-1.48-.84,0-1.48.31-1.48.97,0,.6.26.53.26.87s-.24.45-.44.45c-.28,0-.45-.33-.45-.79,0-.78.67-1.76,2.16-1.76s2.13.68,2.13,1.86c0,1.02-.53,1.73-1.92,2.69-.85.59-1.64,1.27-2.23,2.28h2.57c.73,0,1.11-.27,1.55-1.38l.17.05Z"/>
      <path class="cls-7" d="m731.89,534.42h5.83v.51h-5.83v-.51Z"/>
      <path class="cls-7" d="m743.75,538.36v-.25c.96,0,1.37-.14,1.37-.64v-5.05c0-.36-.21-.5-.64-.5h-.87v-.2c.97-.1,1.54-.36,2.14-.73v6.48c0,.5.46.64,1.43.64v.25h-3.43Z"/>
    </g>
    <g>
      <path class="cls-7" d="m274.29,473.15c.19-.02.08-.07.46-.07.61,0,.76.04.76.14s-.19.25-.3.4c-.37.6-1,1.46-1.4,1.93.28.23.71.55.9.68.49.3.55-.04,1.25.92.16.2.23.38.23.52,0,.14-.08.24-.2.24-.1,0-.22-.06-.35-.19-.32-.26-1.02-1.07-2.04-1.97-1.04,1.01-2.1,1.87-3.86,2.72-.12.06-.22.08-.28.08-.04,0-.06-.02-.06-.05,0-.05.07-.12.24-.22,1.62-.95,3.78-2.77,4.76-4.8-.6.01-2.05.08-2.59.13-.31.06-.36.18-.52.18-.23,0-1.21-.5-1.21-.64,0-.05.06-.07.17-.07.06,0,.13.01.22.02.47.08,1.06.12,1.67.12.8,0,1.43-.05,2.17-.1Zm-1.25,6.4c-.02-.24-.3-.35-.91-.54-.13-.02-.22-.07-.22-.13s.1-.12.37-.17c.55,0,1.06.05,1.3.08.2.05.25.11.25.22,0,.07-.04.18-.04.32,0,.53,0,1.17.01,1.62,0,.26.16.37.58.4l2.51-.02c.9-.06.47-.33,1.55-.33.38,0,.89.04.89.41,0,.13-.11.26-.32.26h-4.67c-.79-.01-1.25-.2-1.28-.82v-1.29Zm4.49-7.16c-.02-.16-.5-.49-1.01-.7-.2-.07-.3-.14-.3-.2,0-.07.14-.11.43-.12.56.06,1.03.2,1.24.29.35.11.43.19.43.31,0,.08-.05.19-.05.35v5.04c-.01.52-.06,1.19-.2,1.68-.11.28-.24.42-.35.42s-.19-.17-.19-.55v-6.51Z"/>
      <path class="cls-7" d="m291.36,480.73c-.94-.06-2.27-.12-3.75-.12-2.09,0-3.13.1-4.15.19-.36.04-.49.17-.77.17-.24,0-.6-.11-1.32-.52-.17-.08-.25-.16-.25-.22,0-.04.04-.06.14-.06.06,0,.16.01.26.04.62.12,1.46.16,2.46.16.68,0,1.44-.02,2.25-.05-.01-.23-.01-.66-.04-2.73-.64.02-1.16.04-1.58.04-.5-.01-.91-.2-.94-.74l-.02-1.25c-.05-.23-.44-.34-.89-.44-.1-.01-.19-.06-.19-.12s.13-.17.62-.17c.46,0,.88.05,1.27.16.65-.02,2.36-.11,3.29-.18.37-.01.42-.06.82-.14.06-.31.13-1.12.16-1.8-1.03.06-2.7.17-4.13.26-.4.06-.43.2-.61.2-.2,0-1.28-.46-1.28-.61,0-.04.04-.06.13-.06.04,0,.1,0,.16.01.53.06,1.12.08,1.74.08,1.08,0,2.28-.07,3.45-.18.32-.04.34-.12.79-.12.55,0,.83.05.83.19s-.24.32-.32.48c-.11.43-.36,1.15-.47,1.54.32.01.5.14.5.25,0,.08-.1.16-.3.16-1.64.04-3.25.16-4.52.22-.16.06-.25-.04-.25.14v.04c-.01.23-.01.88-.01,1.52.01.2.08.25.35.26.84,0,1.99-.05,3.19-.13.66-.07.38-.36,1.25-.36.3,0,.78.01.78.29,0,.14-.17.28-.4.29-1.07.08-1.87.12-2.64.14,0,1.7,0,2.18-.02,2.73.55-.01,1.51-.04,2.57-.1.47-.02.4-.23.96-.23.29,0,1.4.06,1.4.49,0,.14-.17.28-.46.28h-.06Z"/>
      <path class="cls-7" d="m305.53,472.3c-.04-.24-.54-.52-.95-.72-.23-.1-.36-.18-.36-.24s.1-.1.34-.13c.22,0,1.75.3,1.75.6,0,.08-.05.18-.05.34v8c-.01,1.1-.17,2.24-.5,2.24-.14,0-.22-.18-.24-.85v-4.35c-.86.28-2.28.58-3.43.8v.8c0,.8-.02,1.66-.23,2.16-.12.31-.24.48-.34.48s-.17-.18-.18-.55v-2.84c-.59.13-1.19.22-1.59.26-.36.1-.4.23-.6.23-.24,0-1.72-.59-1.72-.8,0-.05.06-.07.18-.07.06,0,.12,0,.2.01.3.07.73.1,1.24.1,2,0,5.21-.46,6.48-.82v-4.64Zm-5.53,1.81c-.29.05-.31.17-.48.17-.18,0-1.25-.42-1.25-.61,0-.04.04-.06.12-.06.05,0,.12.01.19.02.6.1,1.25.12,1.9.12.78,0,1.54-.05,2.13-.08.34-.07.1-.12.83-.12.34.02.44.08.44.16,0,.1-.19.22-.28.29-.82.66-1.42,1.01-1.87,1.3.19.13.71.18,1.09.19.36-.01.49-.07.68-.07.12,0,1.15.16,1.15.56,0,.14-.13.28-.29.28-.01,0-.04-.01-.06-.01-1.01-.17-2.37-.58-3-.76-1.56.77-3.44,1.15-3.62,1.15-.1,0-.14-.02-.14-.06,0-.05.08-.11.25-.17,1.9-.52,3.91-1.56,4.71-2.42-.36,0-2.12.11-2.52.13Zm.74-1.51c-.14,0-.97-.59-.97-.7,0-.04.05-.06.14-.06.07,0,.17.01.29.04.68.16,1.6.16,2.34.16.26.02.38.14.38.26s-.11.24-.31.28c-.36.02-.96.02-1.38.02h-.49Z"/>
      <path class="cls-7" d="m313.31,478.78c0-.18-.32-.35-.74-.46-.14-.04-.25-.1-.25-.16,0-.08.31-.13.48-.13.26,0,.6.06.79.08.38.06.46.13.46.25,0,.07-.02.16-.02.26v.73l3.5-.05v-.94c0-.14-.22-.32-.61-.43-.14-.05-.25-.11-.25-.17,0-.1.36-.11.43-.11.22,0,.42.04.58.07-.07-.1-.12-.34-.12-.77v-2.36c-.62.02-1.01.08-1.31.1-.31.02-.38.14-.59.14-.13,0-.32-.05-.67-.2,0,0-.01-.01-.02-.01,0,1.61-1.39,2.14-2.54,2.14-1.58,0-2.45-1.02-2.45-2.08,0-.91.64-1.82,1.98-2.04l.08-.02c.22-.01.32-.12.32-.26,0-.05-.01-.12-.05-.18-.08-.07-.14-.14-.14-.2,0-.04.04-.07.14-.07.32,0,.72.23.72.4,0,.13-.16.24-.2.35,1.2.13,1.92.82,2.07,1.67.04.02.47.02.56.02.61,0,1.51-.04,2.09-.1v-2c-.04-.26-.61-.56-1.06-.74-.17-.06-.3-.14-.3-.2s.12-.12.41-.14c.14,0,1.73.28,1.73.6,0,.07-.04.16-.04.3v3.89c-.01,1.57-.43,1.81-.49,1.82.01.01.04.02.06.02.32.07.4.13.4.23,0,.07-.04.16-.04.29v2.3c0,.37-.02.89-.14,1.27-.07.22-.18.35-.28.35-.12,0-.23-.19-.26-.7l-3.54.05c-.13.49-.35.84-.5.84-.11,0-.18-.14-.18-.52v-3.13Zm-2.61-4.07c0,.8.56,1.6,1.7,1.6,1.26,0,1.88-.79,1.88-1.6s-.62-1.59-1.88-1.59c-1.14,0-1.7.8-1.7,1.59Zm3.32,4.99v1.54l3.5-.04v-1.54l-3.5.04Z"/>
      <path class="cls-7" d="m271.46,491.46c2.12-1.39,3.47-3.65,3.47-3.84,0-.12-.14-.31-.66-.68-.16-.12-.23-.2-.23-.26s.08-.1.22-.1c.07,0,.14.01.24.02.04.01,1.38.56,1.38.92,0,.22-.3.49-.72,1.16.44.47.7.68,1.02.9.56.42.5.01,1.3,1.21.07.11.11.22.11.31,0,.17-.11.28-.26.28-.11,0-.24-.06-.37-.2-.47-.5-1.4-1.58-1.98-2.27-1.02,1.16-2.03,2.06-3.37,2.7-.17.08-.28.12-.34.12-.04,0-.05-.01-.05-.04,0-.05.08-.13.25-.24Zm6.02,1.07c0-.1-.05-.22-.14-.31-.07-.05-.11-.11-.11-.16s.05-.08.14-.08c.23,0,.79.24.79.41,0,.11-.13.2-.18.35,1.33.24,1.96,1.09,1.96,1.92,0,.92-.82,1.94-2.36,1.94s-2.3-.95-2.3-1.96c0-.85.66-1.73,2.03-1.92.12-.01.18-.1.18-.19Zm-1.55,2.06c0,.72.56,1.45,1.68,1.45s1.68-.73,1.68-1.45-.56-1.48-1.68-1.48-1.68.73-1.68,1.48Zm3.33-7.95c-.01-.11-.34-.35-1.03-.65-.18-.06-.28-.13-.28-.19,0-.07.14-.12.43-.13.56.06,1,.19,1.38.31.25.1.31.18.31.29,0,.08-.05.19-.05.33v3.32c.16-.01.28,0,.46-.02.54-.12.32-.34,1.16-.34.28,0,.74,0,.74.32,0,.14-.13.29-.34.3l-2.05.05c-.01,1.01-.08,1.52-.2,1.86-.11.24-.25.42-.36.42-.1,0-.18-.14-.18-.54v-5.34Z"/>
      <path class="cls-7" d="m291.27,486.56c0-.12-.3-.36-1.03-.65-.18-.06-.28-.13-.28-.19,0-.07.14-.13.43-.14.56.05.94.2,1.26.29.35.13.43.22.43.34,0,.08-.05.18-.05.32v3.24c.16-.01.28,0,.46-.02.62-.07.32-.34,1.2-.34.24,0,.71,0,.71.32,0,.14-.13.29-.34.3l-2.05.04c-.02,1.81-.46,2.02-.56,2.02-.1,0-.18-.13-.18-.48v-1.57c-1.69.74-4.95,1.63-5.79,1.63-.23,0-.54-.36-.55-.94l-.04-2.48c-.04-.28-.42-.38-.9-.54-.12-.02-.18-.06-.18-.11,0-.01.06-.17.44-.17.62,0,1.19.06,1.5.12.73-.02,1.26-.06,1.65-.1.78-.07.38-.32,1.5-.32.31,0,.46.14.46.29,0,.13-.12.25-.37.25-1.26.08-2.23.12-3.08.14-.16.05-.24-.02-.24.17-.02.94-.05,1.79-.05,2.33,0,.59,0,.73.31.73.12,0,3.11-.32,5.34-1.21v-3.26Zm.36,6.08c.44.02.58.08.58.17,0,.1-.17.24-.22.42-.14.8-.37,1.89-.48,2.33.36.06.52.18.52.29,0,.1-.13.17-.35.17-.8.02-3.23.08-4.01.08-.07.47-.24.73-.38.73-.1,0-.18-.14-.22-.47-.04-.4-.1-1.98-.18-2.87-.02-.17-.04-.26-.7-.47-.13-.04-.26-.08-.26-.14s.11-.12.4-.17c.48.02,1.04.11,1.34.17.56-.01,2.61-.06,3.21-.12.28,0,.12-.12.56-.12h.18Zm-1.26,3.09c.36-.05.42-.07.74-.16.04-.55.1-1.92.1-2.51-.66.05-2.53.08-3.44.12-.06.08-.14.06-.14.18l.06,2.4,2.69-.04Z"/>
      <path class="cls-7" d="m295.76,491.56c2.64-1.46,3.78-3.74,3.78-3.91,0-.2-.54-.59-.83-.74-.07-.04-.14-.11-.14-.17,0-.05.06-.1.24-.1.46,0,1.75.6,1.75.86,0,.08-.74,1.21-.84,1.36.2.18.62.48.86.62.71.37.7.04,1.55.96.18.19.25.36.25.49s-.08.2-.23.2c-.13,0-.32-.07-.54-.26-.31-.26-1.43-1.2-2.13-1.76-1.22,1.49-3.42,2.67-3.85,2.67-.06,0-.08-.01-.08-.04,0-.04.07-.11.22-.19Zm3.47,3.19c-.02-.13-.25-.22-.64-.31-.12-.04-.23-.07-.23-.12,0-.02.13-.16.54-.16.5,0,1.04.08,1.18.14,1.1,0,1.77,0,2.91-.05.28-.02.4-.06.64-.11.02-.19.07-.85.11-1.45-.77,0-2.39.07-3.55.12-.35.07-.41.2-.61.2-.25,0-1.18-.4-1.18-.54,0-.04.06-.06.19-.06.05,0,.11,0,.18.01.41.04.98.06,1.64.06.97,0,2.11-.05,3.06-.11.23-.04.2-.08.46-.08.07,0,.16,0,.28.01.36.02.47.08.47.18,0,.08-.12.2-.17.32-.16.36-.34.86-.42,1.27.32.06.49.18.49.28s-.14.17-.41.17c-.91.02-2.7.06-3.98.07-.12.07-.22.05-.22.19v1.04c.01.23.12.28.3.28.24,0,.6.01,1.02.01.61,0,1.34-.01,2.06-.02.72-.08.49-.31,1.24-.31.32,0,.92,0,.92.35,0,.14-.14.28-.41.28h-4.81c-.88,0-1.07-.31-1.07-.66v-1.01Zm4.53-8.04c0-.22-.37-.49-1.04-.74-.2-.07-.31-.14-.31-.2,0-.07.14-.12.43-.14.06,0,1.73.22,1.73.59,0,.08-.05.19-.05.35v3.43c0,.5-.05,1.22-.19,1.66-.11.28-.24.42-.35.42s-.19-.17-.19-.55l-.02-4.8Z"/>
      <path class="cls-7" d="m314.01,491.31c-.11.02-.22.05-.29.05-.16,0-.25-.06-.25-.23,0-.16.08-.2.22-.2.08,0,.19.01.31.05,1.39,0,2.23-.72,2.23-1.96,0-.98-.49-1.79-1.63-1.79-1.26,0-1.46.42-1.46.84,0,.19.05.4.05.54,0,.38-.25.64-.47.64s-.56-.14-.56-.65c0-.73.82-1.66,2.45-1.66,1.54,0,2.41.79,2.41,2.08,0,1.12-.85,1.85-1.91,2.12,1.45.25,2.14,1.21,2.14,2.17,0,1.37-.83,2.64-2.9,2.64-1.65,0-2.54-.89-2.54-1.89,0-.5.31-.67.56-.67s.54.19.54.59c0,.16-.02.36-.02.56,0,.54.18,1.13,1.46,1.13,1.48,0,2.1-1.07,2.1-2.35,0-1.2-.74-2.02-2.42-2.02h0Z"/>
      <path class="cls-7" d="m285.04,510.16v-.3c1.15,0,1.64-.17,1.64-.77v-6.06c0-.43-.25-.6-.77-.6h-1.04v-.24c1.16-.12,1.85-.43,2.57-.88v7.77c0,.6.55.77,1.71.77v.3h-4.11Z"/>
      <path class="cls-7" d="m297.54,505.85c0,2.34-.85,4.47-2.99,4.47s-2.97-2.13-2.97-4.47.84-4.52,2.97-4.52,2.99,2.15,2.99,4.52Zm-5.19,0c0,2.18.64,4.15,2.21,4.15s2.23-1.97,2.23-4.15-.65-4.2-2.23-4.2-2.21,1.98-2.21,4.2Z"/>
      <path class="cls-7" d="m304.15,502.19h-3.99l-.19,3.32c.52-.55,1.14-.8,2.05-.8,1.86,0,2.7,1.37,2.7,2.77,0,1.31-.84,2.85-2.7,2.85-1.73,0-2.7-.96-2.7-2,0-.37.25-.54.52-.54.29,0,.55.18.55.52,0,.22-.04.46-.04.68,0,.52.2,1,1.54,1,1.43,0,2.05-1.38,2.05-2.52,0-1.25-.62-2.46-2.05-2.46-.96,0-1.67.6-2.02,1.09l-.25-.11.28-4.46h4.44l-.18.66Z"/>
    </g>
    <g>
      <path class="cls-7" d="m842.95,578.36c-1.21-.11-1.88-.91-1.88-1.69,0-.73.56-1.46,1.79-1.67.08-.08.12-.17.12-.28,0-.13-.07-.28-.2-.41-.38.02-.85.02-1.39.06-.28.05-.35.17-.52.17-.24,0-1.09-.49-1.09-.64,0-.04.04-.06.12-.06.05,0,.13.01.23.04.46.1,1.1.14,1.82.14s1.45-.05,2.18-.11h.07c.67-.13.47-.37,1.27-.37.3,0,.83,0,.83.3,0,.14-.16.29-.46.31-.53.04-1.74.06-2.57.11.08.22.26.26.3.4v.05c0,.16-.08.17-.08.28h0c1.24.18,1.82.95,1.82,1.7s-.6,1.49-1.67,1.61v1.08c.76-.07,2.51-.35,3.47-.66v-6.48c-.02-.19-.46-.47-1.07-.7-.22-.06-.34-.13-.34-.19,0-.07.13-.12.42-.16.64.02,1.1.19,1.47.3.24.1.29.16.29.26,0,.08-.04.19-.04.35v4.89c.2,0,.42-.01.64-.04.32-.1.2-.31,1.15-.34.37.02.54.2.54.37,0,.14-.12.26-.35.28-.54.04-1.69.06-1.98.06v2.23c0,1.07-.04,1.78-.24,2.51-.08.24-.22.42-.32.42-.1,0-.17-.13-.18-.48v-3.06c-1.49.55-3.77,1.01-5.45,1.38-.23.06-.25.19-.43.19-.26,0-1.73-.65-1.73-.88,0-.05.05-.07.13-.07.06,0,.13.01.23.04.26.06.6.1.95.1.7,0,1.49-.11,2.13-.24v-1.12Zm-.43-5.29c-.48-.02-1.01-.67-1.01-.76,0-.04.02-.06.1-.06.05,0,.13.01.25.05.36.06,1.15.18,2.17.18.4.01.65.19.65.35,0,.24-.42.24-.97.24h-1.19Zm-.76,3.57c0,.62.48,1.24,1.45,1.24s1.4-.61,1.4-1.24-.47-1.25-1.4-1.25-1.45.62-1.45,1.25Z"/>
      <path class="cls-7" d="m844.07,587.3c.25-.06.16-.11.58-.11.35,0,.67.02.67.17,0,.11-.18.26-.28.38-.41.58-1.04,1.34-1.44,1.78.18.18.49.48.71.64.44.38.52,0,1.25.86.17.22.23.4.23.54s-.08.24-.22.24c-.1,0-.24-.07-.37-.2-.26-.25-1.01-1.01-1.83-1.86-1.98,1.75-3.74,2.43-3.95,2.43-.05,0-.06-.01-.06-.02,0-.04.07-.11.24-.2,1.49-.82,3.59-2.42,4.58-4.33-.58.02-2,.08-2.45.11-.24.05-.26.16-.43.16-.19,0-1.19-.4-1.19-.58,0-.04.06-.07.17-.07.05,0,.12.01.2.02.41.08.94.12,1.51.12.3,0,1.75-.07,2.07-.07Zm1.16,5.23c0-.1-.05-.22-.14-.31-.07-.05-.11-.11-.11-.16s.05-.08.14-.08c.23,0,.79.24.79.41,0,.11-.13.2-.18.35,1.33.24,1.96,1.09,1.96,1.92,0,.92-.82,1.94-2.36,1.94s-2.3-.95-2.3-1.96c0-.85.66-1.73,2.03-1.92.12-.01.18-.1.18-.19Zm-1.55,2.06c0,.72.56,1.45,1.68,1.45s1.68-.73,1.68-1.45-.56-1.48-1.68-1.48-1.68.73-1.68,1.48Zm3.33-7.95c-.01-.11-.34-.35-1.03-.65-.18-.06-.28-.13-.28-.19,0-.07.14-.12.43-.13.56.06,1,.19,1.38.31.25.1.31.18.31.29,0,.08-.05.19-.05.33v3.32c.16-.01.28,0,.46-.02.54-.12.32-.34,1.16-.34.28,0,.74,0,.74.32,0,.14-.13.29-.34.3l-2.05.05c-.01,1.01-.08,1.52-.2,1.86-.11.24-.25.42-.36.42-.1,0-.18-.14-.18-.54v-5.34Z"/>
      <path class="cls-7" d="m839.51,605.96c2.64-1.46,3.78-3.74,3.78-3.91,0-.2-.54-.59-.83-.74-.07-.04-.14-.11-.14-.17,0-.05.06-.1.24-.1.46,0,1.75.6,1.75.86,0,.08-.74,1.21-.84,1.35.2.18.62.48.86.62.71.37.7.04,1.55.96.18.19.25.36.25.49s-.08.2-.23.2c-.13,0-.32-.07-.54-.26-.31-.26-1.43-1.2-2.13-1.76-1.22,1.49-3.42,2.67-3.85,2.67-.06,0-.08-.01-.08-.04,0-.04.07-.11.22-.19Zm3.47,3.19c-.02-.13-.25-.22-.64-.31-.12-.04-.23-.07-.23-.12,0-.02.13-.16.54-.16.5,0,1.04.08,1.18.14,1.1,0,1.77,0,2.91-.05.28-.02.4-.06.64-.11.02-.19.07-.85.11-1.45-.77,0-2.39.07-3.55.12-.35.07-.41.2-.61.2-.25,0-1.18-.4-1.18-.54,0-.04.06-.06.19-.06.05,0,.11,0,.18.01.41.04.98.06,1.64.06.97,0,2.11-.05,3.06-.11.23-.04.2-.08.46-.08.07,0,.16,0,.28.01.36.02.47.08.47.18,0,.08-.12.2-.17.32-.16.36-.33.86-.42,1.27.32.06.49.18.49.28s-.14.17-.41.17c-.91.02-2.7.06-3.98.07-.12.07-.22.05-.22.19v1.04c.01.23.12.28.3.28.24,0,.6.01,1.02.01.61,0,1.34-.01,2.06-.02.72-.08.49-.31,1.24-.31.32,0,.92,0,.92.35,0,.14-.14.28-.41.28h-4.81c-.88,0-1.07-.31-1.07-.66v-1.01Zm4.53-8.04c0-.22-.37-.49-1.04-.74-.2-.07-.31-.14-.31-.2,0-.07.14-.12.43-.14.06,0,1.73.22,1.73.59,0,.08-.05.19-.05.35v3.43c0,.5-.05,1.22-.19,1.66-.11.28-.24.42-.35.42s-.19-.17-.19-.55l-.02-4.8Z"/>
    </g>
    <text class="cls-3" transform="translate(277.56 402.36)"><tspan x="0" y="0">화장실</tspan></text>
    <text class="cls-4" transform="translate(687.23 746.36)"><tspan x="0" y="0">카페 쿠피</tspan></text>
    <text class="cls-3" transform="translate(838.56 674.33)"><tspan x="0" y="0">재</tspan><tspan x="0" y="14.4">무</tspan><tspan x="0" y="28.8">처</tspan><tspan x="-5.25" y="43.2">101</tspan></text>
    <g>
      <path class="cls-7" d="m496.26,485.35c.93-.18.64-.42,1.63-.42.56,0,1.75,0,1.75.64,0,.26-.26.48-.64.48h-.1c-1.41-.06-2.68-.08-3.93-.08s-2.48.02-3.81.06c-.02,1.85-.1,2.42-.34,3.18-.2.4-.4.6-.58.6s-.3-.2-.32-.62v-3.12c-2.26.1-3.34.16-4.21.22-.71.1-.87.32-1.27.32-.56,0-2.62-.81-2.62-1.11,0-.08.12-.1.3-.1.1,0,.22,0,.34.02,1.33.18,2.94.22,4.65.22,1.43,0,5.92-.1,7.15-.2.48-1.45.81-2.8,1.01-4.87-2.2.02-4.93.16-7.63.28-.6.12-.75.34-1.09.34-.52,0-2.28-.85-2.28-1.05,0-.06.06-.08.22-.08.08,0,.18,0,.32.02,1.11.14,2.24.18,3.54.18,1.45,0,5.1-.12,6.24-.24.69-.04.58-.14,1.19-.14h.3c.73.04.95.16.95.32,0,.2-.34.46-.46.68-.56,1.81-1.15,3.22-1.73,4.53l1.41-.08Zm-1.89,5.34c-1.83.06-5.56.28-6.45.32-.89.14-1.01.38-1.39.38-.5,0-2.16-.66-2.16-1.03,0-.08.08-.12.26-.12.06,0,.16,0,.26.02.83.14,1.97.2,3.18.2,1.93,0,4.09-.14,5.5-.26.5-.08.56-.18,1.01-.18.16,0,.34.02.58.04.58.06.75.16.75.3s-.22.34-.24.58l-.16,3.99c-.1,1.33-.5,2.01-.81,2.01-.2,0-.34-.28-.34-.85v-5.42Z"/>
      <path class="cls-7" d="m513.28,481.77c0-.48-.79-.89-1.57-1.27-.24-.1-.48-.24-.48-.36,0-.1.16-.18.67-.2.72.06,1.53.32,2.09.48.44.16.54.36.54.56,0,.16-.06.32-.06.5l-.04,10.88c-.04,2.64-.54,3.34-.81,3.34-.22,0-.34-.48-.34-1.47v-7.45l-1.87.08c-.58.1-.69.3-.93.3-.22,0-1.13-.34-1.51-.72-.2.32-.42.66-.71,1.03,1.39,2.09,1.89,1.61,2.3,2.46.36.75.5,1.25.5,1.57,0,.34-.16.48-.32.48-.1,0-.2-.06-.28-.14-.87-.91-1.81-2.98-2.54-3.95-1.47,1.75-3.1,3.08-5.2,4.49-.2.14-.36.2-.44.2-.04,0-.08-.02-.08-.06,0-.08.12-.22.34-.42.99-.68,5.32-4.45,6.45-8.46-.58.02-1.97.14-2.98.24-.5.08-.54.26-.83.26-.34,0-1.85-.58-1.85-.89,0-.06.08-.1.24-.1.1,0,.22.02.38.04.48.06,1.13.08,1.81.08,1.03,0,2.13-.04,2.82-.12.5-.12.32-.2,1.05-.2.52,0,1.07,0,1.07.22,0,.12-.14.26-.22.4-.46,1.05-.87,1.85-1.41,2.68.18,0,1.03.04,1.23.04,1.05,0,2.03-.06,2.98-.1v-4.43Zm3.24-1.45c-.02-.34-.77-.85-1.57-1.29-.3-.12-.46-.24-.46-.34,0-.12.2-.18.66-.2.97.18,1.75.48,2.24.62.34.16.42.3.42.46,0,.14-.08.3-.08.52v14.24c-.08,1.87-.44,2.86-.83,2.98-.18,0-.36-.2-.38-1.23v-15.77Z"/>
      <path class="cls-7" d="m535.78,481.57c.75-.08.22-.22,1.49-.22.64.02.83.12.83.26,0,.16-.3.4-.44.66-1.45,3.73-3.62,6.34-6.79,8.4-.26.16-.46.24-.56.24-.04,0-.06-.02-.06-.06,0-.06.1-.2.34-.38,1.41-1.07,3.5-3.32,4.67-5.58-1.25.32-1.95.48-2.94.75-.42.12-.46.32-.71.32-.3,0-1.99-.75-1.99-1.05,0-.06.08-.1.26-.1.12,0,1.05.06,1.25.06,1.31,0,2.8-.16,4.37-.48.22-.46.56-1.33.83-2.34-1.07.08-2.46.2-3.14.26-.36.08-.46.22-.72.22-.36,0-1.83-.73-1.83-.97,0-.06.08-.1.22-.1.08,0,.2,0,.36.04.77.1,1.61.14,2.5.14.46,0,1.63,0,2.07-.08Zm.5,14.94c-.06-.66-.16-3.32-.32-4.81-.04-.32-.06-.44-1.15-.79-.22-.06-.44-.14-.44-.26,0-.08.16-.18.64-.26.81.04,1.75.18,2.28.28.93-.02,4.37-.1,5.38-.2.46,0,.22-.2.95-.2.1,0,1.27,0,1.27.28,0,.16-.28.4-.36.71-.24,1.35-.64,3.18-.79,3.91.6.1.85.3.85.48,0,.16-.22.28-.58.28-1.35.04-5.42.14-6.71.14-.14.79-.42,1.23-.67,1.23-.16,0-.3-.24-.34-.79Zm5.54-1.05c.58-.08.71-.12,1.25-.26.04-.93.14-3.22.14-4.21-1.11.08-4.27.14-5.78.2-.1.14-.22.1-.22.3l.1,4.03,4.51-.06Zm-2.17-14.4c-.04-.46-.62-.77-1.33-1.09-.2-.1-.44-.22-.44-.32,0-.08.18-.16.71-.2,2.03.34,2.34.52,2.34.81,0,.12-.06.26-.06.44v4.61l2.52-.08v-4.93c-.02-.42-.77-.87-1.61-1.29-.2-.06-.38-.16-.38-.26s.18-.2.64-.22c2.28.44,2.64.73,2.64,1.05,0,.16-.08.34-.08.54l-.12,6.79c-.04,1.21-.4,1.89-.68,1.89-.18,0-.36-.32-.38-1.03l-.02-1.97-2.52.06-.1,1.51c-.1,1.01-.44,1.61-.72,1.61-.2,0-.38-.3-.38-.99v-6.93Z"/>
      <path class="cls-7" d="m562.76,486.86c-1.03.06-1.93.12-2.46.16-.44.06-.5.26-.79.26-.32,0-1.07-.36-1.15-.44-.38,1.61-.75,2.82-.97,3.5.68-.1,1.59-.32,2.88-.68.2-.06.36-.08.46-.08.16,0,.22.04.22.1,0,.08-.16.22-.54.36-2.28.79-3.95,1.25-7.39,1.93-.44.2-.46.44-.81.44-.42,0-2.98-.97-2.98-1.31,0-.08.1-.12.28-.12.14,0,.28.02.48.06.34.04.77.06,1.25.06,1.31,0,3.16-.16,5.52-.69.2-1.13.58-3.69.67-5.2,0-.2-.26-.56-.91-.99-.2-.08-.3-.18-.3-.26s.12-.14.4-.14c.44,0,2.32.58,2.32.93,0,.02-.44,1.51-.46,1.55.26.04.67.06,1.13.06,1.01,0,2.32-.08,3.14-.16v-5.9c-.04-.42-1.01-1.03-1.75-1.39-.3-.1-.52-.24-.52-.36s.2-.22.73-.24c.99.2,2.01.52,2.42.67.38.18.46.28.46.42,0,.1-.06.24-.06.48v11.68c-.04,3.71-.14,4.73-.54,5.46-.12.22-.26.36-.36.36-.2,0-.36-.4-.36-1.41v-9.12Zm-5.9-4.71c1.19-.16.56-.56,2.26-.56,1.03,0,1.07.42,1.07.5,0,.26-.34.52-.99.52-2.46.14-5.24.34-6.65.4-.58.12-.71.32-.99.32-.38,0-1.83-.72-1.83-.99,0-.06.08-.1.24-.1.08,0,.18.02.3.04.93.1,1.73.14,2.52.14s2.9-.1,4.07-.28Zm-3.22,7.96c-.18,0-.34-.22-.38-.64-.14-.89-.48-2.8-1.33-4.49-.16-.28-.24-.48-.24-.6,0-.06.04-.1.08-.1.1,0,.28.12.56.36.87,1.09,2.03,2.54,2.03,3.63,0,.6-.28,1.85-.72,1.85Z"/>
      <path class="cls-7" d="m582.96,493.71c.85-.06.75-.44,1.81-.44.48,0,2.09.06,2.09.7,0,.26-.26.48-.68.48h-.08c-1.65-.12-3.81-.14-5.64-.14-2.58,0-5.18.1-7.77.26-.71.16-.79.44-1.15.44-.38,0-2.68-.93-2.68-1.31,0-.06.06-.1.22-.1.12,0,.26.02.44.06.81.22,2.22.28,3.97.28,2.42,0,5.5-.12,8.66-.18l.81-.06Zm-6.75-13.11c-.16-.1-.32-.22-.32-.32s.18-.18.73-.18c.85.22,1.51.46,2.58,1.11.14.14.18.26.18.38,0,.36-1.31,2.07-1.55,2.46.85.52,2.18,1.13,3.02,1.47,1.41.56.93-.46,4.07,1.63.44.32.62.62.62.87,0,.22-.16.36-.44.36-.2,0-.44-.06-.73-.22-1.49-.75-4.83-2.36-6.95-3.69-3.16,3.4-7.25,4.85-7.69,4.85-.08,0-.14-.02-.14-.06,0-.08.14-.2.5-.38,2.92-1.27,6.33-4.51,7.49-6.93,0-.4-.58-.85-1.37-1.35Z"/>
      <path class="cls-7" d="m522.19,518.63c-1.57-.1-3.81-.2-6.3-.2-3.5,0-5.26.16-6.97.32-.6.06-.83.28-1.29.28-.4,0-1.01-.18-2.22-.87-.28-.14-.42-.26-.42-.36,0-.06.06-.1.24-.1.1,0,.26.02.44.06,1.05.2,2.46.26,4.13.26,1.15,0,2.42-.04,3.79-.08-.02-.4-.02-1.13-.06-4.71-2.64-.24-4.11-2.17-4.11-4.11,0-1.77,1.23-3.53,3.91-3.95.24,0,.56-.2.56-.5,0-.1-.04-.22-.14-.34-.18-.16-.28-.28-.28-.36s.08-.12.26-.12c.69,0,1.27.4,1.27.64,0,.22-.3.4-.32.68,2.86.42,4.19,2.24,4.19,4.05s-1.39,3.71-4.05,3.99c0,2.92,0,3.75-.04,4.67.93-.02,2.54-.06,4.31-.16.79-.04.66-.38,1.61-.38.48,0,2.36.1,2.36.83,0,.24-.28.46-.77.46h-.1Zm-11.62-9.49c0,1.59,1.19,3.18,3.57,3.18s3.54-1.59,3.54-3.18-1.19-3.18-3.54-3.18-3.57,1.59-3.57,3.18Z"/>
      <path class="cls-7" d="m539.36,512.27c1.03-.12.85-.42,1.91-.42.64,0,1.97,0,1.97.68,0,.28-.26.52-.67.52h-.04c-1.21-.1-2.68-.12-4.07-.12-2.72,0-5.64,0-9.59.4-.58.12-.67.36-1.01.36-.46,0-2.64-.93-2.64-1.23,0-.08.1-.12.28-.12.1,0,.22,0,.36.04.72.18,1.91.26,3.4.26,2.5,0,5.84-.2,9.27-.32l.81-.06Zm-9.83,4.27c-.04-.36-.5-.58-1.51-.87-.24-.06-.38-.14-.38-.22,0-.1.18-.2.62-.3.95,0,1.75.08,2.16.14.36.08.44.2.44.38,0,.14-.06.3-.08.52,0,.91,0,2.03.02,2.78.04.42.28.6.97.64l4.33-.04c1.47-.1.79-.54,2.56-.54.48,0,1.55,0,1.55.67,0,.22-.2.44-.56.44h-7.94c-1.35-.02-2.1-.34-2.16-1.37l-.02-2.24Zm7.07-12.51c1.25-.16.71-.56,2.42-.56,1.03,0,1.49.3,1.49.6,0,.24-.34.48-.89.5-2.78,0-7.15.12-8.62.2-.54.1-.62.3-.93.3s-1.95-.67-1.95-.99c0-.06.06-.08.22-.08.08,0,.18,0,.32.02.97.12,1.95.16,3,.16,1.33,0,4.39-.12,4.93-.16Zm-.32,2.38c.04-.24.02-.46-.76-.87-.18-.08-.3-.18-.3-.28s.18-.18.58-.18c.06,0,2.08.5,2.08.99,0,.12-.12.28-.28.54-.56.85-1.11,1.99-1.47,2.72.28,0,.5-.02.89-.06,1.11-.14.38-.48,2.32-.48.68.04.99.32.99.58,0,.04,0,.46-.75.46-1.39,0-3.16.02-4.37.08-2.12.1-3.32.14-4.19.2-.5.12-.62.3-.91.3-.34,0-1.95-.71-1.95-1.03,0-.06.08-.08.2-.08.08,0,.2,0,.34.04.81.14,1.73.18,2.72.18,1.35,0,2.8-.1,4.07-.16.32-.97.67-2.07.81-2.96Zm-3.5,1.85c-.12.54-.34.79-.58.79-.16,0-.34-.14-.46-.42-.2-.48-.66-1.55-1.45-2.6-.12-.16-.2-.3-.2-.38,0-.04.04-.08.1-.08.4,0,2.6,1.77,2.6,2.32v.38Z"/>
      <path class="cls-7" d="m556.44,505.24c-.04-.46-.62-.77-1.33-1.09-.2-.1-.44-.22-.44-.32,0-.08.18-.16.71-.2,2.03.34,2.34.52,2.34.81,0,.12-.06.26-.06.44v4.61l2.52-.08v-4.93c-.02-.42-.77-.87-1.61-1.29-.2-.06-.38-.16-.38-.26s.18-.2.64-.22c2.28.44,2.64.73,2.64,1.05,0,.16-.08.34-.08.54l-.12,6.79c-.04,1.21-.4,1.89-.68,1.89-.18,0-.36-.32-.38-1.03l-.02-1.97-2.52.06-.1,1.51c-.1,1.01-.44,1.61-.72,1.61-.2,0-.38-.3-.38-.99v-1.51c-2.17,1.27-5.98,2.72-7.03,2.72-.6,0-.89-.93-.93-1.57l-.02-1.95c-.04-.5-.34-.64-1.17-.89-.14-.04-.24-.1-.24-.18s.16-.18.58-.24c1.01.02,1.75.16,2.26.28.4,0,.91-.02,1.81-.1.44-.04.44-.12.91-.3.06-.87.1-1.81.1-2.36-1.13.02-2.2.12-2.92.16-.5.08-.56.28-.83.28-.36,0-1.69-.58-1.69-.83,0-.06.08-.1.28-.1.08,0,.18.02.28.02.44.02.91.02,1.41.02.91,0,1.85-.02,2.66-.06.58-.04.02-.22,1.53-.22.68,0,.87.1.87.24s-.24.36-.34.58c-.24.83-.36,1.41-.58,2.24.5.04.75.2.75.36s-.32.34-.91.34c-.6.02-2.4.16-3.22.2-.16.12-.26-.02-.28.24-.02.56-.02,1.47-.02,2.3.02.16.12.3.46.3.32,0,3.52-.48,6.28-1.93v-4.97Zm-3.61,10.11c0-.3-.54-.58-1.25-.77-.24-.06-.42-.16-.42-.26,0-.14.52-.22.81-.22.44,0,1.01.1,1.33.14.64.1.76.22.76.42,0,.12-.04.26-.04.44v1.23l5.88-.08v-1.57c0-.24-.38-.54-1.03-.72-.26-.08-.42-.18-.42-.26,0-.2.56-.2.7-.2.22,0,1.97.18,1.97.58,0,.12-.06.26-.06.48v3.87c0,.62-.04,1.49-.24,2.13-.12.36-.3.58-.46.58-.2,0-.38-.32-.44-1.17l-5.94.08c-.22.83-.58,1.41-.85,1.41-.18,0-.3-.24-.3-.87v-5.26Zm1.19,1.55v2.58l5.88-.06v-2.58l-5.88.06Z"/>
    </g>
    <text class="cls-2" transform="translate(506.56 789.61)"><tspan x="0" y="0">입구</tspan></text>
    <g>
      <path class="cls-7" d="m606.52,342.28c-.61.04-1.15.07-1.46.1-.26.04-.3.16-.47.16-.11,0-.28-.05-.61-.22-.13,1.15-.97,2.03-2.54,2.03-1.78,0-2.77-1.1-2.77-2.3,0-1.02.74-2.03,2.28-2.24.22-.05.43-.11.43-.32,0-.07-.04-.16-.08-.23-.07-.07-.12-.14-.12-.19,0-.04.04-.07.12-.07.34,0,.75.34.75.46,0,.1-.14.18-.24.34,1.46.32,2.11,1.13,2.18,2.18h-.01c.16.02.4.04.67.04.6,0,1.38-.05,1.87-.1v-3.51c-.02-.25-.6-.61-1.04-.83-.18-.06-.31-.14-.31-.22s.12-.13.43-.14c.59.12,1.2.31,1.44.4.23.11.28.17.28.25,0,.06-.04.14-.04.29v6.96c-.02,2.21-.08,2.82-.32,3.25-.07.13-.16.22-.22.22-.12,0-.22-.24-.22-.84v-5.43Zm-7.1-.2c0,.9.66,1.8,2,1.8,1.25,0,1.88-.9,1.88-1.8s-.64-1.8-1.88-1.8c-1.34,0-2,.9-2,1.8Z"/>
      <path class="cls-7" d="m611.58,340.47c-.05-.2-.22-.25-.84-.46-.08-.01-.18-.06-.18-.11,0-.06.1-.13.38-.2.43,0,1.03.1,1.39.19,1.01-.02,1.86.01,2.81-.05.29-.01.08-.1.66-.1.4,0,.65.02.65.14s-.25.3-.29.48l-.25,1.56c.11.05.48.06.74.06.6,0,1.38-.05,1.87-.1v-3.51c-.02-.25-.6-.61-1.04-.83-.18-.06-.31-.14-.31-.22s.12-.13.43-.14c.59.12,1.2.31,1.44.4.23.11.28.17.28.25,0,.06-.04.14-.04.29v6.96c-.02,2.21-.08,2.82-.32,3.25-.07.13-.16.22-.22.22-.12,0-.22-.24-.22-.84v-5.43c-.61.04-1.15.07-1.46.1-.26.04-.3.16-.47.16-.2,0-.7-.24-.73-.3l-.23,1.33c.35.07.55.2.55.3,0,.14-.32.14-.52.14-.6,0-2.59.05-3.27.06-.16.46-.23.67-.38.67s-.18-.41-.24-1.03l-.19-3.24Zm.97-.28c-.11.06-.2.04-.22.25l.06,3.3c.31,0,1.54-.01,2.16-.04.29-.02.42-.07.71-.12.05-1.09.1-2.41.1-3.42l-2.81.02Z"/>
      <path class="cls-7" d="m630.51,338.38c0-.22-.37-.49-1.04-.74-.2-.07-.31-.14-.31-.2,0-.07.14-.12.43-.14.06,0,1.73.22,1.73.59,0,.08-.05.19-.05.35v3.43c0,.5-.05,1.22-.19,1.66-.11.28-.24.42-.35.42s-.19-.17-.19-.55v-1.85c-2.08.97-5.39,1.68-6.25,1.68-.25,0-.54-.4-.54-.83l-.04-2.53c-.04-.24-.56-.38-.94-.48-.12-.01-.25-.07-.25-.13s.11-.13.42-.19c1.4,0,1.56.13,1.56.34,0,.06-.01.12-.01.19v2.54c-.01.24.01.38.4.38.9,0,4.11-.49,5.64-1.22v-2.7Zm-4.58,6.7c-.04-.3-.25-.37-.71-.59-.17-.05-.29-.11-.29-.17,0-.05.1-.11.36-.14.58.04,1.25.16,1.5.24l3.35-.06c.29-.02.3-.12.59-.12.24,0,.71.07.71.22,0,.08-.12.19-.16.31-.24.91-.5,2.11-.56,2.46.4.04.59.16.59.26s-.2.22-.58.22h-3.99c-.11.46-.25.73-.38.73-.12,0-.22-.19-.26-.65l-.16-2.71Zm.94-.36s-.16.06-.16.19l.02,2.5,2.79-.02c.44-.04.38-.06.76-.13l.18-2.59-3.6.06Z"/>
      <path class="cls-7" d="m644.48,342.95c-.62-.05-1.43-.07-2.23-.07-.94,0-1.87.02-2.47.05-.76.04-2.97.17-3.49.19-.37.02-.38.19-.6.19-.29,0-1.51-.54-1.51-.71,0-.04.05-.07.16-.07.06,0,.13.01.23.04.33.08,1.12.12,2.13.12,1.67,0,3.96-.1,5.89-.2.61-.04.5-.24,1.15-.24.58,0,1.16.05,1.16.41,0,.16-.16.3-.38.3h-.04Zm-7.98-4.37c-.05-.28-.38-.38-.9-.55-.11-.02-.16-.06-.16-.1,0-.06.11-.12.31-.14.62.02,1.21.11,1.52.25.94,0,2.04,0,3.21-.06.95-.07.5-.3,1.46-.3.25,0,.86,0,.86.3,0,.14-.19.28-.55.28-1.26.06-3.67.08-4.87.1-.08.07-.14.01-.14.23,0,.49.01,1.33.02,1.87.04.42.08.42,1.34.42.64,0,1.34-.02,2.31-.1.66-.1.3-.34,1.44-.34.42,0,.59.16.59.31s-.18.31-.47.32c-.42.02-1.86.04-2.53.07l-.79.04h-1.46c-.91-.01-1.18-.3-1.2-.78v-1.82Zm.55,7.84c-.01-.14-.25-.22-.65-.32-.11-.02-.22-.06-.22-.11,0-.06.24-.17.46-.17.52,0,1.1.1,1.26.16,1.12,0,1.71-.04,2.85-.07.3-.02.35-.06.66-.11.04-.25.05-.72.07-1.32-.79.02-2.35.06-3.5.12-.35.07-.41.19-.61.19-.24,0-1.16-.38-1.16-.53,0-.04.05-.06.17-.06.05,0,.11,0,.18.01.42.05,1.01.06,1.67.06.95,0,2.05-.04,2.99-.11.19-.06.2-.1.41-.1.77,0,.77.13.77.18,0,.1-.11.23-.16.35-.13.37-.32.91-.38,1.14.32.06.49.18.49.28,0,.08-.14.16-.42.16-.91.02-2.67.07-3.91.11-.12.06-.22.05-.22.18v1.04c0,.23.12.28.3.28.24,0,.59.01,1.01.01.59,0,1.31-.01,2.01-.02.72-.08.48-.31,1.22-.31.34,0,.94,0,.94.35,0,.14-.16.28-.42.28h-4.74c-.88,0-1.07-.31-1.07-.66v-1Z"/>
      <path class="cls-7" d="m618.52,352.55s-.36-.3-1.02-.56c-.17-.06-.26-.12-.26-.18s.12-.11.35-.12c.66.01,1.25.17,1.52.26.14.08.17.17.17.28,0,.05-.01.29-.01.35l-.04,3.92c-.01,1.19-.26,1.74-.47,1.74-.14,0-.24-.18-.25-.82v-1.06c-1.14.34-2.43.6-3.55.73,0,.32-.02.91-.2,1.24-.16.25-.28.37-.36.37-.1,0-.14-.14-.16-.43v-1.04c-.43.06-.91.11-1.5.19-.36.06-.38.18-.56.18-.19,0-1.6-.5-1.6-.72,0-.05.05-.07.14-.07.05,0,.11,0,.19.02.29.06.7.08,1.18.08,2.06,0,5.43-.46,6.43-.77v-3.6Zm-4.64.23c-.11-.05-.23-.12-.23-.17s.1-.08.38-.08c.44.08.96.3,1.28.46.12.07.17.14.17.24,0,.25-.7.84-1.01,1.1.37.14,1.34.37,1.51.37.19,0,.26-.1.54-.1.11,0,1.28.13,1.28.53,0,.13-.13.25-.36.25-.31,0-2.39-.55-3.24-.86-1.22,1.08-2.99,1.61-3.26,1.61-.06,0-.08-.01-.08-.04,0-.04.08-.1.3-.18,1.24-.5,2.84-1.62,3.33-2.54-.04-.13-.06-.23-.62-.59Zm.42,9.64c-.04-.4-.1-1.75-.19-2.63-.02-.2-.04-.26-.7-.48-.12-.04-.25-.08-.25-.14,0-.05.11-.11.4-.16.47.02,1.04.11,1.34.17.55-.01,2.6-.06,3.2-.12.29,0,.14-.13.54-.13.06,0,.12,0,.2.01.46.02.58.08.58.17,0,.1-.17.23-.2.42-.23.96-.38,1.66-.48,2.09.36.06.52.18.52.29,0,.08-.14.17-.36.17-.8.02-3.21.08-3.99.08-.08.47-.25.73-.38.73-.11,0-.19-.14-.22-.47Zm3.3-.62c.35-.05.42-.07.74-.16.04-.55.1-1.68.1-2.27-.66.05-2.55.08-3.44.12-.06.07-.16.06-.16.2l.07,2.13,2.69-.04Z"/>
      <path class="cls-7" d="m623.59,354.36c0-.11-.44-.34-.84-.46-.14-.04-.25-.08-.25-.16,0-.06.11-.13.38-.19.58,0,1.13.08,1.37.16.2.01.41.02.64.02.38,0,.79-.02,1.24-.04.53-.13.24-.32,1.22-.34.48,0,.67.17.67.32s-.17.3-.46.3c-1.21.04-2.46.05-3.05.07-.12.08-.16-.01-.17.2v2.17c.31-.01.76-.01,1.24-.04.49-.06.32-.32,1.43-.32.42,0,.5.19.5.29,0,.14-.16.29-.47.3-.76.01-1.86.06-2.7.08v2.25c-.01.26.07.38.26.38.04,0,.07,0,.12-.01,1.21-.12,2.44-.35,3.89-.86.16-.06.28-.08.35-.08.05,0,.07.01.07.05,0,.05-.1.13-.3.25-2.16,1.01-4.37,1.39-4.47,1.39-.37,0-.62-.54-.66-.82v-4.94Zm6.96-1.69c-.05-.25-.71-.58-1.07-.72-.19-.05-.34-.13-.34-.2,0-.06.11-.11.37-.13,1.56.25,1.81.42,1.81.65,0,.11-.06.23-.06.38v8.2c0,1.28-.29,2-.52,2-.16,0-.19-.25-.2-.68v-5.61c-.46.01-.79.05-1.25.11-.26.02-.3.12-.42.12-.17,0-.88-.35-.88-.46,0-.02.05-.05.16-.05.13,0,.76.01.9.01.55,0,1.02-.01,1.49-.06v-3.56Z"/>
    </g>
    <text class="cls-3" transform="translate(521.56 353.42)"><tspan x="0" y="0">엘리베이터</tspan></text>
    <text class="cls-5" transform="translate(486.56 200.66)"><tspan x="0" y="0">학생식당</tspan></text>
  </g>
</svg>