<?xml version="1.0" encoding="UTF-8"?>
<svg xmlns="http://www.w3.org/2000/svg" viewBox="0 0 1029.57 768">
  <defs>
    <style>
      .cls-1 {
        fill: none;
        stroke: #000;
        stroke-miterlimit: 10;
      }

      .cls-2 {
        stroke-width: 0px;
      }

      .cls-3 {
        font-family: AdobeMyungjoStd-Medium-KSCpc-EUC-H, 'Adobe Myungjo Std';
        font-size: 30.08px;
        font-weight: 500;
      }
    </style>
  </defs>
  <g id="_레이어_2" data-name="레이어 2">
    <polyline class="cls-1" points="741 144.5 741 36.5 302.5 36.5 302.5 145.5"/>
    <line class="cls-1" x1="1011" y1="144.5" x2="903" y2="144.5"/>
    <line class="cls-1" x1="1011" y1="713" x2="1011" y2="144.5"/>
    <line class="cls-1" x1="903" y1="713" x2="1011" y2="713"/>
    <line class="cls-1" x1="302.5" y1="713" x2="741" y2="713"/>
    <line class="cls-1" x1="302.5" y1="145.5" x2="742" y2="144.5"/>
    <g>
      <path class="cls-2" d="m123.11,393.6c1.49-.28.8-.74,2.87-.77.92.03,1.33.39,1.33.72,0,.31-.36.62-1.05.62-2.18.03-4.23.13-5.47.21.28.33.38.59.38.77,0,.28-.23.44-.31.64,2.85.41,4.18,2.08,4.18,3.77,0,1.87-1.69,3.75-4.77,3.75s-4.9-1.9-4.9-3.82c0-1.69,1.33-3.36,4.26-3.75.28-.15.41-.36.41-.56,0-.23-.15-.49-.39-.72-.85.03-1.9.08-3.21.26-.54.08-.67.28-.98.28-.49,0-2.41-1.03-2.41-1.31,0-.08.1-.13.33-.13.13,0,.28.03.51.05,1.15.18,2.31.26,3.77.26s2.18-.05,5.42-.26Zm5.93,12.01c-1.69.1-6.8.28-9.19.49-.8.08-.92.36-1.36.36-.64,0-2.69-1-2.69-1.26,0-.08.13-.13.41-.13.13,0,.28,0,.46.03,1.1.13,2.54.21,4.16.21,2.28,0,4.9-.13,7.24-.31.46-.03.21-.26,1.21-.26,1.18,0,1.69.15,1.69.38s-.33.51-.33.82c0,2.64-.03,7.29-1.18,7.29-.23,0-.41-.33-.41-1.05v-6.57Zm-9.96-13.73c-.54,0-2.13-1.13-2.13-1.44,0-.08.05-.13.21-.13s.33.05.62.1c1.28.18,1.69.18,4.65.18.69.05,1.08.31,1.08.59,0,.31-.44.59-1.41.64l-3,.05Zm-2.13,7.52c0,1.39,1.1,2.77,3.29,2.77s3.34-1.39,3.34-2.77-1.13-2.82-3.34-2.82-3.29,1.41-3.29,2.82Zm12.14-8.34c0-.26-.64-.77-2.21-1.39-.38-.13-.59-.28-.59-.41,0-.15.31-.28.92-.31,1.21.1,2,.44,2.69.62.74.28.92.46.92.72,0,.18-.1.38-.1.69l-.03,6.93c.36-.03.62,0,1-.05,1.33-.15.69-.72,2.57-.72.51,0,1.51,0,1.51.69,0,.31-.28.62-.72.64l-4.39.08c-.05,3.88-.98,4.31-1.21,4.31-.21,0-.38-.28-.38-1.03v-10.78Z"/>
      <path class="cls-2" d="m145.88,394.24c-.03-.26-.62-.69-1.51-1.33-.33-.21-.51-.54.15-.54.87,0,1.75.49,2.82,1.13.31.21.38.38.38.56,0,.38-.9,1.92-1.62,2.95.54.64,1.03,1.15,1.59,1.59.95.67,1.57.38,2.62,2.77.03.1.05.21.05.31,0,.36-.21.62-.46.62-.21,0-.46-.13-.74-.49-.69-.82-2.1-2.57-3.49-4.21-2.82,3.52-6.06,5.36-6.44,5.36-.08,0-.13-.03-.13-.1s.13-.26.49-.49c2.46-1.9,4.7-4.47,6.26-8.01l.03-.13Zm7.62,6.62c-.13,1.08-.49,1.72-.85,1.82,0,.03.03.03.05.03,1,.36,1.28.59,1.28.82s-.28.44-.39.74c2.87.51,4.18,2.34,4.18,4.11,0,2.08-1.8,4.16-5.06,4.16s-4.88-2.08-4.88-4.13c0-1.85,1.36-3.75,4.31-4.16.26-.03.38-.21.38-.41s-.13-.46-.33-.67c-.13-.13-.23-.26-.23-.36s.1-.18.28-.21c-.1-.18-.21-.46-.21-.92v-9.14c-.05-.56-.77-.92-1.69-1.39-.23-.1-.51-.23-.51-.36s.21-.23.85-.31c2.59.49,2.98.72,2.98,1.08,0,.15-.08.33-.08.56v5.88l3.21-.1v-6.47c-.1-.44-.98-1.08-2.05-1.54-.28-.13-.54-.31-.54-.46s.26-.26.92-.26c2.85.64,3.31.98,3.31,1.39,0,.21-.1.41-.1.67l-.15,10.32c-.08,1.59-.54,2.49-.9,2.49-.26,0-.46-.41-.46-1.33l-.03-4.11-3.21.1-.1,2.16Zm-4.26,7.39c0,1.54,1.21,3.11,3.59,3.11s3.59-1.57,3.59-3.11-1.21-3.16-3.59-3.16-3.59,1.57-3.59,3.16Z"/>
      <path class="cls-2" d="m174.65,393.76c.56-.1.31-.23,1.51-.23.98,0,1.26.13,1.26.31,0,.23-.54.59-.72.87-1.1,1.72-1.92,2.95-3.46,4.75,3.08,3.18,2.82,1.49,4.8,3.77.51.64.72,1.15.72,1.46s-.18.46-.44.46c-.23,0-.56-.15-.85-.46-.82-.85-1.92-2.03-4.77-4.8-2.72,2.9-8.16,6.16-9.03,6.16-.08,0-.1-.03-.1-.08,0-.08.18-.26.59-.49,3.13-1.92,7.93-5.57,10.93-11.16-1.49.05-5.16.26-5.75.33-.67.13-.77.39-1.16.39-.44,0-2.67-.9-2.67-1.33,0-.08.1-.13.31-.13.13,0,.28,0,.49.05.9.18,2.21.23,3.62.23.18,0,4.13-.05,4.72-.1Zm6.93-2.31c-.05-.49-.82-1.1-2.28-1.75-.36-.13-.56-.28-.56-.41,0-.15.26-.28.85-.33,1.62.26,2.52.62,3.13.82.38.15.46.33.46.57,0,.21-.08.41-.08.69l-.03,15.12c0,4.72-.15,5.36-.62,6.34-.18.31-.36.46-.51.46-.21,0-.36-.31-.36-1.1v-20.4Z"/>
      <path class="cls-2" d="m197.75,401.79c-.56.08-3.44.51-3.49.51-.54.1-.64.33-.98.33-.49,0-3.31-1.18-3.31-1.62,0-.08.08-.1.26-.1.15,0,.36.03.64.08.49.1,1.18.15,2.05.15,3.26,0,8.62-.67,11.63-1.33.38-.1.64-.15.8-.15.1,0,.15.03.15.08,0,.08-.23.26-.69.49-2.08.62-3.72.92-5.52,1.28.05,1.67-.08,2.21-.41,3.08-.23.41-.51.67-.72.67-.23,0-.41-.33-.41-1.13v-2.33Zm.36-9.96c.33-.05.67-.23.67-.54,0-.1-.05-.21-.13-.31-.15-.13-.23-.26-.23-.36,0-.08.08-.13.23-.13.67,0,1.28.51,1.28.8,0,.21-.21.38-.31.59,2.62.41,3.9,2.13,3.9,3.8,0,1.82-1.57,3.57-4.62,3.57s-4.85-1.85-4.85-3.7c0-1.62,1.28-3.26,4.06-3.72Zm-.74,15.53c-.05-.46-.64-.72-1.95-1.1-.31-.1-.54-.21-.54-.33s.21-.26.72-.36c1.26,0,2.41.1,2.9.18.46.1.56.26.56.49,0,.18-.05.38-.08.67,0,1.18,0,2.03.03,3.18.03.56.33.79,1.21.82l5.83-.03c1.9-.15,1-.74,3.31-.74.46,0,1.87,0,1.87.87,0,.28-.23.56-.67.56h-10.42c-1.72-.03-2.64-.44-2.77-1.72v-2.49Zm-1.82-11.81c0,1.36,1.1,2.75,3.34,2.75s3.26-1.39,3.26-2.75-1.08-2.77-3.26-2.77-3.34,1.39-3.34,2.77Zm11.63-4.21c0-.46-.9-.97-2.21-1.51-.44-.13-.62-.26-.62-.38,0-.15.33-.26.85-.28,1.03.03,2.05.33,3.11.64.46.18.56.28.56.49,0,.15-.08.36-.08.69v11.83c-.03,2.28-.03,3.18-.36,4.21-.23.56-.54.9-.77.9-.26,0-.44-.33-.44-1.13v-3.03c-.9.05-1.92.15-3.16.33-.41.1-.38.31-.69.31-.36,0-2.39-.75-2.39-1.05,0-.08.13-.13.44-.13.18,0,.39,0,.67.05.38.03.82.03,1.28.03,1.08,0,2.36-.05,3.82-.26l-.03-11.7Z"/>
      <path class="cls-2" d="m223.19,394.91c-.03-.26-.54-.77-1.49-1.36-.49-.23-.62-.51.39-.51.49,0,3.05.85,3.05,1.54,0,.21-.38,1.23-1.85,3.57.46.59.95,1.16,1.39,1.62.9,1.08,1.72.74,2.13,3.26,0,.08.03.13.03.21,0,.49-.28.77-.56.77-.23,0-.49-.13-.67-.46-.49-1-1.44-3.11-2.72-4.93-3.03,3.64-6.13,5.62-6.65,5.62-.08,0-.1-.03-.1-.08,0-.1.18-.31.51-.59,2.44-2.05,5.24-4.75,6.52-8.44l.03-.21Zm.36,12.01c-.03-.31-.39-.69-1.87-.98-.49-.05-.69-.15-.69-.28,0-.36.95-.49,1.46-.49.26,0,1.51.1,1.8.1.87,0,1,.28,1,.69,0,.18-.03.41-.03.67v2.9c0,.87.13,1.15,1.18,1.15h3.23c5.16-.03,3.08-.9,5.42-.9.92,0,2,0,2,.79,0,.36-.36.72-.98.72h-10.14c-1.08,0-2.31-.36-2.31-1.72l-.08-2.67Zm5.83-13.73c0-.62-.98-1.18-1.77-1.54-.31-.1-.59-.26-.59-.38s.23-.26.9-.31c.64.05,1.64.41,2.34.56.62.26.74.49.74.74,0,.23-.1.46-.13.77v10.21c-.1,4.21-.92,4.21-1,4.21-.26,0-.46-.64-.46-1.87l-.03-7.01-1.46.1c-.64.13-.67.33-.98.33s-1.87-.54-1.87-.9c0-.13.13-.13.8-.13,1.64-.08,2.57-.05,3.52-.1v-4.7Zm4.39-1.64c-.03-.46-.98-1.1-2-1.64-.36-.18-.59-.33-.59-.46s.26-.23.85-.26c1.26.23,2.23.62,2.82.85.46.18.56.36.56.56,0,.18-.08.38-.08.64l-.05,13.27c-.05,2.39-.54,3.64-1.03,3.8-.23,0-.46-.28-.49-1.57v-15.19Z"/>
      <path class="cls-2" d="m243.67,394.78c0-.23-.95-.72-1.8-.97-.31-.08-.54-.18-.54-.33,0-.13.23-.28.82-.41,1.23,0,2.41.18,2.93.33.44.03.87.05,1.36.05.82,0,1.69-.05,2.64-.08,1.13-.28.51-.69,2.62-.72,1.03,0,1.44.36,1.44.69s-.36.64-.98.64c-2.59.08-5.26.1-6.52.15-.26.18-.33-.03-.36.44v4.65c.67-.03,1.62-.03,2.64-.08,1.05-.13.69-.69,3.05-.69.9,0,1.08.41,1.08.62,0,.31-.33.62-1,.64-1.62.03-3.98.13-5.77.18v4.83c-.03.56.15.82.56.82.08,0,.15,0,.26-.03,2.59-.26,5.21-.75,8.32-1.85.33-.13.59-.18.74-.18.1,0,.15.03.15.1,0,.1-.21.28-.64.54-4.62,2.16-9.34,2.98-9.57,2.98-.8,0-1.33-1.16-1.41-1.75l-.03-10.57Zm14.89-3.62c-.1-.54-1.51-1.23-2.28-1.54-.41-.1-.72-.28-.72-.44,0-.13.23-.23.8-.28,3.34.54,3.88.9,3.88,1.39,0,.23-.13.49-.13.82v17.55c0,2.75-.62,4.29-1.1,4.29-.33,0-.41-.54-.44-1.46v-12.01c-.98.03-1.69.1-2.67.23-.56.05-.64.26-.9.26-.36,0-1.87-.74-1.87-.98,0-.05.1-.1.33-.1.28,0,1.62.03,1.93.03,1.18,0,2.18-.03,3.18-.13v-7.62Z"/>
      <path class="cls-2" d="m178.16,436.77l-1.33,4.77h-10.65v-.8c1.33-3.11,4.13-6.21,6.8-8.19,2.69-2.05,3.16-3.46,3.16-5.44,0-2.75-1.62-3.8-3.93-3.8-2.16,0-3.8.8-3.8,2.49,0,1.54.67,1.36.67,2.23s-.62,1.16-1.13,1.16c-.72,0-1.16-.85-1.16-2.03,0-2,1.72-4.52,5.54-4.52s5.47,1.75,5.47,4.77c0,2.62-1.36,4.44-4.93,6.9-2.18,1.51-4.21,3.26-5.72,5.85h6.6c1.87,0,2.85-.69,3.98-3.54l.44.13Z"/>
      <path class="cls-2" d="m183.67,441.55v-.64c2.46,0,3.52-.36,3.52-1.64v-12.96c0-.92-.54-1.28-1.64-1.28h-2.23v-.51c2.49-.26,3.95-.92,5.49-1.87v16.63c0,1.28,1.18,1.64,3.67,1.64v.64h-8.8Z"/>
      <path class="cls-2" d="m202.54,441.55v-.59c1.82,0,2.52-.18,2.52-1.1v-3.29h-7.11v-.74l7.96-13.11h.77v13.06h3.34v.79h-3.34v3.34c0,.9.85,1.03,2.44,1.03v.62h-6.57Zm2.52-16.14l-6.29,10.37h6.29v-10.37Z"/>
    </g>
    <g>
      <path class="cls-2" d="m779.86,202.84c-.07-.31-.32-.38-1.26-.68-.13-.02-.27-.09-.27-.16,0-.09.14-.2.58-.31.65,0,1.55.14,2.09.29,1.51-.04,2.79.02,4.21-.07.43-.02.13-.14.99-.14.59,0,.97.04.97.22s-.38.45-.43.72l-.79,4.79c.52.11.83.31.83.45,0,.22-.49.22-.77.22-.9,0-3.89.07-4.92.09-.23.68-.34,1.01-.58,1.01s-.27-.61-.36-1.55l-.29-4.86Zm1.46-.41c-.16.09-.31.05-.32.38l.09,4.95c.47,0,2.3-.02,3.24-.05.43-.04.63-.11,1.06-.18.07-1.64.14-3.62.14-5.13l-4.21.04Zm9.02-2.68c-.04-.34-.58-.77-1.6-1.22-.25-.09-.4-.2-.4-.29,0-.11.18-.2.59-.23,1.13.18,1.76.43,2.2.58.27.11.32.23.32.4,0,.14-.05.29-.05.49l-.02,10.61c0,3.31-.11,3.76-.43,4.45-.13.22-.25.32-.36.32-.14,0-.25-.22-.25-.77v-14.31Z"/>
      <path class="cls-2" d="m805.64,200.58c-.04-.36-.54-.63-1.31-1.01-.23-.11-.4-.22-.4-.29,0-.09.16-.16.56-.2,1.96.34,2.25.58,2.25.86,0,.11-.05.23-.05.38v6.14l2.29-.05v-6.66c-.04-.36-.65-.79-1.44-1.21-.18-.09-.38-.22-.38-.31s.16-.16.63-.16c2.02.5,2.32.74,2.32,1.03,0,.13-.05.27-.05.45l-.07,13.59c-.11,1.13-.45,1.73-.68,1.73-.18,0-.32-.31-.32-.92v-7.02l-2.29.05-.07,5.29c-.09.88-.38,1.4-.63,1.4-.18,0-.34-.31-.34-1.03v-4.32c-1.8,1.13-4.95,2.34-6.32,2.38-.49-.04-.88-.81-.88-1.4l-.05-3.15c0-.31-.31-.45-1.06-.7-.13-.04-.22-.11-.22-.16,0-.09.14-.2.5-.23.92.02,1.57.13,2.02.27.34-.02.95-.04,1.55-.09.41-.04.41-.09.79-.18.07-.99.13-2.03.18-3.37-1.04.07-1.89.16-2.41.23-.43.11-.54.25-.79.25-.34,0-1.58-.56-1.58-.77,0-.05.05-.07.18-.07.22,0,1.28.02,1.53.02.92,0,1.78-.04,2.34-.13.54-.05.04-.25,1.44-.25.65.02.83.13.83.27,0,.16-.22.36-.32.52-.32,1.55-.5,2.43-.68,3.22.41.09.59.23.59.38,0,.29-.5.29-.72.29-.11,0-2.41.18-2.88.18-.09,0-.14.02-.14.2,0,.45-.02,1.12-.02,1.77s.02,1.26.02,1.62c0,.18.13.25.5.25,1.96-.23,3.92-.9,5.62-1.8v-7.29Z"/>
      <path class="cls-2" d="m820.92,201.08c.97-.18.5-.41,1.96-.43.63.02.94.25.94.47,0,.2-.27.38-.74.38-1.53.02-2.56.09-3.64.09.25.31.34.49.34.63,0,.18-.14.29-.18.49,2,.23,2.93,1.42,2.93,2.57,0,1.22-1.06,2.59-3.31,2.59-1.96,0-3.19-1.28-3.19-2.68,0-1.12.85-2.23,2.77-2.48.16-.09.23-.22.23-.38,0-.2-.13-.43-.29-.67-.52.02-1.22.05-1.96.14-.4.07-.47.18-.68.18s-1.64-.49-1.64-.83c0-.05.07-.07.2-.07.05,0,.14,0,.23.02.83.11,1.58.16,2.45.16.79,0,2.38-.11,3.57-.18Zm5.09,8.61c-1.12.05-4.14.13-6.32.22-.68.04-.76.31-1.13.31-.43,0-1.8-.67-1.8-.86,0-.05.07-.11.22-.11.07,0,.16.02.27.04.58.09,1.57.13,2.72.13,1.76,0,3.87-.07,5.31-.14.45-.02.41-.22.95-.22s1.12.09,1.12.31c0,.14-.18.34-.18.58,0,2.04-.02,3.08-.29,4.2-.13.5-.38.81-.58.81-.16,0-.29-.2-.29-.65v-4.59Zm-7.6-9.9c-.59-.11-1.46-.74-1.46-.94,0-.05.04-.09.14-.09.09,0,.23.02.42.07.99.18,1.42.18,2.97.18.52.02.81.2.81.4,0,.18-.29.36-.9.4l-1.98-.02Zm-1.39,5.37c0,.95.72,1.93,2.16,1.93,1.57,0,2.34-.97,2.34-1.93s-.77-1.94-2.34-1.94c-1.44,0-2.16.99-2.16,1.94Zm9.31-5.46c-.02-.36-.72-.81-1.62-1.17-.18-.07-.43-.16-.43-.27,0-.13.43-.23.52-.23.2,0,2.74.29,2.74.92,0,.16-.11.34-.11.58l-.02,5.62c0,1.66-.09,2.47-.56,3.12-.07.11-.14.14-.22.14-.18,0-.31-.41-.31-1.12v-1.08c-.72.05-1.3.07-1.8.14-.34.07-.38.22-.61.22-.22,0-1.42-.4-1.42-.72,0-.07.09-.13.25-.13.09,0,.18.02.29.04.31.02.63.04.95.04.77,0,1.57-.05,2.34-.13v-2.45c-.72,0-1.46.07-1.89.09-.41.07-.45.23-.67.23-.29,0-1.48-.47-1.48-.72,0-.05.07-.09.22-.09.11,0,.23.02.38.04h.95c.94,0,1.58-.02,2.48-.07v-2.99Z"/>
      <path class="cls-2" d="m832,207.89c2.74-1.66,4.79-4.34,5.62-6.12.02-.16.02-.18.02-.18,0-.31-.81-.86-1.22-1.1-.11-.05-.23-.16-.23-.25,0-.07.09-.14.38-.14.7,0,2.63.92,2.63,1.3,0,.14-.11.27-.27.5-.34.54-.78,1.19-.92,1.4.31.36.85.86,1.4,1.4.83.72,1.04.23,2.2,1.84.27.38.38.7.38.92,0,.23-.13.36-.31.36-.22,0-.52-.16-.86-.56-.79-.9-2.2-2.5-3.15-3.56-1.69,2.32-5.22,4.59-5.87,4.59-.07,0-.11-.02-.11-.05,0-.07.11-.2.32-.34Zm5.54,2.7c-.04-.36-.45-.52-1.37-.81-.2-.04-.32-.11-.32-.2s.14-.18.56-.25c.83,0,1.58.07,1.95.13.31.07.38.16.38.32,0,.11-.05.27-.05.49,0,.79,0,1.76.02,2.43,0,.4.23.56.86.59l3.76-.04c1.35-.09.7-.5,2.32-.5.58,0,1.33.05,1.33.61,0,.2-.16.4-.49.4h-7c-1.19-.02-1.87-.31-1.93-1.22l-.02-1.95Zm6.73-10.75c-.04-.23-.76-.74-1.51-1.04-.31-.11-.45-.22-.45-.31,0-.11.22-.16.65-.18.85.09,1.55.31,1.85.43.52.16.65.29.65.47,0,.13-.07.29-.07.52l-.02,7.56c0,.77-.07,1.78-.29,2.52-.16.41-.36.63-.52.63s-.29-.25-.29-.83v-9.78Z"/>
      <path class="cls-2" d="m861.53,199.69c0-.2-.47-.52-1.55-.99-.27-.09-.41-.2-.41-.27,0-.11.22-.18.65-.2.07,0,2.54.31,2.54.9,0,.13-.07.27-.07.45l-.02,5.65c.25-.02.54,0,.81-.04.83-.16.45-.5,1.84-.5.36,0,1.03,0,1.03.49,0,.23-.2.45-.52.45l-3.17.07c-.02,3.26-.12,4.07-.31,4.57-.16.34-.36.61-.52.61s-.27-.22-.29-.81v-4.75c-1.89,1.06-7.04,2.79-8.62,2.79-.52,0-.92-.79-.96-1.49l-.07-4.39c-.05-.38-.72-.59-1.44-.83-.18-.04-.27-.11-.27-.18s.12-.16.41-.23c1.13.02,2.09.22,2.57.32,1.12-.04,2.12-.09,2.72-.14,1.06-.07.68-.5,1.95-.5.41,0,1.1,0,1.1.49,0,.11-.07.36-.54.36-2.03.13-3.51.16-4.95.18-.25.07-.38-.02-.38.29-.02,1.67-.05,3.42-.05,4.27,0,.63,0,.86.47.86.4,0,4.82-.65,8.07-2.11v-5.31Zm-6.09,10.66c-.02-.34-.43-.5-1.35-.77-.2-.05-.34-.13-.34-.22s.16-.18.58-.25c.83,0,1.57.07,1.91.13.32.07.4.18.4.34,0,.13-.04.27-.05.47,0,.79,0,1.85.02,2.49.02.41.25.58.88.61l3.26-.04c1.35-.11.7-.52,2.3-.52.59,0,1.35.07,1.35.61,0,.22-.18.4-.49.4h-6.5c-1.21-.02-1.87-.31-1.94-1.21l-.02-2.03Z"/>
      <path class="cls-2" d="m807.53,221.29c0-.2-.47-.52-1.55-.99-.27-.09-.41-.2-.41-.27,0-.11.22-.18.65-.2.07,0,2.54.31,2.54.9,0,.13-.07.27-.07.45l-.02,5.65c.25-.02.54,0,.81-.04.83-.16.45-.5,1.84-.5.36,0,1.03,0,1.03.49,0,.23-.2.45-.52.45l-3.17.07c-.02,3.26-.12,4.07-.31,4.57-.16.34-.36.61-.52.61s-.27-.22-.29-.81v-4.75c-1.89,1.06-7.04,2.79-8.62,2.79-.52,0-.92-.79-.96-1.49l-.07-4.39c-.05-.38-.72-.59-1.44-.83-.18-.04-.27-.11-.27-.18s.12-.16.41-.23c1.13.02,2.09.22,2.57.32,1.12-.04,2.12-.09,2.72-.14,1.06-.07.68-.5,1.95-.5.41,0,1.1,0,1.1.49,0,.11-.07.36-.54.36-2.03.13-3.51.16-4.95.18-.25.07-.38-.02-.38.29-.02,1.67-.05,3.42-.05,4.27,0,.63,0,.86.47.86.4,0,4.82-.65,8.07-2.11v-5.31Zm-6.09,10.66c-.02-.34-.43-.5-1.35-.77-.2-.05-.34-.13-.34-.22s.16-.18.58-.25c.83,0,1.57.07,1.91.13.32.07.4.18.4.34,0,.13-.04.27-.05.47,0,.79,0,1.85.02,2.49.02.41.25.58.88.61l3.26-.04c1.35-.11.7-.52,2.3-.52.59,0,1.35.07,1.35.61,0,.22-.18.4-.49.4h-6.5c-1.21-.02-1.87-.31-1.94-1.21l-.02-2.03Z"/>
      <path class="cls-2" d="m821.1,222.19c.38-.09.23-.16.86-.16.52,0,1.01.04,1.01.25,0,.16-.27.4-.42.58-.61.86-1.57,2.02-2.16,2.66.27.27.74.72,1.06.96.67.58.78,0,1.87,1.3.25.32.34.59.34.81s-.12.36-.32.36c-.14,0-.36-.11-.56-.31-.4-.38-1.51-1.51-2.75-2.79-2.97,2.63-5.62,3.66-5.92,3.66-.07,0-.09-.02-.09-.04,0-.05.11-.16.36-.31,2.23-1.22,5.38-3.64,6.88-6.5-.86.04-3.01.13-3.67.16-.36.07-.4.23-.65.23-.29,0-1.78-.59-1.78-.86,0-.05.09-.11.25-.11.07,0,.18.02.31.04.61.13,1.4.18,2.27.18.45,0,2.63-.11,3.12-.11Zm1.75,7.85c0-.14-.07-.32-.22-.47-.11-.07-.16-.16-.16-.23s.07-.13.22-.13c.34,0,1.19.36,1.19.61,0,.16-.2.31-.27.52,2,.36,2.94,1.64,2.94,2.88,0,1.39-1.22,2.92-3.55,2.92s-3.46-1.42-3.46-2.94c0-1.28.99-2.59,3.04-2.88.18-.02.27-.14.27-.29Zm-2.32,3.1c0,1.08.85,2.18,2.52,2.18s2.52-1.1,2.52-2.18-.85-2.21-2.52-2.21-2.52,1.1-2.52,2.21Zm5.01-11.94c-.02-.16-.5-.52-1.55-.97-.27-.09-.41-.2-.41-.29,0-.11.22-.18.65-.2.85.09,1.49.29,2.07.47.38.14.47.27.47.43,0,.13-.07.29-.07.5l-.02,4.99c.25-.02.43,0,.7-.04.81-.18.49-.5,1.75-.5.41,0,1.12,0,1.12.49,0,.22-.2.43-.5.45l-3.08.07c-.02,1.51-.12,2.29-.31,2.79-.16.36-.38.63-.54.63-.14,0-.27-.22-.27-.81v-8.01Z"/>
      <path class="cls-2" d="m832.26,228.59c3.96-2.2,5.67-5.62,5.67-5.87,0-.31-.81-.88-1.24-1.12-.11-.05-.22-.16-.22-.25,0-.07.09-.14.36-.14.69,0,2.63.9,2.63,1.3,0,.13-1.12,1.82-1.26,2.03.31.27.94.72,1.3.94,1.06.56,1.04.05,2.32,1.44.27.29.38.54.38.74s-.13.31-.34.31c-.2,0-.49-.11-.81-.4-.47-.4-2.14-1.8-3.21-2.65-1.84,2.23-5.13,4.01-5.78,4.01-.09,0-.13-.02-.13-.05,0-.05.11-.16.32-.29Zm5.2,4.79c-.04-.2-.38-.32-.95-.47-.18-.05-.34-.11-.34-.18,0-.04.2-.23.81-.23.76,0,1.57.13,1.76.22,1.66,0,2.67,0,4.38-.07.41-.04.59-.09.95-.16.04-.29.11-1.28.16-2.18-1.15,0-3.58.11-5.33.18-.52.11-.61.31-.92.31-.38,0-1.76-.59-1.76-.81,0-.05.09-.09.29-.09.07,0,.16,0,.27.02.61.05,1.48.09,2.47.09,1.46,0,3.17-.07,4.59-.16.34-.05.31-.13.68-.13.11,0,.23,0,.41.02.54.04.7.13.7.27,0,.13-.18.31-.25.49-.23.54-.5,1.3-.63,1.91.49.09.74.27.74.41s-.22.25-.61.25c-1.37.04-4.05.09-5.98.11-.18.11-.32.07-.32.29v1.57c.02.34.18.41.45.41.36,0,.9.02,1.53.02.92,0,2.02-.02,3.1-.04,1.08-.13.74-.47,1.86-.47.49,0,1.39,0,1.39.52,0,.22-.22.41-.61.41h-7.22c-1.31,0-1.6-.47-1.6-.99v-1.51Zm6.81-12.06c0-.32-.56-.74-1.57-1.12-.31-.11-.47-.22-.47-.31,0-.11.22-.18.65-.22.09,0,2.59.32,2.59.88,0,.13-.07.29-.07.52v5.15c0,.76-.07,1.84-.29,2.48-.16.41-.36.63-.52.63s-.29-.25-.29-.83l-.04-7.2Z"/>
      <path class="cls-2" d="m814.93,253.14l-.94,3.35h-7.47v-.56c.94-2.18,2.9-4.36,4.77-5.74,1.89-1.44,2.21-2.43,2.21-3.82,0-1.93-1.13-2.67-2.75-2.67-1.51,0-2.67.56-2.67,1.75,0,1.08.47.95.47,1.57s-.43.81-.79.81c-.5,0-.81-.59-.81-1.42,0-1.4,1.21-3.17,3.89-3.17s3.83,1.22,3.83,3.35c0,1.84-.95,3.12-3.46,4.84-1.53,1.06-2.95,2.29-4.01,4.11h4.63c1.31,0,2-.49,2.79-2.49l.31.09Z"/>
      <path class="cls-2" d="m818.8,256.49v-.45c1.73,0,2.47-.25,2.47-1.15v-9.09c0-.65-.38-.9-1.15-.9h-1.57v-.36c1.75-.18,2.77-.65,3.85-1.31v11.67c0,.9.83,1.15,2.57,1.15v.45h-6.18Z"/>
      <path class="cls-2" d="m836.23,244.53h-6l-.29,4.99c.77-.83,1.71-1.21,3.08-1.21,2.79,0,4.05,2.05,4.05,4.16,0,1.96-1.26,4.29-4.05,4.29-2.59,0-4.05-1.44-4.05-3.01,0-.56.38-.81.77-.81.43,0,.83.27.83.77,0,.32-.05.68-.05,1.03,0,.77.31,1.49,2.3,1.49,2.14,0,3.08-2.07,3.08-3.78,0-1.87-.94-3.69-3.08-3.69-1.44,0-2.5.9-3.03,1.64l-.38-.16.42-6.7h6.66l-.27.99Z"/>
    </g>
    <g>
      <path class="cls-2" d="m770.86,391.84c-.07-.31-.32-.38-1.26-.68-.13-.02-.27-.09-.27-.16,0-.09.14-.2.58-.31.65,0,1.55.14,2.09.29,1.51-.04,2.79.02,4.21-.07.43-.02.13-.14.99-.14.59,0,.97.04.97.22s-.38.45-.43.72l-.79,4.79c.52.11.83.31.83.45,0,.22-.49.22-.77.22-.9,0-3.89.07-4.92.09-.23.68-.34,1.01-.58,1.01s-.27-.61-.36-1.55l-.29-4.86Zm1.46-.41c-.16.09-.31.05-.32.38l.09,4.95c.47,0,2.3-.02,3.24-.05.43-.04.63-.11,1.06-.18.07-1.64.14-3.62.14-5.13l-4.21.04Zm9.02-2.68c-.04-.34-.58-.77-1.6-1.22-.25-.09-.4-.2-.4-.29,0-.11.18-.2.59-.23,1.13.18,1.76.43,2.2.58.27.11.32.23.32.4,0,.14-.05.29-.05.49l-.02,10.61c0,3.31-.11,3.76-.43,4.45-.13.22-.25.32-.36.32-.14,0-.25-.22-.25-.77v-14.31Z"/>
      <path class="cls-2" d="m796.64,389.58c-.04-.36-.54-.63-1.31-1.01-.23-.11-.4-.22-.4-.29,0-.09.16-.16.56-.2,1.96.34,2.25.58,2.25.86,0,.11-.05.23-.05.38v6.14l2.29-.05v-6.66c-.04-.36-.65-.79-1.44-1.21-.18-.09-.38-.22-.38-.31s.16-.16.63-.16c2.02.5,2.32.74,2.32,1.03,0,.13-.05.27-.05.45l-.07,13.59c-.11,1.13-.45,1.73-.68,1.73-.18,0-.32-.31-.32-.92v-7.02l-2.29.05-.07,5.29c-.09.88-.38,1.4-.63,1.4-.18,0-.34-.31-.34-1.03v-4.32c-1.8,1.13-4.95,2.34-6.32,2.38-.49-.04-.88-.81-.88-1.4l-.05-3.15c0-.31-.31-.45-1.06-.7-.13-.04-.22-.11-.22-.16,0-.09.14-.2.5-.23.92.02,1.57.13,2.02.27.34-.02.95-.04,1.55-.09.41-.04.41-.09.79-.18.07-.99.13-2.03.18-3.37-1.04.07-1.89.16-2.41.23-.43.11-.54.25-.79.25-.34,0-1.58-.56-1.58-.77,0-.05.05-.07.18-.07.22,0,1.28.02,1.53.02.92,0,1.78-.04,2.34-.13.54-.05.04-.25,1.44-.25.65.02.83.13.83.27,0,.16-.22.36-.32.52-.32,1.55-.5,2.43-.68,3.22.41.09.59.23.59.38,0,.29-.5.29-.72.29-.11,0-2.41.18-2.88.18-.09,0-.14.02-.14.2,0,.45-.02,1.12-.02,1.76s.02,1.26.02,1.62c0,.18.13.25.5.25,1.96-.23,3.92-.9,5.62-1.8v-7.29Z"/>
      <path class="cls-2" d="m809.23,389.86c.32-.02.5-.2.5-.4,0-.09-.04-.18-.11-.27-.13-.11-.2-.22-.2-.31,0-.07.05-.11.22-.11.47,0,1.08.32,1.08.59,0,.18-.23.36-.31.52,3.22.45,3.22,2.63,3.22,3.33-.09,1.8-1.37,3.06-3.82,3.12-2.54,0-3.96-1.57-3.96-3.26,0-1.44,1.06-2.86,3.24-3.19l.13-.04Zm-2.27,3.26c0,1.28.94,2.54,2.84,2.54s2.81-1.26,2.81-2.54-.94-2.54-2.81-2.54-2.84,1.26-2.84,2.54Zm3.58,6.46c-.04-.36-.45-.52-1.37-.81-.2-.04-.32-.11-.32-.2s.14-.18.56-.25c.83,0,1.58.07,1.95.13.31.07.38.16.38.32,0,.11-.05.27-.05.49,0,.79,0,1.76.02,2.43,0,.4.23.56.86.59l3.76-.04c1.35-.09.7-.5,2.32-.5.58,0,1.33.05,1.33.61,0,.2-.16.4-.49.4h-7c-1.19-.02-1.87-.31-1.93-1.22l-.02-1.95Zm6.73-10.75c-.04-.23-.76-.74-1.51-1.04-.31-.11-.45-.22-.45-.31,0-.11.22-.16.65-.18.85.09,1.55.31,1.85.43.52.16.65.29.65.47,0,.13-.07.29-.07.52l-.02,7.56c0,.77-.07,1.78-.29,2.52-.16.41-.36.63-.52.63s-.29-.25-.29-.83v-9.78Z"/>
      <path class="cls-2" d="m826.77,391.95c-.43.07-.49.23-.74.23-.31,0-1.69-.54-1.69-.79,0-.05.07-.07.23-.07.09,0,.23.02.4.04.32.04.86.05,1.5.05.85,0,1.85-.04,2.75-.11.49-.05.4-.18,1.35-.18.4.02.52.09.52.18,0,.13-.18.29-.31.47-.45,1.06-1.12,2.38-1.89,3.49.5.92,1.57,1.15,2,1.8.32.56.45.97.45,1.26,0,.31-.14.47-.34.47-.16,0-.36-.11-.52-.34-.47-.7-1.08-1.75-1.89-2.83-2,2.61-4.7,4.43-5.04,4.43-.05,0-.07,0-.07-.04,0-.05.11-.18.36-.36,1.4-1.22,4.39-3.85,5.72-7.9-.76.02-1.62.05-2.79.2Zm5.87-2.38c-.04-.36-.54-.63-1.31-1.01-.23-.11-.4-.22-.4-.29,0-.09.16-.16.56-.2,1.96.34,2.25.58,2.25.86,0,.11-.05.23-.05.38v6.14l2.29-.05v-6.66c-.04-.36-.65-.79-1.44-1.21-.18-.09-.38-.22-.38-.31s.16-.16.63-.16c2.02.5,2.32.74,2.32,1.03,0,.13-.05.27-.05.45l-.07,13.59c-.11,1.13-.45,1.73-.68,1.73-.18,0-.32-.31-.32-.92v-7.02l-2.29.05-.07,5.29c-.09.88-.38,1.4-.63,1.4-.18,0-.34-.31-.34-1.03v-12.08Z"/>
      <path class="cls-2" d="m846.51,391.18c-.02-.18-.38-.54-1.04-.95-.34-.16-.43-.36.27-.36.34,0,2.14.59,2.14,1.08,0,.14-.27.86-1.3,2.5.32.41.67.81.97,1.13.63.76,1.21.52,1.5,2.29,0,.05.02.09.02.14,0,.34-.2.54-.4.54-.16,0-.34-.09-.47-.32-.34-.7-1.01-2.18-1.91-3.46-2.12,2.56-4.3,3.94-4.66,3.94-.05,0-.07-.02-.07-.05,0-.07.13-.22.36-.41,1.71-1.44,3.67-3.33,4.57-5.92l.02-.14Zm.25,8.43c-.02-.22-.27-.49-1.31-.68-.34-.04-.49-.11-.49-.2,0-.25.67-.34,1.03-.34.18,0,1.06.07,1.26.07.61,0,.7.2.7.49,0,.13-.02.29-.02.47v2.03c0,.61.09.81.83.81h2.27c3.62-.02,2.16-.63,3.8-.63.65,0,1.4,0,1.4.56,0,.25-.25.5-.68.5h-7.11c-.76,0-1.62-.25-1.62-1.21l-.05-1.87Zm4.09-9.63c0-.43-.68-.83-1.24-1.08-.21-.07-.41-.18-.41-.27s.16-.18.63-.22c.45.04,1.15.29,1.64.4.43.18.52.34.52.52,0,.16-.07.32-.09.54v7.17c-.07,2.95-.65,2.95-.7,2.95-.18,0-.32-.45-.32-1.31l-.02-4.92-1.03.07c-.45.09-.47.23-.68.23s-1.31-.38-1.31-.63c0-.09.09-.09.56-.09,1.15-.05,1.8-.04,2.47-.07v-3.29Zm3.08-1.15c-.02-.32-.68-.77-1.4-1.15-.25-.13-.41-.23-.41-.32s.18-.16.59-.18c.88.16,1.57.43,1.98.59.32.13.4.25.4.4,0,.13-.05.27-.05.45l-.04,9.31c-.04,1.67-.38,2.56-.72,2.66-.16,0-.32-.2-.34-1.1v-10.66Z"/>
      <path class="cls-2" d="m860.88,391.09c0-.16-.67-.5-1.26-.68-.22-.05-.38-.13-.38-.23,0-.09.16-.2.58-.29.86,0,1.69.13,2.05.23.31.02.61.04.95.04.58,0,1.19-.04,1.85-.05.79-.2.36-.49,1.84-.5.72,0,1.01.25,1.01.49s-.25.45-.68.45c-1.82.05-3.69.07-4.57.11-.18.13-.23-.02-.25.31v3.26c.47-.02,1.13-.02,1.86-.05.74-.09.49-.49,2.14-.49.63,0,.76.29.76.43,0,.22-.23.43-.7.45-1.13.02-2.79.09-4.05.13v3.38c-.02.4.11.58.4.58.05,0,.11,0,.18-.02,1.82-.18,3.66-.52,5.83-1.3.23-.09.41-.13.52-.13.07,0,.11.02.11.07,0,.07-.14.2-.45.38-3.24,1.51-6.55,2.09-6.71,2.09-.56,0-.94-.81-.99-1.22l-.02-7.42Zm10.44-2.54c-.07-.38-1.06-.86-1.6-1.08-.29-.07-.5-.2-.5-.31,0-.09.16-.16.56-.2,2.34.38,2.72.63,2.72.97,0,.16-.09.34-.09.58v12.32c0,1.93-.43,3.01-.77,3.01-.23,0-.29-.38-.31-1.03v-8.43c-.68.02-1.19.07-1.87.16-.4.04-.45.18-.63.18-.25,0-1.31-.52-1.31-.68,0-.04.07-.07.23-.07.2,0,1.13.02,1.35.02.83,0,1.53-.02,2.23-.09v-5.35Z"/>
      <path class="cls-2" d="m814.93,420.54l-.94,3.35h-7.47v-.56c.94-2.18,2.9-4.36,4.77-5.74,1.89-1.44,2.21-2.43,2.21-3.82,0-1.93-1.13-2.67-2.75-2.67-1.51,0-2.67.56-2.67,1.75,0,1.08.47.95.47,1.57s-.43.81-.79.81c-.5,0-.81-.59-.81-1.42,0-1.4,1.21-3.17,3.89-3.17s3.83,1.22,3.83,3.35c0,1.84-.95,3.12-3.46,4.84-1.53,1.06-2.95,2.29-4.01,4.11h4.63c1.31,0,2-.49,2.79-2.49l.31.09Z"/>
      <path class="cls-2" d="m818.8,423.89v-.45c1.73,0,2.47-.25,2.47-1.15v-9.09c0-.65-.38-.9-1.15-.9h-1.57v-.36c1.75-.18,2.77-.65,3.85-1.31v11.67c0,.9.83,1.15,2.57,1.15v.45h-6.18Z"/>
      <path class="cls-2" d="m833.78,415.77c1.93,0,3.37,1.46,3.37,4.16,0,2.95-2.09,4.25-4,4.25-2.43,0-4.14-1.69-4.14-6.07s1.8-7.47,4.92-7.47c2.02,0,2.92.97,2.92,1.75,0,.61-.29.94-.79.94-.47,0-.83-.32-.83-.94,0-.67-.58-1.19-1.73-1.19-1.89,0-3.33,2.41-3.33,6.63.74-1.03,1.91-2.05,3.62-2.05Zm-.63,7.98c1.93,0,2.86-1.42,2.86-4.03,0-1.98-.95-3.37-2.65-3.37-1.46,0-2.65,1.3-3.22,2.34,0,4.21,1.42,5.06,3.01,5.06Z"/>
    </g>
    <g>
      <path class="cls-2" d="m776.33,605.26c1.04-.2.56-.52,2.02-.54.65.02.94.27.94.5,0,.22-.25.43-.74.43-1.53.02-2.97.09-3.84.14.2.23.27.41.27.54,0,.2-.16.31-.21.45,2,.29,2.93,1.46,2.93,2.65,0,1.31-1.19,2.63-3.35,2.63s-3.44-1.33-3.44-2.68c0-1.19.94-2.36,2.99-2.63.2-.11.29-.25.29-.4,0-.16-.11-.34-.27-.5-.59.02-1.33.05-2.25.18-.38.05-.47.2-.68.2-.34,0-1.69-.72-1.69-.92,0-.05.07-.09.23-.09.09,0,.2.02.36.04.81.13,1.62.18,2.65.18s1.53-.04,3.8-.18Zm4.16,8.43c-1.19.07-4.77.2-6.45.34-.56.05-.65.25-.95.25-.45,0-1.89-.7-1.89-.88,0-.05.09-.09.29-.09.09,0,.2,0,.32.02.77.09,1.78.14,2.92.14,1.6,0,3.44-.09,5.08-.22.32-.02.14-.18.85-.18.83,0,1.19.11,1.19.27s-.23.36-.23.58c0,1.85-.02,5.11-.83,5.11-.16,0-.29-.23-.29-.74v-4.61Zm-6.99-9.63c-.38,0-1.5-.79-1.5-1.01,0-.05.04-.09.14-.09s.23.04.43.07c.9.13,1.19.13,3.26.13.49.04.76.22.76.41,0,.22-.31.41-.99.45l-2.11.04Zm-1.5,5.28c0,.97.78,1.94,2.3,1.94s2.34-.97,2.34-1.94-.79-1.98-2.34-1.98-2.3.99-2.3,1.98Zm8.52-5.85c0-.18-.45-.54-1.55-.97-.27-.09-.41-.2-.41-.29,0-.11.22-.2.65-.22.85.07,1.4.31,1.89.43.52.2.65.32.65.5,0,.13-.07.27-.07.49l-.02,4.86c.25-.02.43,0,.7-.04.94-.11.49-.5,1.8-.5.36,0,1.06,0,1.06.49,0,.22-.2.43-.5.45l-3.08.05c-.04,2.72-.68,3.03-.85,3.03-.14,0-.27-.2-.27-.72v-7.56Z"/>
      <path class="cls-2" d="m792.3,605.71c-.02-.18-.43-.49-1.06-.94-.23-.14-.36-.38.11-.38.61,0,1.22.34,1.98.79.22.14.27.27.27.4,0,.27-.63,1.35-1.13,2.07.38.45.72.81,1.12,1.12.67.47,1.1.27,1.84,1.94.02.07.04.14.04.22,0,.25-.14.43-.32.43-.14,0-.32-.09-.52-.34-.49-.58-1.48-1.8-2.45-2.95-1.98,2.47-4.25,3.76-4.52,3.76-.05,0-.09-.02-.09-.07s.09-.18.34-.34c1.73-1.33,3.29-3.13,4.39-5.62l.02-.09Zm5.35,4.65c-.09.76-.34,1.21-.59,1.28,0,.02.02.02.04.02.7.25.9.41.9.58s-.2.31-.27.52c2.02.36,2.93,1.64,2.93,2.88,0,1.46-1.26,2.92-3.55,2.92s-3.42-1.46-3.42-2.9c0-1.3.95-2.63,3.02-2.92.18-.02.27-.14.27-.29s-.09-.32-.23-.47c-.09-.09-.16-.18-.16-.25s.07-.13.2-.14c-.07-.13-.14-.32-.14-.65v-6.41c-.04-.4-.54-.65-1.19-.97-.16-.07-.36-.16-.36-.25s.14-.16.59-.22c1.82.34,2.09.5,2.09.76,0,.11-.05.23-.05.4v4.12l2.25-.07v-4.54c-.07-.31-.68-.76-1.44-1.08-.2-.09-.38-.22-.38-.32s.18-.18.65-.18c2,.45,2.32.68,2.32.97,0,.14-.07.29-.07.47l-.11,7.24c-.05,1.12-.38,1.75-.63,1.75-.18,0-.32-.29-.32-.94l-.02-2.88-2.25.07-.07,1.51Zm-2.99,5.19c0,1.08.85,2.18,2.52,2.18s2.52-1.1,2.52-2.18-.85-2.21-2.52-2.21-2.52,1.1-2.52,2.21Z"/>
      <path class="cls-2" d="m812.48,605.37c.4-.07.22-.16,1.06-.16.68,0,.88.09.88.21,0,.16-.38.42-.5.61-.77,1.21-1.35,2.07-2.43,3.33,2.16,2.23,1.98,1.04,3.37,2.65.36.45.5.81.5,1.03s-.13.32-.31.32c-.16,0-.4-.11-.59-.32-.58-.59-1.35-1.42-3.35-3.37-1.91,2.03-5.73,4.32-6.34,4.32-.05,0-.07-.02-.07-.05,0-.05.13-.18.41-.34,2.2-1.35,5.56-3.91,7.67-7.83-1.04.04-3.62.18-4.03.23-.47.09-.54.27-.81.27-.31,0-1.87-.63-1.87-.94,0-.05.07-.09.22-.09.09,0,.2,0,.34.04.63.13,1.55.16,2.54.16.13,0,2.9-.04,3.31-.07Zm4.86-1.62c-.04-.34-.58-.77-1.6-1.22-.25-.09-.4-.2-.4-.29,0-.11.18-.2.59-.23,1.13.18,1.76.43,2.2.58.27.11.32.23.32.4,0,.14-.05.29-.05.49l-.02,10.61c0,3.31-.11,3.76-.43,4.45-.13.22-.25.32-.36.32-.14,0-.25-.22-.25-.77v-14.31Z"/>
      <path class="cls-2" d="m828.67,611c-.4.05-2.41.36-2.45.36-.38.07-.45.23-.68.23-.34,0-2.32-.83-2.32-1.13,0-.05.05-.07.18-.07.11,0,.25.02.45.05.34.07.83.11,1.44.11,2.29,0,6.05-.47,8.16-.94.27-.07.45-.11.56-.11.07,0,.11.02.11.05,0,.05-.16.18-.49.34-1.46.43-2.61.65-3.87.9.04,1.17-.05,1.55-.29,2.16-.16.29-.36.47-.5.47-.16,0-.29-.23-.29-.79v-1.64Zm.25-6.99c.23-.04.47-.16.47-.38,0-.07-.04-.14-.09-.22-.11-.09-.16-.18-.16-.25,0-.05.05-.09.16-.09.47,0,.9.36.9.56,0,.14-.14.27-.22.41,1.84.29,2.74,1.49,2.74,2.66,0,1.28-1.1,2.5-3.24,2.5s-3.4-1.3-3.4-2.59c0-1.13.9-2.29,2.85-2.61Zm-.52,10.89c-.04-.32-.45-.5-1.37-.77-.22-.07-.38-.14-.38-.23s.14-.18.5-.25c.88,0,1.69.07,2.04.13.32.07.4.18.4.34,0,.13-.04.27-.05.47,0,.83,0,1.42.02,2.23.02.4.23.56.85.58l4.09-.02c1.33-.11.7-.52,2.32-.52.32,0,1.31,0,1.31.61,0,.2-.16.4-.47.4h-7.31c-1.21-.02-1.85-.31-1.95-1.21v-1.75Zm-1.28-8.28c0,.95.77,1.93,2.34,1.93s2.29-.97,2.29-1.93-.76-1.94-2.29-1.94-2.34.97-2.34,1.94Zm8.16-2.95c0-.32-.63-.68-1.55-1.06-.31-.09-.43-.18-.43-.27,0-.11.23-.18.59-.2.72.02,1.44.23,2.18.45.32.13.4.2.4.34,0,.11-.05.25-.05.49v8.3c-.02,1.6-.02,2.23-.25,2.95-.16.4-.38.63-.54.63-.18,0-.31-.23-.31-.79v-2.12c-.63.04-1.35.11-2.21.23-.29.07-.27.22-.49.22-.25,0-1.67-.52-1.67-.74,0-.05.09-.09.31-.09.13,0,.27,0,.47.04.27.02.58.02.9.02.76,0,1.66-.04,2.68-.18l-.02-8.21Z"/>
      <path class="cls-2" d="m846.51,606.18c-.02-.18-.38-.54-1.04-.95-.34-.16-.43-.36.27-.36.34,0,2.14.59,2.14,1.08,0,.14-.27.86-1.3,2.5.32.41.67.81.97,1.13.63.76,1.21.52,1.5,2.29,0,.05.02.09.02.14,0,.34-.2.54-.4.54-.16,0-.34-.09-.47-.32-.34-.7-1.01-2.18-1.91-3.46-2.12,2.56-4.3,3.94-4.66,3.94-.05,0-.07-.02-.07-.05,0-.07.13-.22.36-.41,1.71-1.44,3.67-3.33,4.57-5.92l.02-.14Zm.25,8.43c-.02-.22-.27-.49-1.31-.68-.34-.04-.49-.11-.49-.2,0-.25.67-.34,1.03-.34.18,0,1.06.07,1.26.07.61,0,.7.2.7.49,0,.13-.02.29-.02.47v2.03c0,.61.09.81.83.81h2.27c3.62-.02,2.16-.63,3.8-.63.65,0,1.4,0,1.4.56,0,.25-.25.5-.68.5h-7.11c-.76,0-1.62-.25-1.62-1.21l-.05-1.87Zm4.09-9.63c0-.43-.68-.83-1.24-1.08-.21-.07-.41-.18-.41-.27s.16-.18.63-.22c.45.04,1.15.29,1.64.4.43.18.52.34.52.52,0,.16-.07.32-.09.54v7.17c-.07,2.95-.65,2.95-.7,2.95-.18,0-.32-.45-.32-1.31l-.02-4.92-1.03.07c-.45.09-.47.23-.68.23s-1.31-.38-1.31-.63c0-.09.09-.09.56-.09,1.15-.05,1.8-.04,2.47-.07v-3.29Zm3.08-1.15c-.02-.32-.68-.77-1.4-1.15-.25-.13-.41-.23-.41-.32s.18-.16.59-.18c.88.16,1.57.43,1.98.59.32.13.4.25.4.4,0,.12-.05.27-.05.45l-.04,9.31c-.04,1.67-.38,2.56-.72,2.66-.16,0-.32-.2-.34-1.1v-10.66Z"/>
      <path class="cls-2" d="m860.88,606.09c0-.16-.67-.5-1.26-.68-.22-.05-.38-.13-.38-.23,0-.09.16-.2.58-.29.86,0,1.69.12,2.05.23.31.02.61.04.95.04.58,0,1.19-.04,1.85-.05.79-.2.36-.49,1.84-.5.72,0,1.01.25,1.01.49s-.25.45-.68.45c-1.82.05-3.69.07-4.57.11-.18.13-.23-.02-.25.31v3.26c.47-.02,1.13-.02,1.86-.05.74-.09.49-.49,2.14-.49.63,0,.76.29.76.43,0,.22-.23.43-.7.45-1.13.02-2.79.09-4.05.13v3.38c-.02.4.11.58.4.58.05,0,.11,0,.18-.02,1.82-.18,3.66-.52,5.83-1.3.23-.09.41-.13.52-.13.07,0,.11.02.11.07,0,.07-.14.2-.45.38-3.24,1.51-6.55,2.09-6.71,2.09-.56,0-.94-.81-.99-1.22l-.02-7.42Zm10.44-2.54c-.07-.38-1.06-.86-1.6-1.08-.29-.07-.5-.2-.5-.31,0-.09.16-.16.56-.2,2.34.38,2.72.63,2.72.97,0,.16-.09.34-.09.58v12.32c0,1.93-.43,3.01-.77,3.01-.23,0-.29-.38-.31-1.03v-8.43c-.68.02-1.19.07-1.87.16-.4.04-.45.18-.63.18-.25,0-1.31-.52-1.31-.68,0-.04.07-.07.23-.07.2,0,1.13.02,1.35.02.83,0,1.53-.02,2.23-.09v-5.35Z"/>
      <path class="cls-2" d="m814.93,635.54l-.94,3.35h-7.47v-.56c.94-2.18,2.9-4.36,4.77-5.74,1.89-1.44,2.21-2.43,2.21-3.82,0-1.93-1.13-2.67-2.75-2.67-1.51,0-2.67.56-2.67,1.75,0,1.08.47.95.47,1.57s-.43.81-.79.81c-.5,0-.81-.59-.81-1.42,0-1.4,1.21-3.17,3.89-3.17s3.83,1.22,3.83,3.35c0,1.84-.95,3.12-3.46,4.84-1.53,1.06-2.95,2.29-4.01,4.11h4.63c1.31,0,2-.49,2.79-2.49l.31.09Z"/>
      <path class="cls-2" d="m826.18,635.54l-.94,3.35h-7.47v-.56c.94-2.18,2.9-4.36,4.77-5.74,1.89-1.44,2.21-2.43,2.21-3.82,0-1.93-1.13-2.67-2.75-2.67-1.51,0-2.67.56-2.67,1.75,0,1.08.47.95.47,1.57s-.43.81-.79.81c-.5,0-.81-.59-.81-1.42,0-1.4,1.21-3.17,3.89-3.17s3.83,1.22,3.83,3.35c0,1.84-.95,3.12-3.46,4.84-1.53,1.06-2.95,2.29-4.01,4.11h4.63c1.31,0,2-.49,2.79-2.49l.31.09Z"/>
      <path class="cls-2" d="m837.43,635.54l-.94,3.35h-7.47v-.56c.94-2.18,2.9-4.36,4.77-5.74,1.89-1.44,2.21-2.43,2.21-3.82,0-1.93-1.13-2.67-2.75-2.67-1.51,0-2.67.56-2.67,1.75,0,1.08.47.95.47,1.57s-.43.81-.79.81c-.5,0-.81-.59-.81-1.42,0-1.4,1.21-3.17,3.89-3.17s3.83,1.22,3.83,3.35c0,1.84-.95,3.12-3.46,4.84-1.53,1.06-2.95,2.29-4.01,4.11h4.63c1.31,0,2-.49,2.79-2.49l.31.09Z"/>
    </g>
    <text class="cls-3" transform="translate(491.83 102.92)"><tspan x="0" y="0">계단</tspan></text>
  </g>
  <g id="_215" data-name="215">
    <polygon class="cls-1" points="903 286 903 144.5 741 144.5 741 145.5 741 286 903 286"/>
  </g>
  <g id="_216" data-name="216">
    <rect class="cls-1" x="741" y="286" width="162" height="245"/>
  </g>
  <g id="_222" data-name="222">
    <rect class="cls-1" x="741" y="531" width="162" height="182"/>
  </g>
  <g id="_214" data-name="214">
    <polygon class="cls-1" points="71.5 713 71.5 144.5 302.5 145.5 302.5 713 71.5 713"/>
  </g>
</svg>