<?xml version="1.0" encoding="UTF-8"?>
<svg xmlns="http://www.w3.org/2000/svg" viewBox="0 0 1241.5 768">
  <defs>
    <style>
      .cls-1 {
        fill: none;
        stroke: #000;
        stroke-miterlimit: 10;
      }

      .cls-2 {
        stroke-width: 0px;
      }

      .cls-3 {
        font-family: AdobeMyungjoStd-Medium-KSCpc-EUC-H, 'Adobe Myungjo Std';
        font-size: 18px;
        font-weight: 500;
      }
    </style>
  </defs>
  <g id="_레이어_2" data-name="레이어 2">
    <line class="cls-1" x1="54" y1="151.57" x2="9.5" y2="151.5"/>
    <line class="cls-1" x1="371" y1="152.11" x2="263" y2="151.92"/>
    <line class="cls-1" x1="607" y1="68" x2="607" y2="152.5"/>
    <line class="cls-1" x1="690" y1="68" x2="607" y2="68"/>
    <line class="cls-1" x1="809" y1="68" x2="690" y2="68"/>
    <line class="cls-1" x1="887.5" y1="68" x2="809" y2="68"/>
    <line class="cls-1" x1="934" y1="68" x2="887.5" y2="68"/>
    <line class="cls-1" x1="1159" y1="384" x2="1159" y2="330"/>
    <line class="cls-1" x1="1159" y1="663" x2="1159" y2="384"/>
    <line class="cls-1" x1="1046" y1="663" x2="1159" y2="663"/>
    <line class="cls-1" x1="417" y1="638.5" x2="462" y2="638.5"/>
    <line class="cls-1" x1="354" y1="638.5" x2="417" y2="638.5"/>
    <line class="cls-1" x1="354" y1="467" x2="354" y2="638.5"/>
    <line class="cls-1" x1="354" y1="370" x2="354" y2="467"/>
    <line class="cls-1" x1="263" y1="370" x2="354" y2="370"/>
    <line class="cls-1" x1="54" y1="370" x2="78" y2="370"/>
    <line class="cls-1" x1="9.5" y1="370" x2="54" y2="370"/>
    <line class="cls-1" x1="9.5" y1="151.5" x2="9.5" y2="370"/>
    <line class="cls-1" x1="54" y1="245" x2="54" y2="370"/>
    <line class="cls-1" x1="263" y1="245" x2="263" y2="307"/>
    <line class="cls-1" x1="607" y1="330" x2="1046" y2="330"/>
    <polyline class="cls-1" points="354 370 417 370 417 638.5"/>
    <line class="cls-1" x1="354" y1="467" x2="417" y2="467"/>
    <line class="cls-1" x1="1046" y1="384" x2="1159" y2="384"/>
    <line class="cls-1" x1="417" y1="384" x2="463" y2="384"/>
    <polyline class="cls-1" points="809 152.5 887.5 152.5 887.5 330"/>
    <line class="cls-1" x1="607" y1="152.5" x2="809" y2="152.5"/>
    <line class="cls-1" x1="887.5" y1="68" x2="887.5" y2="152.5"/>
    <line class="cls-1" x1="690" y1="68" x2="690" y2="151.92"/>
    <line class="cls-1" x1="809" y1="68" x2="809" y2="152.5"/>
  </g>
  <g id="_230" data-name="230">
    <polygon class="cls-1" points="809 663 462 663 462 638.5 462 384 463 384 809 384 809 663"/>
  </g>
  <g id="_232" data-name="232">
    <rect class="cls-1" x="809" y="384" width="237" height="279"/>
  </g>
  <g id="_여학생휴게실" data-name="여학생휴게실">
    <polygon class="cls-1" points="1046 286 1046 330 1159 330 1159 68 1046 68 1046 286"/>
  </g>
  <g id="_220" data-name="220">
    <polygon class="cls-1" points="1014 165.5 1014 286 1046 286 1046 68 1014 68 1014 165.5"/>
  </g>
  <g id="_228" data-name="228">
    <rect class="cls-1" x="934" y="68" width="80" height="97.5"/>
  </g>
  <g id="_도서실" data-name="도서실">
    <polygon class="cls-1" points="532 330 607 330 607 152.5 532 152.37 532 330"/>
  </g>
  <g id="_소극장" data-name="소극장">
    <polygon class="cls-1" points="433 330 532 330 532 152.37 433 152.21 433 330"/>
  </g>
  <g id="_화장실" data-name="화장실">
    <polygon class="cls-1" points="371 330 433 330 433 152.21 371 152.11 371 330"/>
  </g>
  <g id="_210" data-name="210">
    <rect class="cls-1" x="78" y="307" width="185" height="63"/>
  </g>
  <g id="_203" data-name="203">
    <polygon class="cls-1" points="121 244.87 263 245.13 263 245 263 151.92 121 151.69 121 244.87"/>
  </g>
  <g id="_204" data-name="204">
    <polyline class="cls-1" points="121 151.57 121 245 54 245 54 151.57 121 151.69"/>
  </g>
  <g id="_텍스트" data-name="텍스트">
    <g>
      <path class="cls-2" d="m64.87,192.96l-1.69.18c-.63.09-.7.32-1.03.32s-2.27-.76-2.27-1.12c0-.05.07-.09.22-.09.11,0,.27.02.49.07.65.14,1.96.2,3.51.2,3.04,0,6.99-.2,8.57-.32.95-.09.77-.34,1.53-.34.88,0,1.91.13,1.91.61,0,.22-.25.43-.7.43h-.05c-2.75-.11-2.93-.13-4.19-.11.02,2.59,0,5.13-.31,6.19-.18.47-.38.72-.54.72-.14,0-.25-.2-.27-.61v-6.3c-.77.05-2.93.09-4.03.14-.04,3.64-.04,4.32-.38,5.33-.16.47-.36.72-.52.72-.13,0-.23-.18-.23-.54v-5.49Zm3.44-6.57c2.02.25,2.92,1.42,2.92,2.59s-1.08,2.54-3.29,2.54-3.37-1.3-3.37-2.63c0-1.1.9-2.2,2.81-2.49.14-.13.22-.27.22-.4,0-.16-.07-.31-.22-.45-.61.02-1.37.05-2.77.14-.45.11-.52.29-.79.29-.32,0-1.87-.65-1.87-.94,0-.07.07-.11.22-.11.09,0,.22.02.36.05.83.09,1.64.13,2.59.13,1.49,0,4.54-.14,5.6-.25.95-.11.56-.43,1.75-.43.74,0,1.31.16,1.31.52s-.45.41-.86.41c-1.49.02-3.87.04-4.74.11.18.23.23.38.23.49,0,.13-.09.2-.09.34v.07Zm-1.4-2.61c-.34,0-1.51-.76-1.51-1.01,0-.05.05-.09.18-.09.09,0,.22.04.41.07.79.11.94.11,3.24.11.49.05.76.25.76.43,0,.22-.31.41-.99.45l-2.09.04Zm-1.26,5.04c0,.95.74,1.94,2.27,1.94s2.25-.95,2.25-1.91-.79-1.93-2.34-1.93c-1.44,0-2.18.95-2.18,1.89Z"/>
      <path class="cls-2" d="m87.89,191.12c-.65.05-1.6.13-2.16.2-.34.05-.43.13-.58.13-.22,0-.95-.32-1.24-.49-1.84,3.31-4.88,5.53-5.19,5.53-.04,0-.05-.02-.05-.04,0-.07.09-.22.31-.43,2.61-2.34,4.7-5.82,5.31-8.82-.52.02-1.78.07-2.7.13-.45.07-.47.25-.7.25s-1.67-.5-1.67-.77c0-.07.07-.11.23-.11.07,0,.14,0,.23.02.68.07,1.3.11,1.98.11.59,0,1.26-.02,2.11-.07.18-.02,1.06-.14,1.26-.14.7.02.92.14.92.31,0,.18-.32.43-.49.61-.36,1.13-.81,2.2-1.39,3.17.16.04,1.19.05,1.31.05.74,0,1.69-.04,2.5-.13v-5.33c-.02-.38-.63-.63-1.31-.94-.23-.07-.36-.16-.36-.23s.16-.14.56-.22c1.94.36,2.23.58,2.23.85,0,.13-.05.25-.05.4l-.07,11.52c-.07,1.13-.43,1.78-.68,1.78-.16,0-.29-.23-.31-.72v-6.61Zm3.19-6.63c-.07-.41-.68-.76-1.4-1.15-.18-.09-.34-.18-.34-.27,0-.07.14-.13.52-.13h.18c1.93.4,2.21.65,2.21.95,0,.14-.05.29-.05.45l-.11,13.11c-.09,1.31-.43,2-.68,2-.16,0-.31-.29-.32-.85v-14.12Z"/>
      <path class="cls-2" d="m96.42,191.7c3.96-2.2,5.67-5.62,5.67-5.87,0-.31-.81-.88-1.24-1.12-.11-.05-.22-.16-.22-.25,0-.07.09-.14.36-.14.68,0,2.63.9,2.63,1.3,0,.13-1.12,1.82-1.26,2.03.31.27.94.72,1.3.94,1.06.56,1.04.05,2.32,1.44.27.29.38.54.38.74s-.13.31-.34.31c-.2,0-.49-.11-.81-.4-.47-.4-2.14-1.8-3.21-2.65-1.84,2.23-5.13,4.01-5.78,4.01-.09,0-.13-.02-.13-.05,0-.05.11-.16.32-.29Zm5.2,4.79c-.04-.2-.38-.32-.95-.47-.18-.05-.34-.11-.34-.18,0-.04.2-.23.81-.23.76,0,1.57.13,1.76.22,1.66,0,2.67,0,4.38-.07.41-.04.59-.09.95-.16.04-.29.11-1.28.16-2.18-1.15,0-3.58.11-5.33.18-.52.11-.61.31-.92.31-.38,0-1.76-.59-1.76-.81,0-.05.09-.09.29-.09.07,0,.16,0,.27.02.61.05,1.48.09,2.47.09,1.46,0,3.17-.07,4.59-.16.34-.05.31-.13.68-.13.11,0,.23,0,.41.02.54.04.7.13.7.27,0,.13-.18.31-.25.49-.23.54-.5,1.3-.63,1.91.49.09.74.27.74.41s-.22.25-.61.25c-1.37.04-4.05.09-5.98.11-.18.11-.32.07-.32.29v1.57c.02.34.18.41.45.41.36,0,.9.02,1.53.02.92,0,2.02-.02,3.1-.04,1.08-.13.74-.47,1.85-.47.49,0,1.39,0,1.39.52,0,.22-.22.41-.61.41h-7.22c-1.31,0-1.6-.47-1.6-.99v-1.51Zm6.81-12.06c0-.32-.56-.74-1.57-1.12-.31-.11-.47-.22-.47-.31,0-.11.22-.18.65-.22.09,0,2.59.32,2.59.88,0,.13-.07.29-.07.52v5.15c0,.76-.07,1.84-.29,2.48-.16.41-.36.63-.52.63s-.29-.25-.29-.83l-.04-7.2Z"/>
      <path class="cls-2" d="m79.1,216.25l-.94,3.35h-7.47v-.56c.94-2.18,2.9-4.36,4.77-5.74,1.89-1.44,2.21-2.43,2.21-3.82,0-1.93-1.13-2.67-2.75-2.67-1.51,0-2.67.56-2.67,1.75,0,1.08.47.95.47,1.57s-.43.81-.79.81c-.5,0-.81-.59-.81-1.42,0-1.4,1.21-3.17,3.89-3.17s3.83,1.22,3.83,3.35c0,1.84-.95,3.12-3.46,4.84-1.53,1.06-2.95,2.29-4.02,4.11h4.63c1.31,0,2-.49,2.79-2.49l.31.09Z"/>
      <path class="cls-2" d="m90.48,213.14c0,3.51-1.28,6.72-4.48,6.72s-4.47-3.21-4.47-6.72,1.26-6.79,4.47-6.79,4.48,3.22,4.48,6.79Zm-7.8,0c0,3.28.95,6.23,3.31,6.23s3.35-2.95,3.35-6.23-.97-6.3-3.35-6.3-3.31,2.97-3.31,6.3Z"/>
      <path class="cls-2" d="m96.2,219.6v-.41c1.28,0,1.76-.13,1.76-.77v-2.3h-4.99v-.52l5.58-9.2h.54v9.17h2.34v.56h-2.34v2.34c0,.63.59.72,1.71.72v.43h-4.61Zm1.76-11.33l-4.41,7.27h4.41v-7.27Z"/>
    </g>
    <g>
      <path class="cls-2" d="m170.28,192.83c-1.8-.18-2.81-1.33-2.81-2.48,0-1.08.86-2.12,2.79-2.43.09-.09.13-.2.13-.32,0-.23-.16-.49-.41-.7-.47.02-.95.07-1.62.11-.41.09-.52.23-.76.23-.32,0-1.69-.58-1.69-.79,0-.07.07-.11.25-.11.13,0,.27.02.47.05.47.05.99.07,1.62.07,1.62,0,3.53-.18,4.5-.29.63-.09.22-.36,1.66-.36.22,0,1.06,0,1.06.47,0,.4-.5.4-1.1.4-1.08,0-2.05.05-3.58.13.14.29.29.29.43.59v.09c0,.18-.13.23-.13.4v.05c2,.23,2.9,1.31,2.9,2.39,0,1.13-.97,2.23-2.66,2.43v1.33c1.1-.13,3.76-.54,5.4-.99v-9.11c-.02-.29-.68-.7-1.6-1.04-.32-.09-.49-.2-.49-.29,0-.11.18-.18.61-.23.94.04,1.66.29,2.23.45.34.13.41.22.41.36,0,.13-.07.31-.07.56v11.2c0,1.53-.02,2.61-.31,3.71-.14.34-.34.63-.52.63-.14,0-.25-.2-.27-.74v-5.22c-2.47.88-5.85,1.58-8.91,2.07-.32.11-.4.27-.65.27-.38,0-2.61-.95-2.61-1.28,0-.07.07-.11.23-.11.07,0,.18.02.31.04.47.11,1.03.16,1.66.16,1.04,0,2.27-.14,3.53-.31v-1.39Zm-.56-7.9c-.34,0-1.49-.79-1.49-1.01,0-.05.04-.09.14-.09.09,0,.23.04.43.07.77.11,1.03.11,3.33.11.5.04.77.23.77.43,0,.22-.31.41-.97.45l-2.21.04Zm-1.21,5.33c0,.88.74,1.76,2.2,1.76s2.23-.88,2.23-1.76-.74-1.78-2.23-1.78-2.2.9-2.2,1.78Z"/>
      <path class="cls-2" d="m194.67,184.19c-.04-.45-.76-.86-1.57-1.22-.36-.11-.56-.23-.56-.32,0-.11.18-.18.58-.2.16,0,2.74.4,2.74.92,0,.11-.07.25-.07.49l-.02,11.15c0,2.5-.25,4.3-.72,4.3-.2,0-.32-.23-.38-1.3v-4.7c-3.58,1.12-4.45,1.26-8.41,1.95-.52.14-.58.38-.92.38-.4,0-2.61-.94-2.61-1.31,0-.07.07-.09.22-.09.09,0,.23.02.4.05.41.09.95.14,1.6.14,2.94,0,7.81-.88,9.72-1.46v-8.77Zm-6.91.72c.43,0,.52-.29.52-.38,0-.07-.04-.18-.11-.29-.14-.14-.22-.27-.22-.32,0-.07.07-.11.22-.11.59,0,1.06.38,1.06.59,0,.18-.14.34-.22.54,1.93.38,2.83,1.64,2.83,2.92,0,1.44-1.28,2.99-3.53,2.99s-3.67-1.49-3.67-3.01c0-1.31.97-2.61,3.12-2.93Zm-2,2.97c0,1.12.85,2.25,2.54,2.25s2.5-1.13,2.5-2.25-.85-2.25-2.5-2.25-2.54,1.12-2.54,2.25Z"/>
      <path class="cls-2" d="m200.65,191.39c3.96-2.2,5.67-5.62,5.67-5.87,0-.31-.81-.88-1.24-1.12-.11-.05-.22-.16-.22-.25,0-.07.09-.14.36-.14.68,0,2.63.9,2.63,1.3,0,.13-1.12,1.82-1.26,2.04.31.27.94.72,1.3.94,1.06.56,1.04.05,2.32,1.44.27.29.38.54.38.74s-.13.31-.34.31c-.2,0-.49-.11-.81-.4-.47-.4-2.14-1.8-3.21-2.65-1.84,2.23-5.13,4.01-5.78,4.01-.09,0-.13-.02-.13-.05,0-.05.11-.16.32-.29Zm5.2,4.79c-.04-.2-.38-.32-.95-.47-.18-.05-.34-.11-.34-.18,0-.04.2-.23.81-.23.76,0,1.57.13,1.76.22,1.66,0,2.67,0,4.38-.07.41-.04.59-.09.96-.16.04-.29.11-1.28.16-2.18-1.15,0-3.58.11-5.33.18-.52.11-.61.31-.92.31-.38,0-1.76-.59-1.76-.81,0-.05.09-.09.29-.09.07,0,.16,0,.27.02.61.05,1.48.09,2.47.09,1.46,0,3.17-.07,4.59-.16.34-.05.31-.13.68-.13.11,0,.23,0,.42.02.54.04.7.13.7.27,0,.13-.18.31-.25.49-.23.54-.5,1.3-.63,1.91.49.09.74.27.74.41s-.22.25-.61.25c-1.37.04-4.05.09-5.98.11-.18.11-.32.07-.32.29v1.57c.02.34.18.41.45.41.36,0,.9.02,1.53.02.92,0,2.02-.02,3.1-.04,1.08-.13.74-.47,1.85-.47.49,0,1.39,0,1.39.52,0,.22-.22.41-.61.41h-7.22c-1.31,0-1.6-.47-1.6-.99v-1.51Zm6.81-12.06c0-.32-.56-.74-1.57-1.12-.31-.11-.47-.22-.47-.31,0-.11.22-.18.65-.22.09,0,2.59.32,2.59.88,0,.13-.07.29-.07.52v5.15c0,.76-.07,1.84-.29,2.48-.16.41-.36.63-.52.63s-.29-.25-.29-.83l-.04-7.2Z"/>
      <path class="cls-2" d="m183.32,215.94l-.94,3.35h-7.47v-.56c.94-2.18,2.9-4.36,4.77-5.74,1.89-1.44,2.21-2.43,2.21-3.82,0-1.93-1.13-2.67-2.75-2.67-1.51,0-2.67.56-2.67,1.75,0,1.08.47.95.47,1.57s-.43.81-.79.81c-.5,0-.81-.59-.81-1.42,0-1.4,1.21-3.17,3.89-3.17s3.83,1.22,3.83,3.35c0,1.84-.95,3.12-3.46,4.84-1.53,1.06-2.95,2.29-4.02,4.11h4.63c1.31,0,2-.49,2.79-2.49l.31.09Z"/>
      <path class="cls-2" d="m194.7,212.83c0,3.51-1.28,6.72-4.48,6.72s-4.47-3.21-4.47-6.72,1.26-6.79,4.47-6.79,4.48,3.22,4.48,6.79Zm-7.8,0c0,3.28.95,6.23,3.31,6.23s3.35-2.95,3.35-6.23-.97-6.3-3.35-6.3-3.31,2.97-3.31,6.3Z"/>
      <path class="cls-2" d="m200.65,212.61c-.16.04-.32.07-.43.07-.23,0-.38-.09-.38-.34,0-.23.13-.31.32-.31.13,0,.29.02.47.07,2.09,0,3.35-1.08,3.35-2.93,0-1.48-.74-2.68-2.45-2.68-1.89,0-2.2.63-2.2,1.26,0,.29.07.59.07.81,0,.58-.38.95-.7.95s-.85-.22-.85-.97c0-1.1,1.22-2.49,3.67-2.49,2.3,0,3.62,1.19,3.62,3.12,0,1.67-1.28,2.77-2.86,3.19,2.18.38,3.2,1.82,3.2,3.26,0,2.05-1.24,3.96-4.36,3.96-2.49,0-3.82-1.33-3.82-2.84,0-.76.47-1.01.85-1.01s.81.29.81.88c0,.23-.04.54-.04.85,0,.81.27,1.69,2.2,1.69,2.21,0,3.15-1.6,3.15-3.53,0-1.8-1.12-3.03-3.64-3.03v.02Z"/>
    </g>
    <text class="cls-3" transform="translate(114.35 343.69)"><tspan x="0" y="0">정국원실 210</tspan></text>
    <text class="cls-3" transform="translate(375.83 250.29)"><tspan x="0" y="0">화장실</tspan></text>
    <text class="cls-3" transform="translate(455.83 250.29)"><tspan x="0" y="0">소극장</tspan></text>
    <g>
      <path class="cls-2" d="m552.42,237.09c-.04-.31-.31-.49-.88-.77-.18-.05-.29-.14-.29-.2,0-.09.16-.16.52-.18,1.57.16,1.82.27,1.82.5,0,.11-.05.23-.05.4l-.05,3.01c.79,0,1.62-.05,3.62-.14,1.17-.16,1.08-.41,1.78-.41.79,0,2.11.2,2.11.77,0,.22-.27.4-.74.4h-.18c-1.53-.14-3.38-.22-5.31-.22-2.12,0-4.34.09-6.28.22-.72.18-.88.38-1.22.38-.41,0-2.43-.85-2.43-1.15,0-.07.09-.13.29-.13.07,0,.14,0,.22.02,1.39.22,2.75.31,4.63.31.74,0,1.55-.02,2.47-.04v-2.75Zm-4.18-7.56c-.02-.34-.72-.65-1.44-.94-.18-.04-.34-.13-.34-.22,0-.11.16-.2.61-.22,1.08.07,1.96.27,2.41.45l4.97-.05c2.02-.14.86-.58,2.94-.58h.16c.54,0,.85.27.85.52,0,.23-.25.45-.83.45-2.85.09-6.1.11-7.76.14-.2.09-.4,0-.4.36v4.01c0,.68.02.68,2.5.68,1.08,0,2.32-.02,3.37-.05,1.19-.04.81-.52,2.41-.52.88,0,1.06.36,1.06.52,0,.23-.25.45-.7.45-.85.05-3.85.07-6.05.07-1.1,0-2-.02-2.32-.02-.61,0-1.4-.41-1.42-1.33l-.02-3.75Z"/>
      <path class="cls-2" d="m562.82,237.17c1.84-1.51,3.87-3.57,5.26-6.99.04-.11.09-.29.09-.31,0-.16-.2-.45-1.17-1.06-.29-.18-.41-.31-.41-.4,0-.11.16-.16.4-.16.16,0,.38.02.59.07.7.25,2.11.79,2.11,1.24,0,.11-.05.23-.13.36-.34.81-.88,1.73-1.39,2.56.36.65,1.13,1.33,1.76,1.78.72.54.7.11,1.62,1.6.2.31.29.56.29.74,0,.31-.22.47-.43.47-.14,0-.31-.05-.41-.2-.65-.81-1.78-2.2-3.13-3.94-2.41,3.22-5.02,4.63-5.28,4.63-.04,0-.07-.02-.07-.05,0-.07.11-.2.31-.34Zm12.44-9.38c0-.45-.9-.9-1.66-1.24-.22-.07-.58-.2-.58-.32,0-.09.13-.16.5-.23.72,0,1.98.36,2.36.52.5.18.63.32.63.5s-.13.41-.13.74l-.04,12.03c0,2.49-.47,3.22-.72,3.22-.22,0-.38-.47-.4-1.31v-8.73l-2.5.05c-.43.05-.43.2-.65.2-.2,0-1.44-.43-1.44-.72,0-.05.07-.09.23-.09.07,0,.16,0,.27.02.43.02.77.02,1.1.02.79,0,1.48-.04,3.01-.05v-4.59Z"/>
      <path class="cls-2" d="m581.26,234.99c3.96-2.2,5.67-5.62,5.67-5.87,0-.31-.81-.88-1.24-1.12-.11-.05-.22-.16-.22-.25,0-.07.09-.14.36-.14.68,0,2.63.9,2.63,1.3,0,.13-1.12,1.82-1.26,2.04.31.27.94.72,1.3.94,1.06.56,1.04.05,2.32,1.44.27.29.38.54.38.74s-.13.31-.34.31c-.2,0-.49-.11-.81-.4-.47-.4-2.14-1.8-3.21-2.65-1.84,2.23-5.13,4.01-5.78,4.01-.09,0-.13-.02-.13-.05,0-.05.11-.16.32-.29Zm5.2,4.79c-.04-.2-.38-.32-.95-.47-.18-.05-.34-.11-.34-.18,0-.04.2-.23.81-.23.76,0,1.57.13,1.76.22,1.66,0,2.67,0,4.38-.07.41-.04.59-.09.96-.16.04-.29.11-1.28.16-2.18-1.15,0-3.58.11-5.33.18-.52.11-.61.31-.92.31-.38,0-1.76-.59-1.76-.81,0-.05.09-.09.29-.09.07,0,.16,0,.27.02.61.05,1.48.09,2.47.09,1.46,0,3.17-.07,4.59-.16.34-.05.31-.13.68-.13.11,0,.23,0,.42.02.54.04.7.13.7.27,0,.13-.18.31-.25.49-.23.54-.5,1.3-.63,1.91.49.09.74.27.74.41s-.22.25-.61.25c-1.37.04-4.05.09-5.98.11-.18.11-.32.07-.32.29v1.57c.02.34.18.41.45.41.36,0,.9.02,1.53.02.92,0,2.02-.02,3.1-.04,1.08-.13.74-.47,1.85-.47.49,0,1.39,0,1.39.52,0,.22-.22.41-.61.41h-7.22c-1.31,0-1.6-.47-1.6-.99v-1.51Zm6.81-12.06c0-.32-.56-.74-1.57-1.12-.31-.11-.47-.22-.47-.31,0-.11.22-.18.65-.22.09,0,2.59.32,2.59.88,0,.13-.07.29-.07.52v5.15c0,.76-.07,1.84-.29,2.48-.16.41-.36.63-.52.63s-.29-.25-.29-.83l-.04-7.2Z"/>
      <path class="cls-2" d="m563.93,259.54l-.94,3.35h-7.47v-.56c.94-2.18,2.9-4.36,4.77-5.74,1.89-1.44,2.21-2.43,2.21-3.82,0-1.93-1.13-2.67-2.75-2.67-1.51,0-2.67.56-2.67,1.75,0,1.08.47.95.47,1.57s-.43.81-.79.81c-.5,0-.81-.59-.81-1.42,0-1.4,1.21-3.17,3.89-3.17s3.83,1.22,3.83,3.35c0,1.84-.95,3.12-3.46,4.84-1.53,1.06-2.95,2.29-4.02,4.11h4.63c1.31,0,2-.49,2.79-2.49l.31.09Z"/>
      <path class="cls-2" d="m575.31,256.42c0,3.51-1.28,6.72-4.48,6.72s-4.47-3.21-4.47-6.72,1.26-6.79,4.47-6.79,4.48,3.22,4.48,6.79Zm-7.8,0c0,3.28.95,6.23,3.31,6.23s3.35-2.95,3.35-6.23-.97-6.3-3.35-6.3-3.31,2.97-3.31,6.3Z"/>
      <path class="cls-2" d="m579.05,262.89v-.45c1.73,0,2.47-.25,2.47-1.15v-9.09c0-.65-.38-.9-1.15-.9h-1.57v-.36c1.75-.18,2.77-.65,3.85-1.31v11.67c0,.9.83,1.15,2.58,1.15v.45h-6.18Z"/>
    </g>
    <text class="cls-3" transform="translate(629.83 116.29)"><tspan x="0" y="0">계단</tspan></text>
    <text class="cls-3" transform="translate(419.83 511.29)"><tspan x="0" y="0">계단</tspan></text>
    <text class="cls-3" transform="translate(1085.83 529.29)"><tspan x="0" y="0">계단</tspan></text>
    <text class="cls-3" transform="translate(367.83 559.29)"><tspan x="0" y="0">계단</tspan></text>
    <text class="cls-3" transform="translate(701.83 120.29)"><tspan x="0" y="0">엘리베이터</tspan></text>
    <text class="cls-3" transform="translate(829.83 116.29)"><tspan x="0" y="0">계단</tspan></text>
    <g>
      <path class="cls-2" d="m946.6,105.28c-.04-.32-.5-.49-1.12-.63-.16-.04-.31-.13-.31-.2,0-.09.14-.18.52-.25,1.78.13,2.07.27,2.07.54,0,.14-.07.31-.07.5l-.09,3.56c1.12.04,2.94-.05,3.84-.13,1.04-.14.99-.41,1.67-.41.13,0,2.07.05,2.07.7,0,.2-.25.38-.72.38h-.07c-1.31-.09-2.94-.14-4.63-.14-2.43,0-5.06.09-7.31.25-.56.16-.67.38-1.01.38-.29,0-.76-.16-1.78-.67-.4-.16-.59-.36-.59-.45,0-.07.05-.11.18-.11.07,0,.18.02.31.05,1.33.16,2.67.22,4.34.22.81,0,1.71-.02,2.72-.04l-.02-3.56Zm-4.59-6.28c-.05-.34-.68-.54-1.53-.81-.16-.05-.32-.11-.32-.18,0-.09.16-.18.59-.27,2.2.16,2.45.34,2.45.59,0,.07-.02.16-.02.25v3.69c.04.58.43.58,2.32.58,1.35,0,3.17-.04,4.03-.09,1.15-.11.81-.58,2.14-.58.88,0,1.46.07,1.46.47,0,.23-.27.47-.72.5-2.32.11-6.57.16-8.37.18-1.37,0-1.96-.52-1.96-1.06l-.07-3.28Z"/>
      <path class="cls-2" d="m960.24,97.02c-.07-.41-.58-.58-1.35-.83-.16-.04-.23-.09-.23-.14,0-.09.16-.18.47-.22.94.04,1.82.16,2.29.38,1.41,0,3.06,0,4.83-.09,1.42-.11.76-.45,2.2-.45.38,0,1.3,0,1.3.45,0,.22-.29.41-.83.41-1.89.09-5.51.13-7.31.14-.13.11-.22.02-.22.34,0,.74.02,2,.04,2.81.05.63.13.63,2.02.63.95,0,2.02-.04,3.47-.14.99-.14.45-.5,2.16-.5.63,0,.88.23.88.47s-.27.47-.7.49c-.63.04-2.79.05-3.78.09,0,1.06-.02,1.98-.16,2.74,1.42-.05,2.9-.18,4.05-.27.85-.11.74-.34,1.42-.34.29,0,.7.04,1.39.14.52.07.74.31.74.52s-.23.43-.65.43h-.07c-.85-.04-2.16-.07-3.69-.07-2.5,0-5.58.09-8.1.43-.77.11-.94.36-1.31.36-.49,0-2.36-.81-2.36-1.19,0-.07.05-.11.22-.11.09,0,.2.02.34.04.94.14,2.21.22,3.58.22,1.15,0,2.38-.05,3.53-.13-.05-.85-.09-1.98-.09-2.72l-.04.02h-2.2c-1.37-.02-1.76-.45-1.8-1.17l-.02-2.74Zm4.45,8.43c0-.14-.07-.32-.22-.47-.11-.07-.18-.16-.18-.23s.07-.13.23-.13c.36,0,1.17.36,1.17.61,0,.16-.2.31-.25.52,1.98.36,2.92,1.62,2.92,2.86,0,1.49-1.28,2.93-3.53,2.93s-3.46-1.42-3.46-2.93c0-1.28.99-2.59,3.06-2.88.16-.02.25-.14.25-.29Zm-2.32,3.1c0,1.08.85,2.18,2.52,2.18s2.52-1.1,2.52-2.18-.85-2.21-2.52-2.21-2.52,1.1-2.52,2.21Z"/>
      <path class="cls-2" d="m982.4,105.7c0-.18-.25-.4-1.01-.65-.31-.07-.47-.16-.47-.25,0-.14.43-.23.72-.23.49,0,1.22.11,1.53.14.36.09.45.23.45.4s-.07.32-.07.52l-.05,3.12c.67,0,3.19-.04,4.16-.13.72-.11.65-.38,1.37-.38.25,0,1.91.02,1.91.65,0,.22-.2.4-.58.4h-.11c-1.62-.04-4.29-.05-7.36-.05-1.21,0-4.23.16-5.02.23-.43.11-.52.31-.81.31-.27,0-.72-.16-1.82-.72-.27-.11-.45-.27-.45-.38,0-.05.07-.09.23-.09.09,0,.22,0,.36.04.81.13,2.11.18,3.56.18,1.12,0,2.32-.04,3.48-.05l-.02-3.04Zm2.75-8.26c.79-.07.18-.23,1.31-.23.81.02,1.06.11,1.06.25,0,.16-.38.4-.58.59-1.06,1.17-2.68,2.61-3.69,3.37.72.27,2.56.72,3.39.72.23,0,.43-.04.65-.04.81,0,2.72.63,2.72,1.24,0,.18-.18.29-.52.29-.68,0-5.64-1.51-6.77-1.89-3.44,2.18-7,3.26-7.4,3.26-.09,0-.13-.02-.13-.04,0-.07.14-.16.38-.25,2.74-1.12,7.06-3.24,9.78-6.75-.72,0-4.32.18-5.6.27-.5.11-.58.31-.85.31-.31,0-2.07-.68-2.07-1.01,0-.05.07-.09.22-.09.09,0,.22.02.36.04.74.14,1.67.2,2.7.2,1.87,0,4.72-.22,5.04-.23Z"/>
      <path class="cls-2" d="m1000.08,98.39c.99-.22.58-.41,1.84-.41,1.01,0,1.1.34,1.1.43,0,.18-.25.36-.72.36-1.53.04-2.86.07-3.8.13.29.25.36.41.36.54,0,.16-.18.23-.18.4,1.95.2,2.84,1.31,2.84,2.39,0,1.13-1.04,2.39-3.15,2.39s-3.22-1.24-3.22-2.5c0-1.04.83-2.05,2.7-2.32.13-.09.2-.22.2-.34,0-.18-.09-.36-.27-.5-.63,0-1.35.09-2.18.14-.4.07-.47.2-.65.2-.25,0-1.6-.65-1.6-.85,0-.05.05-.07.2-.07.11,0,.22.02.38.04.81.09,1.57.14,2.5.14.83,0,2.03-.05,3.65-.16Zm-2.84-1.26c-.29,0-1.46-.74-1.46-.99,0-.05.07-.11.23-.11.07,0,.18.02.31.04.72.18.97.18,3.26.18.47,0,.74.2.74.38,0,.22-.29.41-.95.43l-2.12.07Zm-1.1,5.04c0,.92.74,1.82,2.2,1.82s2.2-.9,2.2-1.82-.74-1.87-2.2-1.87-2.2.94-2.2,1.87Zm2.07,4.7c0-.27-.5-.52-1.13-.68-.22-.05-.38-.14-.38-.22,0-.14.5-.22.74-.22.4,0,.92.09,1.17.13.59.07.7.2.7.38,0,.11-.04.23-.04.4v.94l5.26-.07v-1.24c0-.22-.34-.49-.9-.65-.23-.07-.4-.16-.4-.25,0-.16.5-.16.61-.16.23,0,1.8.16,1.8.54,0,.09-.05.22-.05.41v3.15c0,1.35-.32,2.3-.67,2.3-.18,0-.32-.25-.38-.88l-5.33.05c-.16.63-.49,1.12-.72,1.12-.16,0-.29-.23-.29-.79v-4.25Zm1.06,1.24v2.18l5.26-.07v-2.18l-5.26.07Zm5.26-11.63c0-.18-.45-.54-1.55-.97-.27-.09-.41-.2-.41-.29,0-.11.22-.2.65-.22.85.07,1.41.31,1.89.43.52.2.65.32.65.5,0,.13-.07.27-.07.49l-.02,4.86c.25-.02.43,0,.7-.04.81-.16.49-.5,1.76-.5.4,0,1.1,0,1.1.49,0,.22-.2.43-.5.45l-3.08.05c-.05,2-.65,2.54-.85,2.54-.14,0-.27-.2-.27-.72v-7.08Z"/>
      <path class="cls-2" d="m966.93,128.54l-.94,3.35h-7.47v-.56c.94-2.18,2.9-4.36,4.77-5.74,1.89-1.44,2.21-2.43,2.21-3.82,0-1.93-1.13-2.67-2.75-2.67-1.51,0-2.67.56-2.67,1.75,0,1.08.47.95.47,1.57s-.43.81-.79.81c-.5,0-.81-.59-.81-1.42,0-1.4,1.21-3.17,3.89-3.17s3.83,1.22,3.83,3.35c0,1.84-.95,3.12-3.46,4.84-1.53,1.06-2.95,2.29-4.01,4.11h4.63c1.31,0,2-.49,2.79-2.49l.31.09Z"/>
      <path class="cls-2" d="m978.18,128.54l-.94,3.35h-7.47v-.56c.94-2.18,2.9-4.36,4.77-5.74,1.89-1.44,2.21-2.43,2.21-3.82,0-1.93-1.13-2.67-2.75-2.67-1.51,0-2.67.56-2.67,1.75,0,1.08.47.95.47,1.57s-.43.81-.79.81c-.5,0-.81-.59-.81-1.42,0-1.4,1.21-3.17,3.89-3.17s3.83,1.22,3.83,3.35c0,1.84-.95,3.12-3.46,4.84-1.53,1.06-2.95,2.29-4.01,4.11h4.63c1.31,0,2-.49,2.79-2.49l.31.09Z"/>
      <path class="cls-2" d="m988.39,121.73c0,1.64-1.01,2.52-2.56,3.04,2.07.58,3.21,1.76,3.21,3.96,0,1.91-1.89,3.44-4.11,3.44s-4-1.24-4-3.26c0-1.39.43-2.5,2.79-3.69-1.35-.49-2.27-1.64-2.27-3.4,0-1.37,1.08-3.19,3.51-3.19,2.07,0,3.42,1.08,3.42,3.1Zm-3.4,10.01c2.05,0,3.24-1.33,3.24-2.99s-1.39-2.58-3.87-3.35c-1.96.97-2.34,1.67-2.34,3.46s1.3,2.88,2.97,2.88Zm-2.79-9.97c0,1.39,1.22,2.16,3.15,2.79,1.42-.61,2.16-1.37,2.16-2.83,0-1.67-.96-2.7-2.56-2.7s-2.75.92-2.75,2.74Z"/>
    </g>
    <g>
      <path class="cls-2" d="m1034.18,161.94l-.94,3.35h-7.47v-.56c.94-2.18,2.9-4.36,4.77-5.74,1.89-1.44,2.21-2.43,2.21-3.82,0-1.93-1.13-2.66-2.75-2.66-1.51,0-2.67.56-2.67,1.75,0,1.08.47.95.47,1.57s-.43.81-.79.81c-.5,0-.81-.59-.81-1.42,0-1.4,1.21-3.17,3.89-3.17s3.83,1.22,3.83,3.35c0,1.84-.95,3.11-3.46,4.84-1.53,1.06-2.95,2.29-4.01,4.11h4.63c1.31,0,2-.49,2.79-2.48l.31.09Z"/>
      <path class="cls-2" d="m1034.18,183.54l-.94,3.35h-7.47v-.56c.94-2.18,2.9-4.36,4.77-5.74,1.89-1.44,2.21-2.43,2.21-3.82,0-1.93-1.13-2.67-2.75-2.67-1.51,0-2.67.56-2.67,1.75,0,1.08.47.95.47,1.57s-.43.81-.79.81c-.5,0-.81-.59-.81-1.42,0-1.4,1.21-3.17,3.89-3.17s3.83,1.22,3.83,3.35c0,1.84-.95,3.12-3.46,4.84-1.53,1.06-2.95,2.29-4.01,4.11h4.63c1.31,0,2-.49,2.79-2.49l.31.09Z"/>
      <path class="cls-2" d="m1034.31,202.02c0,3.51-1.28,6.72-4.48,6.72s-4.47-3.21-4.47-6.72,1.26-6.79,4.47-6.79,4.48,3.22,4.48,6.79Zm-7.8,0c0,3.28.95,6.23,3.31,6.23s3.35-2.95,3.35-6.23-.97-6.3-3.35-6.3-3.31,2.97-3.31,6.3Z"/>
    </g>
    <g>
      <path class="cls-2" d="m1085.47,187.62c-.2,1.73-1.46,3.04-3.82,3.04-2.66,0-4.16-1.66-4.16-3.46,0-1.53,1.12-3.04,3.42-3.37.32-.07.65-.16.65-.49,0-.11-.05-.23-.13-.34-.11-.11-.18-.22-.18-.29,0-.05.05-.11.18-.11.5,0,1.13.5,1.13.68,0,.14-.21.27-.36.5,2.2.49,3.17,1.69,3.28,3.28l-.02.54Zm-6.84-.36c0,1.35.99,2.7,3.01,2.7,1.87,0,2.83-1.35,2.83-2.7s-.95-2.7-2.83-2.7c-2.02,0-3.01,1.35-3.01,2.7Zm10.69-5.51c-.04-.41-.79-.9-1.57-1.19-.29-.07-.63-.2-.63-.32,0-.16.56-.22.65-.22.25,0,2.77.31,2.77.92,0,.16-.11.34-.11.58l-.02,11.25c-.04,2.54-.23,3.51-.61,4.03-.07.09-.14.14-.2.14-.18,0-.29-.43-.29-1.12v-6.63c-.43.05-1.08.09-1.66.13-.32.09-.36.22-.59.22-.29,0-1.6-.49-1.6-.74,0-.05.07-.07.23-.07.07,0,.16,0,.29.02.32,0,.63.02.92.02.9,0,1.69-.05,2.41-.13v-3.24c-.76.02-1.39.07-1.69.09-.41.05-.45.23-.67.23-.29,0-1.48-.5-1.48-.74,0-.05.07-.09.23-.09.09,0,.2.02.34.04.5.02.9.02,1.24.02.7,0,1.19-.02,2.02-.07v-3.13Z"/>
      <path class="cls-2" d="m1102.33,183.26c1.04-.2.56-.52,2.02-.54.65.02.94.27.94.5,0,.22-.25.43-.74.43-1.53.02-2.97.09-3.83.14.2.23.27.41.27.54,0,.2-.16.31-.21.45,2,.29,2.93,1.46,2.93,2.65,0,1.31-1.19,2.63-3.35,2.63s-3.44-1.33-3.44-2.68c0-1.19.94-2.36,2.99-2.63.2-.11.29-.25.29-.4,0-.16-.11-.34-.27-.5-.59.02-1.33.05-2.25.18-.38.05-.47.2-.68.2-.34,0-1.69-.72-1.69-.92,0-.05.07-.09.23-.09.09,0,.2.02.36.04.81.13,1.62.18,2.65.18s1.53-.04,3.8-.18Zm4.16,8.43c-1.19.07-4.77.2-6.45.34-.56.05-.65.25-.95.25-.45,0-1.89-.7-1.89-.88,0-.05.09-.09.29-.09.09,0,.2,0,.32.02.77.09,1.78.14,2.92.14,1.6,0,3.44-.09,5.08-.22.32-.02.14-.18.85-.18.83,0,1.19.11,1.19.27s-.23.36-.23.58c0,1.85-.02,5.11-.83,5.11-.16,0-.29-.23-.29-.74v-4.61Zm-6.99-9.63c-.38,0-1.5-.79-1.5-1.01,0-.05.04-.09.14-.09s.23.04.43.07c.9.13,1.19.13,3.26.13.49.04.76.22.76.41,0,.22-.31.41-.99.45l-2.11.04Zm-1.5,5.28c0,.97.78,1.94,2.3,1.94s2.34-.97,2.34-1.94-.79-1.98-2.34-1.98-2.3.99-2.3,1.98Zm8.52-5.85c0-.18-.45-.54-1.55-.97-.27-.09-.41-.2-.41-.29,0-.11.22-.2.65-.22.85.07,1.41.31,1.89.43.52.2.65.32.65.5,0,.13-.07.27-.07.49l-.02,4.86c.25-.02.43,0,.7-.04.94-.11.49-.5,1.8-.5.36,0,1.06,0,1.06.49,0,.22-.2.43-.5.45l-3.08.05c-.04,2.72-.68,3.03-.85,3.03-.14,0-.27-.2-.27-.72v-7.56Z"/>
      <path class="cls-2" d="m1118.3,183.71c-.02-.18-.43-.49-1.06-.94-.23-.14-.36-.38.11-.38.61,0,1.22.34,1.98.79.22.14.27.27.27.4,0,.27-.63,1.35-1.13,2.07.38.45.72.81,1.12,1.12.67.47,1.1.27,1.84,1.95.02.07.04.14.04.22,0,.25-.14.43-.32.43-.14,0-.32-.09-.52-.34-.49-.58-1.48-1.8-2.45-2.95-1.98,2.47-4.25,3.76-4.52,3.76-.05,0-.09-.02-.09-.07s.09-.18.34-.34c1.73-1.33,3.29-3.13,4.39-5.62l.02-.09Zm5.35,4.65c-.09.76-.34,1.21-.59,1.28,0,.02.02.02.04.02.7.25.9.41.9.58s-.2.31-.27.52c2.02.36,2.93,1.64,2.93,2.88,0,1.46-1.26,2.92-3.55,2.92s-3.42-1.46-3.42-2.9c0-1.3.95-2.63,3.02-2.92.18-.02.27-.14.27-.29s-.09-.32-.23-.47c-.09-.09-.16-.18-.16-.25s.07-.13.2-.14c-.07-.13-.14-.32-.14-.65v-6.41c-.04-.4-.54-.65-1.19-.97-.16-.07-.36-.16-.36-.25s.14-.16.59-.22c1.82.34,2.09.5,2.09.76,0,.11-.05.23-.05.4v4.12l2.25-.07v-4.54c-.07-.31-.68-.76-1.44-1.08-.2-.09-.38-.22-.38-.32s.18-.18.65-.18c2,.45,2.32.68,2.32.97,0,.14-.07.29-.07.47l-.11,7.24c-.05,1.12-.38,1.75-.63,1.75-.18,0-.32-.29-.32-.94l-.02-2.88-2.25.07-.07,1.51Zm-2.99,5.19c0,1.08.85,2.18,2.52,2.18s2.52-1.1,2.52-2.18-.85-2.21-2.52-2.21-2.52,1.1-2.52,2.21Z"/>
      <path class="cls-2" d="m1081.7,211.85l-1.69.18c-.63.09-.7.32-1.03.32s-2.27-.76-2.27-1.12c0-.05.07-.09.22-.09.11,0,.27.02.49.07.65.14,1.96.2,3.51.2,3.04,0,6.99-.2,8.57-.32.95-.09.77-.34,1.53-.34.88,0,1.91.13,1.91.61,0,.22-.25.43-.7.43h-.05c-2.75-.11-2.93-.13-4.2-.11.02,2.59,0,5.13-.31,6.19-.18.47-.38.72-.54.72-.14,0-.25-.2-.27-.61v-6.3c-.77.05-2.93.09-4.03.14-.04,3.64-.04,4.32-.38,5.33-.16.47-.36.72-.52.72-.13,0-.23-.18-.23-.54v-5.49Zm3.44-6.57c2.02.25,2.92,1.42,2.92,2.59s-1.08,2.54-3.29,2.54-3.37-1.3-3.37-2.63c0-1.1.9-2.2,2.81-2.49.14-.13.22-.27.22-.4,0-.16-.07-.31-.22-.45-.61.02-1.37.05-2.77.14-.45.11-.52.29-.79.29-.32,0-1.87-.65-1.87-.94,0-.07.07-.11.22-.11.09,0,.22.02.36.05.83.09,1.64.13,2.59.13,1.49,0,4.54-.14,5.6-.25.95-.11.56-.43,1.75-.43.74,0,1.31.16,1.31.52s-.45.41-.86.41c-1.5.02-3.87.04-4.74.11.18.23.23.38.23.49,0,.13-.09.2-.09.34v.07Zm-1.4-2.61c-.34,0-1.51-.76-1.51-1.01,0-.05.05-.09.18-.09.09,0,.22.04.42.07.79.11.94.11,3.24.11.49.05.76.25.76.43,0,.22-.31.41-.99.45l-2.09.04Zm-1.26,5.04c0,.95.74,1.94,2.27,1.94s2.25-.95,2.25-1.91-.79-1.93-2.34-1.93c-1.44,0-2.18.95-2.18,1.89Z"/>
      <path class="cls-2" d="m1104.73,210.01c-.65.05-1.6.13-2.16.2-.34.05-.43.13-.58.13-.22,0-.95-.32-1.24-.49-1.84,3.31-4.88,5.53-5.19,5.53-.04,0-.05-.02-.05-.04,0-.07.09-.22.31-.43,2.61-2.34,4.7-5.82,5.31-8.82-.52.02-1.78.07-2.7.13-.45.07-.47.25-.7.25s-1.67-.5-1.67-.77c0-.07.07-.11.23-.11.07,0,.14,0,.23.02.68.07,1.3.11,1.98.11.59,0,1.26-.02,2.11-.07.18-.02,1.06-.14,1.26-.14.7.02.92.14.92.31,0,.18-.32.43-.49.61-.36,1.13-.81,2.2-1.39,3.17.16.04,1.19.05,1.31.05.74,0,1.69-.04,2.5-.13v-5.33c-.02-.38-.63-.63-1.31-.94-.23-.07-.36-.16-.36-.23s.16-.14.56-.22c1.94.36,2.23.58,2.23.85,0,.13-.05.25-.05.4l-.07,11.52c-.07,1.13-.43,1.78-.68,1.78-.16,0-.29-.23-.31-.72v-6.61Zm3.19-6.63c-.07-.41-.68-.76-1.4-1.15-.18-.09-.34-.18-.34-.27,0-.07.14-.13.52-.13h.18c1.93.4,2.21.65,2.21.95,0,.14-.05.29-.05.45l-.11,13.11c-.09,1.31-.43,2-.68,2-.16,0-.31-.29-.32-.85v-14.12Z"/>
      <path class="cls-2" d="m1113.26,210.59c3.96-2.2,5.67-5.62,5.67-5.87,0-.31-.81-.88-1.24-1.12-.11-.05-.22-.16-.22-.25,0-.07.09-.14.36-.14.68,0,2.63.9,2.63,1.3,0,.13-1.12,1.82-1.26,2.03.31.27.94.72,1.3.94,1.06.56,1.04.05,2.32,1.44.27.29.38.54.38.74s-.13.31-.34.31c-.2,0-.49-.11-.81-.4-.47-.4-2.14-1.8-3.21-2.65-1.84,2.23-5.13,4.01-5.78,4.01-.09,0-.13-.02-.13-.05,0-.05.11-.16.32-.29Zm5.2,4.79c-.04-.2-.38-.32-.95-.47-.18-.05-.34-.11-.34-.18,0-.04.2-.23.81-.23.76,0,1.57.13,1.76.22,1.66,0,2.67,0,4.38-.07.41-.04.59-.09.96-.16.04-.29.11-1.28.16-2.18-1.15,0-3.58.11-5.33.18-.52.11-.61.31-.92.31-.38,0-1.76-.59-1.76-.81,0-.05.09-.09.29-.09.07,0,.16,0,.27.02.61.05,1.48.09,2.47.09,1.46,0,3.17-.07,4.59-.16.34-.05.31-.13.68-.13.11,0,.23,0,.42.02.54.04.7.13.7.27,0,.13-.18.31-.25.49-.23.54-.5,1.3-.63,1.91.49.09.74.27.74.41s-.22.25-.61.25c-1.37.04-4.05.09-5.98.11-.18.11-.32.07-.32.29v1.57c.02.34.18.41.45.41.36,0,.9.02,1.53.02.92,0,2.02-.02,3.1-.04,1.08-.13.74-.47,1.85-.47.49,0,1.39,0,1.39.52,0,.22-.22.41-.61.41h-7.22c-1.31,0-1.6-.47-1.6-.99v-1.51Zm6.81-12.06c0-.32-.56-.74-1.57-1.12-.31-.11-.47-.22-.47-.31,0-.11.22-.18.65-.22.09,0,2.59.32,2.59.88,0,.13-.07.29-.07.52v5.15c0,.76-.07,1.84-.29,2.48-.16.41-.36.63-.52.63s-.29-.25-.29-.83l-.04-7.2Z"/>
    </g>
    <g>
      <path class="cls-2" d="m602.77,508.95c-.43.07-.49.23-.74.23-.31,0-1.69-.54-1.69-.79,0-.05.07-.07.23-.07.09,0,.23.02.4.04.32.04.86.05,1.49.05.85,0,1.85-.04,2.75-.11.49-.05.4-.18,1.35-.18.4.02.52.09.52.18,0,.13-.18.29-.31.47-.45,1.06-1.12,2.38-1.89,3.49.5.92,1.57,1.15,2,1.8.32.56.45.97.45,1.26,0,.31-.14.47-.34.47-.16,0-.36-.11-.52-.34-.47-.7-1.08-1.75-1.89-2.83-2,2.61-4.7,4.43-5.04,4.43-.05,0-.07,0-.07-.04,0-.05.11-.18.36-.36,1.4-1.22,4.39-3.85,5.73-7.9-.76.02-1.62.05-2.79.2Zm5.87-2.38c-.04-.36-.54-.63-1.31-1.01-.23-.11-.4-.22-.4-.29,0-.09.16-.16.56-.2,1.96.34,2.25.58,2.25.86,0,.11-.05.23-.05.38v6.14l2.29-.05v-6.66c-.04-.36-.65-.79-1.44-1.21-.18-.09-.38-.22-.38-.31s.16-.16.63-.16c2.02.5,2.32.74,2.32,1.03,0,.13-.05.27-.05.45l-.07,13.59c-.11,1.13-.45,1.73-.68,1.73-.18,0-.32-.31-.32-.92v-7.02l-2.29.05-.07,5.29c-.09.88-.38,1.4-.63,1.4-.18,0-.34-.31-.34-1.03v-12.08Z"/>
      <path class="cls-2" d="m624.35,513.11c-1.28.02-3.35.14-4.29.23-.49.11-.54.36-.9.36-.49,0-2.5-.86-2.5-1.15,0-.05.07-.09.2-.09.09,0,.23.02.4.05,1.17.13,2.61.18,4.14.18,2.68,0,5.65-.14,7.96-.29.95-.13.68-.4,1.55-.4.49,0,1.91,0,1.91.59,0,.22-.22.43-.58.47-1.12-.04-2.12-.05-3.35-.05-.95,0-2.05.02-3.42.05,0,4.27,0,5.94-.36,7.06-.16.41-.32.65-.47.65-.16,0-.27-.31-.29-1.01v-6.66Zm-2.57-8.07c1.19,0,4.72-.09,5.54-.14.56-.02.32-.22.88-.22.52,0,1.33.09,1.33.34,0,.16-.27.4-.4.68-.36,1.33-.67,2.59-.86,3.67.56.04.79.22.79.36,0,.25-.41.25-.81.25-1.48,0-5.44.11-6.55.16-.09.61-.34.99-.56.99-.18,0-.34-.23-.41-.79-.04-.56-.25-3.13-.4-4.39,0-.34-.74-.63-.99-.74-.29-.09-.42-.2-.42-.29,0-.11.2-.22.58-.25.7.05,1.37.2,2.02.36h.25Zm4.88,4.48c.4-.05.58-.09.97-.18.09-1.13.22-3.29.22-4.02-.85.07-4.66.16-6.12.2-.07.07-.2.07-.2.29l.16,3.85,4.97-.14Z"/>
      <path class="cls-2" d="m638.84,507.64c-.5.13-.58.31-.83.31s-1.57-.52-1.57-.81c0-.05.09-.09.25-.09.09,0,.22.02.38.04.34.04.81.05,1.31.05,1.4,0,3.15-.11,3.71-.16.52-.05.22-.16,1.03-.16.65,0,.99.04.99.18,0,.13-.23.29-.38.47-.52.99-1.66,2.75-2.47,3.78,2.05,2.38,2,1.44,2.79,2.63.43.7.59,1.21.59,1.49,0,.27-.13.38-.27.38-.13,0-.29-.09-.41-.25-.74-.85-1.62-2.32-2.95-3.94-2.47,2.63-5.4,4.61-5.74,4.61-.04,0-.05-.02-.05-.04,0-.05.13-.18.4-.38,3.89-3.06,6.08-6.23,6.99-8.34-.32.02-3.31.18-3.76.23Zm8.43-1.85c0-.45-.9-.9-1.66-1.24-.22-.07-.58-.2-.58-.32,0-.09.13-.16.5-.23.72,0,1.98.36,2.36.52.5.18.63.32.63.5s-.13.41-.13.74l-.04,12.03c0,2.49-.47,3.22-.72,3.22-.22,0-.38-.47-.4-1.31v-8.73l-2.5.05c-.43.05-.43.2-.65.2-.2,0-1.44-.43-1.44-.72,0-.05.07-.09.23-.09.07,0,.16,0,.27.02.43.02.77.02,1.1.02.79,0,1.48-.04,3.01-.05v-4.59Z"/>
      <path class="cls-2" d="m660.1,506.59c.38-.09.23-.16.86-.16.52,0,1.01.04,1.01.25,0,.16-.27.4-.41.58-.61.86-1.57,2.02-2.16,2.67.27.27.74.72,1.06.95.67.58.77,0,1.87,1.3.25.32.34.59.34.81s-.13.36-.32.36c-.14,0-.36-.11-.56-.31-.4-.38-1.51-1.51-2.75-2.79-2.97,2.63-5.62,3.65-5.92,3.65-.07,0-.09-.02-.09-.04,0-.05.11-.16.36-.31,2.23-1.22,5.38-3.64,6.88-6.5-.86.04-3.01.13-3.67.16-.36.07-.4.23-.65.23-.29,0-1.78-.59-1.78-.86,0-.05.09-.11.25-.11.07,0,.18.02.31.04.61.13,1.4.18,2.27.18.45,0,2.63-.11,3.12-.11Zm1.75,7.85c0-.14-.07-.32-.22-.47-.11-.07-.16-.16-.16-.23s.07-.13.22-.13c.34,0,1.19.36,1.19.61,0,.16-.2.31-.27.52,2,.36,2.93,1.64,2.93,2.88,0,1.39-1.22,2.92-3.55,2.92s-3.46-1.42-3.46-2.93c0-1.28.99-2.59,3.04-2.88.18-.02.27-.14.27-.29Zm-2.32,3.1c0,1.08.85,2.18,2.52,2.18s2.52-1.1,2.52-2.18-.85-2.21-2.52-2.21-2.52,1.1-2.52,2.21Zm5-11.94c-.02-.16-.5-.52-1.55-.97-.27-.09-.41-.2-.41-.29,0-.11.22-.18.65-.2.85.09,1.5.29,2.07.47.38.14.47.27.47.43,0,.13-.07.29-.07.5l-.02,4.99c.25-.02.43,0,.7-.04.81-.18.49-.5,1.75-.5.41,0,1.12,0,1.12.49,0,.22-.2.43-.5.45l-3.08.07c-.02,1.51-.13,2.29-.31,2.79-.16.36-.38.63-.54.63-.14,0-.27-.22-.27-.81v-8.01Z"/>
      <path class="cls-2" d="m671.26,512.99c3.96-2.2,5.67-5.62,5.67-5.87,0-.31-.81-.88-1.24-1.12-.11-.05-.22-.16-.22-.25,0-.07.09-.14.36-.14.68,0,2.63.9,2.63,1.3,0,.13-1.12,1.82-1.26,2.04.31.27.94.72,1.3.94,1.06.56,1.04.05,2.32,1.44.27.29.38.54.38.74s-.13.31-.34.31c-.2,0-.49-.11-.81-.4-.47-.4-2.14-1.8-3.21-2.65-1.84,2.23-5.13,4.01-5.78,4.01-.09,0-.13-.02-.13-.05,0-.05.11-.16.32-.29Zm5.2,4.79c-.04-.2-.38-.32-.95-.47-.18-.05-.34-.11-.34-.18,0-.04.2-.23.81-.23.76,0,1.57.13,1.76.22,1.66,0,2.67,0,4.38-.07.41-.04.59-.09.96-.16.04-.29.11-1.28.16-2.18-1.15,0-3.58.11-5.33.18-.52.11-.61.31-.92.31-.38,0-1.76-.59-1.76-.81,0-.05.09-.09.29-.09.07,0,.16,0,.27.02.61.05,1.48.09,2.47.09,1.46,0,3.17-.07,4.59-.16.34-.05.31-.13.68-.13.11,0,.23,0,.42.02.54.04.7.13.7.27,0,.13-.18.31-.25.49-.23.54-.5,1.3-.63,1.91.49.09.74.27.74.41s-.22.25-.61.25c-1.37.04-4.05.09-5.98.11-.18.11-.32.07-.32.29v1.57c.02.34.18.41.45.41.36,0,.9.02,1.53.02.92,0,2.02-.02,3.1-.04,1.08-.13.74-.47,1.85-.47.49,0,1.39,0,1.39.52,0,.22-.22.41-.61.41h-7.22c-1.31,0-1.6-.47-1.6-.99v-1.51Zm6.81-12.06c0-.32-.56-.74-1.57-1.12-.31-.11-.47-.22-.47-.31,0-.11.22-.18.65-.22.09,0,2.59.32,2.59.88,0,.13-.07.29-.07.52v5.15c0,.76-.07,1.84-.29,2.48-.16.41-.36.63-.52.63s-.29-.25-.29-.83l-.04-7.2Z"/>
      <path class="cls-2" d="m635.93,537.54l-.94,3.35h-7.47v-.56c.94-2.18,2.9-4.36,4.77-5.74,1.89-1.44,2.21-2.43,2.21-3.82,0-1.93-1.13-2.67-2.75-2.67-1.51,0-2.67.56-2.67,1.75,0,1.08.47.95.47,1.57s-.43.81-.79.81c-.5,0-.81-.59-.81-1.42,0-1.4,1.21-3.17,3.89-3.17s3.83,1.22,3.83,3.35c0,1.84-.95,3.12-3.46,4.84-1.53,1.06-2.95,2.29-4.01,4.11h4.63c1.31,0,2-.49,2.79-2.49l.31.09Z"/>
      <path class="cls-2" d="m642.02,534.21c-.16.04-.32.07-.43.07-.23,0-.38-.09-.38-.34,0-.23.13-.31.32-.31.13,0,.29.02.47.07,2.09,0,3.35-1.08,3.35-2.93,0-1.48-.74-2.68-2.45-2.68-1.89,0-2.2.63-2.2,1.26,0,.29.07.59.07.81,0,.58-.38.95-.7.95s-.85-.22-.85-.97c0-1.1,1.22-2.49,3.67-2.49,2.3,0,3.62,1.19,3.62,3.12,0,1.67-1.28,2.77-2.86,3.19,2.18.38,3.2,1.82,3.2,3.26,0,2.05-1.24,3.96-4.36,3.96-2.49,0-3.82-1.33-3.82-2.84,0-.76.47-1.01.85-1.01.36,0,.81.29.81.88,0,.23-.04.54-.04.85,0,.81.27,1.69,2.2,1.69,2.21,0,3.15-1.6,3.15-3.53,0-1.8-1.12-3.03-3.64-3.03v.02Z"/>
      <path class="cls-2" d="m658.56,534.42c0,3.51-1.28,6.72-4.48,6.72s-4.46-3.21-4.46-6.72,1.26-6.79,4.46-6.79,4.48,3.22,4.48,6.79Zm-7.8,0c0,3.28.95,6.23,3.31,6.23s3.35-2.95,3.35-6.23-.97-6.3-3.35-6.3-3.31,2.97-3.31,6.3Z"/>
    </g>
    <g>
      <path class="cls-2" d="m885.53,507.53c-.02-.31-.99-.74-1.75-1.08-.2-.07-.32-.16-.32-.23,0-.11.22-.2.76-.22.78.13,1.5.31,2.07.49.38.14.47.27.47.45,0,.14-.05.31-.05.58v6.55h.9c.85-.13.56-.47,1.71-.47.34,0,1.1,0,1.1.56,0,.25-.22.47-.61.47h-3.12l-.02,5.22c-.02,1.17-.14,1.91-.45,2.67-.14.22-.29.32-.41.32-.16,0-.27-.23-.27-.83v-6.93c-2.2,1.17-6.66,2.7-8.8,2.75-.31,0-.86-.68-.86-1.42l-.05-5.8c-.13-.43-.63-.58-1.53-.92-.13,0-.22-.05-.22-.13,0-.09.14-.2.56-.29.99.02,2.05.2,2.59.36,1.01,0,2.12-.04,2.75-.13.9-.09.67-.54,1.91-.54.47,0,1.24,0,1.24.47,0,.2-.2.4-.56.43-1.73.09-3.64.2-5.19.2-.23.04-.38-.05-.38.23-.02.85-.05,3.53-.05,5.02,0,1.39,0,1.5.52,1.5.56,0,5.33-.77,8.07-2.12v-7.17Z"/>
      <path class="cls-2" d="m895.64,508.05c-.04-.34-.49-.54-.92-.72-.23-.05-.36-.14-.36-.22,0-.11.2-.22.61-.27.59.02,1.39.13,1.86.31,1.26,0,3.56-.05,5.63-.13.34-.04.16-.13.9-.13s1.21.09,1.21.31c0,.2-.4.47-.47.68-.32,1.15-.67,2.59-.83,3.1.45.07.68.25.68.41,0,.23-.36.25-.67.25l-2.86.05c0,1.03-.02,1.78-.16,2.58,1.44.05,2.9-.05,4.09-.14.81-.11.7-.34,1.55-.34.45,0,1.91,0,1.91.58,0,.23-.27.45-.68.45-.05,0-.11-.02-.16-.02-.9-.04-2.59-.07-4.5-.07-2.45,0-5.26.05-7.2.27-.59.13-.72.31-1.04.31-.36,0-2.32-.72-2.32-1.04,0-.07.07-.11.23-.11.07,0,.16,0,.25.02,1.03.2,2.36.27,3.82.27,1.01,0,2.09-.04,3.15-.11-.05-.79-.09-1.64-.09-2.59l-2.4.04c-.09.27-.4.85-.68.85-.18,0-.29-.31-.31-1.13l-.23-3.44Zm7.53,9.31c-1.1.05-3.98.16-5.96.25-.67.04-.77.29-1.15.29-.5,0-1.85-.7-1.85-.86,0-.05.07-.09.25-.09.05,0,.14,0,.25.02.67.11,1.6.14,2.67.14,1.67,0,3.6-.09,5.08-.16.45-.02.4-.2.97-.2h.23c.68.04.86.14.86.29s-.18.34-.18.58c0,2.34-.02,3.38-.29,4.5-.14.5-.4.81-.59.81-.16,0-.29-.2-.29-.65v-4.92Zm-6.25-6.14c1.03,0,3.38-.04,4.55-.11.68-.04.63-.05,1.13-.14.09-1.01.2-2.41.25-3.53-1.75.05-4.39.11-5.63.13-.25.07-.34-.04-.34.23l.04,3.42Z"/>
      <path class="cls-2" d="m913.97,508.83c-.54.07-.59.25-.85.25s-1.75-.58-1.75-.85c0-.05.07-.09.23-.09.09,0,.21.02.4.04.5.07,1.19.09,1.89.09,1.19,0,2.43-.07,3.13-.11.56-.07.23-.18.95-.18.97,0,1.01.14,1.01.22,0,.16-.36.4-.52.65-.63,1.01-1.24,1.78-2.02,2.72,2.02,1.98,1.96,1.03,2.81,2.2.27.45.38.79.38,1.04s-.12.38-.29.38c-.13,0-.27-.07-.41-.23-.58-.65-1.77-2-2.81-3.1-1.85,2.11-5.31,4.03-5.69,4.03-.04,0-.05-.02-.05-.04,0-.05.12-.18.34-.32,2.63-1.67,5.4-4.5,6.66-6.93-1.19.09-2.59.16-3.28.18l-.14.05Zm8.05,8.39c-1.12.05-4,.16-6.25.23-.68.04-.79.31-1.17.31-.47,0-1.84-.68-1.84-.88,0-.05.07-.09.23-.09.07,0,.14,0,.25.02.67.11,1.67.14,2.77.14,1.77,0,3.8-.09,5.26-.16.45,0,.41-.2.96-.2.07,0,.16,0,.27.02.68.04.85.14.85.27,0,.14-.18.34-.18.58,0,2.5-.02,3.55-.29,4.66-.13.5-.38.81-.58.81-.16,0-.29-.2-.29-.65v-5.06Zm.25-6.05c-.92.04-1.49.13-1.96.14-.45.04-.58.22-.88.22-.4,0-1.48-.47-1.48-.67,0-.07.12-.11.32-.11.13,0,.74.02.88.02.92,0,2.27-.05,3.12-.14v-3.01c-.04-.4-.92-.85-1.57-1.12-.27-.09-.45-.2-.45-.31,0-.09.16-.18.61-.22.2,0,2.59.41,2.59.9,0,.11-.05.23-.05.45l-.02,5.83c-.02.92-.11,1.91-.47,2.48-.11.18-.22.31-.32.31-.18,0-.32-.34-.32-1.24v-3.55Z"/>
      <path class="cls-2" d="m939.02,510.49c-.02-.2-.43-.52-1.06-.95-.34-.18-.43-.4.27-.4.31,0,2.14.65,2.14,1.12,0,.27-1.37,2.84-1.48,3.03.32.45.68.88.97,1.19.63.76,1.22.52,1.51,2.3,0,.05.02.11.02.14,0,.34-.18.58-.4.58-.14,0-.32-.11-.47-.36-.41-.7-1.03-2.05-1.94-3.47-1.77,2.32-3.93,4.14-4.43,4.14-.04,0-.07-.02-.07-.05,0-.07.13-.22.36-.41,1.64-1.51,3.42-3.62,4.52-6.72l.05-.13Zm5.04-1.48c0-.43-.7-.79-1.41-1.13-.22-.09-.43-.22-.43-.32,0-.09.14-.16.59-.18.65.05,1.37.29,1.87.43.4.14.49.32.49.5,0,.14-.05.29-.05.45l-.04,9.72c-.04,2.36-.49,2.99-.72,2.99-.2,0-.31-.43-.31-1.31v-6.66l-1.67.07c-.52.09-.61.27-.83.27-.27,0-1.35-.47-1.35-.7,0-.05.11-.11.31-.11.13,0,.74.04.88.04.94,0,1.82-.05,2.67-.09v-3.96Zm2.9-1.3c-.02-.31-.68-.76-1.4-1.15-.27-.11-.41-.22-.41-.31,0-.11.18-.16.59-.18.86.16,1.57.43,2,.56.31.14.38.27.38.41,0,.13-.07.27-.07.47v12.73c-.07,1.67-.4,2.56-.74,2.66-.16,0-.32-.18-.34-1.1v-14.1Z"/>
      <path class="cls-2" d="m953.85,510.84c-.07-.31-.32-.38-1.26-.68-.13-.02-.27-.09-.27-.16,0-.09.14-.2.58-.31.65,0,1.55.14,2.09.29,1.51-.04,2.79.02,4.21-.07.43-.02.13-.14.99-.14.59,0,.97.04.97.22s-.38.45-.43.72l-.79,4.79c.52.11.83.31.83.45,0,.22-.49.22-.77.22-.9,0-3.89.07-4.92.09-.23.68-.34,1.01-.58,1.01s-.27-.61-.36-1.55l-.29-4.86Zm1.46-.41c-.16.09-.31.05-.32.38l.09,4.95c.47,0,2.3-.02,3.24-.05.43-.04.63-.11,1.06-.18.07-1.64.14-3.62.14-5.13l-4.21.04Zm9.02-2.68c-.04-.34-.58-.77-1.6-1.22-.25-.09-.4-.2-.4-.29,0-.11.18-.2.59-.23,1.13.18,1.76.43,2.2.58.27.11.32.23.32.4,0,.14-.05.29-.05.49l-.02,10.61c0,3.31-.11,3.76-.43,4.45-.13.22-.25.32-.36.32-.14,0-.25-.22-.25-.77v-14.31Z"/>
      <path class="cls-2" d="m981.52,507.53c-.02-.31-.99-.74-1.75-1.08-.2-.07-.32-.16-.32-.23,0-.11.22-.2.76-.22.77.13,1.49.31,2.07.49.38.14.47.27.47.45,0,.14-.05.31-.05.58v6.55h.9c.85-.13.56-.47,1.71-.47.34,0,1.1,0,1.1.56,0,.25-.22.47-.61.47h-3.12l-.02,5.22c-.02,1.17-.14,1.91-.45,2.67-.14.22-.29.32-.41.32-.16,0-.27-.23-.27-.83v-6.91c-2.43,1.03-5.31,2.05-8.75,2.34h-.02c-.45,0-.77-.83-.79-1.26l-.04-5.4c-.07-.36-.72-.59-1.57-.9-.18-.04-.31-.11-.31-.18,0-.09.14-.2.54-.27,2.2.18,2.54.34,2.54.61,0,.13-.07.27-.07.45l-.07,5.4c.02.38.11.5.59.5,1.5,0,5.69-.68,7.94-1.67v-7.18Z"/>
      <path class="cls-2" d="m988.25,514.99c3.96-2.2,5.67-5.62,5.67-5.87,0-.31-.81-.88-1.24-1.12-.11-.05-.22-.16-.22-.25,0-.07.09-.14.36-.14.68,0,2.63.9,2.63,1.3,0,.13-1.12,1.82-1.26,2.04.31.27.94.72,1.3.94,1.06.56,1.04.05,2.32,1.44.27.29.38.54.38.74s-.13.31-.34.31c-.2,0-.49-.11-.81-.4-.47-.4-2.14-1.8-3.21-2.65-1.84,2.23-5.13,4.01-5.78,4.01-.09,0-.13-.02-.13-.05,0-.05.11-.16.32-.29Zm5.2,4.79c-.04-.2-.38-.32-.95-.47-.18-.05-.34-.11-.34-.18,0-.04.2-.23.81-.23.76,0,1.57.13,1.76.22,1.66,0,2.67,0,4.38-.07.41-.04.59-.09.96-.16.04-.29.11-1.28.16-2.18-1.15,0-3.58.11-5.33.18-.52.11-.61.31-.92.31-.38,0-1.76-.59-1.76-.81,0-.05.09-.09.29-.09.07,0,.16,0,.27.02.61.05,1.48.09,2.47.09,1.46,0,3.17-.07,4.59-.16.34-.05.31-.13.68-.13.11,0,.23,0,.41.02.54.04.7.13.7.27,0,.13-.18.31-.25.49-.23.54-.5,1.3-.63,1.91.49.09.74.27.74.41s-.22.25-.61.25c-1.37.04-4.05.09-5.98.11-.18.11-.32.07-.32.29v1.57c.02.34.18.41.45.41.36,0,.9.02,1.53.02.92,0,2.02-.02,3.1-.04,1.08-.13.74-.47,1.86-.47.49,0,1.39,0,1.39.52,0,.22-.22.41-.61.41h-7.22c-1.31,0-1.6-.47-1.6-.99v-1.51Zm6.81-12.06c0-.32-.56-.74-1.57-1.12-.31-.11-.47-.22-.47-.31,0-.11.22-.18.65-.22.09,0,2.59.32,2.59.88,0,.13-.07.29-.07.52v5.15c0,.76-.07,1.84-.29,2.48-.16.41-.36.63-.52.63s-.29-.25-.29-.83l-.04-7.2Z"/>
      <path class="cls-2" d="m931.93,539.54l-.94,3.35h-7.47v-.56c.94-2.18,2.9-4.36,4.77-5.74,1.89-1.44,2.21-2.43,2.21-3.82,0-1.93-1.13-2.67-2.75-2.67-1.51,0-2.67.56-2.67,1.75,0,1.08.47.95.47,1.57s-.43.81-.79.81c-.5,0-.81-.59-.81-1.42,0-1.4,1.21-3.17,3.89-3.17s3.83,1.22,3.83,3.35c0,1.84-.95,3.12-3.46,4.84-1.53,1.06-2.95,2.29-4.01,4.11h4.63c1.31,0,2-.49,2.79-2.49l.31.09Z"/>
      <path class="cls-2" d="m938.02,536.21c-.16.04-.32.07-.43.07-.23,0-.38-.09-.38-.34,0-.23.13-.31.32-.31.13,0,.29.02.47.07,2.09,0,3.35-1.08,3.35-2.93,0-1.48-.74-2.68-2.45-2.68-1.89,0-2.2.63-2.2,1.26,0,.29.07.59.07.81,0,.58-.38.95-.7.95s-.85-.22-.85-.97c0-1.1,1.22-2.49,3.67-2.49,2.3,0,3.62,1.19,3.62,3.12,0,1.67-1.28,2.77-2.86,3.19,2.18.38,3.2,1.82,3.2,3.26,0,2.05-1.24,3.96-4.36,3.96-2.49,0-3.82-1.33-3.82-2.84,0-.76.47-1.01.85-1.01.36,0,.81.29.81.88,0,.23-.04.54-.04.85,0,.81.27,1.69,2.2,1.69,2.21,0,3.15-1.6,3.15-3.53,0-1.8-1.12-3.03-3.64-3.03v.02Z"/>
      <path class="cls-2" d="m954.43,539.54l-.94,3.35h-7.47v-.56c.94-2.18,2.9-4.36,4.77-5.74,1.89-1.44,2.21-2.43,2.21-3.82,0-1.93-1.13-2.67-2.75-2.67-1.51,0-2.67.56-2.67,1.75,0,1.08.47.95.47,1.57s-.43.81-.79.81c-.5,0-.81-.59-.81-1.42,0-1.4,1.21-3.17,3.89-3.17s3.83,1.22,3.83,3.35c0,1.84-.95,3.12-3.46,4.84-1.53,1.06-2.95,2.29-4.01,4.11h4.63c1.31,0,2-.49,2.79-2.49l.31.09Z"/>
    </g>
  </g>
</svg>