<?xml version="1.0" encoding="UTF-8"?>
<svg xmlns="http://www.w3.org/2000/svg" viewBox="0 0 796.34 768">
  <defs>
    <style>
      .cls-1 {
        font-size: 12.68px;
      }

      .cls-1, .cls-2, .cls-3, .cls-4, .cls-5 {
        font-family: AdobeMyungjoStd-Medium-KSCpc-EUC-H, 'Adobe Myungjo Std';
        font-weight: 500;
      }

      .cls-2 {
        font-size: 21px;
      }

      .cls-6 {
        fill: none;
        stroke: #000;
        stroke-miterlimit: 10;
      }

      .cls-3 {
        font-size: 16px;
      }

      .cls-7 {
        stroke-width: 0px;
      }

      .cls-4 {
        font-size: 18px;
      }

      .cls-5 {
        font-size: 14px;
      }
    </style>
  </defs>
  <g id="_레이어_2" data-name="레이어 2">
    <polyline class="cls-6" points="34.89 475.5 215.29 475.5 215.29 618.5 65.75 618.5 66.54 475.5"/>
    <polyline class="cls-6" points="34.89 384 12.5 384 12.5 475.5 34.89 475.5"/>
    <line class="cls-6" x1="136.5" y1="303" x2="136.5" y2="384"/>
    <line class="cls-6" x1="204.21" y1="303" x2="136.5" y2="303"/>
    <line class="cls-6" x1="34.89" y1="423.15" x2="34.89" y2="475.5"/>
    <polyline class="cls-6" points="136.5 475.5 136.5 688.5 65.75 688.5"/>
    <polyline class="cls-6" points="509.62 240.38 509.62 303 240.5 303"/>
    <polyline class="cls-6" points="65.75 618.5 65.75 688.5 65.75 748.34 677.35 748.34 677.35 240.38"/>
    <line class="cls-6" x1="509.5" y1="384" x2="509.5" y2="303"/>
    <line class="cls-6" x1="328.5" y1="384" x2="509.5" y2="384"/>
    <line class="cls-6" x1="328.5" y1="303" x2="328.5" y2="384"/>
    <polyline class="cls-6" points="445.53 240.38 328.5 240.38 328.5 303"/>
    <line class="cls-6" x1="509.62" y1="240.38" x2="445.53" y2="240.38"/>
    <line class="cls-6" x1="570.54" y1="240.38" x2="616.43" y2="240.38"/>
    <line class="cls-6" x1="386.19" y1="242.02" x2="386.19" y2="303"/>
    <line class="cls-6" x1="445.53" y1="240.38" x2="445.53" y2="303"/>
    <line class="cls-6" x1="215.29" y1="618.5" x2="677.35" y2="618.5"/>
    <polyline class="cls-6" points="637 468.25 677.35 468.25 677.35 681.88 597.44 681.88 597.44 468.25"/>
  </g>
  <g id="_총학생회" data-name="총학생회">
    <polygon class="cls-6" points="677.35 106.67 677.35 33.5 509.62 33.5 509.62 107 570.54 106.67 616.43 106.67 677.35 106.67"/>
  </g>
  <g id="_304" data-name="304">
    <rect class="cls-6" x="616.43" y="106.67" width="60.92" height="133.71"/>
  </g>
  <g id="_302" data-name="302">
    <polygon class="cls-6" points="570.54 181.04 570.54 106.67 509.62 106.67 509.62 108.25 509.62 181.04 570.54 181.04"/>
  </g>
  <g id="_305" data-name="305">
    <rect class="cls-6" x="509.62" y="181.04" width="60.92" height="59.34"/>
  </g>
  <g id="_312" data-name="312">
    <polygon class="cls-6" points="509.62 468.25 509.62 384 570.54 384 570.54 315.55 637 315.55 637 468.25 509.62 468.25"/>
  </g>
  <g id="_응원단" data-name="응원단">
    <rect class="cls-6" x="240.5" y="384" width="88" height="79.5"/>
  </g>
  <g id="_307" data-name="307">
    <polygon class="cls-6" points="240.5 203.5 240.5 303 204.21 303 203.77 203.5 240.5 203.5"/>
  </g>
  <g id="_동아리" data-name="동아리">
    <polygon class="cls-6" points="136.5 143.5 136.5 203.5 203.77 203.5 203.5 143.5 136.5 143.5"/>
  </g>
  <g id="_311" data-name="311">
    <rect class="cls-6" x="96" y="203.5" width="40.5" height="99.5"/>
  </g>
  <g id="_화장실" data-name="화장실">
    <rect class="cls-6" x="75.24" y="384" width="61.26" height="39.15"/>
  </g>
  <g id="_샤워실" data-name="샤워실">
    <rect class="cls-6" x="34.89" y="384" width="40.35" height="39.15"/>
  </g>
  <g id="_텍스트" data-name="텍스트">
    <g>
      <path class="cls-7" d="m211.98,235.55c0-.12-.3-.36-1.03-.65-.18-.06-.28-.13-.28-.19,0-.07.14-.13.43-.14.56.05.94.2,1.26.29.35.13.43.22.43.34,0,.08-.05.18-.05.32v3.24c.16-.01.28,0,.46-.02.62-.07.32-.34,1.2-.34.24,0,.71,0,.71.32,0,.14-.13.29-.34.3l-2.05.04c-.02,1.81-.46,2.02-.56,2.02-.1,0-.18-.13-.18-.48v-1.83c-1.52.6-4.52,1.44-6.06,1.43-.22,0-.46-.36-.46-.85l-.05-2.29c-.14-.19-.41-.34-1.01-.48-.1-.01-.2-.05-.2-.11,0-.05.11-.11.41-.17,1.44.06,1.63.17,1.63.34,0,.02-.02.17-.02.2-.01.78-.05,1.8-.05,2.28,0,.33,0,.5.34.5.3,0,3.44-.26,5.47-1.09v-2.96Zm-4.5,6.8c-.06-.28-.26-.36-.72-.54-.14-.04-.26-.08-.26-.14,0-.05.1-.1.35-.16.56,0,1.28.12,1.51.18l3.26-.06c.26-.04.32-.11.59-.11.24,0,.71.05.71.2,0,.08-.13.19-.17.31-.24.92-.5,2.12-.56,2.48.42.02.61.18.61.31,0,.11-.14.2-.4.2h-4.09c-.1.49-.28.77-.42.77-.13,0-.24-.22-.24-.68l-.17-2.77Zm.77.4l.04,1.99,2.72-.05c.43-.02.37-.07.74-.16l.13-2.57-3.45.05s-.18.07-.18.19v.54Z"/>
      <path class="cls-7" d="m221.19,236.74c.7-.13.37-.35,1.34-.36.43.01.62.18.62.34,0,.14-.17.29-.49.29-1.02.01-1.98.06-2.55.1.13.16.18.28.18.36,0,.13-.11.2-.14.3,1.33.19,1.95.97,1.95,1.76,0,.88-.79,1.75-2.23,1.75s-2.29-.89-2.29-1.79c0-.79.62-1.57,1.99-1.75.13-.07.19-.17.19-.26,0-.11-.07-.23-.18-.34-.4.01-.89.04-1.5.12-.25.04-.31.13-.46.13-.23,0-1.13-.48-1.13-.61,0-.04.05-.06.16-.06.06,0,.13.01.24.02.54.08,1.08.12,1.76.12s1.02-.02,2.53-.12Zm2.77,5.61c-.79.05-3.18.13-4.29.23-.37.04-.43.17-.64.17-.3,0-1.26-.47-1.26-.59,0-.04.06-.06.19-.06.06,0,.13,0,.22.01.52.06,1.19.1,1.94.1,1.07,0,2.29-.06,3.38-.14.22-.01.1-.12.56-.12.55,0,.79.07.79.18s-.16.24-.16.38c0,1.24-.01,3.41-.55,3.41-.11,0-.19-.16-.19-.49v-3.07Zm-4.65-6.42c-.25,0-1-.53-1-.67,0-.04.02-.06.1-.06s.16.02.29.05c.6.08.79.08,2.17.08.32.02.5.14.5.28,0,.14-.2.28-.66.3l-1.4.02Zm-1,3.51c0,.65.52,1.29,1.54,1.29s1.56-.65,1.56-1.29-.53-1.32-1.56-1.32-1.54.66-1.54,1.32Zm5.67-3.9c0-.12-.3-.36-1.03-.65-.18-.06-.28-.13-.28-.19,0-.07.14-.13.43-.14.56.05.94.2,1.26.29.35.13.43.22.43.34,0,.08-.05.18-.05.32v3.24c.16-.01.28,0,.46-.02.62-.07.32-.34,1.2-.34.24,0,.71,0,.71.32,0,.14-.13.29-.34.3l-2.05.04c-.02,1.81-.46,2.02-.56,2.02-.1,0-.18-.13-.18-.48v-5.04Z"/>
      <path class="cls-7" d="m231.83,237.04c-.01-.12-.29-.32-.71-.62-.16-.1-.24-.25.07-.25.41,0,.82.23,1.32.53.14.1.18.18.18.26,0,.18-.42.9-.76,1.38.25.3.48.54.74.74.44.31.73.18,1.22,1.29.01.05.02.1.02.14,0,.17-.1.29-.22.29-.1,0-.22-.06-.35-.23-.32-.38-.98-1.2-1.63-1.97-1.32,1.64-2.83,2.51-3.01,2.51-.04,0-.06-.01-.06-.05s.06-.12.23-.23c1.15-.89,2.19-2.09,2.93-3.74v-.06Zm3.56,3.09c-.06.5-.23.8-.4.85,0,.01.01.01.02.01.47.17.6.28.6.38s-.13.2-.18.35c1.34.24,1.96,1.09,1.96,1.92,0,.97-.84,1.94-2.36,1.94s-2.28-.97-2.28-1.93c0-.86.64-1.75,2.02-1.94.12-.01.18-.1.18-.19s-.06-.22-.16-.31c-.06-.06-.11-.12-.11-.17s.05-.08.13-.1c-.05-.08-.1-.22-.1-.43v-4.27c-.02-.26-.36-.43-.79-.65-.11-.05-.24-.11-.24-.17s.1-.11.4-.14c1.21.23,1.39.34,1.39.5,0,.07-.04.16-.04.26v2.75l1.5-.05v-3.02c-.05-.2-.46-.5-.96-.72-.13-.06-.25-.14-.25-.22s.12-.12.43-.12c1.33.3,1.55.46,1.55.65,0,.1-.05.19-.05.31l-.07,4.82c-.04.74-.25,1.16-.42,1.16-.12,0-.22-.19-.22-.62v-1.92s-1.51.05-1.51.05l-.05,1.01Zm-1.99,3.45c0,.72.56,1.45,1.68,1.45s1.68-.73,1.68-1.45-.56-1.48-1.68-1.48-1.68.73-1.68,1.48Z"/>
      <path class="cls-7" d="m207.44,255.79l-1.13.12c-.42.06-.47.22-.68.22s-1.51-.5-1.51-.74c0-.04.05-.06.14-.06.07,0,.18.01.32.05.43.1,1.31.13,2.34.13,2.03,0,4.65-.13,5.71-.22.64-.06.52-.23,1.02-.23.59,0,1.27.08,1.27.41,0,.14-.17.29-.47.29h-.04c-1.83-.07-1.96-.08-2.79-.07.01,1.73,0,3.42-.2,4.12-.12.31-.25.48-.36.48-.1,0-.17-.13-.18-.41v-4.2c-.52.04-1.96.06-2.69.1-.02,2.42-.02,2.88-.25,3.55-.11.31-.24.48-.35.48-.08,0-.16-.12-.16-.36v-3.66Zm2.29-4.38c1.34.17,1.94.95,1.94,1.73s-.72,1.69-2.19,1.69-2.24-.86-2.24-1.75c0-.73.6-1.46,1.87-1.66.1-.08.14-.18.14-.26,0-.11-.05-.2-.14-.3-.41.01-.91.04-1.85.1-.3.07-.35.19-.53.19-.22,0-1.25-.43-1.25-.62,0-.05.05-.07.14-.07.06,0,.14.01.24.04.55.06,1.09.08,1.73.08,1,0,3.02-.1,3.73-.17.64-.07.37-.29,1.16-.29.49,0,.88.11.88.35s-.3.28-.58.28c-1,.01-2.58.02-3.15.07.12.16.16.25.16.32,0,.08-.06.13-.06.23v.05Zm-.94-1.74c-.23,0-1.01-.5-1.01-.67,0-.04.04-.06.12-.06.06,0,.14.02.28.05.53.07.62.07,2.16.07.32.04.5.17.5.29,0,.14-.2.28-.66.3l-1.39.02Zm-.84,3.36c0,.63.49,1.29,1.51,1.29s1.5-.64,1.5-1.27-.53-1.28-1.56-1.28c-.96,0-1.45.64-1.45,1.26Z"/>
      <path class="cls-7" d="m222.78,254.57c-.43.04-1.07.08-1.44.13-.23.04-.29.08-.38.08-.14,0-.64-.22-.83-.32-1.22,2.21-3.25,3.68-3.45,3.68-.02,0-.04-.01-.04-.02,0-.05.06-.14.2-.29,1.74-1.56,3.13-3.87,3.54-5.88-.35.01-1.19.05-1.8.08-.3.05-.31.17-.47.17s-1.12-.34-1.12-.52c0-.05.05-.07.16-.07.05,0,.1,0,.16.01.46.05.86.07,1.32.07.4,0,.84-.01,1.4-.05.12-.01.71-.1.84-.1.47.01.61.1.61.2,0,.12-.22.29-.32.41-.24.76-.54,1.46-.92,2.11.11.02.79.04.88.04.49,0,1.13-.02,1.67-.08v-3.55c-.01-.25-.42-.42-.88-.62-.16-.05-.24-.11-.24-.16s.11-.1.37-.14c1.3.24,1.49.38,1.49.56,0,.08-.04.17-.04.26l-.05,7.68c-.05.76-.29,1.19-.46,1.19-.11,0-.19-.16-.2-.48v-4.4Zm2.12-4.41c-.05-.28-.46-.5-.94-.77-.12-.06-.23-.12-.23-.18,0-.05.1-.08.35-.08h.12c1.28.26,1.48.43,1.48.64,0,.1-.04.19-.04.3l-.07,8.73c-.06.88-.29,1.33-.46,1.33-.11,0-.2-.19-.22-.56v-9.4Z"/>
      <path class="cls-7" d="m228.47,254.95c2.64-1.46,3.78-3.74,3.78-3.91,0-.2-.54-.59-.83-.74-.07-.04-.14-.11-.14-.17,0-.05.06-.1.24-.1.46,0,1.75.6,1.75.86,0,.08-.74,1.21-.84,1.35.2.18.62.48.86.62.71.37.7.04,1.55.96.18.19.25.36.25.49s-.08.2-.23.2c-.13,0-.32-.07-.54-.26-.31-.26-1.43-1.2-2.13-1.76-1.22,1.49-3.42,2.67-3.85,2.67-.06,0-.08-.01-.08-.04,0-.04.07-.11.22-.19Zm3.47,3.19c-.02-.13-.25-.22-.64-.31-.12-.04-.23-.07-.23-.12,0-.02.13-.16.54-.16.5,0,1.04.08,1.18.14,1.1,0,1.77,0,2.91-.05.28-.02.4-.06.64-.11.02-.19.07-.85.11-1.45-.77,0-2.39.07-3.55.12-.35.07-.41.2-.61.2-.25,0-1.18-.4-1.18-.54,0-.04.06-.06.19-.06.05,0,.11,0,.18.01.41.04.98.06,1.64.06.97,0,2.11-.05,3.06-.11.23-.04.2-.08.46-.08.07,0,.16,0,.28.01.36.02.47.08.47.18,0,.08-.12.2-.17.32-.16.36-.34.86-.42,1.27.32.06.49.18.49.28s-.14.17-.41.17c-.91.02-2.7.06-3.98.07-.12.07-.22.05-.22.19v1.04c.01.23.12.28.3.28.24,0,.6.01,1.02.01.61,0,1.34-.01,2.06-.02.72-.08.49-.31,1.24-.31.32,0,.92,0,.92.35,0,.14-.14.28-.41.28h-4.81c-.88,0-1.07-.31-1.07-.66v-1.01Zm4.53-8.04c0-.22-.37-.49-1.04-.74-.2-.07-.31-.14-.31-.2,0-.07.14-.12.43-.14.06,0,1.73.22,1.73.59,0,.08-.05.19-.05.35v3.43c0,.5-.05,1.22-.19,1.66-.11.28-.24.42-.35.42s-.19-.17-.19-.55l-.02-4.8Z"/>
      <path class="cls-7" d="m213.48,269.1c-.11.02-.22.05-.29.05-.16,0-.25-.06-.25-.23,0-.16.08-.2.22-.2.08,0,.19.01.31.05,1.39,0,2.23-.72,2.23-1.96,0-.98-.49-1.79-1.63-1.79-1.26,0-1.46.42-1.46.84,0,.19.05.4.05.54,0,.38-.25.64-.47.64s-.56-.14-.56-.65c0-.73.82-1.66,2.45-1.66,1.54,0,2.41.79,2.41,2.08,0,1.12-.85,1.85-1.91,2.12,1.45.25,2.14,1.21,2.14,2.17,0,1.37-.83,2.64-2.9,2.64-1.65,0-2.54-.89-2.54-1.89,0-.5.31-.67.56-.67s.54.19.54.59c0,.16-.02.36-.02.56,0,.54.18,1.13,1.46,1.13,1.48,0,2.1-1.07,2.1-2.35,0-1.2-.74-2.02-2.42-2.02h0Z"/>
      <path class="cls-7" d="m224.51,269.24c0,2.34-.85,4.47-2.99,4.47s-2.97-2.13-2.97-4.47.84-4.52,2.97-4.52,2.99,2.15,2.99,4.52Zm-5.19,0c0,2.18.64,4.15,2.21,4.15s2.23-1.97,2.23-4.15-.65-4.2-2.23-4.2-2.21,1.98-2.21,4.2Z"/>
      <path class="cls-7" d="m231.75,264.92v.42c-1.2,1.97-2.85,4.58-2.85,7.03,0,.07.01.46.01.54,0,.54-.23.83-.49.83s-.53-.19-.53-.71v-.1c.13-2.17,1.56-4.35,3.32-7.34h-3.27c-.83,0-1.27.95-1.55,1.7l-.2-.06.55-2.31h5.01Z"/>
    </g>
    <text class="cls-3" transform="translate(102.46 258.91)"><tspan x="0" y="0">311</tspan></text>
    <g>
      <path class="cls-7" d="m150.39,162.12c-.06-.37-.51-.51-1.2-.74-.14-.03-.21-.08-.21-.13,0-.08.14-.16.42-.19.83.03,1.62.14,2.03.34,1.25,0,2.72,0,4.29-.08,1.26-.1.67-.4,1.95-.4.34,0,1.15,0,1.15.4,0,.19-.26.37-.74.37-1.68.08-4.9.11-6.5.13-.11.1-.19.02-.19.3,0,.66.02,1.78.03,2.5.05.56.11.56,1.79.56.85,0,1.79-.03,3.09-.13.88-.13.4-.45,1.92-.45.56,0,.78.21.78.42s-.24.42-.62.43c-.56.03-2.48.05-3.36.08,0,.94-.02,1.76-.14,2.43,1.26-.05,2.58-.16,3.6-.24.75-.1.66-.3,1.26-.3.26,0,.62.03,1.23.13.46.06.66.27.66.46s-.21.38-.58.38h-.06c-.75-.03-1.92-.06-3.28-.06-2.22,0-4.96.08-7.2.38-.69.1-.83.32-1.17.32-.43,0-2.1-.72-2.1-1.06,0-.06.05-.1.19-.1.08,0,.18.02.3.03.83.13,1.97.19,3.19.19,1.02,0,2.11-.05,3.14-.11-.05-.75-.08-1.76-.08-2.42l-.03.02h-1.95c-1.22-.02-1.57-.4-1.6-1.04l-.02-2.43Zm3.95,7.49c0-.13-.06-.29-.19-.42-.1-.06-.16-.14-.16-.21s.06-.11.21-.11c.32,0,1.04.32,1.04.54,0,.14-.18.27-.22.46,1.76.32,2.59,1.44,2.59,2.54,0,1.33-1.14,2.61-3.14,2.61s-3.07-1.26-3.07-2.61c0-1.14.88-2.31,2.72-2.56.14-.02.22-.13.22-.26Zm-2.06,2.75c0,.96.75,1.94,2.24,1.94s2.24-.98,2.24-1.94-.75-1.97-2.24-1.97-2.24.98-2.24,1.97Z"/>
      <path class="cls-7" d="m166.95,164.1c.29-.05.53-.22.53-.5,0-.1-.03-.21-.1-.34-.1-.11-.14-.21-.14-.27,0-.08.05-.11.16-.11.38,0,.98.42.98.66,0,.18-.22.34-.42.62,1.86.35,2.72,1.6,2.72,2.85,0,1.49-1.22,2.98-3.43,2.98s-3.36-1.38-3.36-2.98c0-1.3.96-2.59,3.06-2.91Zm-2.1,2.96c0,1.14.82,2.27,2.43,2.27s2.46-1.14,2.46-2.27-.82-2.27-2.46-2.27-2.43,1.14-2.43,2.27Zm8.9-5.38c-.02-.27-.88-.66-1.55-.96-.18-.06-.29-.14-.29-.21,0-.1.19-.18.67-.19.69.11,1.33.27,1.84.43.34.13.42.24.42.4,0,.13-.05.27-.05.51v5.83h.8c.75-.11.5-.42,1.52-.42.3,0,.98,0,.98.5,0,.22-.19.42-.54.42h-2.77l-.02,4.64c-.02,1.04-.13,1.7-.4,2.37-.13.19-.26.29-.37.29-.14,0-.24-.21-.24-.74v-12.87Z"/>
      <path class="cls-7" d="m190.47,161.88c-.03-.3-.51-.69-1.42-1.09-.22-.08-.35-.18-.35-.26,0-.1.16-.18.53-.21,1.01.16,1.57.38,1.95.51.24.1.29.21.29.35,0,.13-.05.26-.05.43l-.02,9.43c0,2.95-.1,3.35-.38,3.95-.11.19-.22.29-.32.29-.13,0-.22-.19-.22-.69v-5.14c-2.53,1.36-7.03,2.61-8.1,2.61-.35,0-.82-.62-.82-1.2l-.05-2.79c-.05-.54-.61-.69-1.15-.85-.21-.05-.3-.13-.3-.21,0-.11.18-.22.59-.3.83.03,1.63.14,1.97.3.83-.02,1.78-.08,2.42-.14.42-.05.5-.13.85-.24.05-.85.14-2.05.19-3.07-1.12.05-2.21.13-3.23.26-.42.1-.48.26-.7.26-.3,0-1.65-.61-1.65-.83,0-.06.06-.1.22-.1.05,0,.11,0,.19.02.61.08,1.25.11,1.97.11.77,0,1.62-.03,2.64-.11.59-.06.21-.21,1.23-.21.53,0,.82.1.82.24,0,.16-.26.35-.37.54-.16.69-.51,2.16-.67,2.85.51.06.77.24.77.4,0,.13-.16.22-.45.26-1.17.03-2.82.1-3.86.21-.3.11-.4,0-.4.34v.08c-.02,1.15-.02,1.78-.03,2.8.03.22.13.37.42.37.05,0,.11,0,.18-.02,1.9-.19,4.85-.72,7.33-1.95v-7.2Z"/>
      <path class="cls-7" d="m151.27,182.07c.29-.02.45-.18.45-.35,0-.08-.03-.16-.1-.24-.11-.1-.18-.19-.18-.27,0-.06.05-.1.19-.1.42,0,.96.29.96.53,0,.16-.21.32-.27.46,2.87.4,2.87,2.34,2.87,2.96-.08,1.6-1.22,2.72-3.39,2.77-2.26,0-3.52-1.39-3.52-2.9,0-1.28.94-2.54,2.88-2.83l.11-.03Zm-2.02,2.9c0,1.14.83,2.26,2.53,2.26s2.5-1.12,2.5-2.26-.83-2.26-2.5-2.26-2.53,1.12-2.53,2.26Zm3.19,5.75c-.03-.32-.4-.46-1.22-.72-.18-.03-.29-.1-.29-.18s.13-.16.5-.22c.74,0,1.41.06,1.73.11.27.06.34.14.34.29,0,.1-.05.24-.05.43,0,.71,0,1.57.02,2.16,0,.35.21.5.77.53l3.35-.03c1.2-.08.62-.45,2.06-.45.51,0,1.18.05,1.18.54,0,.18-.14.35-.43.35h-6.23c-1.06-.02-1.66-.27-1.71-1.09l-.02-1.73Zm5.97-9.51c-.02-.37-.62-.77-1.38-1.09-.16-.06-.46-.16-.46-.26,0-.11.42-.19.51-.19.22,0,2.46.27,2.46.82,0,.14-.1.29-.1.5l-.02,6.43c-.05,2.18-.14,2.61-.45,3.12-.13.18-.22.26-.3.26-.19,0-.26-.42-.27-.98l.02-2.99c-.42.05-.98.08-1.47.11-.3.06-.34.21-.54.21-.29,0-1.36-.48-1.36-.64,0-.05.11-.08.3-.08.11,0,.64.02.75.02.8,0,1.6-.03,2.31-.11l.02-2.67c-.61.02-1.26.06-1.54.1-.32.05-.32.21-.53.21-.26,0-1.33-.46-1.33-.66,0-.05.08-.08.22-.08.08,0,.19.02.34.03.4.02.74.02,1.04.02.62,0,1.1-.03,1.78-.08v-1.99Z"/>
      <path class="cls-7" d="m169.79,182.54c.88-.19.51-.37,1.63-.37.9,0,.98.3.98.38,0,.16-.22.32-.64.32-1.36.03-2.54.06-3.38.11.26.22.32.37.32.48,0,.14-.16.21-.16.35,1.73.18,2.53,1.17,2.53,2.13,0,1.01-.93,2.13-2.8,2.13s-2.87-1.1-2.87-2.22c0-.93.74-1.83,2.4-2.07.11-.08.18-.19.18-.3,0-.16-.08-.32-.24-.45-.56,0-1.2.08-1.94.13-.35.06-.42.18-.58.18-.22,0-1.42-.58-1.42-.75,0-.05.05-.06.18-.06.1,0,.19.02.34.03.72.08,1.39.13,2.22.13.74,0,1.81-.05,3.25-.14Zm-2.53-1.12c-.26,0-1.3-.66-1.3-.88,0-.05.06-.1.21-.1.06,0,.16.02.27.03.64.16.86.16,2.9.16.42,0,.66.18.66.34,0,.19-.26.37-.85.38l-1.89.06Zm-.98,4.48c0,.82.66,1.62,1.95,1.62s1.95-.8,1.95-1.62-.66-1.67-1.95-1.67-1.95.83-1.95,1.67Zm1.84,4.18c0-.24-.45-.46-1.01-.61-.19-.05-.34-.13-.34-.19,0-.13.45-.19.66-.19.35,0,.82.08,1.04.11.53.06.62.18.62.34,0,.1-.03.21-.03.35v.83l4.67-.06v-1.1c0-.19-.3-.43-.8-.58-.21-.06-.35-.14-.35-.22,0-.14.45-.14.54-.14.21,0,1.6.14,1.6.48,0,.08-.05.19-.05.37v2.8c0,1.2-.29,2.05-.59,2.05-.16,0-.29-.22-.34-.78l-4.74.05c-.14.56-.43.99-.64.99-.14,0-.26-.21-.26-.7v-3.78Zm.94,1.1v1.94l4.67-.06v-1.94l-4.67.06Zm4.67-10.34c0-.16-.4-.48-1.38-.86-.24-.08-.37-.18-.37-.26,0-.1.19-.18.58-.19.75.06,1.25.27,1.68.38.46.18.58.29.58.45,0,.11-.06.24-.06.43l-.02,4.32c.22-.02.38,0,.62-.03.72-.14.43-.45,1.57-.45.35,0,.98,0,.98.43,0,.19-.18.38-.45.4l-2.74.05c-.05,1.78-.58,2.26-.75,2.26-.13,0-.24-.18-.24-.64v-6.29Z"/>
      <path class="cls-7" d="m184.74,188.79c-1.6-.16-2.5-1.18-2.5-2.21,0-.96.77-1.89,2.48-2.16.08-.08.11-.18.11-.29,0-.21-.14-.43-.37-.62-.42.02-.85.06-1.44.1-.37.08-.46.21-.67.21-.29,0-1.5-.51-1.5-.7,0-.06.06-.1.22-.1.11,0,.24.02.42.05.42.05.88.06,1.44.06,1.44,0,3.14-.16,4-.26.56-.08.19-.32,1.47-.32.19,0,.94,0,.94.42,0,.35-.45.35-.98.35-.96,0-1.82.05-3.19.11.13.26.26.26.38.53v.08c0,.16-.11.21-.11.35v.05c1.78.21,2.58,1.17,2.58,2.13,0,1.01-.86,1.99-2.37,2.16v1.18c.98-.11,3.35-.48,4.8-.88v-8.1c-.02-.26-.61-.62-1.42-.93-.29-.08-.43-.18-.43-.26,0-.1.16-.16.54-.21.83.03,1.47.26,1.98.4.3.11.37.19.37.32,0,.11-.06.27-.06.5v9.96c0,1.36-.02,2.32-.27,3.3-.13.3-.3.56-.46.56-.13,0-.22-.18-.24-.66v-4.64c-2.19.78-5.2,1.41-7.92,1.84-.29.1-.35.24-.58.24-.34,0-2.32-.85-2.32-1.14,0-.06.06-.1.21-.1.06,0,.16.02.27.03.42.1.91.14,1.47.14.93,0,2.02-.13,3.14-.27v-1.23Zm-.5-7.03c-.3,0-1.33-.7-1.33-.9,0-.05.03-.08.13-.08.08,0,.21.03.38.06.69.1.91.1,2.96.1.45.03.69.21.69.38,0,.19-.27.37-.86.4l-1.97.03Zm-1.07,4.74c0,.78.66,1.57,1.95,1.57s1.98-.78,1.98-1.57-.66-1.58-1.98-1.58-1.95.8-1.95,1.58Z"/>
    </g>
    <text class="cls-3" transform="translate(84.05 410.78)"><tspan x="0" y="0">화장실</tspan></text>
    <text class="cls-1" transform="translate(36 410.97)"><tspan x="0" y="0">샤워실</tspan></text>
    <g>
      <path class="cls-7" d="m28.04,418.83c-2.46.9-5.31,1.55-7.51,1.94-.4.13-.45.32-.74.32-.38,0-2.42-.8-2.42-1.14,0-.05.06-.08.21-.08.08,0,.19.02.32.03.4.11.99.16,1.65.16.78,0,1.68-.08,2.5-.27-.02-.24-.05-1.17-.05-3.09-1.82-.14-2.91-1.36-2.91-2.67,0-1.17.86-2.32,2.77-2.61.38,0,.46-.26.46-.34,0-.06-.03-.16-.1-.26-.13-.13-.19-.24-.19-.29,0-.06.06-.1.19-.1.53,0,.94.34.94.53,0,.16-.13.3-.19.48,1.71.34,2.51,1.46,2.51,2.59s-.93,2.37-2.51,2.59c0,1.67-.03,2.56-.06,3.04.99-.11,3.54-.58,5.12-1.12v-7.7c-.03-.37-.99-.88-1.52-1.12-.24-.08-.42-.19-.42-.27,0-.1.16-.16.61-.18.78.13,1.36.26,1.98.45.3.13.38.22.38.37,0,.11-.06.27-.06.53v11.22c-.03,1.2-.27,2.31-.64,2.35-.24,0-.32-.24-.34-.85v-4.53Zm-7.96-4.77c0,.99.75,2,2.26,2s2.23-1.01,2.23-2-.75-2-2.23-2-2.26.99-2.26,2Z"/>
      <path class="cls-7" d="m23.63,436.49c-1.14.02-2.98.13-3.81.21-.43.1-.48.32-.8.32-.43,0-2.23-.77-2.23-1.02,0-.05.06-.08.18-.08.08,0,.21.02.35.05,1.04.11,2.32.16,3.68.16,2.39,0,5.03-.13,7.08-.26.85-.11.61-.35,1.38-.35.43,0,1.7,0,1.7.53,0,.19-.19.38-.51.42-.99-.03-1.89-.05-2.98-.05-.85,0-1.82.02-3.04.05,0,3.79,0,5.28-.32,6.27-.14.37-.29.58-.42.58-.14,0-.24-.27-.26-.9v-5.92Zm-2.37-2.18c-.11.45-.37.82-.62.82-.16,0-.24-.24-.26-.62,0-.32-.03-3.6-.05-4.13-.03-.3-.05-.42-1.07-.72-.19-.05-.32-.13-.32-.21s.14-.18.53-.24c1.68.11,1.87.29,1.87.51,0,.05-.02.24-.02.29v1.09l5.27-.13v-1.25c-.03-.16-.38-.4-1.01-.66-.21-.06-.34-.16-.34-.22,0-.08.14-.14.53-.18,1.62.21,1.84.35,1.84.62,0,.1-.03.21-.03.34,0,1.44,0,4.19-.24,4.71-.13.26-.32.5-.5.5-.13,0-.24-.18-.26-.64l-5.33.13Zm.06-2.79v2.34l5.27-.11v-2.34l-5.27.11Z"/>
    </g>
    <text class="cls-4" transform="translate(159.05 552.78)"><tspan x="0" y="0">계단</tspan></text>
    <text class="cls-4" transform="translate(339.05 278.78)"><tspan x="0" y="0">계단</tspan></text>
    <text class="cls-4" transform="translate(459.05 280.78)"><tspan x="0" y="0">계단</tspan></text>
    <text class="cls-5" transform="translate(642.05 388.78)"><tspan x="0" y="0">계단</tspan></text>
    <text class="cls-4" transform="translate(349.05 688.78)"><tspan x="0" y="0">옥상</tspan></text>
    <text class="cls-3" transform="translate(399.63 271.67)"><tspan x="0" y="0">엘리</tspan><tspan x="-8" y="19.2">베이터</tspan></text>
    <g>
      <path class="cls-7" d="m273.62,417c-.88-.08-1.94-.1-2.96-.1-3.27,0-6.5.18-7.89.32-.46.1-.53.29-.8.29-.38,0-2.1-.77-2.1-.98,0-.06.06-.1.19-.1.08,0,.19.02.32.05.54.13,1.5.18,2.71.18,2.19,0,5.19-.16,8.04-.27.83-.03.64-.34,1.55-.34.85,0,1.5.1,1.5.53,0,.21-.21.42-.54.42h-.02Zm-6.18-6.88c1.98.27,2.88,1.39,2.88,2.53,0,1.2-1.17,2.45-3.23,2.45s-3.31-1.28-3.31-2.59c0-1.07.83-2.11,2.58-2.38.24,0,.35-.19.35-.32,0-.1-.03-.21-.13-.3-.1-.1-.14-.19-.14-.24,0-.06.06-.1.18-.1.3,0,.96.22.96.46,0,.13-.13.26-.13.43v.06Zm-.51,8.36c0-.13-.06-.29-.19-.42-.1-.06-.16-.14-.16-.21s.06-.11.21-.11c.32,0,1.04.32,1.04.54,0,.14-.18.27-.22.46,1.76.32,2.59,1.44,2.59,2.54,0,1.33-1.14,2.61-3.14,2.61s-3.07-1.26-3.07-2.61c0-1.14.88-2.31,2.72-2.56.14-.02.22-.13.22-.26Zm-2.19-5.89c0,.94.78,1.87,2.34,1.87s2.32-.93,2.32-1.87c-.02-.94-.8-1.89-2.35-1.89s-2.31.94-2.31,1.89Zm.13,8.64c0,.96.75,1.94,2.24,1.94s2.24-.98,2.24-1.94-.75-1.97-2.24-1.97-2.24.98-2.24,1.97Z"/>
      <path class="cls-7" d="m281.14,417.19c-.35.05-2.15.32-2.18.32-.34.06-.4.21-.61.21-.3,0-2.06-.74-2.06-1.01,0-.05.05-.06.16-.06.1,0,.22.02.4.05.3.06.74.1,1.28.1,2.03,0,5.38-.42,7.25-.83.24-.06.4-.1.5-.1.06,0,.1.02.1.05,0,.05-.14.16-.43.3-1.3.38-2.32.58-3.44.8.03,1.04-.05,1.38-.26,1.92-.14.26-.32.42-.45.42-.14,0-.26-.21-.26-.7v-1.46Zm.22-6.21c.21-.03.42-.14.42-.34,0-.06-.03-.13-.08-.19-.1-.08-.14-.16-.14-.22,0-.05.05-.08.14-.08.42,0,.8.32.8.5,0,.13-.13.24-.19.37,1.63.26,2.43,1.33,2.43,2.37,0,1.14-.98,2.22-2.88,2.22s-3.03-1.15-3.03-2.3c0-1.01.8-2.03,2.53-2.32Zm-.46,9.68c-.03-.29-.4-.45-1.22-.69-.19-.06-.34-.13-.34-.21s.13-.16.45-.22c.78,0,1.5.06,1.81.11.29.06.35.16.35.3,0,.11-.03.24-.05.42,0,.74,0,1.26.02,1.99.02.35.21.5.75.51l3.63-.02c1.18-.1.62-.46,2.06-.46.29,0,1.17,0,1.17.54,0,.18-.14.35-.42.35h-6.5c-1.07-.02-1.65-.27-1.73-1.07v-1.55Zm-1.14-7.36c0,.85.69,1.71,2.08,1.71s2.03-.87,2.03-1.71-.67-1.73-2.03-1.73-2.08.86-2.08,1.73Zm7.25-2.62c0-.29-.56-.61-1.38-.94-.27-.08-.38-.16-.38-.24,0-.1.21-.16.53-.18.64.02,1.28.21,1.94.4.29.11.35.18.35.3,0,.1-.05.22-.05.43v7.38c-.02,1.42-.02,1.99-.22,2.62-.14.35-.34.56-.48.56-.16,0-.27-.21-.27-.7v-1.89c-.56.03-1.2.1-1.97.21-.26.06-.24.19-.43.19-.22,0-1.49-.46-1.49-.66,0-.05.08-.08.27-.08.11,0,.24,0,.42.03.24.02.51.02.8.02.67,0,1.47-.03,2.38-.16l-.02-7.3Z"/>
      <path class="cls-7" d="m302.34,410.69c0-.18-.42-.46-1.38-.88-.24-.08-.37-.18-.37-.24,0-.1.19-.16.58-.18.06,0,2.26.27,2.26.8,0,.11-.06.24-.06.4l-.02,5.03c.22-.02.48,0,.72-.03.74-.14.4-.45,1.63-.45.32,0,.91,0,.91.43,0,.21-.18.4-.46.4l-2.82.06c-.02,2.9-.11,3.62-.27,4.07-.14.3-.32.54-.46.54s-.24-.19-.26-.72v-4.23c-1.68.94-6.26,2.48-7.67,2.48-.46,0-.82-.7-.85-1.33l-.06-3.91c-.05-.34-.64-.53-1.28-.74-.16-.03-.24-.1-.24-.16s.11-.14.37-.21c1.01.02,1.86.19,2.29.29.99-.03,1.89-.08,2.42-.13.94-.06.61-.45,1.73-.45.37,0,.98,0,.98.43,0,.1-.06.32-.48.32-1.81.11-3.12.14-4.4.16-.22.06-.34-.02-.34.26-.02,1.49-.05,3.04-.05,3.79,0,.56,0,.77.42.77.35,0,4.29-.58,7.17-1.87v-4.72Zm-5.41,9.48c-.02-.3-.38-.45-1.2-.69-.18-.05-.3-.11-.3-.19s.14-.16.51-.22c.74,0,1.39.06,1.7.11.29.06.35.16.35.3,0,.11-.03.24-.05.42,0,.7,0,1.65.02,2.21.02.37.22.51.78.54l2.9-.03c1.2-.1.62-.46,2.05-.46.53,0,1.2.06,1.2.54,0,.19-.16.35-.43.35h-5.78c-1.07-.02-1.66-.27-1.73-1.07l-.02-1.81Z"/>
      <path class="cls-7" d="m272.33,436.04c-.14.03-.29.06-.38.06-.21,0-.34-.08-.34-.3,0-.21.11-.27.29-.27.11,0,.26.02.42.06,1.86,0,2.98-.96,2.98-2.61,0-1.31-.66-2.38-2.18-2.38-1.68,0-1.95.56-1.95,1.12,0,.26.06.53.06.72,0,.51-.34.85-.62.85s-.75-.19-.75-.86c0-.98,1.09-2.21,3.27-2.21,2.05,0,3.22,1.06,3.22,2.77,0,1.49-1.14,2.47-2.54,2.83,1.94.34,2.85,1.62,2.85,2.9,0,1.83-1.1,3.52-3.87,3.52-2.21,0-3.39-1.18-3.39-2.53,0-.67.42-.9.75-.9s.72.26.72.78c0,.21-.03.48-.03.75,0,.72.24,1.5,1.95,1.5,1.97,0,2.8-1.42,2.8-3.14,0-1.6-.99-2.69-3.23-2.69v.02Z"/>
      <path class="cls-7" d="m287.03,436.23c0,3.12-1.14,5.97-3.99,5.97s-3.97-2.85-3.97-5.97,1.12-6.04,3.97-6.04,3.99,2.87,3.99,6.04Zm-6.93,0c0,2.91.85,5.54,2.95,5.54s2.98-2.62,2.98-5.54-.86-5.6-2.98-5.6-2.95,2.64-2.95,5.6Z"/>
      <path class="cls-7" d="m293.67,434.76c1.71,0,2.99,1.3,2.99,3.7,0,2.62-1.86,3.78-3.55,3.78-2.16,0-3.68-1.5-3.68-5.39s1.6-6.64,4.37-6.64c1.79,0,2.59.87,2.59,1.55,0,.54-.26.83-.7.83-.42,0-.74-.29-.74-.83,0-.59-.51-1.06-1.54-1.06-1.68,0-2.96,2.14-2.96,5.89.66-.91,1.7-1.82,3.22-1.82Zm-.56,7.09c1.71,0,2.54-1.26,2.54-3.59,0-1.76-.85-2.99-2.35-2.99-1.3,0-2.35,1.15-2.87,2.08,0,3.75,1.26,4.5,2.67,4.5Z"/>
    </g>
    <text class="cls-3" transform="translate(565.63 75.67)"><tspan x="0" y="0">총학생회</tspan></text>
    <text class="cls-5" transform="translate(512.63 142.67)"><tspan x="0" y="0">프린트실</tspan><tspan x="14.88" y="16.8">302</tspan></text>
    <text class="cls-3" transform="translate(524.63 215.67)"><tspan x="0" y="0">305</tspan></text>
    <text class="cls-5" transform="translate(618.63 165.67)"><tspan x="0" y="0">세미나실</tspan><tspan x="14.88" y="16.8">304</tspan></text>
    <text class="cls-2" transform="translate(560.94 428.67)"><tspan x="0" y="0">312</tspan></text>
  </g>
</svg>