<?xml version="1.0" encoding="UTF-8"?>
<svg xmlns="http://www.w3.org/2000/svg" viewBox="0 0 1008.73 768">
  <defs>
    <style>
      .cls-1 {
        font-size: 36px;
      }

      .cls-1, .cls-2, .cls-3 {
        font-family: AdobeMyungjoStd-Medium-KSCpc-EUC-H, 'Adobe Myungjo Std';
        font-weight: 500;
      }

      .cls-4 {
        fill: none;
        stroke: #000;
        stroke-miterlimit: 10;
      }

      .cls-2 {
        font-size: 18px;
      }

      .cls-3 {
        font-size: 15px;
      }
    </style>
  </defs>
  <g id="_레이어_2" data-name="레이어 2">
    <line class="cls-4" x1="396" y1="54.5" x2="346" y2="54.5"/>
    <line class="cls-4" x1="637" y1="54.5" x2="589" y2="54.5"/>
    <polyline class="cls-4" points="225.5 484 225.5 701.5 737 701.5 737 483"/>
    <line class="cls-4" x1="396" y1="483" x2="346" y2="483"/>
    <line class="cls-4" x1="589" y1="483" x2="396" y2="483"/>
    <line class="cls-4" x1="637" y1="483" x2="589" y2="483"/>
    <line class="cls-4" x1="396" y1="442" x2="396" y2="483"/>
    <line class="cls-4" x1="396" y1="378" x2="396" y2="442"/>
    <line class="cls-4" x1="589" y1="442" x2="589" y2="483"/>
    <line class="cls-4" x1="589" y1="378" x2="589" y2="442"/>
    <line class="cls-4" x1="536" y1="442" x2="589" y2="442"/>
    <line class="cls-4" x1="449" y1="442" x2="536" y2="442"/>
    <line class="cls-4" x1="396" y1="442" x2="449" y2="442"/>
    <line class="cls-4" x1="449" y1="378" x2="449" y2="442"/>
    <line class="cls-4" x1="536" y1="378" x2="536" y2="442"/>
  </g>
  <g id="_201" data-name="201">
    <rect class="cls-4" x="637" y="378" width="100" height="105"/>
  </g>
  <g id="_402" data-name="402">
    <rect class="cls-4" x="637" y="318" width="100" height="60"/>
  </g>
  <g id="_403" data-name="403">
    <rect class="cls-4" x="637" y="252" width="100" height="66"/>
  </g>
  <g id="_404" data-name="404">
    <rect class="cls-4" x="637" y="181" width="100" height="71"/>
  </g>
  <g id="_405" data-name="405">
    <rect class="cls-4" x="637" y="54.5" width="100" height="126.5"/>
  </g>
  <g id="_407" data-name="407">
    <rect class="cls-4" x="489" y="54.5" width="100" height="75.5"/>
  </g>
  <g id="_408" data-name="408">
    <rect class="cls-4" x="489" y="130" width="100" height="67"/>
  </g>
  <g id="_409" data-name="409">
    <rect class="cls-4" x="489" y="197" width="100" height="55"/>
  </g>
  <g id="_410" data-name="410">
    <polyline class="cls-4" points="589 252 589 318 489 318 489 252 589 252"/>
  </g>
  <g id="_411" data-name="411">
    <polygon class="cls-4" points="489 378 536 378 589 378 589 318 489 318 489 378"/>
  </g>
  <g id="_412" data-name="412">
    <polyline class="cls-4" points="489 318 489 378 449 378 396 378 396 318 489 318"/>
  </g>
  <g id="_413" data-name="413">
    <polyline class="cls-4" points="489 252 396 252 396 318 489 318 489 252"/>
  </g>
  <g id="_414" data-name="414">
    <polyline class="cls-4" points="489 197 489 252 396 252 396 197 489 197"/>
  </g>
  <g id="_415" data-name="415">
    <polyline class="cls-4" points="489 130 489 197 396 197 396 130 489 130"/>
  </g>
  <g id="_416" data-name="416">
    <rect class="cls-4" x="396" y="54.5" width="93" height="75.5"/>
  </g>
  <g id="_화장실" data-name="화장실">
    <polygon class="cls-4" points="346 426 346 483 225.5 483 225.5 484 225.5 426 346 426"/>
  </g>
  <g id="_샤워실" data-name="샤워실">
    <rect class="cls-4" x="225.5" y="378" width="120.5" height="48"/>
  </g>
  <g id="_420" data-name="420">
    <rect class="cls-4" x="225.5" y="318" width="120.5" height="60"/>
  </g>
  <g id="_419" data-name="419">
    <rect class="cls-4" x="225.5" y="257" width="120.5" height="61"/>
  </g>
  <g id="_418" data-name="418">
    <rect class="cls-4" x="225.5" y="197" width="120.5" height="60"/>
  </g>
  <g id="_417" data-name="417">
    <rect class="cls-4" x="225.5" y="54.5" width="120.5" height="142.5"/>
  </g>
  <g id="_텍스트" data-name="텍스트">
    <text class="cls-2" transform="translate(268.83 136.36)"><tspan x="0" y="0">417</tspan></text>
    <text class="cls-2" transform="translate(424.83 98.36)"><tspan x="0" y="0">416</tspan></text>
    <text class="cls-2" transform="translate(425.83 169.36)"><tspan x="0" y="0">415</tspan></text>
    <text class="cls-2" transform="translate(424.83 234.36)"><tspan x="0" y="0">414</tspan></text>
    <text class="cls-2" transform="translate(423.83 295.36)"><tspan x="0" y="0">413</tspan></text>
    <text class="cls-2" transform="translate(419.83 355.36)"><tspan x="0" y="0">412</tspan></text>
    <text class="cls-2" transform="translate(522.83 98.36)"><tspan x="0" y="0">407</tspan></text>
    <text class="cls-2" transform="translate(522.83 169.36)"><tspan x="0" y="0">408</tspan></text>
    <text class="cls-2" transform="translate(523.83 234.36)"><tspan x="0" y="0">409</tspan></text>
    <text class="cls-2" transform="translate(523.83 295.36)"><tspan x="0" y="0">410</tspan></text>
    <text class="cls-2" transform="translate(518.83 355.36)"><tspan x="0" y="0">411</tspan></text>
    <text class="cls-2" transform="translate(669.83 130.36)"><tspan x="0" y="0">405</tspan></text>
    <text class="cls-2" transform="translate(669.83 227.36)"><tspan x="0" y="0">404</tspan></text>
    <text class="cls-2" transform="translate(669.83 295.36)"><tspan x="0" y="0">403</tspan></text>
    <text class="cls-2" transform="translate(669.83 355.36)"><tspan x="0" y="0">402</tspan></text>
    <text class="cls-2" transform="translate(669.83 433.36)"><tspan x="0" y="0">201</tspan></text>
    <text class="cls-2" transform="translate(402.71 415.36)"><tspan x="0" y="0">계단</tspan></text>
    <text class="cls-2" transform="translate(544.71 415.36)"><tspan x="0" y="0">계단</tspan></text>
    <text class="cls-3" transform="translate(455.21 415.36)"><tspan x="0" y="0">엘레베이터</tspan></text>
    <text class="cls-2" transform="translate(268.83 234.36)"><tspan x="0" y="0">418</tspan></text>
    <text class="cls-2" transform="translate(268.83 295.36)"><tspan x="0" y="0">419</tspan></text>
    <text class="cls-2" transform="translate(268.83 355.36)"><tspan x="0" y="0">420</tspan></text>
    <text class="cls-2" transform="translate(258.71 410.36)"><tspan x="0" y="0">샤워실</tspan></text>
    <text class="cls-2" transform="translate(258.71 462.36)"><tspan x="0" y="0">화장실</tspan></text>
    <text class="cls-1" transform="translate(453.23 611.09)"><tspan x="0" y="0">외부</tspan></text>
  </g>
</svg>