<?xml version="1.0" encoding="UTF-8"?>
<svg xmlns="http://www.w3.org/2000/svg" viewBox="0 0 1364.4 768">
  <defs>
    <style>
      .cls-1, .cls-2, .cls-3 {
        font-family: AdobeMyungjoStd-Medium-KSCpc-EUC-H, 'Adobe Myungjo Std';
        font-weight: 500;
      }

      .cls-1, .cls-4 {
        font-size: 21px;
      }

      .cls-5 {
        fill: none;
        stroke: #000;
        stroke-miterlimit: 10;
      }

      .cls-3, .cls-6 {
        font-size: 18px;
      }
    </style>
  </defs>
  <g id="_글자" data-name="글자">
    <text class="cls-3" transform="translate(48.17 289.62)"><tspan x="0" y="0">계단</tspan></text>
    <text class="cls-3" transform="translate(936.61 310.49)"><tspan x="0" y="0">계단</tspan></text>
    <text class="cls-3" transform="translate(1278.61 303.49)"><tspan x="0" y="0">계단</tspan></text>
    <text class="cls-2" transform="translate(173.74 159.49)"><tspan class="cls-6"><tspan x="0" y="0">112</tspan></tspan><tspan class="cls-4"><tspan x="-35.62" y="25.2">계단강의실</tspan></tspan></text>
    <text class="cls-3" transform="translate(310.61 302.49)"><tspan x="0" y="0">남자</tspan><tspan x="-9" y="21.6">화장실</tspan></text>
    <text class="cls-3" transform="translate(788.61 271.49)"><tspan x="0" y="0">엘레베이터</tspan></text>
    <text class="cls-3" transform="translate(1015.61 302.49)"><tspan x="0" y="0">여자</tspan><tspan x="-9" y="21.6">화장실</tspan></text>
    <text class="cls-3" transform="translate(1190.74 289.49)"><tspan x="0" y="0">102</tspan><tspan x="-55.12" y="21.6">후마니타스칼리지</tspan><tspan x="-10.12" y="43.2">라운지</tspan></text>
    <text class="cls-3" transform="translate(1121.61 490.49)"><tspan x="0" y="0">도서관</tspan></text>
    <text class="cls-3" transform="translate(934.75 481.49)"><tspan x="0" y="0">Cafe</tspan><tspan x="-18.74" y="21.6">KHUffee</tspan></text>
    <text class="cls-3" transform="translate(97.74 310.49)"><tspan x="0" y="0">110</tspan></text>
    <text class="cls-3" transform="translate(254.11 311.49)"><tspan x="0" y="0">???</tspan></text>
    <text class="cls-3" transform="translate(1082.74 310.49)"><tspan x="0" y="0">101</tspan></text>
    <text class="cls-3" transform="translate(100.74 492.49)"><tspan x="0" y="0">109</tspan></text>
    <text class="cls-3" transform="translate(194.74 492.49)"><tspan x="0" y="0">108</tspan></text>
    <text class="cls-3" transform="translate(294.74 490.49)"><tspan x="0" y="0">107</tspan></text>
    <text class="cls-1" transform="translate(830.61 557.49)"><tspan x="0" y="0">정문</tspan></text>
    <text class="cls-1" transform="translate(1301.61 468.49)"><tspan x="0" y="0">쪽문</tspan></text>
    <text class="cls-1" transform="translate(25.9 475.59)"><tspan x="0" y="0">쪽문</tspan></text>
  </g>
  <g id="_레이어_2" data-name="레이어 2">
    <line class="cls-5" x1="357" y1="526" x2="907.09" y2="526"/>
    <polyline class="cls-5" points="1293.2 442.14 1316.67 442.14 1316.67 286.5 1278.69 286.5"/>
    <polyline class="cls-5" points="1003.62 271.24 906.5 271.24 906.5 336.12"/>
    <polyline class="cls-5" points="906.5 271.24 906.5 242.23 766.52 242.23 766.52 271.24 760.71 271.24 760.71 336.5 357 336.5"/>
  </g>
  <g id="_레이어_4" data-name="레이어 4">
    <polyline class="cls-5" points="46.5 270 46.5 445.5 72.36 445.5"/>
    <line class="cls-5" x1="84.5" y1="270" x2="46.5" y2="270"/>
    <line class="cls-5" x1="84.5" y1="227.46" x2="84.5" y2="270"/>
    <line class="cls-5" x1="297.59" y1="269.66" x2="297.59" y2="227.46"/>
  </g>
  <g id="_레이어_15" data-name="레이어 15">
    <rect class="cls-5" x="1003.62" y="271.24" width="58.81" height="64.88"/>
  </g>
  <g id="_레이어_16" data-name="레이어 16">
    <polyline class="cls-5" points="298.07 269.5 358 269.5 357 336.5 297.59 336.5 297.59 267.95"/>
  </g>
  <g id="_레이어_14" data-name="레이어 14">
    <polygon class="cls-5" points="1062.43 271.24 1062.43 336.12 1134.5 336.12 1134.16 271.24 1062.43 271.24"/>
  </g>
  <g id="_레이어_11" data-name="레이어 11">
    <rect class="cls-5" x="907.09" y="442.14" width="96.53" height="83.86"/>
  </g>
  <g id="_레이어_13" data-name="레이어 13">
    <polygon class="cls-5" points="1278.69 286.5 1278.69 271.24 1134.16 271.24 1134.5 271.24 1134.5 336.5 1134.5 336.12 1278.69 336.12 1278.69 286.5"/>
  </g>
  <g id="_레이어_12" data-name="레이어 12">
    <rect class="cls-5" x="1003.62" y="442.14" width="289.58" height="83.86"/>
  </g>
  <g id="_레이어_10" data-name="레이어 10">
    <polyline class="cls-5" points="297.59 269.66 297.59 336.5 236.41 336.5 236.41 269.66 297.07 269.66"/>
  </g>
  <g id="_레이어_8" data-name="레이어 8">
    <polygon class="cls-5" points="262.85 526 262.85 445.5 166.91 445.5 167.11 526 262.85 526"/>
  </g>
  <g id="_레이어_9" data-name="레이어 9">
    <rect class="cls-5" x="262.85" y="445.5" width="94.15" height="80.5"/>
  </g>
  <g id="_레이어_6" data-name="레이어 6">
    <rect class="cls-5" x="84.5" y="270" width="60.5" height="68"/>
  </g>
  <g id="_레이어_7" data-name="레이어 7">
    <polyline class="cls-5" points="167.11 445.5 167.11 526 72 526 72.36 445.5 166.91 445.5"/>
  </g>
  <g id="_레이어_3" data-name="레이어 3">
    <rect class="cls-5" x="84.5" y="104.5" width="213.09" height="122.96"/>
  </g>
</svg>