<?xml version="1.0" encoding="UTF-8"?>
<svg xmlns="http://www.w3.org/2000/svg" viewBox="0 0 1362.07 768">
  <defs>
    <style>
      .cls-1 {
        fill: none;
        stroke: #000;
        stroke-miterlimit: 10;
      }

      .cls-2, .cls-3 {
        font-family: AdobeMyungjoStd-Medium-KSCpc-EUC-H, 'Adobe Myungjo Std';
        font-weight: 500;
      }

      .cls-3, .cls-4 {
        font-size: 18px;
      }

      .cls-5 {
        font-size: 21px;
      }
    </style>
  </defs>
  <g id="_레이어_2" data-name="레이어 2">
    <polyline class="cls-1" points="354.5 335 759 335 759 269.26 765.5 269.26 765.5 241.57 906.11 241.57 906.11 269.66 906.11 335"/>
    <line class="cls-1" x1="906.11" y1="269.5" x2="1000.5" y2="269.5"/>
    <polyline class="cls-1" points="71.5 444.91 46.86 444.91 46.86 268.5 83.5 268.5"/>
    <polyline class="cls-1" points="1277.19 284.3 1314.37 284.3 1314.37 440.96 1290.5 440.96"/>
    <text class="cls-3" transform="translate(48.43 288.06)"><tspan x="0" y="0">계단</tspan></text>
    <text class="cls-2" transform="translate(173.05 273.03)"><tspan class="cls-4"><tspan x="0" y="0">210</tspan></tspan><tspan class="cls-5"><tspan x="-35.62" y="25.2">계단강의실</tspan></tspan></text>
    <text class="cls-3" transform="translate(307.92 298.03)"><tspan x="0" y="0">남자</tspan><tspan x="-9" y="21.6">화장실</tspan></text>
    <text class="cls-3" transform="translate(788.92 268.03)"><tspan x="0" y="0">엘레베이터</tspan></text>
    <text class="cls-3" transform="translate(935.92 309.03)"><tspan x="0" y="0">계단</tspan></text>
    <text class="cls-3" transform="translate(1013.2 297.86)"><tspan x="0" y="0">여자</tspan><tspan x="-9" y="21.6">화장실</tspan></text>
    <text class="cls-3" transform="translate(1277.2 303.86)"><tspan x="0" y="0">계단</tspan></text>
    <text class="cls-3" transform="translate(97.65 489.65)"><tspan x="0" y="0">209</tspan></text>
    <text class="cls-3" transform="translate(195.65 489.65)"><tspan x="0" y="0">208</tspan></text>
    <text class="cls-3" transform="translate(291.65 489.65)"><tspan x="0" y="0">207</tspan></text>
    <text class="cls-3" transform="translate(485.65 489.65)"><tspan x="0" y="0">206</tspan></text>
    <text class="cls-3" transform="translate(752.65 489.65)"><tspan x="0" y="0">205</tspan></text>
    <text class="cls-3" transform="translate(1004.45 489.79)"><tspan x="0" y="0">204</tspan></text>
    <text class="cls-3" transform="translate(1196.45 489.79)"><tspan x="0" y="0">203</tspan></text>
    <text class="cls-3" transform="translate(1186.45 308.79)"><tspan x="0" y="0">202</tspan></text>
    <text class="cls-3" transform="translate(1080.45 308.79)"><tspan x="0" y="0">201</tspan></text>
  </g>
  <g id="_209" data-name="209">
    <polygon class="cls-1" points="71.5 444.91 71.5 440.96 166.33 440.96 166.33 524.5 71.5 524.5 71.5 444.91"/>
  </g>
  <g id="_208" data-name="208">
    <rect class="cls-1" x="166.33" y="440.96" width="95.34" height="83.54"/>
  </g>
  <g id="_207" data-name="207">
    <rect class="cls-1" x="261.67" y="440.96" width="96.13" height="83.54"/>
  </g>
  <g id="_206" data-name="206">
    <rect class="cls-1" x="357.8" y="440.96" width="272.5" height="83.54"/>
  </g>
  <g id="_205" data-name="205">
    <rect class="cls-1" x="630.3" y="440.96" width="275.8" height="83.54"/>
  </g>
  <g id="_204" data-name="204">
    <rect class="cls-1" x="906.11" y="440.96" width="227.87" height="83.54"/>
  </g>
  <g id="_203" data-name="203">
    <rect class="cls-1" x="1133.98" y="440.96" width="156.52" height="83.54"/>
  </g>
  <g id="_201" data-name="201">
    <rect class="cls-1" x="1061.58" y="269.5" width="72.4" height="65.5"/>
  </g>
  <g id="_202" data-name="202">
    <rect class="cls-1" x="1133.98" y="269.5" width="143.21" height="65.5"/>
  </g>
  <g id="_210" data-name="210">
    <polygon class="cls-1" points="83.5 227.5 83.5 335 296.5 335 296.5 269 296.5 227.5 83.5 227.5"/>
  </g>
  <g id="_남자화장실" data-name="남자화장실">
    <rect class="cls-1" x="296.5" y="268.5" width="58" height="66.5"/>
  </g>
  <g id="_여자화장시_" data-name="여자화장시ㅏㄹ">
    <rect class="cls-1" x="1000.5" y="269.5" width="61.08" height="65.5"/>
  </g>
</svg>