<?xml version="1.0" encoding="UTF-8"?>
<svg xmlns="http://www.w3.org/2000/svg" viewBox="0 0 1366 766.74">
  <defs>
    <style>
      .cls-1 {
        fill: none;
        stroke: #000;
        stroke-miterlimit: 10;
      }

      .cls-2, .cls-3 {
        font-family: AdobeMyungjoStd-Medium-KSCpc-EUC-H, 'Adobe Myungjo Std';
        font-weight: 500;
      }

      .cls-3, .cls-4 {
        font-size: 18px;
      }

      .cls-5 {
        font-size: 21px;
      }
    </style>
  </defs>
  <g id="_레이어_2" data-name="레이어 2">
    <polyline class="cls-1" points="357.5 334.14 762.11 334.14 762.11 268.5 767.65 268.5 767.65 240.38 908.09 240.38 908.09 269.4 908.09 334.14"/>
    <line class="cls-1" x1="908.09" y1="269.5" x2="1003.5" y2="269.5"/>
    <polyline class="cls-1" points="72.5 444.52 47.5 444.52 47.5 267.5 85.23 267.5"/>
    <polyline class="cls-1" points="1279.5 283.9 1318.5 283.9 1318.5 440.5 1293.5 440.5"/>
    <text class="cls-3" transform="translate(49.58 286.77)"><tspan x="0" y="0">계단</tspan></text>
    <text class="cls-3" transform="translate(938.71 308.6)"><tspan x="0" y="0">계단</tspan></text>
    <text class="cls-3" transform="translate(1280.92 302.81)"><tspan x="0" y="0">계단</tspan></text>
    <text class="cls-2" transform="translate(175.54 271.47)"><tspan class="cls-4"><tspan x="0" y="0">312</tspan></tspan><tspan class="cls-5"><tspan x="-35.62" y="25.2">계단강의실</tspan></tspan></text>
    <text class="cls-3" transform="translate(310.42 296.47)"><tspan x="0" y="0">남자</tspan><tspan x="-9" y="21.6">화장실</tspan></text>
    <text class="cls-3" transform="translate(791.42 268.47)"><tspan x="0" y="0">엘레베이터</tspan></text>
    <text class="cls-3" transform="translate(1016.18 296.96)"><tspan x="0" y="0">여자</tspan><tspan x="-9" y="21.6">화장실</tspan></text>
    <text class="cls-3" transform="translate(1083.31 308.96)"><tspan x="0" y="0">301</tspan></text>
    <text class="cls-3" transform="translate(1189.31 308.96)"><tspan x="0" y="0">302</tspan></text>
    <text class="cls-3" transform="translate(1252.31 488.96)"><tspan x="0" y="0">303</tspan></text>
    <text class="cls-3" transform="translate(1174.31 488.96)"><tspan x="0" y="0">304</tspan></text>
    <text class="cls-3" transform="translate(1053.31 488.96)"><tspan x="0" y="0">305</tspan></text>
    <text class="cls-3" transform="translate(904.31 488.96)"><tspan x="0" y="0">306</tspan></text>
    <text class="cls-3" transform="translate(744.31 488.96)"><tspan x="0" y="0">307</tspan></text>
    <text class="cls-3" transform="translate(584.38 489.36)"><tspan x="0" y="0">308</tspan></text>
    <text class="cls-3" transform="translate(424.38 489.36)"><tspan x="0" y="0">309</tspan></text>
    <text class="cls-3" transform="translate(268.38 489.36)"><tspan x="0" y="0">310</tspan></text>
    <text class="cls-3" transform="translate(125.38 489.36)"><tspan x="0" y="0">311</tspan></text>
  </g>
  <g id="_311" data-name="311">
    <polygon class="cls-1" points="216.84 524.5 72.5 524.5 72.5 444.52 72.5 440.5 216.84 440.5 216.84 524.5"/>
  </g>
  <g id="_310" data-name="310">
    <rect class="cls-1" x="216.84" y="440.5" width="142.95" height="84"/>
  </g>
  <g id="_309" data-name="309">
    <rect class="cls-1" x="359.78" y="440.5" width="161.93" height="84"/>
  </g>
  <g id="_308" data-name="308">
    <rect class="cls-1" x="521.71" y="440.5" width="161.29" height="84"/>
  </g>
  <g id="_307" data-name="307">
    <rect class="cls-1" x="683" y="440.5" width="160.47" height="84"/>
  </g>
  <g id="_306" data-name="306">
    <rect class="cls-1" x="843.47" y="440.5" width="160.35" height="84"/>
  </g>
  <g id="_305" data-name="305">
    <rect class="cls-1" x="1003.82" y="440.5" width="132.13" height="84"/>
  </g>
  <g id="_304" data-name="304">
    <rect class="cls-1" x="1135.96" y="440.5" width="104.97" height="84"/>
  </g>
  <g id="_303" data-name="303">
    <rect class="cls-1" x="1240.92" y="440.5" width="52.58" height="84"/>
  </g>
  <g id="_302" data-name="302">
    <rect class="cls-1" x="1135.16" y="269.5" width="144.34" height="65.57"/>
  </g>
  <g id="_301" data-name="301">
    <polygon class="cls-1" points="1063.5 335.07 1135.16 335.07 1135.16 269.5 1063.96 269.5 1063.5 335.07"/>
  </g>
  <g id="_여자화장실" data-name="여자화장실">
    <polyline class="cls-1" points="1063.5 269.5 1063.5 335.5 1063.5 335.07 1003.5 335.07 1003.5 269.5 1063.96 269.5"/>
  </g>
  <g id="_남자화장실" data-name="남자화장실">
    <rect class="cls-1" x="298.5" y="268.5" width="59" height="65.64"/>
  </g>
  <g id="_312" data-name="312">
    <polygon class="cls-1" points="298.5 227.33 298.5 268.08 298.5 334.14 85.63 334.14 85.23 267.5 85.23 227.33 298.5 227.33"/>
  </g>
</svg>