<?xml version="1.0" encoding="UTF-8"?>
<svg xmlns="http://www.w3.org/2000/svg" viewBox="0 0 1032.69 768">
  <defs>
    <style>
      .cls-1 {
        fill: none;
        stroke: #000;
        stroke-miterlimit: 10;
      }

      .cls-2 {
        stroke-width: 0px;
      }

      .cls-3 {
        font-size: 18px;
      }

      .cls-3, .cls-4, .cls-5, .cls-6, .cls-7 {
        font-family: AdobeMyungjoStd-Medium-KSCpc-EUC-H, 'Adobe Myungjo Std';
        font-weight: 500;
      }

      .cls-4 {
        font-size: 12px;
      }

      .cls-5 {
        font-size: 14px;
      }

      .cls-6 {
        font-size: 9.5px;
      }

      .cls-7 {
        font-size: 7px;
      }
    </style>
  </defs>
  <g id="_레이어_2" data-name="레이어 2">
    <line class="cls-1" x1="733" y1="744.5" x2="629" y2="744.5"/>
    <line class="cls-1" x1="968" y1="642.5" x2="968" y2="684"/>
    <line class="cls-1" x1="968" y1="555.5" x2="968" y2="576.5"/>
    <polyline class="cls-1" points="835.5 117.5 968 117.5 968 312"/>
    <line class="cls-1" x1="73.5" y1="117.5" x2="193.5" y2="117.5"/>
    <line class="cls-1" x1="73.5" y1="279" x2="73.5" y2="117.5"/>
    <line class="cls-1" x1="73.5" y1="684" x2="73.5" y2="656"/>
    <line class="cls-1" x1="193.5" y1="278.5" x2="129.5" y2="278.5"/>
    <line class="cls-1" x1="357" y1="278.5" x2="254" y2="278.5"/>
    <line class="cls-1" x1="387" y1="278.5" x2="357" y2="278.5"/>
    <line class="cls-1" x1="756" y1="278.5" x2="712" y2="278.5"/>
    <line class="cls-1" x1="835.5" y1="169.5" x2="968" y2="169.5"/>
    <polyline class="cls-1" points="129.5 278.5 129.5 169.5 193.5 169.5"/>
    <line class="cls-1" x1="922" y1="117.5" x2="922" y2="312"/>
    <line class="cls-1" x1="939" y1="555.5" x2="939" y2="576.5"/>
    <line class="cls-1" x1="193.5" y1="229.5" x2="193.5" y2="279"/>
    <line class="cls-1" x1="254" y1="229.5" x2="193.5" y2="229.5"/>
    <line class="cls-1" x1="357" y1="229.5" x2="254" y2="229.5"/>
    <line class="cls-1" x1="387" y1="229.5" x2="357" y2="229.5"/>
    <line class="cls-1" x1="756" y1="229.5" x2="712" y2="229.5"/>
    <line class="cls-1" x1="835.5" y1="546" x2="835.5" y2="512"/>
    <line class="cls-1" x1="835.5" y1="576.5" x2="835.5" y2="546"/>
    <line class="cls-1" x1="491" y1="642.5" x2="600" y2="642.5"/>
    <polyline class="cls-1" points="193.5 539.25 193.5 642.5 217 642.5"/>
    <line class="cls-1" x1="193.5" y1="487" x2="193.5" y2="539.25"/>
    <line class="cls-1" x1="193.5" y1="539.25" x2="254" y2="539.25"/>
    <line class="cls-1" x1="193.5" y1="576.5" x2="217" y2="576.5"/>
    <line class="cls-1" x1="835.5" y1="546" x2="788" y2="546"/>
    <line class="cls-1" x1="629" y1="684" x2="733" y2="684"/>
    <line class="cls-1" x1="788" y1="546" x2="788" y2="512"/>
    <line class="cls-1" x1="788" y1="576.5" x2="788" y2="546"/>
    <line class="cls-1" x1="491" y1="576.5" x2="600" y2="576.5"/>
    <line class="cls-1" x1="254" y1="539.25" x2="254" y2="576.5"/>
    <line class="cls-1" x1="254" y1="487" x2="254" y2="539.25"/>
    <line class="cls-1" x1="254" y1="229.5" x2="254" y2="278.5"/>
    <line class="cls-1" x1="357" y1="229.5" x2="357" y2="278.5"/>
    <line class="cls-1" x1="835.5" y1="278.5" x2="835.5" y2="312"/>
    <text class="cls-3" transform="translate(85.13 320)"><tspan x="0" y="0">351</tspan></text>
    <text class="cls-3" transform="translate(84.13 403)"><tspan x="0" y="0">349</tspan></text>
    <text class="cls-3" transform="translate(85.13 546)"><tspan x="0" y="0">345</tspan><tspan x="0" y="21.6">347</tspan></text>
    <text class="cls-3" transform="translate(113.13 722)"><tspan x="0" y="0">341</tspan></text>
    <text class="cls-3" transform="translate(219.13 722)"><tspan x="0" y="0">339</tspan></text>
    <text class="cls-5" transform="translate(280.67 722)"><tspan x="0" y="0">337-1</tspan></text>
    <text class="cls-3" transform="translate(360.13 722)"><tspan x="0" y="0">337</tspan></text>
    <text class="cls-3" transform="translate(456.13 722)"><tspan x="0" y="0">335</tspan></text>
    <text class="cls-3" transform="translate(563.13 722)"><tspan x="0" y="0">333</tspan></text>
    <text class="cls-3" transform="translate(762.13 722)"><tspan x="0" y="0">331</tspan></text>
    <text class="cls-3" transform="translate(881.13 722)"><tspan x="0" y="0">329</tspan></text>
    <text class="cls-3" transform="translate(359.13 616)"><tspan x="0" y="0">338</tspan></text>
    <text class="cls-3" transform="translate(438.13 616)"><tspan x="0" y="0">336</tspan></text>
    <text class="cls-3" transform="translate(642.13 616)"><tspan x="0" y="0">332</tspan></text>
    <text class="cls-5" transform="translate(728.67 616)"><tspan x="0" y="0">330-2</tspan></text>
    <text class="cls-5" transform="translate(783.67 616)"><tspan x="0" y="0">330-1</tspan></text>
    <text class="cls-3" transform="translate(922.13 616)"><tspan x="0" y="0">327</tspan></text>
    <text class="cls-3" transform="translate(795.13 491)"><tspan x="0" y="0">326</tspan></text>
    <text class="cls-3" transform="translate(795.13 441)"><tspan x="0" y="0">324</tspan></text>
    <text class="cls-3" transform="translate(795.13 396)"><tspan x="0" y="0">322</tspan></text>
    <text class="cls-3" transform="translate(795.13 349)"><tspan x="0" y="0">320</tspan></text>
    <text class="cls-5" transform="translate(921.67 349)"><tspan x="0" y="0">325-2</tspan></text>
    <text class="cls-5" transform="translate(921.67 403)"><tspan x="0" y="0">325-4</tspan></text>
    <text class="cls-5" transform="translate(921.67 458)"><tspan x="0" y="0">325-3</tspan></text>
    <text class="cls-5" transform="translate(921.67 505)"><tspan x="0" y="0">325-1</tspan></text>
    <text class="cls-3" transform="translate(207.13 458)"><tspan x="0" y="0">348</tspan></text>
    <text class="cls-3" transform="translate(207.13 379)"><tspan x="0" y="0">350</tspan></text>
    <text class="cls-3" transform="translate(207.13 312)"><tspan x="0" y="0">352</tspan></text>
    <text class="cls-3" transform="translate(286 264)"><tspan x="0" y="0">계단</tspan></text>
    <text class="cls-3" transform="translate(206 523)"><tspan x="0" y="0">계단</tspan></text>
    <g>
      <path class="cls-2" d="m240.69,595.19c0-.18-.45-.54-1.55-.97-.27-.09-.41-.2-.41-.29,0-.11.22-.2.65-.22.85.07,1.4.31,1.89.43.52.2.65.32.65.5,0,.12-.07.27-.07.49l-.02,4.86c.25-.02.43,0,.7-.04.94-.11.49-.5,1.8-.5.36,0,1.06,0,1.06.49,0,.22-.2.43-.5.45l-3.08.05c-.04,2.72-.68,3.03-.85,3.03-.14,0-.27-.2-.27-.72v-2.75c-2.29.9-6.79,2.16-9.09,2.14-.32,0-.68-.54-.68-1.28l-.07-3.44c-.22-.29-.61-.5-1.51-.72-.14-.02-.31-.07-.31-.16,0-.07.16-.16.61-.25,2.16.09,2.45.25,2.45.5,0,.04-.04.25-.04.31-.02,1.17-.07,2.7-.07,3.42,0,.5,0,.76.5.76.45,0,5.17-.4,8.21-1.64v-4.45Zm-6.75,10.21c-.09-.41-.4-.54-1.08-.81-.22-.05-.4-.13-.4-.22,0-.07.14-.14.52-.23.85,0,1.93.18,2.27.27l4.9-.09c.4-.05.49-.16.88-.16.36,0,1.06.07,1.06.31,0,.13-.2.29-.25.47-.36,1.39-.76,3.19-.85,3.73.63.04.92.27.92.47,0,.16-.22.31-.59.31h-6.14c-.14.74-.41,1.15-.63,1.15-.2,0-.36-.32-.36-1.03l-.25-4.16Zm1.15.59l.05,2.99,4.09-.07c.65-.04.56-.11,1.12-.23l.2-3.85-5.19.07c-.07.05-.27.11-.27.29v.81Z"/>
      <path class="cls-2" d="m254.19,597.24c.34-.05.29-.13.76-.13.97,0,1.13.07,1.13.23s-.31.41-.45.67c-.74,1.24-1.76,2.79-2.43,3.58.41.38,1.19,1.01,1.57,1.3.7.45.94.16,1.82,1.46.25.4.36.7.36.94,0,.25-.13.4-.32.4-.16,0-.34-.09-.54-.29-.52-.58-1.48-1.67-3.24-3.44-2.16,2.39-5.47,4.57-6.01,4.57-.05,0-.07-.02-.07-.04,0-.07.13-.22.41-.43,2.2-1.51,5.49-4.45,7.26-8.32-.95.04-3.26.18-3.84.22-.47.09-.54.31-.81.31-.36,0-1.84-.7-1.84-.92,0-.05.07-.09.22-.09.09,0,.2,0,.34.04.54.07,1.22.09,1.93.09,1.24,0,3.28-.09,3.76-.14Zm4.5-2c-.02-.31-.99-.74-1.75-1.08-.2-.07-.32-.16-.32-.23,0-.11.22-.2.76-.22.77.13,1.49.31,2.07.49.38.14.47.27.47.45,0,.14-.05.31-.05.58v6.55h.9c.85-.12.56-.47,1.71-.47.34,0,1.1,0,1.1.56,0,.25-.22.47-.61.47h-3.11l-.02,5.22c-.02,1.17-.14,1.91-.45,2.67-.14.22-.29.32-.41.32-.16,0-.27-.23-.27-.83v-14.48Z"/>
      <path class="cls-2" d="m225.59,626.1c-1.82-.16-2.83-1.37-2.83-2.54,0-1.1.85-2.2,2.68-2.5.13-.12.18-.25.18-.41,0-.2-.11-.41-.31-.61-.58.04-1.28.04-2.09.09-.41.07-.52.25-.77.25-.36,0-1.64-.74-1.64-.95,0-.05.05-.09.18-.09.07,0,.2.02.34.05.68.14,1.66.22,2.74.22s2.18-.07,3.28-.16h.11c1.01-.2.7-.56,1.91-.56.45,0,1.24,0,1.24.45,0,.22-.23.43-.68.47-.79.05-2.61.09-3.85.16.13.32.4.4.45.59v.07c0,.23-.13.25-.13.41v.02c1.85.25,2.74,1.41,2.74,2.54s-.9,2.23-2.5,2.41l.02,1.62c1.12-.11,3.75-.52,5.19-.99v-9.72c-.04-.29-.68-.7-1.6-1.04-.32-.09-.5-.2-.5-.29,0-.11.2-.18.63-.23.95.04,1.66.29,2.21.45.36.14.43.23.43.4,0,.13-.05.29-.05.52v7.35c.31,0,.63-.02.95-.05.49-.14.31-.47,1.73-.5.56.04.81.31.81.56,0,.22-.18.4-.52.41-.81.05-2.54.09-2.97.09v3.35c0,1.6-.05,2.66-.36,3.76-.13.36-.32.63-.49.63-.14,0-.25-.2-.27-.72v-4.59c-2.23.83-5.65,1.51-8.17,2.07-.34.09-.38.29-.65.29-.4,0-2.59-.97-2.59-1.31,0-.07.07-.11.2-.11.09,0,.2.02.34.05.4.09.9.14,1.42.14,1.04,0,2.23-.16,3.21-.36v-1.67Zm-.65-7.94c-.72-.04-1.51-1.01-1.51-1.13,0-.05.04-.09.14-.09.07,0,.2.02.38.07.54.09,1.73.27,3.26.27.59.02.97.29.97.52,0,.36-.63.36-1.46.36h-1.78Zm-1.13,5.37c0,.94.72,1.86,2.18,1.86s2.11-.92,2.11-1.86-.7-1.87-2.11-1.87-2.18.94-2.18,1.87Z"/>
      <path class="cls-2" d="m245.26,617.91c.38-.09.23-.16.86-.16.52,0,1.01.04,1.01.25,0,.16-.27.4-.41.58-.61.86-1.57,2.02-2.16,2.67.27.27.74.72,1.06.95.67.58.77,0,1.87,1.3.25.32.34.59.34.81s-.13.36-.32.36c-.14,0-.36-.11-.56-.31-.4-.38-1.51-1.51-2.75-2.79-2.97,2.63-5.62,3.66-5.92,3.66-.07,0-.09-.02-.09-.04,0-.05.11-.16.36-.31,2.23-1.22,5.38-3.64,6.88-6.5-.86.04-3.01.12-3.67.16-.36.07-.4.23-.65.23-.29,0-1.78-.59-1.78-.86,0-.05.09-.11.25-.11.07,0,.18.02.31.04.61.13,1.4.18,2.27.18.45,0,2.63-.11,3.12-.11Zm1.75,7.85c0-.14-.07-.32-.22-.47-.11-.07-.16-.16-.16-.23s.07-.13.22-.13c.34,0,1.19.36,1.19.61,0,.16-.2.31-.27.52,2,.36,2.94,1.64,2.94,2.88,0,1.39-1.22,2.92-3.55,2.92s-3.46-1.42-3.46-2.93c0-1.28.99-2.59,3.04-2.88.18-.02.27-.14.27-.29Zm-2.32,3.1c0,1.08.85,2.18,2.52,2.18s2.52-1.1,2.52-2.18-.85-2.21-2.52-2.21-2.52,1.1-2.52,2.21Zm5.01-11.94c-.02-.16-.5-.52-1.55-.97-.27-.09-.41-.2-.41-.29,0-.11.22-.18.65-.2.85.09,1.49.29,2.07.47.38.14.47.27.47.43,0,.13-.07.29-.07.5l-.02,4.99c.25-.02.43,0,.7-.04.81-.18.49-.5,1.75-.5.41,0,1.12,0,1.12.49,0,.22-.2.43-.5.45l-3.08.07c-.02,1.51-.13,2.29-.31,2.79-.16.36-.38.63-.54.63-.14,0-.27-.22-.27-.81v-8.01Z"/>
      <path class="cls-2" d="m256.42,624.3c3.96-2.2,5.67-5.62,5.67-5.87,0-.31-.81-.88-1.24-1.12-.11-.05-.22-.16-.22-.25,0-.07.09-.14.36-.14.68,0,2.63.9,2.63,1.3,0,.12-1.12,1.82-1.26,2.03.31.27.94.72,1.3.94,1.06.56,1.04.05,2.32,1.44.27.29.38.54.38.74s-.13.31-.34.31c-.2,0-.49-.11-.81-.4-.47-.4-2.14-1.8-3.21-2.65-1.84,2.23-5.13,4.02-5.78,4.02-.09,0-.13-.02-.13-.05,0-.05.11-.16.32-.29Zm5.2,4.79c-.04-.2-.38-.32-.95-.47-.18-.05-.34-.11-.34-.18,0-.04.2-.23.81-.23.76,0,1.57.13,1.76.22,1.66,0,2.67,0,4.38-.07.41-.04.59-.09.95-.16.04-.29.11-1.28.16-2.18-1.15,0-3.58.11-5.33.18-.52.11-.61.31-.92.31-.38,0-1.76-.59-1.76-.81,0-.05.09-.09.29-.09.07,0,.16,0,.27.02.61.05,1.48.09,2.47.09,1.46,0,3.17-.07,4.59-.16.34-.05.31-.13.68-.13.11,0,.23,0,.41.02.54.04.7.13.7.27,0,.12-.18.31-.25.49-.23.54-.5,1.3-.63,1.91.49.09.74.27.74.41s-.22.25-.61.25c-1.37.04-4.05.09-5.98.11-.18.11-.32.07-.32.29v1.57c.02.34.18.41.45.41.36,0,.9.02,1.53.02.92,0,2.02-.02,3.1-.04,1.08-.13.74-.47,1.85-.47.49,0,1.39,0,1.39.52,0,.22-.22.41-.61.41h-7.22c-1.31,0-1.6-.47-1.6-.99v-1.51Zm6.81-12.06c0-.32-.56-.74-1.57-1.12-.31-.11-.47-.22-.47-.31,0-.11.22-.18.65-.22.09,0,2.59.32,2.59.88,0,.13-.07.29-.07.52v5.15c0,.76-.07,1.84-.29,2.48-.16.41-.36.63-.52.63s-.29-.25-.29-.83l-.04-7.2Z"/>
    </g>
    <text class="cls-4" transform="translate(763 252)"><tspan x="0" y="0">남자</tspan><tspan x="-6" y="14.4">화장실</tspan></text>
    <text class="cls-4" transform="translate(803 253)"><tspan x="0" y="0">여자</tspan><tspan x="-6" y="14.4">화장실</tspan></text>
    <g>
      <path class="cls-2" d="m297.63,601.33c-.2,1.73-1.46,3.04-3.82,3.04-2.67,0-4.16-1.66-4.16-3.46,0-1.53,1.12-3.04,3.42-3.37.32-.07.65-.16.65-.49,0-.11-.05-.23-.13-.34-.11-.11-.18-.22-.18-.29,0-.05.05-.11.18-.11.5,0,1.13.5,1.13.68,0,.14-.22.27-.36.5,2.2.49,3.17,1.69,3.28,3.28l-.02.54Zm-6.84-.36c0,1.35.99,2.7,3.01,2.7,1.87,0,2.83-1.35,2.83-2.7s-.95-2.7-2.83-2.7c-2.02,0-3.01,1.35-3.01,2.7Zm10.69-5.51c-.04-.41-.79-.9-1.57-1.19-.29-.07-.63-.2-.63-.32,0-.16.56-.22.65-.22.25,0,2.77.31,2.77.92,0,.16-.11.34-.11.58l-.02,11.25c-.04,2.54-.23,3.51-.61,4.03-.07.09-.14.14-.2.14-.18,0-.29-.43-.29-1.12v-6.63c-.43.05-1.08.09-1.66.13-.32.09-.36.22-.59.22-.29,0-1.6-.49-1.6-.74,0-.05.07-.07.23-.07.07,0,.16,0,.29.02.32,0,.63.02.92.02.9,0,1.69-.05,2.41-.13v-3.24c-.76.02-1.39.07-1.69.09-.41.05-.45.23-.67.23-.29,0-1.48-.5-1.48-.74,0-.05.07-.09.23-.09.09,0,.2.02.34.04.5.02.9.02,1.24.02.7,0,1.19-.02,2.02-.07v-3.13Z"/>
      <path class="cls-2" d="m314.19,597.24c.34-.05.29-.13.76-.13.97,0,1.13.07,1.13.23s-.31.41-.45.67c-.74,1.24-1.76,2.79-2.43,3.58.41.38,1.19,1.01,1.57,1.3.7.45.94.16,1.82,1.46.25.4.36.7.36.94,0,.25-.13.4-.32.4-.16,0-.34-.09-.54-.29-.52-.58-1.48-1.67-3.24-3.44-2.16,2.39-5.47,4.57-6.01,4.57-.05,0-.07-.02-.07-.04,0-.07.13-.22.41-.43,2.2-1.51,5.49-4.45,7.26-8.32-.95.04-3.26.18-3.84.22-.47.09-.54.31-.81.31-.36,0-1.84-.7-1.84-.92,0-.05.07-.09.22-.09.09,0,.2,0,.34.04.54.07,1.22.09,1.93.09,1.24,0,3.28-.09,3.76-.14Zm4.5-2c-.02-.31-.99-.74-1.75-1.08-.2-.07-.32-.16-.32-.23,0-.11.22-.2.76-.22.77.13,1.49.31,2.07.49.38.14.47.27.47.45,0,.14-.05.31-.05.58v6.55h.9c.85-.12.56-.47,1.71-.47.34,0,1.1,0,1.1.56,0,.25-.22.47-.61.47h-3.11l-.02,5.22c-.02,1.17-.14,1.91-.45,2.67-.14.22-.29.32-.41.32-.16,0-.27-.23-.27-.83v-14.48Z"/>
      <path class="cls-2" d="m285.59,626.1c-1.82-.16-2.83-1.37-2.83-2.54,0-1.1.85-2.2,2.68-2.5.13-.12.18-.25.18-.41,0-.2-.11-.41-.31-.61-.58.04-1.28.04-2.09.09-.41.07-.52.25-.77.25-.36,0-1.64-.74-1.64-.95,0-.05.05-.09.18-.09.07,0,.2.02.34.05.68.14,1.66.22,2.74.22s2.18-.07,3.28-.16h.11c1.01-.2.7-.56,1.91-.56.45,0,1.24,0,1.24.45,0,.22-.23.43-.68.47-.79.05-2.61.09-3.85.16.13.32.4.4.45.59v.07c0,.23-.13.25-.13.41v.02c1.85.25,2.74,1.41,2.74,2.54s-.9,2.23-2.5,2.41l.02,1.62c1.12-.11,3.75-.52,5.19-.99v-9.72c-.04-.29-.68-.7-1.6-1.04-.32-.09-.5-.2-.5-.29,0-.11.2-.18.63-.23.95.04,1.66.29,2.21.45.36.14.43.23.43.4,0,.13-.05.29-.05.52v7.35c.31,0,.63-.02.95-.05.49-.14.31-.47,1.73-.5.56.04.81.31.81.56,0,.22-.18.4-.52.41-.81.05-2.54.09-2.97.09v3.35c0,1.6-.05,2.66-.36,3.76-.13.36-.32.63-.49.63-.14,0-.25-.2-.27-.72v-4.59c-2.23.83-5.65,1.51-8.17,2.07-.34.09-.38.29-.65.29-.4,0-2.59-.97-2.59-1.31,0-.07.07-.11.2-.11.09,0,.2.02.34.05.4.09.9.14,1.42.14,1.04,0,2.23-.16,3.21-.36v-1.67Zm-.65-7.94c-.72-.04-1.51-1.01-1.51-1.13,0-.05.04-.09.14-.09.07,0,.2.02.38.07.54.09,1.73.27,3.26.27.59.02.97.29.97.52,0,.36-.63.36-1.46.36h-1.78Zm-1.13,5.37c0,.94.72,1.86,2.18,1.86s2.11-.92,2.11-1.86-.7-1.87-2.11-1.87-2.18.94-2.18,1.87Z"/>
      <path class="cls-2" d="m305.26,617.91c.38-.09.23-.16.86-.16.52,0,1.01.04,1.01.25,0,.16-.27.4-.41.58-.61.86-1.57,2.02-2.16,2.67.27.27.74.72,1.06.95.67.58.77,0,1.87,1.3.25.32.34.59.34.81s-.13.36-.32.36c-.14,0-.36-.11-.56-.31-.4-.38-1.51-1.51-2.75-2.79-2.97,2.63-5.62,3.66-5.92,3.66-.07,0-.09-.02-.09-.04,0-.05.11-.16.36-.31,2.23-1.22,5.38-3.64,6.88-6.5-.86.04-3.01.12-3.67.16-.36.07-.4.23-.65.23-.29,0-1.78-.59-1.78-.86,0-.05.09-.11.25-.11.07,0,.18.02.31.04.61.13,1.4.18,2.27.18.45,0,2.63-.11,3.12-.11Zm1.75,7.85c0-.14-.07-.32-.22-.47-.11-.07-.16-.16-.16-.23s.07-.13.22-.13c.34,0,1.19.36,1.19.61,0,.16-.2.31-.27.52,2,.36,2.94,1.64,2.94,2.88,0,1.39-1.22,2.92-3.55,2.92s-3.46-1.42-3.46-2.93c0-1.28.99-2.59,3.04-2.88.18-.02.27-.14.27-.29Zm-2.32,3.1c0,1.08.85,2.18,2.52,2.18s2.52-1.1,2.52-2.18-.85-2.21-2.52-2.21-2.52,1.1-2.52,2.21Zm5.01-11.94c-.02-.16-.5-.52-1.55-.97-.27-.09-.41-.2-.41-.29,0-.11.22-.18.65-.2.85.09,1.49.29,2.07.47.38.14.47.27.47.43,0,.13-.07.29-.07.5l-.02,4.99c.25-.02.43,0,.7-.04.81-.18.49-.5,1.75-.5.41,0,1.12,0,1.12.49,0,.22-.2.43-.5.45l-3.08.07c-.02,1.51-.13,2.29-.31,2.79-.16.36-.38.63-.54.63-.14,0-.27-.22-.27-.81v-8.01Z"/>
      <path class="cls-2" d="m316.42,624.3c3.96-2.2,5.67-5.62,5.67-5.87,0-.31-.81-.88-1.24-1.12-.11-.05-.22-.16-.22-.25,0-.07.09-.14.36-.14.68,0,2.63.9,2.63,1.3,0,.12-1.12,1.82-1.26,2.03.31.27.94.72,1.3.94,1.06.56,1.04.05,2.32,1.44.27.29.38.54.38.74s-.13.31-.34.31c-.2,0-.49-.11-.81-.4-.47-.4-2.14-1.8-3.21-2.65-1.84,2.23-5.13,4.02-5.78,4.02-.09,0-.13-.02-.13-.05,0-.05.11-.16.32-.29Zm5.2,4.79c-.04-.2-.38-.32-.95-.47-.18-.05-.34-.11-.34-.18,0-.04.2-.23.81-.23.76,0,1.57.13,1.76.22,1.66,0,2.67,0,4.38-.07.41-.04.59-.09.95-.16.04-.29.11-1.28.16-2.18-1.15,0-3.58.11-5.33.18-.52.11-.61.31-.92.31-.38,0-1.76-.59-1.76-.81,0-.05.09-.09.29-.09.07,0,.16,0,.27.02.61.05,1.48.09,2.47.09,1.46,0,3.17-.07,4.59-.16.34-.05.31-.13.68-.13.11,0,.23,0,.41.02.54.04.7.13.7.27,0,.12-.18.31-.25.49-.23.54-.5,1.3-.63,1.91.49.09.74.27.74.41s-.22.25-.61.25c-1.37.04-4.05.09-5.98.11-.18.11-.32.07-.32.29v1.57c.02.34.18.41.45.41.36,0,.9.02,1.53.02.92,0,2.02-.02,3.1-.04,1.08-.13.74-.47,1.85-.47.49,0,1.39,0,1.39.52,0,.22-.22.41-.61.41h-7.22c-1.31,0-1.6-.47-1.6-.99v-1.51Zm6.81-12.06c0-.32-.56-.74-1.57-1.12-.31-.11-.47-.22-.47-.31,0-.11.22-.18.65-.22.09,0,2.59.32,2.59.88,0,.13-.07.29-.07.52v5.15c0,.76-.07,1.84-.29,2.48-.16.41-.36.63-.52.63s-.29-.25-.29-.83l-.04-7.2Z"/>
    </g>
    <text class="cls-3" transform="translate(716 264)"><tspan x="0" y="0">계단</tspan></text>
    <text class="cls-3" transform="translate(794 536)"><tspan x="0" y="0">계단</tspan></text>
    <text class="cls-3" transform="translate(527 616)"><tspan x="0" y="0">계단</tspan></text>
    <text class="cls-7" transform="translate(929.33 534)"><tspan x="0" y="0">남자 화장실</tspan></text>
    <text class="cls-7" transform="translate(929.33 550)"><tspan x="0" y="0">여자 화장실</tspan></text>
    <text class="cls-7" transform="translate(947 566)"><tspan x="0" y="0">엘레</tspan><tspan x="-3.5" y="8.4">베이터</tspan></text>
    <text class="cls-6" transform="translate(362.25 257.2)"><tspan x="0" y="0">엘레</tspan><tspan x="-4.75" y="11.4">베이터</tspan></text>
    <text class="cls-3" transform="translate(403 264)"><tspan x="0" y="0">310-1</tspan></text>
    <text class="cls-3" transform="translate(491 264)"><tspan x="0" y="0">310-2</tspan></text>
    <text class="cls-3" transform="translate(565.13 264)"><tspan x="0" y="0">314</tspan></text>
    <text class="cls-3" transform="translate(618.13 264)"><tspan x="0" y="0">316</tspan></text>
    <text class="cls-3" transform="translate(670.13 264)"><tspan x="0" y="0">318</tspan></text>
    <text class="cls-3" transform="translate(195.13 150)"><tspan x="0" y="0">301</tspan></text>
    <text class="cls-3" transform="translate(233.13 150)"><tspan x="0" y="0">303</tspan></text>
    <text class="cls-3" transform="translate(272.13 150)"><tspan x="0" y="0">305</tspan></text>
    <text class="cls-3" transform="translate(314.13 150)"><tspan x="0" y="0">307</tspan></text>
    <text class="cls-3" transform="translate(393.13 150)"><tspan x="0" y="0">309</tspan></text>
    <text class="cls-3" transform="translate(509.13 150)"><tspan x="0" y="0">311</tspan></text>
    <text class="cls-3" transform="translate(577.13 150)"><tspan x="0" y="0">313</tspan></text>
    <text class="cls-3" transform="translate(621.13 150)"><tspan x="0" y="0">315</tspan></text>
    <text class="cls-3" transform="translate(658.13 150)"><tspan x="0" y="0">317</tspan></text>
    <text class="cls-3" transform="translate(695.13 150)"><tspan x="0" y="0">319</tspan></text>
    <text class="cls-3" transform="translate(732.13 150)"><tspan x="0" y="0">321</tspan></text>
    <text class="cls-5" transform="translate(769.88 146)"><tspan x="0" y="0">323</tspan><tspan x="2.92" y="16.8">-1</tspan></text>
    <text class="cls-3" transform="translate(802.13 150)"><tspan x="0" y="0">323</tspan></text>
  </g>
  <g id="_348" data-name="348">
    <rect class="cls-1" x="193.5" y="412.75" width="60.5" height="74.25"/>
  </g>
  <g id="_350" data-name="350">
    <rect class="cls-1" x="193.5" y="337" width="60.5" height="75.75"/>
  </g>
  <g id="_352" data-name="352">
    <polyline class="cls-1" points="193.5 278.5 254 278.5 254 337 193.5 337 193.5 279"/>
  </g>
  <g id="_310-1" data-name="310-1">
    <rect class="cls-1" x="387" y="229.5" width="92" height="49"/>
  </g>
  <g id="_310-2" data-name="310-2">
    <rect class="cls-1" x="479" y="229.5" width="79" height="49"/>
  </g>
  <g id="_314" data-name="314">
    <rect class="cls-1" x="558" y="229.5" width="48" height="49"/>
  </g>
  <g id="_316" data-name="316">
    <rect class="cls-1" x="606" y="229.5" width="53" height="49"/>
  </g>
  <g id="_318" data-name="318">
    <rect class="cls-1" x="659" y="229.5" width="53" height="49"/>
  </g>
  <g id="_남자화장실3" data-name="남자화장실3">
    <rect class="cls-1" x="756" y="229.5" width="39" height="49"/>
  </g>
  <g id="_여자화장실3" data-name="여자화장실3">
    <rect class="cls-1" x="795" y="229.5" width="40.5" height="49"/>
  </g>
  <g id="_320" data-name="320">
    <rect class="cls-1" x="788" y="312" width="47.5" height="54"/>
  </g>
  <g id="_322" data-name="322">
    <rect class="cls-1" x="788" y="366" width="47.5" height="46.75"/>
  </g>
  <g id="_324" data-name="324">
    <rect class="cls-1" x="788" y="412.75" width="47.5" height="45.25"/>
  </g>
  <g id="_326" data-name="326">
    <rect class="cls-1" x="788" y="458" width="47.5" height="54"/>
  </g>
  <g id="_3301-1" data-name="3301-1">
    <polygon class="cls-1" points="779 642.5 835.5 642.5 835.5 576.5 788 576.5 779 576.5 779 642.5"/>
  </g>
  <g id="_330-2" data-name="330-2">
    <rect class="cls-1" x="722" y="576.5" width="57" height="66"/>
  </g>
  <g id="_332" data-name="332">
    <rect class="cls-1" x="600" y="576.5" width="122" height="66"/>
  </g>
  <g id="_336" data-name="336">
    <rect class="cls-1" x="417" y="576.5" width="74" height="66"/>
  </g>
  <g id="_338" data-name="338">
    <rect class="cls-1" x="336" y="576.5" width="81" height="66"/>
  </g>
  <g id="_여자화장실" data-name="여자화장실">
    <rect class="cls-1" x="275" y="576.5" width="61" height="66"/>
  </g>
  <g id="_남자화장실" data-name="남자화장실">
    <polygon class="cls-1" points="275 642.5 217 642.5 217 576.5 254 576.5 275 576.5 275 642.5"/>
  </g>
  <g id="_323" data-name="323">
    <rect class="cls-1" x="802" y="117.5" width="33.5" height="52"/>
  </g>
  <g id="_323-1" data-name="323-1">
    <rect class="cls-1" x="764" y="117.5" width="38" height="52"/>
  </g>
  <g id="_321" data-name="321">
    <rect class="cls-1" x="733" y="117.5" width="31" height="52"/>
  </g>
  <g id="_319" data-name="319">
    <rect class="cls-1" x="692" y="117.5" width="41" height="52"/>
  </g>
  <g id="_317" data-name="317">
    <polyline class="cls-1" points="692 117.5 659 117.5 659 169.5 692 169.5 692 117.5"/>
  </g>
  <g id="_315" data-name="315">
    <rect class="cls-1" x="617" y="117.5" width="42" height="52"/>
  </g>
  <g id="_313" data-name="313">
    <rect class="cls-1" x="572" y="117.5" width="45" height="52"/>
  </g>
  <g id="_311" data-name="311">
    <rect class="cls-1" x="473" y="117.5" width="99" height="52"/>
  </g>
  <g id="_309" data-name="309">
    <rect class="cls-1" x="353" y="117.5" width="120" height="52"/>
  </g>
  <g id="_307" data-name="307">
    <rect class="cls-1" x="308" y="117.5" width="45" height="52"/>
  </g>
  <g id="_305" data-name="305">
    <rect class="cls-1" x="269" y="117.5" width="39" height="52"/>
  </g>
  <g id="_303" data-name="303">
    <rect class="cls-1" x="231" y="117.5" width="38" height="52"/>
  </g>
  <g id="_301" data-name="301">
    <rect class="cls-1" x="193.5" y="117.5" width="37.5" height="52"/>
  </g>
  <g id="_325-2" data-name="325-2">
    <rect class="cls-1" x="922" y="312" width="46" height="54"/>
  </g>
  <g id="_325-4" data-name="325-4">
    <rect class="cls-1" x="922" y="366" width="46" height="58"/>
  </g>
  <g id="_325-3" data-name="325-3">
    <rect class="cls-1" x="922" y="424" width="46" height="50"/>
  </g>
  <g id="_325-1" data-name="325-1">
    <polygon class="cls-1" points="968 523 968 474 922 474 922 523 928 523 968 523"/>
  </g>
  <g id="_남자화장실2" data-name="남자화장실2">
    <rect class="cls-1" x="928" y="523" width="40" height="16.25"/>
  </g>
  <g id="_여자화장실2" data-name="여자화장실2">
    <rect class="cls-1" x="928" y="539.25" width="40" height="16.25"/>
  </g>
  <g id="_327" data-name="327">
    <rect class="cls-1" x="898" y="576.5" width="70" height="66"/>
  </g>
  <g id="_329" data-name="329">
    <rect class="cls-1" x="819" y="684" width="149" height="60.5"/>
  </g>
  <g id="_331" data-name="331">
    <path class="cls-1" d="m733,684h86c.5,5.5,0,60.5,0,60.5h-86s0-60.5,0-60.5Z"/>
  </g>
  <g id="_333" data-name="333">
    <rect class="cls-1" x="526" y="684" width="103" height="60.5"/>
  </g>
  <g id="_335" data-name="335">
    <rect class="cls-1" x="417" y="684" width="109" height="60.5"/>
  </g>
  <g id="_337" data-name="337">
    <rect class="cls-1" x="336" y="684" width="81" height="60.5"/>
  </g>
  <g id="_337-1" data-name="337-1">
    <rect class="cls-1" x="275" y="684" width="61" height="60.5"/>
  </g>
  <g id="_339" data-name="339">
    <rect class="cls-1" x="193.5" y="684" width="81.5" height="60.5"/>
  </g>
  <g id="_341" data-name="341">
    <rect class="cls-1" x="73.5" y="684" width="120" height="60.5"/>
  </g>
  <g id="_345" data-name="345">
    <rect class="cls-1" x="73.5" y="452" width="56" height="204"/>
  </g>
  <g id="_349" data-name="349">
    <rect class="cls-1" x="73.5" y="344" width="56" height="108"/>
  </g>
  <g id="_351" data-name="351">
    <polyline class="cls-1" points="73.5 279 73.5 344 129.5 344 129.5 278.5 73.5 278.5"/>
  </g>
</svg>