<?xml version="1.0" encoding="UTF-8"?>
<svg xmlns="http://www.w3.org/2000/svg" viewBox="0 0 1030.1 768">
  <defs>
    <style>
      .cls-1 {
        fill: none;
        stroke: #000;
        stroke-miterlimit: 10;
      }

      .cls-2 {
        font-size: 7.43px;
      }

      .cls-2, .cls-3, .cls-4, .cls-5, .cls-6, .cls-7 {
        font-family: AdobeMyungjoStd-Medium-KSCpc-EUC-H, 'Adobe Myungjo Std';
        font-weight: 500;
      }

      .cls-3 {
        font-size: 18px;
      }

      .cls-4 {
        font-size: 12px;
      }

      .cls-5 {
        font-size: 14px;
      }

      .cls-6 {
        font-size: 7px;
      }

      .cls-7 {
        font-size: 11px;
      }
    </style>
  </defs>
  <g id="_레이어_2" data-name="레이어 2">
    <polyline class="cls-1" points="195.5 95.5 76.5 95.5 76.5 258"/>
    <polyline class="cls-1" points="969.5 288 969.5 95.5 835.5 95.5"/>
    <line class="cls-1" x1="969.5" y1="554.5" x2="969.5" y2="534"/>
    <line class="cls-1" x1="969.5" y1="660" x2="969.5" y2="617"/>
    <line class="cls-1" x1="76.5" y1="631.5" x2="76.5" y2="660"/>
    <line class="cls-1" x1="835.5" y1="147.5" x2="969.5" y2="147.5"/>
    <polyline class="cls-1" points="134.5 258 134.5 147.5 195.5 147.5"/>
    <line class="cls-1" x1="925" y1="95.5" x2="925" y2="288"/>
    <line class="cls-1" x1="195.5" y1="207.5" x2="195.5" y2="258"/>
    <line class="cls-1" x1="257" y1="207.5" x2="195.5" y2="207.5"/>
    <line class="cls-1" x1="361" y1="207.5" x2="257" y2="207.5"/>
    <line class="cls-1" x1="389" y1="207.5" x2="361" y2="207.5"/>
    <line class="cls-1" x1="758" y1="207.5" x2="715" y2="207.5"/>
    <line class="cls-1" x1="835.5" y1="297.5" x2="835.5" y2="258"/>
    <line class="cls-1" x1="835.5" y1="524" x2="835.5" y2="495"/>
    <line class="cls-1" x1="835.5" y1="554.5" x2="835.5" y2="524"/>
    <line class="cls-1" x1="491" y1="617" x2="600" y2="617"/>
    <line class="cls-1" x1="195.5" y1="464" x2="195.5" y2="514"/>
    <line class="cls-1" x1="793" y1="524" x2="793" y2="495"/>
    <line class="cls-1" x1="793" y1="554.5" x2="793" y2="524"/>
    <line class="cls-1" x1="491" y1="554.5" x2="600" y2="554.5"/>
    <line class="cls-1" x1="257" y1="464" x2="257" y2="514"/>
    <line class="cls-1" x1="257" y1="207.5" x2="257" y2="258"/>
    <line class="cls-1" x1="361" y1="207.5" x2="361" y2="258"/>
    <line class="cls-1" x1="793" y1="524" x2="835.5" y2="524"/>
    <line class="cls-1" x1="715" y1="258" x2="758" y2="258"/>
    <line class="cls-1" x1="361" y1="258" x2="389" y2="258"/>
    <line class="cls-1" x1="257" y1="258" x2="361" y2="258"/>
    <line class="cls-1" x1="134.5" y1="258" x2="195.5" y2="258"/>
    <line class="cls-1" x1="939" y1="534" x2="939" y2="554.5"/>
    <text class="cls-3" transform="translate(89.13 280)"><tspan x="0" y="0">473</tspan></text>
    <text class="cls-3" transform="translate(88.13 312)"><tspan x="0" y="0">471</tspan></text>
    <text class="cls-3" transform="translate(89.13 343)"><tspan x="0" y="0">464</tspan></text>
    <text class="cls-3" transform="translate(88.13 381)"><tspan x="0" y="0">467</tspan></text>
    <text class="cls-3" transform="translate(89.13 412)"><tspan x="0" y="0">465</tspan></text>
    <text class="cls-3" transform="translate(88.13 454)"><tspan x="0" y="0">463</tspan></text>
    <text class="cls-3" transform="translate(89.13 501)"><tspan x="0" y="0">461</tspan></text>
    <text class="cls-3" transform="translate(88.13 550)"><tspan x="0" y="0">459</tspan></text>
    <text class="cls-3" transform="translate(89.13 606)"><tspan x="0" y="0">457</tspan></text>
    <text class="cls-3" transform="translate(120.13 698)"><tspan x="0" y="0">455</tspan></text>
    <text class="cls-3" transform="translate(224.13 698)"><tspan x="0" y="0">453</tspan></text>
    <text class="cls-3" transform="translate(290.13 698)"><tspan x="0" y="0">451</tspan></text>
    <text class="cls-3" transform="translate(369.13 698)"><tspan x="0" y="0">449</tspan></text>
    <text class="cls-3" transform="translate(456 698)"><tspan x="0" y="0">449-1</tspan></text>
    <text class="cls-3" transform="translate(567.13 698)"><tspan x="0" y="0">447</tspan></text>
    <text class="cls-3" transform="translate(649 698)"><tspan x="0" y="0">447-1</tspan></text>
    <text class="cls-3" transform="translate(746.13 698)"><tspan x="0" y="0">445</tspan></text>
    <text class="cls-3" transform="translate(808 698)"><tspan x="0" y="0">443-1</tspan></text>
    <text class="cls-5" transform="translate(875.67 698)"><tspan x="0" y="0">443-2</tspan></text>
    <text class="cls-3" transform="translate(930.13 698)"><tspan x="0" y="0">441</tspan></text>
    <text class="cls-3" transform="translate(933.13 591)"><tspan x="0" y="0">434</tspan><tspan x="3.75" y="21.6">-1</tspan></text>
    <text class="cls-3" transform="translate(895.13 591)"><tspan x="0" y="0">434</tspan><tspan x="3.75" y="21.6">-2</tspan></text>
    <text class="cls-3" transform="translate(776.13 591)"><tspan x="0" y="0">442</tspan></text>
    <text class="cls-3" transform="translate(699.13 591)"><tspan x="0" y="0">444</tspan></text>
    <text class="cls-3" transform="translate(622.13 591)"><tspan x="0" y="0">446</tspan></text>
    <text class="cls-3" transform="translate(394.13 591)"><tspan x="0" y="0">448</tspan></text>
    <text class="cls-3" transform="translate(209.13 433)"><tspan x="0" y="0">466</tspan></text>
    <text class="cls-3" transform="translate(233 586)"><tspan x="0" y="0">남자</tspan><tspan x="-9" y="21.6">화장실</tspan></text>
    <text class="cls-3" transform="translate(290 586)"><tspan x="0" y="0">여자</tspan><tspan x="-9" y="21.6">화장실</tspan></text>
    <text class="cls-4" transform="translate(805 232)"><tspan x="0" y="0">여자</tspan><tspan x="-6" y="14.4">화장실</tspan></text>
    <text class="cls-4" transform="translate(766 233)"><tspan x="0" y="0">남자</tspan><tspan x="-6" y="14.4">화장실</tspan></text>
    <text class="cls-5" transform="translate(212 534)"><tspan x="0" y="0">남자</tspan><tspan x="-7" y="16.8">샤워실</tspan></text>
    <text class="cls-3" transform="translate(209.13 362)"><tspan x="0" y="0">468</tspan></text>
    <text class="cls-3" transform="translate(209.13 296)"><tspan x="0" y="0">470</tspan></text>
    <text class="cls-3" transform="translate(198.13 129)"><tspan x="0" y="0">401</tspan></text>
    <text class="cls-3" transform="translate(235.13 129)"><tspan x="0" y="0">403</tspan></text>
    <text class="cls-3" transform="translate(291.13 129)"><tspan x="0" y="0">405</tspan></text>
    <text class="cls-3" transform="translate(350.13 129)"><tspan x="0" y="0">407</tspan></text>
    <text class="cls-3" transform="translate(414.13 129)"><tspan x="0" y="0">409</tspan></text>
    <text class="cls-3" transform="translate(478.13 129)"><tspan x="0" y="0">411</tspan></text>
    <text class="cls-3" transform="translate(521.13 129)"><tspan x="0" y="0">413</tspan></text>
    <text class="cls-3" transform="translate(565.13 129)"><tspan x="0" y="0">415</tspan></text>
    <text class="cls-3" transform="translate(617.13 129)"><tspan x="0" y="0">417</tspan></text>
    <text class="cls-3" transform="translate(672.13 129)"><tspan x="0" y="0">419</tspan></text>
    <text class="cls-3" transform="translate(719.13 129)"><tspan x="0" y="0">421</tspan></text>
    <text class="cls-3" transform="translate(761.13 129)"><tspan x="0" y="0">423</tspan></text>
    <text class="cls-3" transform="translate(800.13 129)"><tspan x="0" y="0">425</tspan></text>
    <text class="cls-3" transform="translate(395.13 241)"><tspan x="0" y="0">408</tspan></text>
    <text class="cls-3" transform="translate(291 241)"><tspan x="0" y="0">계단</tspan></text>
    <text class="cls-3" transform="translate(528 593)"><tspan x="0" y="0">계단</tspan></text>
    <text class="cls-3" transform="translate(718 241)"><tspan x="0" y="0">계단</tspan></text>
    <text class="cls-6" transform="translate(931.33 511)"><tspan x="0" y="0">남자 화장실</tspan></text>
    <text class="cls-6" transform="translate(931.33 528)"><tspan x="0" y="0">여자 화장실</tspan></text>
    <text class="cls-2" transform="translate(945.72 542.98)"><tspan x="0" y="0">엘리</tspan><tspan x="-3.72" y="8.92">베이터</tspan></text>
    <text class="cls-2" transform="translate(367.72 231.98)"><tspan x="0" y="0">엘리</tspan><tspan x="-3.72" y="8.92">베이터</tspan></text>
    <text class="cls-3" transform="translate(796 517)"><tspan x="0" y="0">계단</tspan></text>
    <text class="cls-3" transform="translate(208 499)"><tspan x="0" y="0">계단</tspan></text>
    <text class="cls-3" transform="translate(439.13 241)"><tspan x="0" y="0">412</tspan></text>
    <text class="cls-7" transform="translate(476.67 241)"><tspan x="0" y="0">412-1</tspan></text>
    <text class="cls-7" transform="translate(518.67 241)"><tspan x="0" y="0">412-2</tspan></text>
    <text class="cls-3" transform="translate(565.13 241)"><tspan x="0" y="0">414</tspan></text>
    <text class="cls-3" transform="translate(616.13 241)"><tspan x="0" y="0">416</tspan></text>
    <text class="cls-3" transform="translate(670.13 241)"><tspan x="0" y="0">418</tspan></text>
    <text class="cls-3" transform="translate(797.13 328)"><tspan x="0" y="0">426</tspan></text>
    <text class="cls-3" transform="translate(797.13 371)"><tspan x="0" y="0">428</tspan></text>
    <text class="cls-3" transform="translate(797.13 408)"><tspan x="0" y="0">430</tspan></text>
    <text class="cls-3" transform="translate(797.13 441)"><tspan x="0" y="0">432</tspan></text>
    <text class="cls-3" transform="translate(797.13 470)"><tspan x="0" y="0">434</tspan></text>
    <text class="cls-3" transform="translate(797.13 492)"><tspan x="0" y="0">436</tspan></text>
    <text class="cls-3" transform="translate(930.13 325)"><tspan x="0" y="0">427</tspan></text>
    <text class="cls-3" transform="translate(930.13 377)"><tspan x="0" y="0">429</tspan></text>
    <text class="cls-3" transform="translate(930.13 418)"><tspan x="0" y="0">431</tspan></text>
    <text class="cls-3" transform="translate(930.13 445)"><tspan x="0" y="0">433</tspan></text>
    <text class="cls-3" transform="translate(930.13 470)"><tspan x="0" y="0">435</tspan></text>
    <text class="cls-3" transform="translate(930.13 495)"><tspan x="0" y="0">437</tspan></text>
  </g>
  <g id="_408" data-name="408">
    <rect class="cls-1" x="389" y="207.5" width="46" height="50.5"/>
  </g>
  <g id="_412" data-name="412">
    <rect class="cls-1" x="435" y="207.5" width="41" height="50.5"/>
  </g>
  <g id="_412-1" data-name="412-1">
    <rect class="cls-1" x="476" y="207.5" width="39.5" height="50.5"/>
  </g>
  <g id="_412-2" data-name="412-2">
    <rect class="cls-1" x="515.5" y="207.5" width="42.5" height="50.5"/>
  </g>
  <g id="_414" data-name="414">
    <rect class="cls-1" x="558" y="207.5" width="49" height="50.5"/>
  </g>
  <g id="_416" data-name="416">
    <rect class="cls-1" x="607" y="207.5" width="55" height="50.5"/>
  </g>
  <g id="_418" data-name="418">
    <rect class="cls-1" x="662" y="207.5" width="53" height="50.5"/>
  </g>
  <g id="_남자화장실3" data-name="남자화장실3">
    <rect class="cls-1" x="758" y="207.5" width="40" height="50.5"/>
  </g>
  <g id="_여자화장실3" data-name="여자화장실3">
    <rect class="cls-1" x="798" y="207.5" width="37.5" height="50.5"/>
  </g>
  <g id="_426" data-name="426">
    <rect class="cls-1" x="793" y="297.5" width="42.5" height="45.5"/>
  </g>
  <g id="_428" data-name="428">
    <rect class="cls-1" x="793" y="343" width="42.5" height="41"/>
  </g>
  <g id="_430" data-name="430">
    <rect class="cls-1" x="793" y="384" width="42.5" height="34"/>
  </g>
  <g id="_432" data-name="432">
    <rect class="cls-1" x="793" y="418" width="42.5" height="33"/>
  </g>
  <g id="_434" data-name="434">
    <rect class="cls-1" x="793" y="451" width="42.5" height="24"/>
  </g>
  <g id="_436" data-name="436">
    <rect class="cls-1" x="793" y="475" width="42.5" height="20"/>
  </g>
  <g id="_442" data-name="442">
    <polygon class="cls-1" points="754 617 835.5 617 835.5 554.5 793 554.5 754 554.5 754 617"/>
  </g>
  <g id="_444" data-name="444">
    <rect class="cls-1" x="679" y="554.5" width="75" height="62.5"/>
  </g>
  <g id="_446" data-name="446">
    <rect class="cls-1" x="600" y="554.5" width="79" height="62.5"/>
  </g>
  <g id="_448" data-name="448">
    <rect class="cls-1" x="337" y="554.5" width="154" height="62.5"/>
  </g>
  <g id="_여자화장실" data-name="여자화장실">
    <rect class="cls-1" x="278" y="554.5" width="59" height="62.5"/>
  </g>
  <g id="_남자화장실" data-name="남자화장실">
    <polygon class="cls-1" points="257 554.5 278 554.5 278 617 224 617 224 554.5 257 554.5"/>
  </g>
  <g id="_님지샤워실" data-name="님지샤워실">
    <polygon class="cls-1" points="224 617 224 554.5 257 554.5 257 514 195.5 514 195.5 617 224 617"/>
  </g>
  <g id="_466" data-name="466">
    <rect class="cls-1" x="195.5" y="389.5" width="61.5" height="74.5"/>
  </g>
  <g id="_468" data-name="468">
    <rect class="cls-1" x="195.5" y="320" width="61.5" height="69.5"/>
  </g>
  <g id="_470" data-name="470">
    <rect class="cls-1" x="195.5" y="258" width="61.5" height="62"/>
  </g>
  <g id="_401" data-name="401">
    <rect class="cls-1" x="195.5" y="95.5" width="38.5" height="52"/>
  </g>
  <g id="_403" data-name="403">
    <rect class="cls-1" x="234" y="95.5" width="37" height="52"/>
  </g>
  <g id="_405" data-name="405">
    <rect class="cls-1" x="271" y="95.5" width="75" height="52"/>
  </g>
  <g id="_407" data-name="407">
    <rect class="cls-1" x="346" y="95.5" width="43" height="52"/>
  </g>
  <g id="_409" data-name="409">
    <rect class="cls-1" x="389" y="95.5" width="87" height="52"/>
  </g>
  <g id="_411" data-name="411">
    <polygon class="cls-1" points="515.05 147.5 476 147.5 476 95.5 515.5 95.5 515.05 147.5"/>
  </g>
  <g id="_413" data-name="413">
    <polygon class="cls-1" points="558 147.5 515.05 147.5 515.5 95.5 558 95.5 558 147.5"/>
  </g>
  <g id="_415" data-name="415">
    <rect class="cls-1" x="558" y="95.5" width="49" height="52"/>
  </g>
  <g id="_417" data-name="417">
    <rect class="cls-1" x="607" y="95.5" width="55" height="52"/>
  </g>
  <g id="_419" data-name="419">
    <rect class="cls-1" x="662" y="95.5" width="53" height="52"/>
  </g>
  <g id="_421" data-name="421">
    <rect class="cls-1" x="715" y="95.5" width="43" height="52"/>
  </g>
  <g id="_423" data-name="423">
    <rect class="cls-1" x="758" y="95.5" width="40" height="52"/>
  </g>
  <g id="_425" data-name="425">
    <rect class="cls-1" x="798" y="95.5" width="37.5" height="52"/>
  </g>
  <g id="_427" data-name="427">
    <rect class="cls-1" x="925" y="288" width="44.5" height="55"/>
  </g>
  <g id="_429" data-name="429">
    <rect class="cls-1" x="925" y="343" width="44.5" height="56"/>
  </g>
  <g id="_431" data-name="431">
    <rect class="cls-1" x="925" y="399" width="44.5" height="27"/>
  </g>
  <g id="_433" data-name="433">
    <rect class="cls-1" x="925" y="426" width="44.5" height="25"/>
  </g>
  <g id="_435" data-name="435">
    <rect class="cls-1" x="925" y="451" width="44.5" height="24"/>
  </g>
  <g id="_437" data-name="437">
    <polyline class="cls-1" points="969.5 475 925 475 925 499.5 931.5 499.5 969.5 499.5 969.5 475"/>
  </g>
  <g id="_남자화장실2" data-name="남자화장실2">
    <rect class="cls-1" x="931.5" y="499.5" width="38" height="17.25"/>
  </g>
  <g id="_여자화장실2" data-name="여자화장실2">
    <rect class="cls-1" x="931.5" y="516.75" width="38" height="17.25"/>
  </g>
  <g id="_434-2" data-name="434-2">
    <rect class="cls-1" x="893.5" y="554.5" width="38" height="62.5"/>
  </g>
  <g id="_434-1" data-name="434-1">
    <rect class="cls-1" x="931.5" y="554.5" width="38" height="62.5"/>
  </g>
  <g id="_441" data-name="441">
    <rect class="cls-1" x="925" y="660" width="44.5" height="61"/>
  </g>
  <g id="_443-2" data-name="443-2">
    <rect class="cls-1" x="874" y="660" width="51" height="61"/>
  </g>
  <g id="_443-1" data-name="443-1">
    <rect class="cls-1" x="802" y="660" width="72" height="61"/>
  </g>
  <g id="_445" data-name="445">
    <rect class="cls-1" x="724" y="660" width="78" height="61"/>
  </g>
  <g id="_447-1" data-name="447-1">
    <rect class="cls-1" x="633" y="660" width="91" height="61"/>
  </g>
  <g id="_447" data-name="447">
    <rect class="cls-1" x="535" y="660" width="98" height="61"/>
  </g>
  <g id="_449-1" data-name="449-1">
    <rect class="cls-1" x="435" y="660" width="100" height="61"/>
  </g>
  <g id="_449" data-name="449">
    <rect class="cls-1" x="337" y="660" width="98" height="61"/>
  </g>
  <g id="_451" data-name="451">
    <rect class="cls-1" x="278" y="660" width="59" height="61"/>
  </g>
  <g id="_453" data-name="453">
    <rect class="cls-1" x="195.5" y="660" width="82.5" height="61"/>
  </g>
  <g id="_455" data-name="455">
    <rect class="cls-1" x="76.5" y="660" width="119" height="61"/>
  </g>
  <g id="_457" data-name="457">
    <rect class="cls-1" x="76.5" y="566" width="58" height="65.5"/>
  </g>
  <g id="_459" data-name="459">
    <polyline class="cls-1" points="76.5 519 76.5 566 134.5 566 134.5 519"/>
  </g>
  <g id="_461" data-name="461">
    <rect class="cls-1" x="76.5" y="470" width="58" height="49"/>
  </g>
  <g id="_463" data-name="463">
    <rect class="cls-1" x="76.5" y="426" width="58" height="44"/>
  </g>
  <g id="_465" data-name="465">
    <rect class="cls-1" x="76.5" y="389.5" width="58" height="36.5"/>
  </g>
  <g id="_467" data-name="467">
    <rect class="cls-1" x="76.5" y="354" width="58" height="35.5"/>
  </g>
  <g id="_464" data-name="464">
    <rect class="cls-1" x="76.5" y="320" width="58" height="34"/>
  </g>
  <g id="_471" data-name="471">
    <rect class="cls-1" x="76.5" y="288" width="58" height="32"/>
  </g>
  <g id="_473" data-name="473">
    <rect class="cls-1" x="76.5" y="258" width="58" height="30"/>
  </g>
</svg>